<?xml version="1.0" encoding="utf-8"?>
<!-- Generator: Adobe Illustrator 22.0.0, SVG Export Plug-In . SVG Version: 6.00 Build 0)  -->
<svg version="1.1" id="Layer_1" xmlns="http://www.w3.org/2000/svg" xmlns:xlink="http://www.w3.org/1999/xlink" x="0px" y="0px"
	 viewBox="0 0 517.3 134.4" style="enable-background:new 0 0 517.3 134.4;" xml:space="preserve">
<style type="text/css">
	.st0{fill:#1B1B2D;}
	.st1{fill:#1B1B27;}
</style>
<g>
	<g>
		<path class="st0" d="M264.1,67.2c0,29-17.8,48.4-45.9,48.4c-22.1,0-37.2-12.9-40.4-32.7h16.2c3.2,11.7,11.7,19.2,25.1,19.2
			c16.1,0,26.9-11.3,29-28.6h-36.6V60.1h36.6c-2.1-16.8-12.3-27.6-28-27.6c-13.6,0-22.2,7.4-25.3,19.1h-16.2
			c3.3-19.8,18.9-32.7,40.9-32.7C247.3,18.8,264.1,37.9,264.1,67.2z"/>
		<path class="st0" d="M265.6,114.8v-13.8h2.4c9.8,0,14.1-6.2,14.1-34.3V19.6h68.7v95.1h-15.6V33.5H297v34.2
			c0,35.5-8.5,47.1-27.1,47.1H265.6z"/>
		<path class="st0" d="M362.4,19.6h74.3v13.8h-29.4v81.3h-15.6V33.5h-29.4V19.6H362.4z"/>
		<path class="st0" d="M427.7,114.8l35.6-95.1h18.6l35.5,95.1h-16.7l-8.9-23.5h-39l-8.8,23.5H427.7z M457.1,77.9h30.3l-15.2-41.5
			L457.1,77.9z"/>
	</g>
	<g>
		<path class="st1" d="M126.8,67.2c0,14.7-4.6,29.1-13.1,41.1s-20.5,21.1-34.4,26.1v-17.1c9.5-4.5,17.5-11.6,23.1-20.5
			s8.6-19.2,8.6-29.7s-3-20.8-8.6-29.6c-5.6-8.9-13.7-16-23.2-20.4V0c13.9,4.9,26,14,34.5,26C122.3,38.1,126.8,52.5,126.8,67.2z"/>
		<rect y="59.3" class="st1" width="63.4" height="15.8"/>
		<path class="st1" d="M95.1,67.2c0-5.2-1-10.3-3-15.2c-2-4.8-4.9-9.2-8.6-12.8c-3.7-3.7-8.1-6.6-12.9-8.6s-10-3-15.2-3H31.7v15.8
			h47.5v47.5H31.7v15.8h23.8c5.2,0,10.4-1,15.2-3s9.2-4.9,12.9-8.6c3.7-3.7,6.6-8,8.6-12.8C94.1,77.5,95.1,72.4,95.1,67.2z"/>
	</g>
</g>
</svg>
