<?xml version="1.0" encoding="utf-8"?>
<!-- Generator: Adobe Illustrator 22.0.0, SVG Export Plug-In . SVG Version: 6.00 Build 0)  -->
<svg version="1.1" id="Layer_1" xmlns="http://www.w3.org/2000/svg" xmlns:xlink="http://www.w3.org/1999/xlink" x="0px" y="0px"
	 viewBox="0 0 839.4 242.5" style="enable-background:new 0 0 839.4 242.5;" xml:space="preserve">
<style type="text/css">
	.st0{fill:#1B1B2D;}
</style>
<g>
	<path class="st0" d="M382.6,194.5c-11.5,0-21.8-2.4-30.8-7.2c-9-4.8-16.3-11.1-22-19c-5.7-7.8-9.5-16.4-11.4-25.6h25
		c1.6,5.3,4.2,10.1,7.7,14.4c3.5,4.3,8,7.7,13.4,10.3c5.4,2.5,11.4,3.8,18.1,3.8c7.6,0,14.4-1.8,20.6-5.3
		c6.2-3.5,11.1-8.3,14.9-14.2c3.8-6,6.1-12.5,6.9-19.5h-58.7v-21.9h58.7c-0.8-6.9-3.1-13.3-6.9-19.2c-3.8-5.9-8.8-10.6-14.9-14.1
		c-6.2-3.5-13-5.3-20.6-5.3c-9.7,0-18.1,2.6-25,7.8c-6.9,5.2-11.6,11.7-14.2,19.6h-25c2.2-8.9,6.1-17.3,11.9-25
		c5.8-7.7,13.1-13.9,22-18.7c8.9-4.7,19-7.1,30.2-7.1c12.6,0,24.1,3.1,34.6,9.3c10.5,6.2,18.7,14.9,24.8,26c6,11.1,9,23.7,9,37.8
		c0,14.1-3,26.7-9,37.8c-6,11.1-14.3,19.8-24.8,26C406.8,191.4,395.2,194.5,382.6,194.5z"/>
	<path class="st0" d="M457.6,193.5v-24h5.7c4.6,0,8.2-1.3,10.9-4c2.6-2.6,4.2-6.8,4.8-12.5l8.7-102.7h94v142.1H557V73.7h-47.1
		l-7.1,83.4c-0.9,12.3-4.5,21.5-10.7,27.4c-6.2,6-14.7,8.9-25.7,8.9H457.6z"/>
	<path class="st0" d="M641.9,192.5V73.7h-43.2V50.4h110.8v23.3h-43.2v118.8H641.9z"/>
	<path class="st0" d="M701.2,192.5l51.4-142.1H788l51.4,142.1h-26.6L772.4,76.3h-4.1l-40.6,116.1H701.2z M734,160v-21.9h72.9V160
		H734z"/>
</g>
<g>
	<path class="st0" d="M229.1,121.2c0,26.6-8.2,52.5-23.6,74.3c-15.4,21.7-37.1,38.2-62.2,47v-30.8c17.2-8.1,31.6-20.9,41.8-37
		c10.1-16.1,15.5-34.6,15.5-53.5s-5.4-37.5-15.6-53.5c-10.1-16.1-24.6-28.8-41.8-36.9V0c25.1,8.9,46.9,25.3,62.3,47
		C220.8,68.6,229.1,94.7,229.1,121.2z"/>
	<rect y="106.9" class="st0" width="114.5" height="28.6"/>
	<path class="st0" d="M171.8,121.2c0-9.4-1.8-18.7-5.4-27.4s-8.9-16.5-15.5-23.2c-6.6-6.6-14.6-11.9-23.2-15.5s-18-5.4-27.4-5.4
		H57.4v28.5h85.9V164H57.4v28.6h42.9c9.4,0,18.7-1.8,27.4-5.4c8.7-3.6,16.6-8.9,23.2-15.5s11.9-14.5,15.5-23.2
		C170,139.9,171.8,130.6,171.8,121.2z"/>
</g>
</svg>
