<?xml version="1.0" encoding="utf-8"?>
<!-- Generator: Adobe Illustrator 22.0.0, SVG Export Plug-In . SVG Version: 6.00 Build 0)  -->
<svg version="1.1" id="Layer_1" xmlns="http://www.w3.org/2000/svg" xmlns:xlink="http://www.w3.org/1999/xlink" x="0px" y="0px"
	 viewBox="0 0 1600 1163.6" style="enable-background:new 0 0 1600 1163.6;" xml:space="preserve">
<style type="text/css">
	.st0{fill:#FFFFFF;}
	.st1{fill:#D1D1D5;}
	.st2{fill:#868690;}
	.st3{fill:#1B1B2D;}
	.st4{fill:#A4A4AB;}
	.st5{fill:#E8E8EA;}
	.st6{fill:#738CEA;}
	.st7{fill:#E6E7E7;}
	.st8{fill:#4159A3;}
	.st9{fill:none;stroke:#738CEA;stroke-miterlimit:10;}
</style>
<rect class="st0" width="1600" height="1163.6"/>
<g>
	<path class="st1" d="M113.2,209.6c0,44.2,35.8,80,80,80s80-35.8,80-80H113.2z"/>
	<path class="st2" d="M113.2,209.6h80v-80C149,129.6,113.2,165.4,113.2,209.6z"/>
	<path class="st3" d="M193.2,129.6v80h80C273.2,165.4,237.4,129.6,193.2,129.6z"/>
</g>
<g>
	<polygon class="st3" points="458.1,129.6 378.1,129.6 378.1,289.6 458.1,289.6 458.1,209.6 	"/>
	<rect x="458.1" y="129.6" class="st1" width="80" height="80"/>
	<rect x="458.1" y="209.6" class="st2" width="80" height="80"/>
</g>
<g>
	<rect x="646" y="242.6" class="st2" width="184" height="24"/>
	<rect x="646" y="197.6" class="st3" width="214" height="24"/>
	<rect x="646" y="152.6" class="st1" width="128" height="24"/>
</g>
<g>
	<rect x="1095.8" y="152" class="st2" width="24" height="137.6"/>
	<rect x="1050.8" y="129.6" class="st3" width="24" height="160"/>
	<rect x="1005.8" y="193.8" class="st1" width="24" height="95.7"/>
</g>
<g>
	<g>
		<path class="st3" d="M656,554c-1.2,0-2.4-0.7-3.1-1.8c-0.9-1.7-0.3-3.8,1.4-4.7l84.3-45.7l31.5,9.8l70.5-65.6
			c1.4-1.3,3.6-1.2,4.9,0.2c1.3,1.4,1.2,3.6-0.2,4.9l-73.5,68.4l-32.5-10.2l-81.7,44.3C657.1,553.8,656.6,554,656,554z"/>
	</g>
	<g>
		<g>
			<path class="st2" d="M736.9,540l-0.7-0.2l-81-18c-1.9-0.4-3.1-2.3-2.7-4.2c0.4-1.9,2.3-3.1,4.2-2.7l80.3,17.8L846.3,512
				c1.9-0.4,3.7,0.9,4.1,2.8s-0.9,3.7-2.8,4.1L736.9,540z"/>
		</g>
	</g>
	<g>
		<path class="st1" d="M656,570c-1.6,0-3.1-1.1-3.4-2.8c-0.4-1.9,0.8-3.8,2.7-4.2l67.9-14.8l29.9-32l42.2,18.1l52.3-46.5
			c1.4-1.3,3.7-1.2,4.9,0.3c1.3,1.4,1.2,3.7-0.3,4.9l-55.7,49.5l-41.8-17.9l-28.1,30l-70.1,15.2C656.5,569.9,656.2,570,656,570z"/>
	</g>
</g>
<g>
	<path class="st3" d="M1398.9,173.7c9.2,9.2,14.8,21.9,14.8,35.9c0,28.2-22.8,51-51,51c-14,0-26.7-5.7-35.9-14.8l-20.5,20.5
		c14.5,14.4,34.4,23.3,56.4,23.3c44.2,0,80-35.8,80-80c0-22-8.9-42-23.3-56.4L1398.9,173.7z"/>
	<path class="st4" d="M1311.7,209.6h-29c0,22.2,9,42.2,23.6,56.7l20.5-20.5C1317.5,236.5,1311.7,223.7,1311.7,209.6z"/>
	<path class="st5" d="M1362.7,158.6c14.1,0,26.9,5.8,36.2,15.1l20.5-20.5c-14.5-14.6-34.5-23.6-56.7-23.6c-0.2,0-0.3,0-0.5,0v29
		C1362.4,158.6,1362.5,158.6,1362.7,158.6z"/>
	<path class="st2" d="M1362.2,158.6v-29c-44,0.3-79.5,36-79.5,80h29C1311.7,181.6,1334.3,158.9,1362.2,158.6z"/>
</g>
<g>
	<g>
		<path class="st3" d="M1050.8,510.7h-45c-1.9,0-3.5-1.6-3.5-3.5s1.6-3.5,3.5-3.5h45c1.9,0,3.5,1.6,3.5,3.5
			S1052.7,510.7,1050.8,510.7z"/>
	</g>
	<g>
		<path class="st2" d="M1200.8,510.7h-53c-1.9,0-3.5-1.6-3.5-3.5s1.6-3.5,3.5-3.5h53c1.9,0,3.5,1.6,3.5,3.5
			S1202.7,510.7,1200.8,510.7z"/>
	</g>
	<g>
		<path class="st2" d="M1118.8,539.5c-17.6,0-32-14.4-32-32c0-17.6,14.4-32,32-32s32,14.4,32,32
			C1150.8,525.1,1136.4,539.5,1118.8,539.5z M1118.8,482.5c-13.8,0-25,11.2-25,25s11.2,25,25,25s25-11.2,25-25
			S1132.6,482.5,1118.8,482.5z"/>
	</g>
	<g>
		<g>
			<path class="st1" d="M1079.3,539.5c-17.6,0-32-14.4-32-32c0-17.6,14.4-32,32-32s32,14.4,32,32
				C1111.3,525.1,1096.9,539.5,1079.3,539.5z M1079.3,482.5c-13.8,0-25,11.2-25,25s11.2,25,25,25s25-11.2,25-25
				S1093.1,482.5,1079.3,482.5z"/>
		</g>
	</g>
	<circle class="st3" cx="965.3" cy="507.5" r="40.5"/>
</g>
<g>
	<circle class="st3" cx="164.7" cy="533.5" r="48.5"/>
	<circle class="st2" cx="231.2" cy="464" r="31"/>
	<circle class="st1" cx="250.7" cy="533.5" r="19.5"/>
</g>
<g>
	<polygon class="st2" points="494.1,495 510.1,513.3 555.6,525.5 555.6,452.8 504.6,448 443.6,495.5 477.7,504.6 	"/>
	<polygon class="st2" points="392.1,525 412.6,501.8 391.6,493 360.6,507.5 360.6,521.5 	"/>
	<polygon class="st3" points="443.6,495.5 423.1,490 412.6,501.8 392.1,525 360.6,521.5 360.6,542.3 448.1,522 477.7,504.6 	"/>
	<polygon class="st3" points="510.1,513.3 555.6,565.3 555.6,525.5 	"/>
	<polygon class="st1" points="510.1,513.3 494.1,495 477.7,504.6 448.1,522 360.6,542.3 360.6,567 555.6,567 555.6,565.3 	"/>
</g>
<g>
	<g>
		<g>
			<rect x="1263.6" y="509.8" class="st1" width="24.3" height="30.1"/>
			<rect x="1333.1" y="509.8" class="st1" width="24.3" height="77.7"/>
			<rect x="1437.5" y="509.8" class="st1" width="24.3" height="46.4"/>
		</g>
	</g>
	<rect x="1402.7" y="450.7" class="st4" width="24.3" height="59.1"/>
	<rect x="1367.9" y="427.5" class="st3" width="24.3" height="82.3"/>
	<rect x="1298.4" y="462.3" class="st0" width="24.3" height="47.5"/>
	<g>
		<rect x="1238.6" y="508.8" class="st2" width="248.2" height="2"/>
	</g>
</g>
<path class="st6" d="M143.5,816.2c-17.2,25.2-27.3,55.6-27.3,88.4c0,7.1,0.5,14,1.4,20.8l155.2-20.8L143.5,816.2z"/>
<path class="st7" d="M272.8,748c-53.7,0-101.1,27-129.3,68.2l129.3,88.4V748z"/>
<path class="st3" d="M428,883.7C417.8,807.1,352.2,748,272.8,748v156.6l-155.2,20.8c10.2,76.6,75.8,135.7,155.2,135.7
	c53.7,0,101.1-27,129.3-68.2c17.2-25.1,27.3-55.6,27.3-88.4C429.3,897.5,428.9,890.6,428,883.7z"/>
<circle class="st3" cx="462.9" cy="756" r="8"/>
<circle class="st7" cx="462.9" cy="805.9" r="8"/>
<circle class="st6" cx="462.9" cy="782" r="8"/>
<g>
	<path class="st3" d="M1089.2,895c0-45-36.5-81.5-81.5-81.5v36.7c24.7,0,44.7,20,44.7,44.7c0,18.5-11.3,34.4-27.3,41.2l14.6,33.7
		C1068.8,957.5,1089.2,928.6,1089.2,895z"/>
	<path class="st6" d="M1007.7,939.7c-24.7,0-44.7-20-44.7-44.7s20-44.7,44.7-44.7v-36.8c-45,0-81.5,36.5-81.5,81.5
		s36.5,81.5,81.5,81.5c11.4,0,22.2-2.3,32-6.6l-14.6-33.7C1019.8,938.5,1013.9,939.7,1007.7,939.7z"/>
</g>
<g>
	<path class="st3" d="M1208.2,813.5v36.7c24.7,0,44.7,20,44.7,44.7c0,24.7-20,44.7-44.7,44.7c-9.7,0-18.7-3.1-26-8.4l-20.5,30.5
		c13.2,9.2,29.2,14.6,46.5,14.6c45,0,81.5-36.5,81.5-81.5C1289.7,850,1253.2,813.5,1208.2,813.5z"/>
	<path class="st8" d="M1163.5,895c0-14.6,7-27.5,17.7-35.7l-22-29.5c-19.7,14.9-32.5,38.5-32.5,65.1c0,27.7,13.8,52.1,34.9,66.9
		l20.5-30.5C1170.9,923.2,1163.5,910,1163.5,895z"/>
	<path class="st6" d="M1208.2,850.3v-36.8c-18.4,0-35.3,6.1-49,16.4l22,29.5C1188.7,853.6,1198.1,850.3,1208.2,850.3z"/>
</g>
<g>
	<path class="st3" d="M1453.5,895c0,9.4-2.9,18-7.8,25.2l30.4,20.7c8.9-13.1,14.2-28.9,14.2-45.9c0-45-36.5-81.5-81.5-81.5v36.7
		C1433.4,850.3,1453.5,870.3,1453.5,895z"/>
	<path class="st8" d="M1408.7,850.3v-36.8c-13.3,0-25.8,3.2-36.9,8.8l16.6,32.8C1394.5,852,1401.4,850.3,1408.7,850.3z"/>
	<path class="st6" d="M1445.7,920.2c-8.1,11.8-21.6,19.5-36.9,19.5c-24.7,0-44.7-20-44.7-44.7c0-17.4,10-32.5,24.5-39.9l-16.6-32.8
		c-26.4,13.5-44.6,40.9-44.6,72.6c0,45,36.5,81.5,81.5,81.5c28,0,52.6-14.1,67.3-35.5L1445.7,920.2z"/>
</g>
<line class="st9" x1="691.4" y1="789.5" x2="1490.2" y2="789.5"/>
<line class="st9" x1="927" y1="999.6" x2="1088.4" y2="999.6"/>
<line class="st9" x1="1127.5" y1="999.6" x2="1288.9" y2="999.6"/>
<line class="st9" x1="1328.8" y1="999.6" x2="1490.2" y2="999.6"/>
<g>
	<path class="st3" d="M490.9,760.1c-0.7,0-1.4-0.2-2-0.6c-0.6-0.4-1.1-1-1.5-1.9c-0.4-0.8-0.5-1.8-0.5-2.9s0.2-2.1,0.5-2.9
		c0.4-0.8,0.9-1.4,1.5-1.9c0.6-0.4,1.3-0.6,2-0.6c0.7,0,1.4,0.2,2,0.6c0.6,0.4,1.1,1,1.5,1.9c0.4,0.8,0.5,1.8,0.5,2.9
		s-0.2,2.1-0.5,2.9c-0.4,0.8-0.9,1.4-1.5,1.9C492.3,759.9,491.6,760.1,490.9,760.1z M490.9,759c0.5,0,1-0.2,1.4-0.5
		c0.4-0.3,0.8-0.8,1-1.5c0.3-0.6,0.4-1.4,0.4-2.3s-0.1-1.7-0.4-2.3c-0.3-0.6-0.6-1.1-1-1.5c-0.4-0.3-0.9-0.5-1.4-0.5s-1,0.2-1.4,0.5
		c-0.4,0.3-0.8,0.8-1,1.5c-0.3,0.6-0.4,1.4-0.4,2.3s0.1,1.7,0.4,2.3c0.3,0.6,0.6,1.1,1,1.5C489.9,758.8,490.4,759,490.9,759z"/>
	<path class="st3" d="M498.4,760v-8.3h-2.3v-1h1.8c0.2,0,0.3,0,0.3-0.1c0.1-0.1,0.1-0.2,0.1-0.3v-0.8h1.2V760H498.4z"/>
	<path class="st3" d="M508.9,760v-10.5h1.2v5l4.4-5h1.5l-4.7,5.2l5,5.3h-1.5l-4.7-5.1v5.1H508.9z"/>
	<path class="st3" d="M519.8,760.1c-0.7,0-1.3-0.2-1.8-0.5c-0.6-0.3-1-0.8-1.3-1.4c-0.3-0.6-0.5-1.3-0.5-2s0.2-1.4,0.5-2
		c0.3-0.6,0.7-1,1.3-1.4c0.5-0.3,1.2-0.5,1.8-0.5c0.7,0,1.3,0.2,1.8,0.5c0.6,0.3,1,0.8,1.3,1.4s0.5,1.3,0.5,2s-0.2,1.4-0.5,2
		c-0.3,0.6-0.7,1.1-1.3,1.4C521,759.9,520.4,760.1,519.8,760.1z M519.8,759.1c0.4,0,0.9-0.1,1.2-0.4c0.4-0.2,0.7-0.6,0.9-1
		c0.2-0.4,0.3-0.9,0.3-1.5c0-0.6-0.1-1.1-0.3-1.5c-0.2-0.4-0.5-0.8-0.9-1c-0.4-0.2-0.8-0.4-1.2-0.4c-0.5,0-0.9,0.1-1.2,0.4
		c-0.4,0.2-0.7,0.6-0.9,1c-0.2,0.4-0.3,0.9-0.3,1.5c0,0.6,0.1,1.1,0.3,1.5c0.2,0.4,0.5,0.8,0.9,1
		C518.9,758.9,519.3,759.1,519.8,759.1z"/>
	<path class="st3" d="M523.8,760v-1.1h0.5c0.3,0,0.5-0.1,0.7-0.3c0.2-0.2,0.3-0.4,0.3-0.8l0.4-5.4h5v7.5h-1.1v-6.5h-2.8l-0.4,4.3
		c-0.1,0.7-0.3,1.3-0.6,1.6c-0.3,0.4-0.8,0.5-1.5,0.5H523.8z"/>
	<path class="st3" d="M532.8,760v-7.5h1.1v6.1h0.3l2.9-6.1h1.9v7.5h-1.1v-6.2h-0.3l-2.9,6.2H532.8z"/>
	<path class="st3" d="M545.7,757c-0.3,0.2-0.7,0.4-1,0.5c-0.3,0.1-0.7,0.1-1.2,0.1c-0.9,0-1.6-0.2-2-0.7c-0.4-0.5-0.7-1.2-0.7-2.1
		v-2.3h1.1v2.3c0,0.6,0.1,1,0.4,1.3s0.7,0.5,1.3,0.5c0.4,0,0.8-0.1,1.1-0.2c0.3-0.1,0.6-0.3,0.9-0.5v-3.5h1.1v7.5h-1.1V757z"/>
	<path class="st3" d="M552.1,760.1c-0.7,0-1.3-0.2-1.8-0.5c-0.6-0.3-1-0.8-1.3-1.4c-0.3-0.6-0.5-1.3-0.5-2s0.2-1.4,0.5-2
		c0.3-0.6,0.7-1,1.3-1.4c0.5-0.3,1.2-0.5,1.8-0.5c0.6,0,1.2,0.2,1.8,0.5c0.5,0.3,0.9,0.7,1.2,1.3c0.3,0.5,0.4,1.2,0.4,1.9
		c0,0.2,0,0.4,0,0.5c0,0.2,0,0.3-0.1,0.3h-5.9c0,0.5,0.2,0.9,0.4,1.2c0.2,0.4,0.5,0.6,0.9,0.8c0.4,0.2,0.8,0.3,1.2,0.3
		c0.4,0,0.9-0.1,1.2-0.3c0.4-0.2,0.6-0.5,0.8-0.9h1.2c-0.2,0.5-0.4,0.9-0.7,1.2c-0.3,0.3-0.7,0.6-1.1,0.8S552.6,760.1,552.1,760.1z
		 M554.4,755.7c0-0.4-0.1-0.8-0.3-1.2c-0.2-0.4-0.5-0.6-0.8-0.8c-0.3-0.2-0.7-0.3-1.1-0.3c-0.4,0-0.8,0.1-1.2,0.3s-0.7,0.5-0.9,0.8
		c-0.2,0.4-0.4,0.8-0.4,1.2H554.4z"/>
	<path class="st3" d="M560.3,760.1c-0.7,0-1.3-0.2-1.8-0.5c-0.6-0.3-1-0.8-1.3-1.4c-0.3-0.6-0.5-1.3-0.5-2s0.2-1.4,0.5-2
		c0.3-0.6,0.7-1,1.3-1.4c0.5-0.3,1.2-0.5,1.8-0.5c0.5,0,1.1,0.1,1.5,0.3s0.8,0.5,1.1,0.9c0.3,0.4,0.5,0.8,0.6,1.4h-1.1
		c-0.1-0.5-0.4-0.8-0.8-1.1c-0.4-0.3-0.8-0.4-1.4-0.4c-0.5,0-0.9,0.1-1.2,0.4c-0.4,0.2-0.7,0.6-0.9,1c-0.2,0.4-0.3,0.9-0.3,1.5
		c0,0.6,0.1,1.1,0.3,1.5c0.2,0.4,0.5,0.8,0.9,1c0.4,0.2,0.8,0.4,1.2,0.4c0.5,0,1-0.1,1.4-0.4c0.4-0.3,0.6-0.7,0.8-1.2h1.1
		c-0.1,0.5-0.3,1-0.6,1.4c-0.3,0.4-0.7,0.7-1.1,0.9S560.9,760.1,560.3,760.1z"/>
	<path class="st3" d="M566.6,760v-6.5h-2.5v-1h6.2v1h-2.6v6.5H566.6z"/>
	<path class="st3" d="M571.6,760v-7.5h3.9c0.4,0,0.8,0.1,1.1,0.3c0.3,0.2,0.6,0.4,0.7,0.7c0.2,0.3,0.3,0.7,0.3,1.1
		c0,0.4-0.1,0.7-0.3,1c-0.2,0.3-0.4,0.5-0.6,0.6v0.1c0.3,0.1,0.5,0.3,0.7,0.6c0.2,0.3,0.3,0.6,0.3,1.1c0,0.4-0.1,0.8-0.3,1.1
		c-0.2,0.3-0.4,0.6-0.8,0.8c-0.3,0.2-0.7,0.3-1.1,0.3H571.6z M575.3,755.7c0.3,0,0.6-0.1,0.8-0.3c0.2-0.2,0.3-0.5,0.3-0.8
		s-0.1-0.6-0.3-0.8c-0.2-0.2-0.5-0.3-0.8-0.3h-2.6v2.3H575.3z M575.5,759c0.2,0,0.4,0,0.6-0.1c0.2-0.1,0.3-0.2,0.4-0.4
		s0.2-0.4,0.2-0.6c0-0.4-0.1-0.6-0.3-0.8c-0.2-0.2-0.5-0.3-0.8-0.3h-2.8v2.3H575.5z"/>
	<path class="st3" d="M582.5,760.1c-0.7,0-1.3-0.2-1.8-0.5c-0.6-0.3-1-0.8-1.3-1.4c-0.3-0.6-0.5-1.3-0.5-2s0.2-1.4,0.5-2
		c0.3-0.6,0.7-1,1.3-1.4c0.5-0.3,1.2-0.5,1.8-0.5c0.7,0,1.3,0.2,1.8,0.5c0.6,0.3,1,0.8,1.3,1.4s0.5,1.3,0.5,2s-0.2,1.4-0.5,2
		c-0.3,0.6-0.7,1.1-1.3,1.4C583.8,759.9,583.2,760.1,582.5,760.1z M582.5,759.1c0.4,0,0.9-0.1,1.2-0.4c0.4-0.2,0.7-0.6,0.9-1
		c0.2-0.4,0.3-0.9,0.3-1.5c0-0.6-0.1-1.1-0.3-1.5c-0.2-0.4-0.5-0.8-0.9-1c-0.4-0.2-0.8-0.4-1.2-0.4c-0.5,0-0.9,0.1-1.2,0.4
		c-0.4,0.2-0.7,0.6-0.9,1c-0.2,0.4-0.3,0.9-0.3,1.5c0,0.6,0.1,1.1,0.3,1.5c0.2,0.4,0.5,0.8,0.9,1
		C581.7,758.9,582.1,759.1,582.5,759.1z"/>
	<path class="st3" d="M490.9,786.1c-0.7,0-1.4-0.2-2-0.6c-0.6-0.4-1.1-1-1.5-1.9c-0.4-0.8-0.5-1.8-0.5-2.9s0.2-2.1,0.5-2.9
		c0.4-0.8,0.9-1.4,1.5-1.9c0.6-0.4,1.3-0.6,2-0.6c0.7,0,1.4,0.2,2,0.6c0.6,0.4,1.1,1,1.5,1.9c0.4,0.8,0.5,1.8,0.5,2.9
		s-0.2,2.1-0.5,2.9c-0.4,0.8-0.9,1.4-1.5,1.9C492.3,785.9,491.6,786.1,490.9,786.1z M490.9,785c0.5,0,1-0.2,1.4-0.5
		c0.4-0.3,0.8-0.8,1-1.5c0.3-0.6,0.4-1.4,0.4-2.3s-0.1-1.7-0.4-2.3c-0.3-0.6-0.6-1.1-1-1.5c-0.4-0.3-0.9-0.5-1.4-0.5s-1,0.2-1.4,0.5
		c-0.4,0.3-0.8,0.8-1,1.5c-0.3,0.6-0.4,1.4-0.4,2.3s0.1,1.7,0.4,2.3c0.3,0.6,0.6,1.1,1,1.5C489.9,784.8,490.4,785,490.9,785z"/>
	<path class="st3" d="M496.3,786v-1l4.3-4.6c0.3-0.3,0.5-0.7,0.7-0.9c0.1-0.3,0.2-0.6,0.2-1c0-0.4-0.1-0.8-0.3-1.1
		c-0.2-0.3-0.4-0.5-0.7-0.7c-0.3-0.2-0.7-0.3-1.1-0.3c-0.4,0-0.7,0.1-1,0.3c-0.3,0.2-0.6,0.5-0.7,0.8c-0.2,0.3-0.3,0.7-0.3,1.2h-1.2
		c0-0.6,0.1-1.2,0.4-1.7c0.3-0.5,0.7-0.9,1.1-1.2c0.5-0.3,1-0.4,1.7-0.4c0.6,0,1.2,0.1,1.7,0.4c0.5,0.3,0.9,0.6,1.1,1.1
		c0.3,0.5,0.4,1,0.4,1.6c0,0.4-0.1,0.8-0.2,1.1s-0.2,0.6-0.4,0.9c-0.2,0.3-0.4,0.5-0.7,0.8l-3.4,3.5v0.1h4.9v1.1H496.3z"/>
	<path class="st3" d="M511.6,786v-10.5h1.2v5l4.4-5h1.5l-4.7,5.2l5,5.3h-1.5l-4.7-5.1v5.1H511.6z"/>
	<path class="st3" d="M522.4,786.1c-0.7,0-1.3-0.2-1.8-0.5c-0.6-0.3-1-0.8-1.3-1.4c-0.3-0.6-0.5-1.3-0.5-2s0.2-1.4,0.5-2
		c0.3-0.6,0.7-1,1.3-1.4c0.5-0.3,1.2-0.5,1.8-0.5c0.7,0,1.3,0.2,1.8,0.5c0.6,0.3,1,0.8,1.3,1.4s0.5,1.3,0.5,2s-0.2,1.4-0.5,2
		c-0.3,0.6-0.7,1.1-1.3,1.4C523.7,785.9,523.1,786.1,522.4,786.1z M522.4,785.1c0.4,0,0.9-0.1,1.2-0.4c0.4-0.2,0.7-0.6,0.9-1
		c0.2-0.4,0.3-0.9,0.3-1.5c0-0.6-0.1-1.1-0.3-1.5c-0.2-0.4-0.5-0.8-0.9-1c-0.4-0.2-0.8-0.4-1.2-0.4c-0.5,0-0.9,0.1-1.2,0.4
		c-0.4,0.2-0.7,0.6-0.9,1c-0.2,0.4-0.3,0.9-0.3,1.5c0,0.6,0.1,1.1,0.3,1.5c0.2,0.4,0.5,0.8,0.9,1C521.6,784.9,522,785.1,522.4,785.1
		z"/>
	<path class="st3" d="M526.5,786v-1.1h0.5c0.3,0,0.5-0.1,0.7-0.3c0.2-0.2,0.3-0.4,0.3-0.8l0.4-5.4h5v7.5h-1.1v-6.5h-2.8l-0.4,4.3
		c-0.1,0.7-0.3,1.3-0.6,1.6c-0.3,0.4-0.8,0.5-1.5,0.5H526.5z"/>
	<path class="st3" d="M535.5,786v-7.5h1.1v6.1h0.3l2.9-6.1h1.9v7.5h-1.1v-6.2h-0.3l-2.9,6.2H535.5z"/>
	<path class="st3" d="M548.4,783c-0.3,0.2-0.7,0.4-1,0.5c-0.3,0.1-0.7,0.1-1.2,0.1c-0.9,0-1.6-0.2-2-0.7c-0.4-0.5-0.7-1.2-0.7-2.1
		v-2.3h1.1v2.3c0,0.6,0.1,1,0.4,1.3s0.7,0.5,1.3,0.5c0.4,0,0.8-0.1,1.1-0.2c0.3-0.1,0.6-0.3,0.9-0.5v-3.5h1.1v7.5h-1.1V783z"/>
	<path class="st3" d="M554.8,786.1c-0.7,0-1.3-0.2-1.8-0.5c-0.6-0.3-1-0.8-1.3-1.4c-0.3-0.6-0.5-1.3-0.5-2s0.2-1.4,0.5-2
		c0.3-0.6,0.7-1,1.3-1.4c0.5-0.3,1.2-0.5,1.8-0.5c0.6,0,1.2,0.2,1.8,0.5c0.5,0.3,0.9,0.7,1.2,1.3c0.3,0.5,0.4,1.2,0.4,1.9
		c0,0.2,0,0.4,0,0.5c0,0.2,0,0.3-0.1,0.3h-5.9c0,0.5,0.2,0.9,0.4,1.2c0.2,0.4,0.5,0.6,0.9,0.8c0.4,0.2,0.8,0.3,1.2,0.3
		c0.4,0,0.9-0.1,1.2-0.3c0.4-0.2,0.6-0.5,0.8-0.9h1.2c-0.2,0.5-0.4,0.9-0.7,1.2c-0.3,0.3-0.7,0.6-1.1,0.8S555.3,786.1,554.8,786.1z
		 M557.1,781.7c0-0.4-0.1-0.8-0.3-1.2c-0.2-0.4-0.5-0.6-0.8-0.8c-0.3-0.2-0.7-0.3-1.1-0.3c-0.4,0-0.8,0.1-1.2,0.3s-0.7,0.5-0.9,0.8
		c-0.2,0.4-0.4,0.8-0.4,1.2H557.1z"/>
	<path class="st3" d="M563,786.1c-0.7,0-1.3-0.2-1.8-0.5c-0.6-0.3-1-0.8-1.3-1.4c-0.3-0.6-0.5-1.3-0.5-2s0.2-1.4,0.5-2
		c0.3-0.6,0.7-1,1.3-1.4c0.5-0.3,1.2-0.5,1.8-0.5c0.5,0,1.1,0.1,1.5,0.3s0.8,0.5,1.1,0.9c0.3,0.4,0.5,0.8,0.6,1.4h-1.1
		c-0.1-0.5-0.4-0.8-0.8-1.1c-0.4-0.3-0.8-0.4-1.4-0.4c-0.5,0-0.9,0.1-1.2,0.4c-0.4,0.2-0.7,0.6-0.9,1c-0.2,0.4-0.3,0.9-0.3,1.5
		c0,0.6,0.1,1.1,0.3,1.5c0.2,0.4,0.5,0.8,0.9,1c0.4,0.2,0.8,0.4,1.2,0.4c0.5,0,1-0.1,1.4-0.4c0.4-0.3,0.6-0.7,0.8-1.2h1.1
		c-0.1,0.5-0.3,1-0.6,1.4c-0.3,0.4-0.7,0.7-1.1,0.9S563.6,786.1,563,786.1z"/>
	<path class="st3" d="M569.3,786v-6.5h-2.5v-1h6.2v1h-2.6v6.5H569.3z"/>
	<path class="st3" d="M574.3,786v-7.5h3.9c0.4,0,0.8,0.1,1.1,0.3c0.3,0.2,0.6,0.4,0.7,0.7c0.2,0.3,0.3,0.7,0.3,1.1
		c0,0.4-0.1,0.7-0.3,1c-0.2,0.3-0.4,0.5-0.6,0.6v0.1c0.3,0.1,0.5,0.3,0.7,0.6c0.2,0.3,0.3,0.6,0.3,1.1c0,0.4-0.1,0.8-0.3,1.1
		c-0.2,0.3-0.4,0.6-0.8,0.8c-0.3,0.2-0.7,0.3-1.1,0.3H574.3z M578,781.7c0.3,0,0.6-0.1,0.8-0.3c0.2-0.2,0.3-0.5,0.3-0.8
		s-0.1-0.6-0.3-0.8c-0.2-0.2-0.5-0.3-0.8-0.3h-2.6v2.3H578z M578.2,785c0.2,0,0.4,0,0.6-0.1c0.2-0.1,0.3-0.2,0.4-0.4
		s0.2-0.4,0.2-0.6c0-0.4-0.1-0.6-0.3-0.8c-0.2-0.2-0.5-0.3-0.8-0.3h-2.8v2.3H578.2z"/>
	<path class="st3" d="M585.2,786.1c-0.7,0-1.3-0.2-1.8-0.5c-0.6-0.3-1-0.8-1.3-1.4c-0.3-0.6-0.5-1.3-0.5-2s0.2-1.4,0.5-2
		c0.3-0.6,0.7-1,1.3-1.4c0.5-0.3,1.2-0.5,1.8-0.5c0.7,0,1.3,0.2,1.8,0.5c0.6,0.3,1,0.8,1.3,1.4s0.5,1.3,0.5,2s-0.2,1.4-0.5,2
		c-0.3,0.6-0.7,1.1-1.3,1.4C586.5,785.9,585.9,786.1,585.2,786.1z M585.2,785.1c0.4,0,0.9-0.1,1.2-0.4c0.4-0.2,0.7-0.6,0.9-1
		c0.2-0.4,0.3-0.9,0.3-1.5c0-0.6-0.1-1.1-0.3-1.5c-0.2-0.4-0.5-0.8-0.9-1c-0.4-0.2-0.8-0.4-1.2-0.4c-0.5,0-0.9,0.1-1.2,0.4
		c-0.4,0.2-0.7,0.6-0.9,1c-0.2,0.4-0.3,0.9-0.3,1.5c0,0.6,0.1,1.1,0.3,1.5c0.2,0.4,0.5,0.8,0.9,1
		C584.4,784.9,584.8,785.1,585.2,785.1z"/>
	<path class="st3" d="M490.9,812.1c-0.7,0-1.4-0.2-2-0.6c-0.6-0.4-1.1-1-1.5-1.9c-0.4-0.8-0.5-1.8-0.5-2.9s0.2-2.1,0.5-2.9
		c0.4-0.8,0.9-1.4,1.5-1.9c0.6-0.4,1.3-0.6,2-0.6c0.7,0,1.4,0.2,2,0.6c0.6,0.4,1.1,1,1.5,1.9c0.4,0.8,0.5,1.8,0.5,2.9
		s-0.2,2.1-0.5,2.9c-0.4,0.8-0.9,1.4-1.5,1.9C492.3,811.9,491.6,812.1,490.9,812.1z M490.9,811c0.5,0,1-0.2,1.4-0.5
		c0.4-0.3,0.8-0.8,1-1.5c0.3-0.6,0.4-1.4,0.4-2.3s-0.1-1.7-0.4-2.3c-0.3-0.6-0.6-1.1-1-1.5c-0.4-0.3-0.9-0.5-1.4-0.5s-1,0.2-1.4,0.5
		c-0.4,0.3-0.8,0.8-1,1.5c-0.3,0.6-0.4,1.4-0.4,2.3s0.1,1.7,0.4,2.3c0.3,0.6,0.6,1.1,1,1.5C489.9,810.8,490.4,811,490.9,811z"/>
	<path class="st3" d="M499.7,812.1c-0.7,0-1.3-0.1-1.8-0.4c-0.5-0.3-0.9-0.6-1.2-1.1c-0.3-0.4-0.4-0.9-0.4-1.5h1.2
		c0,0.3,0.1,0.6,0.3,0.9c0.2,0.3,0.4,0.5,0.8,0.7s0.7,0.2,1.2,0.2c0.4,0,0.8-0.1,1.2-0.2c0.3-0.2,0.6-0.4,0.8-0.7s0.3-0.6,0.3-1
		c0-0.6-0.2-1-0.6-1.4c-0.4-0.4-1-0.5-1.6-0.5H499V806h0.7c0.4,0,0.8-0.1,1.1-0.2s0.6-0.4,0.7-0.7c0.2-0.3,0.2-0.6,0.2-0.9
		c0-0.3-0.1-0.6-0.3-0.9c-0.2-0.3-0.4-0.5-0.7-0.6c-0.3-0.2-0.7-0.2-1.1-0.2c-0.4,0-0.7,0.1-1.1,0.2c-0.3,0.2-0.6,0.4-0.8,0.6
		s-0.3,0.5-0.3,0.8h-1.2c0-0.5,0.1-1,0.4-1.4c0.3-0.4,0.7-0.8,1.2-1c0.5-0.3,1.1-0.4,1.7-0.4c0.6,0,1.2,0.1,1.7,0.4s0.9,0.6,1.2,1
		c0.3,0.4,0.4,0.9,0.4,1.5c0,0.4-0.1,0.8-0.3,1.1c-0.2,0.3-0.4,0.6-0.6,0.8c-0.3,0.2-0.5,0.4-0.8,0.5v0.1c0.5,0.2,0.9,0.4,1.2,0.9
		c0.4,0.4,0.6,1,0.6,1.6c0,0.6-0.1,1.1-0.4,1.5s-0.7,0.8-1.2,1.1C501,812,500.4,812.1,499.7,812.1z"/>
	<path class="st3" d="M512.1,812v-10.5h1.2v5l4.4-5h1.5l-4.7,5.2l5,5.3H518l-4.7-5.1v5.1H512.1z"/>
	<path class="st3" d="M523,812.1c-0.7,0-1.3-0.2-1.8-0.5c-0.6-0.3-1-0.8-1.3-1.4c-0.3-0.6-0.5-1.3-0.5-2s0.2-1.4,0.5-2
		c0.3-0.6,0.7-1,1.3-1.4c0.5-0.3,1.2-0.5,1.8-0.5c0.7,0,1.3,0.2,1.8,0.5c0.6,0.3,1,0.8,1.3,1.4s0.5,1.3,0.5,2s-0.2,1.4-0.5,2
		c-0.3,0.6-0.7,1.1-1.3,1.4C524.3,811.9,523.6,812.1,523,812.1z M523,811.1c0.4,0,0.9-0.1,1.2-0.4c0.4-0.2,0.7-0.6,0.9-1
		c0.2-0.4,0.3-0.9,0.3-1.5c0-0.6-0.1-1.1-0.3-1.5c-0.2-0.4-0.5-0.8-0.9-1c-0.4-0.2-0.8-0.4-1.2-0.4c-0.5,0-0.9,0.1-1.2,0.4
		c-0.4,0.2-0.7,0.6-0.9,1c-0.2,0.4-0.3,0.9-0.3,1.5c0,0.6,0.1,1.1,0.3,1.5c0.2,0.4,0.5,0.8,0.9,1C522.1,810.9,522.5,811.1,523,811.1
		z"/>
	<path class="st3" d="M527,812v-1.1h0.5c0.3,0,0.5-0.1,0.7-0.3c0.2-0.2,0.3-0.4,0.3-0.8l0.4-5.4h5v7.5h-1.1v-6.5h-2.8l-0.4,4.3
		c-0.1,0.7-0.3,1.3-0.6,1.6c-0.3,0.4-0.8,0.5-1.5,0.5H527z"/>
	<path class="st3" d="M536,812v-7.5h1.1v6.1h0.3l2.9-6.1h1.9v7.5h-1.1v-6.2h-0.3L538,812H536z"/>
	<path class="st3" d="M548.9,809c-0.3,0.2-0.7,0.4-1,0.5c-0.3,0.1-0.7,0.1-1.2,0.1c-0.9,0-1.6-0.2-2-0.7c-0.4-0.5-0.7-1.2-0.7-2.1
		v-2.3h1.1v2.3c0,0.6,0.1,1,0.4,1.3s0.7,0.5,1.3,0.5c0.4,0,0.8-0.1,1.1-0.2c0.3-0.1,0.6-0.3,0.9-0.5v-3.5h1.1v7.5h-1.1V809z"/>
	<path class="st3" d="M555.3,812.1c-0.7,0-1.3-0.2-1.8-0.5c-0.6-0.3-1-0.8-1.3-1.4c-0.3-0.6-0.5-1.3-0.5-2s0.2-1.4,0.5-2
		c0.3-0.6,0.7-1,1.3-1.4c0.5-0.3,1.2-0.5,1.8-0.5c0.6,0,1.2,0.2,1.8,0.5c0.5,0.3,0.9,0.7,1.2,1.3c0.3,0.5,0.4,1.2,0.4,1.9
		c0,0.2,0,0.4,0,0.5c0,0.2,0,0.3-0.1,0.3h-5.9c0,0.5,0.2,0.9,0.4,1.2c0.2,0.4,0.5,0.6,0.9,0.8c0.4,0.2,0.8,0.3,1.2,0.3
		c0.4,0,0.9-0.1,1.2-0.3c0.4-0.2,0.6-0.5,0.8-0.9h1.2c-0.2,0.5-0.4,0.9-0.7,1.2c-0.3,0.3-0.7,0.6-1.1,0.8S555.8,812.1,555.3,812.1z
		 M557.6,807.7c0-0.4-0.1-0.8-0.3-1.2c-0.2-0.4-0.5-0.6-0.8-0.8c-0.3-0.2-0.7-0.3-1.1-0.3c-0.4,0-0.8,0.1-1.2,0.3s-0.7,0.5-0.9,0.8
		c-0.2,0.4-0.4,0.8-0.4,1.2H557.6z"/>
	<path class="st3" d="M563.5,812.1c-0.7,0-1.3-0.2-1.8-0.5c-0.6-0.3-1-0.8-1.3-1.4c-0.3-0.6-0.5-1.3-0.5-2s0.2-1.4,0.5-2
		c0.3-0.6,0.7-1,1.3-1.4c0.5-0.3,1.2-0.5,1.8-0.5c0.5,0,1.1,0.1,1.5,0.3s0.8,0.5,1.1,0.9c0.3,0.4,0.5,0.8,0.6,1.4h-1.1
		c-0.1-0.5-0.4-0.8-0.8-1.1c-0.4-0.3-0.8-0.4-1.4-0.4c-0.5,0-0.9,0.1-1.2,0.4c-0.4,0.2-0.7,0.6-0.9,1c-0.2,0.4-0.3,0.9-0.3,1.5
		c0,0.6,0.1,1.1,0.3,1.5c0.2,0.4,0.5,0.8,0.9,1c0.4,0.2,0.8,0.4,1.2,0.4c0.5,0,1-0.1,1.4-0.4c0.4-0.3,0.6-0.7,0.8-1.2h1.1
		c-0.1,0.5-0.3,1-0.6,1.4c-0.3,0.4-0.7,0.7-1.1,0.9S564.1,812.1,563.5,812.1z"/>
	<path class="st3" d="M569.8,812v-6.5h-2.5v-1h6.2v1H571v6.5H569.8z"/>
	<path class="st3" d="M574.8,812v-7.5h3.9c0.4,0,0.8,0.1,1.1,0.3c0.3,0.2,0.6,0.4,0.7,0.7c0.2,0.3,0.3,0.7,0.3,1.1
		c0,0.4-0.1,0.7-0.3,1c-0.2,0.3-0.4,0.5-0.6,0.6v0.1c0.3,0.1,0.5,0.3,0.7,0.6c0.2,0.3,0.3,0.6,0.3,1.1c0,0.4-0.1,0.8-0.3,1.1
		c-0.2,0.3-0.4,0.6-0.8,0.8c-0.3,0.2-0.7,0.3-1.1,0.3H574.8z M578.5,807.7c0.3,0,0.6-0.1,0.8-0.3c0.2-0.2,0.3-0.5,0.3-0.8
		s-0.1-0.6-0.3-0.8c-0.2-0.2-0.5-0.3-0.8-0.3h-2.6v2.3H578.5z M578.7,811c0.2,0,0.4,0,0.6-0.1c0.2-0.1,0.3-0.2,0.4-0.4
		s0.2-0.4,0.2-0.6c0-0.4-0.1-0.6-0.3-0.8c-0.2-0.2-0.5-0.3-0.8-0.3h-2.8v2.3H578.7z"/>
	<path class="st3" d="M585.7,812.1c-0.7,0-1.3-0.2-1.8-0.5c-0.6-0.3-1-0.8-1.3-1.4c-0.3-0.6-0.5-1.3-0.5-2s0.2-1.4,0.5-2
		c0.3-0.6,0.7-1,1.3-1.4c0.5-0.3,1.2-0.5,1.8-0.5c0.7,0,1.3,0.2,1.8,0.5c0.6,0.3,1,0.8,1.3,1.4s0.5,1.3,0.5,2s-0.2,1.4-0.5,2
		c-0.3,0.6-0.7,1.1-1.3,1.4C587,811.9,586.4,812.1,585.7,812.1z M585.7,811.1c0.4,0,0.9-0.1,1.2-0.4c0.4-0.2,0.7-0.6,0.9-1
		c0.2-0.4,0.3-0.9,0.3-1.5c0-0.6-0.1-1.1-0.3-1.5c-0.2-0.4-0.5-0.8-0.9-1c-0.4-0.2-0.8-0.4-1.2-0.4c-0.5,0-0.9,0.1-1.2,0.4
		c-0.4,0.2-0.7,0.6-0.9,1c-0.2,0.4-0.3,0.9-0.3,1.5c0,0.6,0.1,1.1,0.3,1.5c0.2,0.4,0.5,0.8,0.9,1
		C584.9,810.9,585.3,811.1,585.7,811.1z"/>
</g>
<g>
	<path class="st3" d="M692.4,819v-12.6h7.9v1.4h-6.5V819H692.4z"/>
	<path class="st3" d="M700.5,822.6V810h1.2l0.2,1.3h0.1c0.4-0.5,0.8-0.8,1.3-1.1c0.5-0.2,1-0.4,1.6-0.4c0.8,0,1.5,0.2,2.1,0.6
		c0.6,0.4,1.1,0.9,1.5,1.7c0.4,0.7,0.5,1.5,0.5,2.4s-0.2,1.7-0.5,2.4c-0.4,0.7-0.9,1.3-1.5,1.7c-0.6,0.4-1.3,0.6-2.1,0.6
		c-0.6,0-1.2-0.1-1.6-0.4c-0.5-0.2-0.9-0.6-1.3-1.1h-0.1v4.9H700.5z M704.8,817.9c0.5,0,1-0.1,1.4-0.4c0.4-0.3,0.8-0.7,1.1-1.2
		c0.3-0.5,0.4-1.1,0.4-1.8s-0.1-1.3-0.4-1.8c-0.3-0.5-0.6-0.9-1.1-1.2s-0.9-0.4-1.4-0.4c-0.5,0-1,0.1-1.4,0.4
		c-0.4,0.3-0.8,0.7-1.1,1.2s-0.4,1.1-0.4,1.8s0.1,1.3,0.4,1.8c0.3,0.5,0.6,0.9,1.1,1.2C703.8,817.7,704.3,817.9,704.8,817.9z"/>
	<path class="st3" d="M713.8,819.1c-0.6,0-1.2-0.1-1.6-0.4c-0.5-0.2-0.8-0.6-1.1-1c-0.3-0.4-0.4-0.9-0.4-1.4c0-0.6,0.1-1.1,0.4-1.5
		c0.3-0.4,0.7-0.8,1.2-1c0.5-0.2,1.2-0.4,2-0.4h2.4v-0.3c0-0.7-0.2-1.2-0.6-1.6c-0.4-0.4-0.9-0.6-1.6-0.6c-0.6,0-1.2,0.1-1.6,0.4
		c-0.4,0.3-0.6,0.7-0.7,1.1h-1.4c0-0.5,0.2-1,0.5-1.4c0.3-0.4,0.7-0.8,1.2-1c0.5-0.3,1.2-0.4,1.9-0.4s1.3,0.1,1.9,0.4
		c0.5,0.3,0.9,0.7,1.2,1.2c0.3,0.5,0.4,1.1,0.4,1.8v5.8h-1.2l-0.2-1.1h-0.1c-0.2,0.3-0.6,0.6-1.1,0.9
		C715,819,714.4,819.1,713.8,819.1z M713.8,817.9c0.6,0,1.1-0.1,1.5-0.3c0.4-0.2,0.8-0.6,1-1c0.2-0.4,0.3-0.9,0.3-1.5v-0.4h-2.4
		c-0.8,0-1.3,0.2-1.7,0.5s-0.5,0.7-0.5,1.2c0,0.5,0.2,0.8,0.5,1.1S713.2,817.9,713.8,817.9z"/>
	<path class="st3" d="M724.8,822.6v-4.1l0.5,0.5h-0.8c-0.9,0-1.7-0.2-2.4-0.6c-0.7-0.4-1.2-0.9-1.6-1.6c-0.4-0.7-0.6-1.5-0.6-2.4
		s0.2-1.7,0.6-2.4c0.4-0.7,0.9-1.2,1.6-1.6s1.5-0.6,2.4-0.6h0.8l-0.5,0.5v-4.1h1.3v4.1l-0.5-0.5h0.8c0.9,0,1.7,0.2,2.4,0.6
		s1.2,0.9,1.6,1.6c0.4,0.7,0.6,1.5,0.6,2.4s-0.2,1.7-0.6,2.4c-0.4,0.7-0.9,1.2-1.6,1.6c-0.7,0.4-1.5,0.6-2.4,0.6h-0.8l0.5-0.5v4.1
		H724.8z M724.8,818.2v-7.5l0.5,0.5h-0.8c-0.7,0-1.3,0.1-1.8,0.4c-0.5,0.3-0.9,0.6-1.1,1.1c-0.3,0.5-0.4,1.1-0.4,1.7
		s0.1,1.2,0.4,1.7s0.6,0.9,1.1,1.1c0.5,0.3,1.1,0.4,1.8,0.4h0.8L724.8,818.2z M726.1,818.2l-0.5-0.5h0.8c0.7,0,1.3-0.1,1.8-0.4
		c0.5-0.3,0.9-0.6,1.1-1.1s0.4-1.1,0.4-1.7s-0.1-1.2-0.4-1.7c-0.3-0.5-0.6-0.9-1.1-1.1c-0.5-0.3-1.1-0.4-1.8-0.4h-0.8l0.5-0.5V818.2
		z"/>
	<path class="st3" d="M732.8,819v-9h1.4v7.4h0.4l3.4-7.4h2.3v9H739v-7.4h-0.4l-3.4,7.4H732.8z"/>
	<path class="st3" d="M742.8,819v-9h1.4v4.1l4-4.1h1.7l-4.3,4.4l4.5,4.6h-1.7l-4.2-4.3v4.3H742.8z"/>
	<path class="st3" d="M755.2,819v-9h4.7c0.5,0,0.9,0.1,1.3,0.3c0.4,0.2,0.7,0.5,0.9,0.9c0.2,0.4,0.3,0.8,0.3,1.3
		c0,0.5-0.1,0.8-0.3,1.2s-0.5,0.6-0.7,0.7v0.1c0.3,0.1,0.6,0.3,0.9,0.7c0.3,0.3,0.4,0.8,0.4,1.3c0,0.5-0.1,0.9-0.3,1.3
		c-0.2,0.4-0.5,0.7-0.9,0.9c-0.4,0.2-0.8,0.3-1.3,0.3H755.2z M759.7,813.8c0.4,0,0.7-0.1,1-0.4s0.4-0.6,0.4-1c0-0.4-0.1-0.7-0.4-1
		s-0.6-0.4-1-0.4h-3.1v2.7H759.7z M759.8,817.8c0.2,0,0.5-0.1,0.7-0.2c0.2-0.1,0.4-0.3,0.5-0.5s0.2-0.5,0.2-0.7c0-0.4-0.1-0.8-0.4-1
		c-0.3-0.3-0.6-0.4-1-0.4h-3.3v2.8H759.8z"/>
	<path class="st3" d="M768.7,819v-9h7.5v9h-1.4v-7.7H770v7.7H768.7z"/>
	<path class="st3" d="M778.7,822.6V810h1.2l0.2,1.3h0.1c0.4-0.5,0.8-0.8,1.3-1.1c0.5-0.2,1-0.4,1.6-0.4c0.8,0,1.5,0.2,2.1,0.6
		c0.6,0.4,1.1,0.9,1.5,1.7c0.4,0.7,0.5,1.5,0.5,2.4s-0.2,1.7-0.5,2.4c-0.4,0.7-0.9,1.3-1.5,1.7c-0.6,0.4-1.3,0.6-2.1,0.6
		c-0.6,0-1.2-0.1-1.6-0.4c-0.5-0.2-0.9-0.6-1.3-1.1H780v4.9H778.7z M782.9,817.9c0.5,0,1-0.1,1.4-0.4c0.4-0.3,0.8-0.7,1.1-1.2
		c0.3-0.5,0.4-1.1,0.4-1.8s-0.1-1.3-0.4-1.8c-0.3-0.5-0.6-0.9-1.1-1.2s-0.9-0.4-1.4-0.4c-0.5,0-1,0.1-1.4,0.4
		c-0.4,0.3-0.8,0.7-1.1,1.2s-0.4,1.1-0.4,1.8s0.1,1.3,0.4,1.8c0.3,0.5,0.6,0.9,1.1,1.2C781.9,817.7,782.4,817.9,782.9,817.9z"/>
	<path class="st3" d="M792.9,819.1c-0.8,0-1.5-0.2-2.2-0.6c-0.7-0.4-1.2-0.9-1.6-1.7s-0.6-1.5-0.6-2.4s0.2-1.7,0.6-2.4
		c0.4-0.7,0.9-1.3,1.6-1.7c0.7-0.4,1.4-0.6,2.2-0.6c0.8,0,1.5,0.2,2.2,0.6c0.7,0.4,1.2,0.9,1.6,1.7c0.4,0.7,0.6,1.5,0.6,2.4
		s-0.2,1.7-0.6,2.4s-0.9,1.3-1.6,1.7C794.4,818.9,793.7,819.1,792.9,819.1z M792.9,817.9c0.5,0,1-0.1,1.5-0.4
		c0.5-0.3,0.8-0.7,1.1-1.2c0.3-0.5,0.4-1.1,0.4-1.8s-0.1-1.3-0.4-1.8c-0.3-0.5-0.6-0.9-1.1-1.2c-0.5-0.3-1-0.4-1.5-0.4
		s-1,0.1-1.5,0.4s-0.8,0.7-1.1,1.2c-0.3,0.5-0.4,1.1-0.4,1.8s0.1,1.3,0.4,1.8c0.3,0.5,0.6,0.9,1.1,1.2S792.3,817.9,792.9,817.9z"/>
	<path class="st3" d="M806.4,821.1V819h-7.2v-9h1.4v7.7h4.6V810h1.3v7.7h1.3v3.4H806.4z"/>
	<path class="st3" d="M813.1,819.1c-0.8,0-1.5-0.2-2.2-0.6c-0.7-0.4-1.2-0.9-1.6-1.7s-0.6-1.5-0.6-2.4s0.2-1.7,0.6-2.4
		c0.4-0.7,0.9-1.3,1.6-1.7c0.7-0.4,1.4-0.6,2.2-0.6c0.8,0,1.5,0.2,2.1,0.6c0.6,0.4,1.1,0.9,1.5,1.5c0.4,0.7,0.5,1.4,0.5,2.2
		c0,0.2,0,0.5,0,0.6c0,0.2,0,0.3-0.1,0.4h-7c0.1,0.6,0.2,1,0.5,1.5s0.6,0.8,1.1,1c0.4,0.2,0.9,0.3,1.4,0.3c0.5,0,1-0.1,1.4-0.4
		s0.8-0.6,1-1.1h1.4c-0.2,0.6-0.5,1.1-0.9,1.5c-0.4,0.4-0.8,0.7-1.3,0.9C814.3,819,813.8,819.1,813.1,819.1z M815.9,813.8
		c0-0.5-0.2-1-0.4-1.4c-0.3-0.4-0.6-0.8-1-1c-0.4-0.2-0.9-0.4-1.4-0.4c-0.5,0-1,0.1-1.4,0.4c-0.4,0.2-0.8,0.6-1,1s-0.4,0.9-0.5,1.4
		H815.9z"/>
	<path class="st3" d="M819.2,819v-9h1.3v3.9h4.8V810h1.4v9h-1.4v-3.9h-4.8v3.9H819.2z"/>
	<path class="st3" d="M831.3,819v-7.7h-3.1V810h7.5v1.3h-3.1v7.7H831.3z"/>
	<path class="st3" d="M837.2,819v-9h1.3v3.9h4.8V810h1.4v9h-1.4v-3.9h-4.8v3.9H837.2z"/>
	<path class="st3" d="M847.2,819v-9h1.3v3.1h2.4c0.6,0,1.1,0.1,1.6,0.4c0.5,0.3,0.8,0.6,1.1,1.1c0.3,0.5,0.4,1,0.4,1.5
		c0,0.6-0.1,1.1-0.4,1.5c-0.3,0.5-0.6,0.8-1.1,1.1c-0.5,0.3-1,0.4-1.6,0.4H847.2z M851,817.7c0.5,0,0.9-0.2,1.2-0.5s0.5-0.7,0.5-1.2
		c0-0.5-0.2-0.9-0.5-1.2s-0.7-0.5-1.2-0.5h-2.4v3.4H851z M855.4,819v-9h1.3v9H855.4z"/>
	<path class="st3" d="M858.2,819l3.1-4.6l-3-4.4h1.6l2.3,3.4h0.4l2.3-3.4h1.6l-3,4.4l3.1,4.6h-1.6l-2.3-3.6h-0.4l-2.3,3.6H858.2z"/>
	<path class="st3" d="M696,836.1c-0.8,0-1.5-0.2-2.2-0.6c-0.7-0.4-1.2-0.9-1.6-1.7s-0.6-1.5-0.6-2.4s0.2-1.7,0.6-2.4
		c0.4-0.7,0.9-1.3,1.6-1.7c0.7-0.4,1.4-0.6,2.2-0.6c0.7,0,1.3,0.1,1.8,0.4c0.5,0.2,1,0.6,1.4,1.1c0.4,0.5,0.6,1,0.8,1.6h-1.4
		c-0.2-0.6-0.5-1-1-1.3c-0.5-0.3-1-0.5-1.6-0.5c-0.5,0-1,0.1-1.5,0.4s-0.8,0.7-1.1,1.2c-0.3,0.5-0.4,1.1-0.4,1.8s0.1,1.3,0.4,1.8
		c0.3,0.5,0.6,0.9,1.1,1.2s1,0.4,1.5,0.4c0.6,0,1.2-0.2,1.7-0.5s0.8-0.8,1-1.4h1.4c-0.1,0.6-0.4,1.2-0.8,1.7
		c-0.4,0.5-0.8,0.8-1.4,1.1C697.3,836,696.7,836.1,696,836.1z"/>
	<path class="st3" d="M705.7,836.1c-0.8,0-1.5-0.2-2.2-0.6c-0.7-0.4-1.2-0.9-1.6-1.7s-0.6-1.5-0.6-2.4s0.2-1.7,0.6-2.4
		c0.4-0.7,0.9-1.3,1.6-1.7c0.7-0.4,1.4-0.6,2.2-0.6c0.8,0,1.5,0.2,2.2,0.6c0.7,0.4,1.2,0.9,1.6,1.7c0.4,0.7,0.6,1.5,0.6,2.4
		s-0.2,1.7-0.6,2.4s-0.9,1.3-1.6,1.7C707.2,835.9,706.5,836.1,705.7,836.1z M705.7,834.9c0.5,0,1-0.1,1.5-0.4
		c0.5-0.3,0.8-0.7,1.1-1.2c0.3-0.5,0.4-1.1,0.4-1.8s-0.1-1.3-0.4-1.8c-0.3-0.5-0.6-0.9-1.1-1.2c-0.5-0.3-1-0.4-1.5-0.4
		s-1,0.1-1.5,0.4s-0.8,0.7-1.1,1.2c-0.3,0.5-0.4,1.1-0.4,1.8s0.1,1.3,0.4,1.8c0.3,0.5,0.6,0.9,1.1,1.2S705.1,834.9,705.7,834.9z"/>
	<path class="st3" d="M715.8,836.1c-0.8,0-1.5-0.2-2.2-0.6c-0.7-0.4-1.2-0.9-1.6-1.7s-0.6-1.5-0.6-2.4s0.2-1.7,0.6-2.4
		c0.4-0.7,0.9-1.3,1.6-1.7c0.7-0.4,1.4-0.6,2.2-0.6c0.8,0,1.5,0.2,2.2,0.6c0.7,0.4,1.2,0.9,1.6,1.7c0.4,0.7,0.6,1.5,0.6,2.4
		s-0.2,1.7-0.6,2.4s-0.9,1.3-1.6,1.7C717.3,835.9,716.6,836.1,715.8,836.1z M715.8,834.9c0.5,0,1-0.1,1.5-0.4
		c0.5-0.3,0.8-0.7,1.1-1.2c0.3-0.5,0.4-1.1,0.4-1.8s-0.1-1.3-0.4-1.8c-0.3-0.5-0.6-0.9-1.1-1.2c-0.5-0.3-1-0.4-1.5-0.4
		s-1,0.1-1.5,0.4s-0.8,0.7-1.1,1.2c-0.3,0.5-0.4,1.1-0.4,1.8s0.1,1.3,0.4,1.8c0.3,0.5,0.6,0.9,1.1,1.2S715.2,834.9,715.8,834.9z"/>
	<path class="st3" d="M723.8,836v-7.7h-3.1V827h7.5v1.3h-3.1v7.7H723.8z"/>
	<path class="st3" d="M729.7,836v-9h1.4v3.9h4.8V827h1.4v9h-1.4v-3.9H731v3.9H729.7z"/>
	<path class="st3" d="M743.5,836.1c-0.8,0-1.5-0.2-2.2-0.6c-0.7-0.4-1.2-0.9-1.6-1.7s-0.6-1.5-0.6-2.4s0.2-1.7,0.6-2.4
		c0.4-0.7,0.9-1.3,1.6-1.7c0.7-0.4,1.4-0.6,2.2-0.6c0.8,0,1.5,0.2,2.2,0.6c0.7,0.4,1.2,0.9,1.6,1.7c0.4,0.7,0.6,1.5,0.6,2.4
		s-0.2,1.7-0.6,2.4s-0.9,1.3-1.6,1.7C745,835.9,744.3,836.1,743.5,836.1z M743.5,834.9c0.5,0,1-0.1,1.5-0.4c0.5-0.3,0.8-0.7,1.1-1.2
		c0.3-0.5,0.4-1.1,0.4-1.8s-0.1-1.3-0.4-1.8c-0.3-0.5-0.6-0.9-1.1-1.2c-0.5-0.3-1-0.4-1.5-0.4s-1,0.1-1.5,0.4s-0.8,0.7-1.1,1.2
		c-0.3,0.5-0.4,1.1-0.4,1.8s0.1,1.3,0.4,1.8c0.3,0.5,0.6,0.9,1.1,1.2S742.9,834.9,743.5,834.9z"/>
	<path class="st3" d="M749.8,836v-9h1.4v7.7h3.7V827h1.4v7.7h3.7V827h1.4v9H749.8z"/>
	<path class="st3" d="M767.5,836.1c-0.8,0-1.5-0.2-2.2-0.6c-0.7-0.4-1.2-0.9-1.6-1.7s-0.6-1.5-0.6-2.4s0.2-1.7,0.6-2.4
		c0.4-0.7,0.9-1.3,1.6-1.7c0.7-0.4,1.4-0.6,2.2-0.6c0.8,0,1.5,0.2,2.1,0.6c0.6,0.4,1.1,0.9,1.5,1.5c0.4,0.7,0.5,1.4,0.5,2.2
		c0,0.2,0,0.5,0,0.6c0,0.2,0,0.3-0.1,0.4h-7c0.1,0.6,0.2,1,0.5,1.5c0.3,0.4,0.6,0.8,1.1,1c0.4,0.2,0.9,0.3,1.4,0.3
		c0.5,0,1-0.1,1.4-0.4c0.4-0.3,0.8-0.6,1-1.1h1.4c-0.2,0.6-0.5,1.1-0.9,1.5c-0.4,0.4-0.8,0.7-1.3,0.9
		C768.7,836,768.1,836.1,767.5,836.1z M770.3,830.8c0-0.5-0.2-1-0.4-1.4c-0.3-0.4-0.6-0.8-1-1c-0.4-0.2-0.9-0.4-1.4-0.4
		c-0.5,0-1,0.1-1.4,0.4c-0.4,0.2-0.8,0.6-1,1c-0.3,0.4-0.4,0.9-0.5,1.4H770.3z"/>
	<path class="st3" d="M773.6,836v-9h1.4v3.9h4.8V827h1.4v9h-1.4v-3.9H775v3.9H773.6z"/>
	<path class="st3" d="M783.6,836v-9h1.4v7.4h0.4l3.4-7.4h2.3v9h-1.4v-7.4h-0.4l-3.4,7.4H783.6z"/>
	<path class="st3" d="M792.9,836l3.7-3.7v0.5H796c-0.6,0-1.1-0.1-1.5-0.4c-0.4-0.2-0.8-0.6-1.1-1c-0.3-0.4-0.4-0.9-0.4-1.5
		s0.1-1.1,0.4-1.5c0.3-0.4,0.6-0.8,1.1-1c0.5-0.2,1-0.4,1.5-0.4h4.2v9h-1.4v-3.2h-1.1l-3.2,3.2H792.9z M796,831.5h2.9v-3.2H796
		c-0.5,0-0.8,0.2-1.2,0.5c-0.3,0.3-0.5,0.7-0.5,1.2s0.2,0.9,0.5,1.2C795.2,831.3,795.6,831.5,796,831.5z"/>
	<path class="st3" d="M801.7,836l3.1-4.6l-3-4.4h1.6l2.3,3.4h0.4l2.3-3.4h1.6l-3,4.4l3.1,4.6h-1.6l-2.3-3.6h-0.4l-2.3,3.6H801.7z"/>
</g>
<g>
	<path class="st3" d="M928.2,777v-11.2h9V777h-1.7v-9.6h-5.6v9.6H928.2z"/>
	<path class="st3" d="M943,777.1c-0.7,0-1.4-0.2-2-0.5s-1.1-0.9-1.4-1.5c-0.3-0.6-0.5-1.4-0.5-2.2c0-0.8,0.2-1.5,0.5-2.2
		c0.3-0.6,0.8-1.1,1.4-1.5s1.3-0.5,2-0.5c0.7,0,1.4,0.2,2,0.5c0.6,0.4,1.1,0.9,1.4,1.5c0.3,0.6,0.5,1.4,0.5,2.2
		c0,0.8-0.2,1.5-0.5,2.2c-0.3,0.6-0.8,1.1-1.4,1.5C944.4,776.9,943.7,777.1,943,777.1z M943,775.6c0.4,0,0.8-0.1,1.2-0.3
		c0.4-0.2,0.7-0.5,0.9-1c0.2-0.4,0.3-0.9,0.3-1.4c0-0.5-0.1-1-0.3-1.4c-0.2-0.4-0.5-0.7-0.9-1c-0.4-0.2-0.8-0.3-1.2-0.3
		c-0.4,0-0.8,0.1-1.2,0.3c-0.4,0.2-0.7,0.5-0.9,1c-0.2,0.4-0.3,0.9-0.3,1.4c0,0.5,0.1,1,0.3,1.4c0.2,0.4,0.5,0.7,0.9,1
		C942.1,775.5,942.5,775.6,943,775.6z"/>
	<path class="st3" d="M948.4,777v-8h1.6v3.7l3.3-3.7h1.9l-3.6,3.9l3.8,4.1h-1.9l-3.5-3.8v3.8H948.4z"/>
	<path class="st3" d="M958.2,777.1c-0.6,0-1.1-0.1-1.5-0.3c-0.4-0.2-0.8-0.5-1-0.9c-0.2-0.4-0.4-0.8-0.4-1.3c0-0.5,0.1-1,0.4-1.4
		s0.6-0.7,1.1-0.9c0.5-0.2,1.1-0.3,1.8-0.3h2v-0.2c0-0.5-0.2-0.9-0.5-1.2c-0.3-0.3-0.7-0.5-1.2-0.5c-0.5,0-0.9,0.1-1.2,0.3
		c-0.3,0.2-0.5,0.5-0.5,0.8h-1.6c0-0.4,0.2-0.8,0.5-1.2s0.6-0.7,1.1-0.9c0.5-0.2,1.1-0.4,1.7-0.4c0.7,0,1.3,0.1,1.8,0.4
		s0.9,0.6,1.1,1.1c0.3,0.5,0.4,1,0.4,1.6v5.1h-1.4l-0.2-0.9h-0.1c-0.2,0.3-0.5,0.5-0.9,0.7C959.2,777,958.7,777.1,958.2,777.1z
		 M958.4,775.7c0.5,0,0.9-0.1,1.2-0.3s0.6-0.4,0.8-0.8s0.3-0.7,0.3-1.1v-0.3h-1.9c-0.6,0-1,0.1-1.3,0.3c-0.3,0.2-0.4,0.5-0.4,0.9
		c0,0.4,0.1,0.6,0.4,0.9S957.9,775.7,958.4,775.7z"/>
	<path class="st3" d="M966.9,777.1c-0.7,0-1.3-0.1-1.8-0.4c-0.5-0.2-0.9-0.6-1.2-1c-0.3-0.4-0.4-0.9-0.4-1.4h1.6
		c0,0.2,0.1,0.5,0.2,0.7c0.1,0.2,0.3,0.4,0.6,0.5c0.3,0.1,0.6,0.2,0.9,0.2c0.6,0,1-0.1,1.3-0.3c0.3-0.2,0.4-0.5,0.4-0.8
		c0-0.3-0.1-0.6-0.4-0.8c-0.3-0.2-0.7-0.3-1.2-0.3h-0.8v-1.2h0.8c0.5,0,0.8-0.1,1.1-0.3s0.4-0.5,0.4-0.8c0-0.3-0.1-0.5-0.4-0.8
		c-0.3-0.2-0.7-0.3-1.2-0.3c-0.5,0-0.9,0.1-1.2,0.4c-0.3,0.2-0.4,0.5-0.4,0.9h-1.6c0-0.5,0.1-0.9,0.4-1.3c0.3-0.4,0.6-0.7,1.1-1
		c0.5-0.2,1-0.4,1.7-0.4c0.7,0,1.2,0.1,1.7,0.3s0.8,0.5,1.1,0.9c0.2,0.4,0.4,0.8,0.4,1.2c0,0.4-0.1,0.8-0.4,1.1
		c-0.3,0.3-0.5,0.5-0.8,0.6v0.1c0.4,0.1,0.7,0.3,1,0.6c0.3,0.3,0.4,0.7,0.4,1.2c0,0.4-0.1,0.9-0.4,1.2c-0.3,0.4-0.6,0.7-1.1,0.9
		C968.2,777,967.6,777.1,966.9,777.1z"/>
	<path class="st3" d="M974,777.1c-0.6,0-1.1-0.1-1.5-0.3c-0.4-0.2-0.8-0.5-1-0.9c-0.2-0.4-0.4-0.8-0.4-1.3c0-0.5,0.1-1,0.4-1.4
		s0.6-0.7,1.1-0.9c0.5-0.2,1.1-0.3,1.8-0.3h2v-0.2c0-0.5-0.2-0.9-0.5-1.2c-0.3-0.3-0.7-0.5-1.2-0.5c-0.5,0-0.9,0.1-1.2,0.3
		c-0.3,0.2-0.5,0.5-0.5,0.8h-1.6c0-0.4,0.2-0.8,0.5-1.2s0.6-0.7,1.1-0.9c0.5-0.2,1.1-0.4,1.7-0.4c0.7,0,1.3,0.1,1.8,0.4
		s0.9,0.6,1.1,1.1c0.3,0.5,0.4,1,0.4,1.6v5.1h-1.4l-0.2-0.9h-0.1c-0.2,0.3-0.5,0.5-0.9,0.7C975.1,777,974.6,777.1,974,777.1z
		 M974.2,775.7c0.5,0,0.9-0.1,1.2-0.3s0.6-0.4,0.8-0.8s0.3-0.7,0.3-1.1v-0.3h-1.9c-0.6,0-1,0.1-1.3,0.3c-0.3,0.2-0.4,0.5-0.4,0.9
		c0,0.4,0.1,0.6,0.4,0.9S973.7,775.7,974.2,775.7z"/>
	<path class="st3" d="M981.5,777v-6.6h-2.6v-1.5h6.9v1.5h-2.6v6.6H981.5z"/>
	<path class="st3" d="M990,777.1c-0.7,0-1.4-0.2-2-0.5c-0.6-0.4-1.1-0.9-1.4-1.5c-0.4-0.6-0.5-1.4-0.5-2.2c0-0.8,0.2-1.5,0.5-2.2
		c0.4-0.6,0.8-1.1,1.4-1.5c0.6-0.4,1.3-0.5,2-0.5c0.7,0,1.4,0.2,1.9,0.5c0.6,0.3,1.1,0.8,1.4,1.4s0.5,1.3,0.5,2c0,0.2,0,0.4,0,0.5
		c0,0.2,0,0.3-0.1,0.3h-6.1c0.1,0.4,0.2,0.8,0.4,1.1s0.5,0.6,0.8,0.8c0.3,0.2,0.7,0.3,1.1,0.3c0.4,0,0.8-0.1,1.2-0.3
		s0.6-0.5,0.8-0.8h1.7c-0.2,0.5-0.4,0.9-0.7,1.2c-0.3,0.4-0.7,0.7-1.2,0.9C991.2,777,990.6,777.1,990,777.1z M992.2,772.3
		c0-0.4-0.1-0.8-0.4-1.1c-0.2-0.3-0.5-0.6-0.8-0.8c-0.3-0.2-0.7-0.3-1.1-0.3c-0.4,0-0.8,0.1-1.2,0.3c-0.3,0.2-0.6,0.5-0.8,0.8
		c-0.2,0.3-0.3,0.7-0.4,1.1H992.2z"/>
	<path class="st3" d="M994.2,777.1v-1.6h0.4c0.3,0,0.6-0.1,0.7-0.3c0.2-0.2,0.3-0.5,0.3-0.9l0.4-5.4h5.7v8h-1.6v-6.6h-2.6l-0.4,4.1
		c-0.1,0.9-0.3,1.5-0.7,1.9c-0.4,0.4-1,0.6-1.8,0.6H994.2z"/>
	<path class="st3" d="M1003.8,777v-8h1.6v2.6h2.3c0.6,0,1,0.1,1.5,0.3c0.4,0.2,0.8,0.6,1,1s0.4,0.9,0.4,1.4c0,0.5-0.1,1-0.4,1.4
		c-0.2,0.4-0.6,0.7-1,1c-0.4,0.2-0.9,0.4-1.5,0.4H1003.8z M1007.5,775.6c0.4,0,0.7-0.1,1-0.4c0.3-0.3,0.4-0.6,0.4-1
		c0-0.4-0.1-0.7-0.4-1s-0.6-0.4-1-0.4h-2.1v2.7H1007.5z"/>
	<path class="st3" d="M1016.8,777v-8.4h-2.3V767h1.9c0.2,0,0.3,0,0.4-0.1s0.1-0.2,0.1-0.4v-0.8h1.7V777H1016.8z"/>
</g>
<g>
	<path class="st3" d="M1128.2,777v-11.2h9V777h-1.7v-9.6h-5.6v9.6H1128.2z"/>
	<path class="st3" d="M1143,777.1c-0.7,0-1.4-0.2-2-0.5s-1.1-0.9-1.4-1.5c-0.3-0.6-0.5-1.4-0.5-2.2c0-0.8,0.2-1.5,0.5-2.2
		c0.3-0.6,0.8-1.1,1.4-1.5s1.3-0.5,2-0.5c0.7,0,1.4,0.2,2,0.5c0.6,0.4,1.1,0.9,1.4,1.5c0.3,0.6,0.5,1.4,0.5,2.2
		c0,0.8-0.2,1.5-0.5,2.2c-0.3,0.6-0.8,1.1-1.4,1.5C1144.4,776.9,1143.7,777.1,1143,777.1z M1143,775.6c0.4,0,0.8-0.1,1.2-0.3
		c0.4-0.2,0.7-0.5,0.9-1c0.2-0.4,0.3-0.9,0.3-1.4c0-0.5-0.1-1-0.3-1.4c-0.2-0.4-0.5-0.7-0.9-1c-0.4-0.2-0.8-0.3-1.2-0.3
		c-0.4,0-0.8,0.1-1.2,0.3c-0.4,0.2-0.7,0.5-0.9,1c-0.2,0.4-0.3,0.9-0.3,1.4c0,0.5,0.1,1,0.3,1.4c0.2,0.4,0.5,0.7,0.9,1
		C1142.1,775.5,1142.5,775.6,1143,775.6z"/>
	<path class="st3" d="M1148.4,777v-8h1.6v3.7l3.3-3.7h1.9l-3.6,3.9l3.8,4.1h-1.9l-3.5-3.8v3.8H1148.4z"/>
	<path class="st3" d="M1158.2,777.1c-0.6,0-1.1-0.1-1.5-0.3c-0.4-0.2-0.8-0.5-1-0.9c-0.2-0.4-0.4-0.8-0.4-1.3c0-0.5,0.1-1,0.4-1.4
		s0.6-0.7,1.1-0.9c0.5-0.2,1.1-0.3,1.8-0.3h2v-0.2c0-0.5-0.2-0.9-0.5-1.2c-0.3-0.3-0.7-0.5-1.2-0.5c-0.5,0-0.9,0.1-1.2,0.3
		c-0.3,0.2-0.5,0.5-0.5,0.8h-1.6c0-0.4,0.2-0.8,0.5-1.2s0.6-0.7,1.1-0.9c0.5-0.2,1.1-0.4,1.7-0.4c0.7,0,1.3,0.1,1.8,0.4
		s0.9,0.6,1.1,1.1c0.3,0.5,0.4,1,0.4,1.6v5.1h-1.4l-0.2-0.9h-0.1c-0.2,0.3-0.5,0.5-0.9,0.7C1159.2,777,1158.7,777.1,1158.2,777.1z
		 M1158.4,775.7c0.5,0,0.9-0.1,1.2-0.3s0.6-0.4,0.8-0.8s0.3-0.7,0.3-1.1v-0.3h-1.9c-0.6,0-1,0.1-1.3,0.3c-0.3,0.2-0.4,0.5-0.4,0.9
		c0,0.4,0.1,0.6,0.4,0.9S1157.9,775.7,1158.4,775.7z"/>
	<path class="st3" d="M1166.9,777.1c-0.7,0-1.3-0.1-1.8-0.4c-0.5-0.2-0.9-0.6-1.2-1c-0.3-0.4-0.4-0.9-0.4-1.4h1.6
		c0,0.2,0.1,0.5,0.2,0.7c0.1,0.2,0.3,0.4,0.6,0.5c0.3,0.1,0.6,0.2,0.9,0.2c0.6,0,1-0.1,1.3-0.3c0.3-0.2,0.4-0.5,0.4-0.8
		c0-0.3-0.1-0.6-0.4-0.8c-0.3-0.2-0.7-0.3-1.2-0.3h-0.8v-1.2h0.8c0.5,0,0.8-0.1,1.1-0.3s0.4-0.5,0.4-0.8c0-0.3-0.1-0.5-0.4-0.8
		c-0.3-0.2-0.7-0.3-1.2-0.3c-0.5,0-0.9,0.1-1.2,0.4c-0.3,0.2-0.4,0.5-0.4,0.9h-1.6c0-0.5,0.1-0.9,0.4-1.3c0.3-0.4,0.6-0.7,1.1-1
		c0.5-0.2,1-0.4,1.7-0.4c0.7,0,1.2,0.1,1.7,0.3s0.8,0.5,1.1,0.9c0.2,0.4,0.4,0.8,0.4,1.2c0,0.4-0.1,0.8-0.4,1.1
		c-0.3,0.3-0.5,0.5-0.8,0.6v0.1c0.4,0.1,0.7,0.3,1,0.6c0.3,0.3,0.4,0.7,0.4,1.2c0,0.4-0.1,0.9-0.4,1.2c-0.3,0.4-0.6,0.7-1.1,0.9
		C1168.2,777,1167.6,777.1,1166.9,777.1z"/>
	<path class="st3" d="M1174,777.1c-0.6,0-1.1-0.1-1.5-0.3c-0.4-0.2-0.8-0.5-1-0.9c-0.2-0.4-0.4-0.8-0.4-1.3c0-0.5,0.1-1,0.4-1.4
		s0.6-0.7,1.1-0.9c0.5-0.2,1.1-0.3,1.8-0.3h2v-0.2c0-0.5-0.2-0.9-0.5-1.2c-0.3-0.3-0.7-0.5-1.2-0.5c-0.5,0-0.9,0.1-1.2,0.3
		c-0.3,0.2-0.5,0.5-0.5,0.8h-1.6c0-0.4,0.2-0.8,0.5-1.2s0.6-0.7,1.1-0.9c0.5-0.2,1.1-0.4,1.7-0.4c0.7,0,1.3,0.1,1.8,0.4
		s0.9,0.6,1.1,1.1c0.3,0.5,0.4,1,0.4,1.6v5.1h-1.4l-0.2-0.9h-0.1c-0.2,0.3-0.5,0.5-0.9,0.7C1175.1,777,1174.6,777.1,1174,777.1z
		 M1174.2,775.7c0.5,0,0.9-0.1,1.2-0.3s0.6-0.4,0.8-0.8s0.3-0.7,0.3-1.1v-0.3h-1.9c-0.6,0-1,0.1-1.3,0.3c-0.3,0.2-0.4,0.5-0.4,0.9
		c0,0.4,0.1,0.6,0.4,0.9S1173.7,775.7,1174.2,775.7z"/>
	<path class="st3" d="M1181.5,777v-6.6h-2.6v-1.5h6.9v1.5h-2.6v6.6H1181.5z"/>
	<path class="st3" d="M1190,777.1c-0.7,0-1.4-0.2-2-0.5c-0.6-0.4-1.1-0.9-1.4-1.5c-0.4-0.6-0.5-1.4-0.5-2.2c0-0.8,0.2-1.5,0.5-2.2
		c0.4-0.6,0.8-1.1,1.4-1.5c0.6-0.4,1.3-0.5,2-0.5c0.7,0,1.4,0.2,1.9,0.5c0.6,0.3,1.1,0.8,1.4,1.4s0.5,1.3,0.5,2c0,0.2,0,0.4,0,0.5
		c0,0.2,0,0.3-0.1,0.3h-6.1c0.1,0.4,0.2,0.8,0.4,1.1s0.5,0.6,0.8,0.8c0.3,0.2,0.7,0.3,1.1,0.3c0.4,0,0.8-0.1,1.2-0.3
		s0.6-0.5,0.8-0.8h1.7c-0.2,0.5-0.4,0.9-0.7,1.2c-0.3,0.4-0.7,0.7-1.2,0.9C1191.2,777,1190.6,777.1,1190,777.1z M1192.2,772.3
		c0-0.4-0.1-0.8-0.4-1.1c-0.2-0.3-0.5-0.6-0.8-0.8c-0.3-0.2-0.7-0.3-1.1-0.3c-0.4,0-0.8,0.1-1.2,0.3c-0.3,0.2-0.6,0.5-0.8,0.8
		c-0.2,0.3-0.3,0.7-0.4,1.1H1192.2z"/>
	<path class="st3" d="M1194.2,777.1v-1.6h0.4c0.3,0,0.6-0.1,0.7-0.3c0.2-0.2,0.3-0.5,0.3-0.9l0.4-5.4h5.7v8h-1.6v-6.6h-2.6l-0.4,4.1
		c-0.1,0.9-0.3,1.5-0.7,1.9c-0.4,0.4-1,0.6-1.8,0.6H1194.2z"/>
	<path class="st3" d="M1203.8,777v-8h1.6v2.6h2.3c0.6,0,1,0.1,1.5,0.3c0.4,0.2,0.8,0.6,1,1s0.4,0.9,0.4,1.4c0,0.5-0.1,1-0.4,1.4
		c-0.2,0.4-0.6,0.7-1,1c-0.4,0.2-0.9,0.4-1.5,0.4H1203.8z M1207.5,775.6c0.4,0,0.7-0.1,1-0.4c0.3-0.3,0.4-0.6,0.4-1
		c0-0.4-0.1-0.7-0.4-1s-0.6-0.4-1-0.4h-2.1v2.7H1207.5z"/>
	<path class="st3" d="M1215.2,777v-1.4l4.6-4.6c0.3-0.3,0.5-0.6,0.6-0.8c0.1-0.3,0.2-0.6,0.2-1c0-0.4-0.1-0.7-0.2-1
		c-0.2-0.3-0.4-0.5-0.7-0.7c-0.3-0.2-0.6-0.2-1-0.2c-0.4,0-0.7,0.1-1,0.3c-0.3,0.2-0.5,0.4-0.7,0.8s-0.3,0.7-0.3,1.1h-1.7
		c0-0.7,0.2-1.4,0.5-1.9s0.7-1,1.3-1.3c0.6-0.3,1.2-0.5,1.9-0.5s1.3,0.1,1.9,0.4c0.5,0.3,1,0.7,1.3,1.2c0.3,0.5,0.5,1.1,0.5,1.8
		c0,0.4-0.1,0.8-0.2,1.2s-0.3,0.7-0.5,0.9s-0.5,0.6-0.8,0.9l-3.1,3.2v0.1h4.8v1.6H1215.2z"/>
</g>
<g>
	<path class="st3" d="M1328.2,777v-11.2h9V777h-1.7v-9.6h-5.6v9.6H1328.2z"/>
	<path class="st3" d="M1343,777.1c-0.7,0-1.4-0.2-2-0.5s-1.1-0.9-1.4-1.5c-0.3-0.6-0.5-1.4-0.5-2.2c0-0.8,0.2-1.5,0.5-2.2
		c0.3-0.6,0.8-1.1,1.4-1.5s1.3-0.5,2-0.5c0.7,0,1.4,0.2,2,0.5c0.6,0.4,1.1,0.9,1.4,1.5c0.3,0.6,0.5,1.4,0.5,2.2
		c0,0.8-0.2,1.5-0.5,2.2c-0.3,0.6-0.8,1.1-1.4,1.5C1344.4,776.9,1343.7,777.1,1343,777.1z M1343,775.6c0.4,0,0.8-0.1,1.2-0.3
		c0.4-0.2,0.7-0.5,0.9-1c0.2-0.4,0.3-0.9,0.3-1.4c0-0.5-0.1-1-0.3-1.4c-0.2-0.4-0.5-0.7-0.9-1c-0.4-0.2-0.8-0.3-1.2-0.3
		c-0.4,0-0.8,0.1-1.2,0.3c-0.4,0.2-0.7,0.5-0.9,1c-0.2,0.4-0.3,0.9-0.3,1.4c0,0.5,0.1,1,0.3,1.4c0.2,0.4,0.5,0.7,0.9,1
		C1342.1,775.5,1342.5,775.6,1343,775.6z"/>
	<path class="st3" d="M1348.4,777v-8h1.6v3.7l3.3-3.7h1.9l-3.6,3.9l3.8,4.1h-1.9l-3.5-3.8v3.8H1348.4z"/>
	<path class="st3" d="M1358.2,777.1c-0.6,0-1.1-0.1-1.5-0.3c-0.4-0.2-0.8-0.5-1-0.9c-0.2-0.4-0.4-0.8-0.4-1.3c0-0.5,0.1-1,0.4-1.4
		s0.6-0.7,1.1-0.9c0.5-0.2,1.1-0.3,1.8-0.3h2v-0.2c0-0.5-0.2-0.9-0.5-1.2c-0.3-0.3-0.7-0.5-1.2-0.5c-0.5,0-0.9,0.1-1.2,0.3
		c-0.3,0.2-0.5,0.5-0.5,0.8h-1.6c0-0.4,0.2-0.8,0.5-1.2s0.6-0.7,1.1-0.9c0.5-0.2,1.1-0.4,1.7-0.4c0.7,0,1.3,0.1,1.8,0.4
		s0.9,0.6,1.1,1.1c0.3,0.5,0.4,1,0.4,1.6v5.1h-1.4l-0.2-0.9h-0.1c-0.2,0.3-0.5,0.5-0.9,0.7C1359.2,777,1358.7,777.1,1358.2,777.1z
		 M1358.4,775.7c0.5,0,0.9-0.1,1.2-0.3s0.6-0.4,0.8-0.8s0.3-0.7,0.3-1.1v-0.3h-1.9c-0.6,0-1,0.1-1.3,0.3c-0.3,0.2-0.4,0.5-0.4,0.9
		c0,0.4,0.1,0.6,0.4,0.9S1357.9,775.7,1358.4,775.7z"/>
	<path class="st3" d="M1366.9,777.1c-0.7,0-1.3-0.1-1.8-0.4c-0.5-0.2-0.9-0.6-1.2-1c-0.3-0.4-0.4-0.9-0.4-1.4h1.6
		c0,0.2,0.1,0.5,0.2,0.7c0.1,0.2,0.3,0.4,0.6,0.5c0.3,0.1,0.6,0.2,0.9,0.2c0.6,0,1-0.1,1.3-0.3c0.3-0.2,0.4-0.5,0.4-0.8
		c0-0.3-0.1-0.6-0.4-0.8c-0.3-0.2-0.7-0.3-1.2-0.3h-0.8v-1.2h0.8c0.5,0,0.8-0.1,1.1-0.3s0.4-0.5,0.4-0.8c0-0.3-0.1-0.5-0.4-0.8
		c-0.3-0.2-0.7-0.3-1.2-0.3c-0.5,0-0.9,0.1-1.2,0.4c-0.3,0.2-0.4,0.5-0.4,0.9h-1.6c0-0.5,0.1-0.9,0.4-1.3c0.3-0.4,0.6-0.7,1.1-1
		c0.5-0.2,1-0.4,1.7-0.4c0.7,0,1.2,0.1,1.7,0.3s0.8,0.5,1.1,0.9c0.2,0.4,0.4,0.8,0.4,1.2c0,0.4-0.1,0.8-0.4,1.1
		c-0.3,0.3-0.5,0.5-0.8,0.6v0.1c0.4,0.1,0.7,0.3,1,0.6c0.3,0.3,0.4,0.7,0.4,1.2c0,0.4-0.1,0.9-0.4,1.2c-0.3,0.4-0.6,0.7-1.1,0.9
		C1368.2,777,1367.6,777.1,1366.9,777.1z"/>
	<path class="st3" d="M1374,777.1c-0.6,0-1.1-0.1-1.5-0.3c-0.4-0.2-0.8-0.5-1-0.9c-0.2-0.4-0.4-0.8-0.4-1.3c0-0.5,0.1-1,0.4-1.4
		s0.6-0.7,1.1-0.9c0.5-0.2,1.1-0.3,1.8-0.3h2v-0.2c0-0.5-0.2-0.9-0.5-1.2c-0.3-0.3-0.7-0.5-1.2-0.5c-0.5,0-0.9,0.1-1.2,0.3
		c-0.3,0.2-0.5,0.5-0.5,0.8h-1.6c0-0.4,0.2-0.8,0.5-1.2s0.6-0.7,1.1-0.9c0.5-0.2,1.1-0.4,1.7-0.4c0.7,0,1.3,0.1,1.8,0.4
		s0.9,0.6,1.1,1.1c0.3,0.5,0.4,1,0.4,1.6v5.1h-1.4l-0.2-0.9h-0.1c-0.2,0.3-0.5,0.5-0.9,0.7C1375.1,777,1374.6,777.1,1374,777.1z
		 M1374.2,775.7c0.5,0,0.9-0.1,1.2-0.3s0.6-0.4,0.8-0.8s0.3-0.7,0.3-1.1v-0.3h-1.9c-0.6,0-1,0.1-1.3,0.3c-0.3,0.2-0.4,0.5-0.4,0.9
		c0,0.4,0.1,0.6,0.4,0.9S1373.7,775.7,1374.2,775.7z"/>
	<path class="st3" d="M1381.5,777v-6.6h-2.6v-1.5h6.9v1.5h-2.6v6.6H1381.5z"/>
	<path class="st3" d="M1390,777.1c-0.7,0-1.4-0.2-2-0.5c-0.6-0.4-1.1-0.9-1.4-1.5c-0.4-0.6-0.5-1.4-0.5-2.2c0-0.8,0.2-1.5,0.5-2.2
		c0.4-0.6,0.8-1.1,1.4-1.5c0.6-0.4,1.3-0.5,2-0.5c0.7,0,1.4,0.2,1.9,0.5c0.6,0.3,1.1,0.8,1.4,1.4s0.5,1.3,0.5,2c0,0.2,0,0.4,0,0.5
		c0,0.2,0,0.3-0.1,0.3h-6.1c0.1,0.4,0.2,0.8,0.4,1.1s0.5,0.6,0.8,0.8c0.3,0.2,0.7,0.3,1.1,0.3c0.4,0,0.8-0.1,1.2-0.3
		s0.6-0.5,0.8-0.8h1.7c-0.2,0.5-0.4,0.9-0.7,1.2c-0.3,0.4-0.7,0.7-1.2,0.9C1391.2,777,1390.6,777.1,1390,777.1z M1392.2,772.3
		c0-0.4-0.1-0.8-0.4-1.1c-0.2-0.3-0.5-0.6-0.8-0.8c-0.3-0.2-0.7-0.3-1.1-0.3c-0.4,0-0.8,0.1-1.2,0.3c-0.3,0.2-0.6,0.5-0.8,0.8
		c-0.2,0.3-0.3,0.7-0.4,1.1H1392.2z"/>
	<path class="st3" d="M1394.2,777.1v-1.6h0.4c0.3,0,0.6-0.1,0.7-0.3c0.2-0.2,0.3-0.5,0.3-0.9l0.4-5.4h5.7v8h-1.6v-6.6h-2.6l-0.4,4.1
		c-0.1,0.9-0.3,1.5-0.7,1.9c-0.4,0.4-1,0.6-1.8,0.6H1394.2z"/>
	<path class="st3" d="M1403.8,777v-8h1.6v2.6h2.3c0.6,0,1,0.1,1.5,0.3c0.4,0.2,0.8,0.6,1,1s0.4,0.9,0.4,1.4c0,0.5-0.1,1-0.4,1.4
		c-0.2,0.4-0.6,0.7-1,1c-0.4,0.2-0.9,0.4-1.5,0.4H1403.8z M1407.5,775.6c0.4,0,0.7-0.1,1-0.4c0.3-0.3,0.4-0.6,0.4-1
		c0-0.4-0.1-0.7-0.4-1s-0.6-0.4-1-0.4h-2.1v2.7H1407.5z"/>
	<path class="st3" d="M1418.7,777.1c-0.8,0-1.4-0.1-2-0.4c-0.6-0.3-1-0.7-1.4-1.2c-0.3-0.5-0.5-1.1-0.5-1.7h1.7
		c0,0.3,0.1,0.6,0.3,0.9c0.2,0.3,0.4,0.5,0.7,0.6c0.3,0.2,0.7,0.2,1.1,0.2c0.4,0,0.8-0.1,1.1-0.2c0.3-0.2,0.6-0.4,0.7-0.6
		c0.2-0.3,0.3-0.6,0.3-0.9c0-0.5-0.2-1-0.6-1.3c-0.4-0.3-0.9-0.5-1.5-0.5h-0.7v-1.5h0.7c0.4,0,0.8-0.1,1-0.2
		c0.3-0.1,0.5-0.4,0.7-0.6s0.2-0.5,0.2-0.9c0-0.3-0.1-0.5-0.2-0.8s-0.4-0.4-0.7-0.6c-0.3-0.1-0.6-0.2-1-0.2c-0.4,0-0.7,0.1-1,0.2
		s-0.5,0.3-0.7,0.6c-0.2,0.2-0.3,0.5-0.3,0.8h-1.7c0-0.6,0.2-1.1,0.5-1.6s0.8-0.9,1.3-1.2c0.6-0.3,1.2-0.4,1.9-0.4
		c0.7,0,1.3,0.1,1.9,0.4c0.5,0.3,1,0.7,1.3,1.1c0.3,0.5,0.5,1,0.5,1.6c0,0.4-0.1,0.8-0.3,1.1c-0.2,0.3-0.4,0.6-0.6,0.8
		c-0.3,0.2-0.5,0.4-0.8,0.5v0.1c0.5,0.2,0.9,0.5,1.3,0.9c0.4,0.5,0.6,1,0.6,1.7c0,0.6-0.2,1.1-0.5,1.6c-0.3,0.5-0.8,0.9-1.4,1.2
		C1420.1,777,1419.5,777.1,1418.7,777.1z"/>
</g>
<g>
	<path class="st3" d="M937.9,1040.8v-5.5h-11.3v-2.1l9.5-16.6h4.5v16.3h3.1v2.4h-3.1v5.5H937.9z M930.2,1032.8h7.8v-12.6h-0.7
		l-7.1,12.5V1032.8z"/>
	<path class="st3" d="M954.2,1041.1c-1.3,0-2.6-0.3-3.7-0.8s-2.1-1.3-2.9-2.3s-1.2-2.2-1.4-3.6h2.8c0.2,0.9,0.5,1.6,1,2.2
		c0.5,0.6,1.1,1.1,1.8,1.4c0.7,0.3,1.5,0.5,2.4,0.5c1,0,2-0.2,2.8-0.7c0.9-0.5,1.5-1.2,2-2c0.5-0.9,0.7-1.8,0.7-2.9
		c0-1.1-0.2-2.1-0.7-2.9s-1.1-1.5-1.9-2c-0.8-0.5-1.7-0.7-2.8-0.7c-1,0-1.9,0.2-2.7,0.5c-0.8,0.4-1.5,0.9-2,1.5h-2.9l1.4-12.8h13
		v2.6h-10.7l-0.8,7.1h0.2c0.6-0.5,1.3-0.9,2.1-1.2c0.8-0.3,1.7-0.4,2.7-0.4c1.4,0,2.7,0.4,3.9,1.1c1.2,0.7,2.1,1.7,2.9,2.9
		c0.7,1.2,1.1,2.6,1.1,4.2c0,1.6-0.4,3-1.1,4.2c-0.7,1.3-1.7,2.2-3,2.9S955.8,1041.1,954.2,1041.1z"/>
	<path class="st3" d="M966.3,1040.8v-3.1h3.1v3.1H966.3z"/>
	<path class="st3" d="M981.2,1041.1c-1.6,0-3-0.3-4.2-1c-1.2-0.6-2.1-1.5-2.8-2.5c-0.7-1.1-1-2.2-1-3.4c0-1,0.2-1.9,0.6-2.7
		c0.4-0.8,0.9-1.5,1.5-2c0.6-0.5,1.2-0.9,1.8-1.2v-0.2c-0.8-0.4-1.6-1.1-2.3-2c-0.7-0.9-1-2-1-3.2c0-1.2,0.3-2.4,1-3.4
		s1.5-1.9,2.7-2.4s2.4-0.9,3.8-0.9s2.7,0.3,3.8,0.9c1.1,0.6,2,1.4,2.7,2.4s1,2.2,1,3.4c0,1.2-0.3,2.3-1,3.2c-0.7,0.9-1.4,1.6-2.3,2
		v0.2c1,0.4,1.8,1.1,2.6,2.2c0.8,1.1,1.2,2.3,1.2,3.7c0,1.2-0.3,2.3-1,3.4c-0.7,1.1-1.6,1.9-2.8,2.6
		C984.2,1040.8,982.8,1041.1,981.2,1041.1z M981.2,1038.6c1,0,1.9-0.2,2.7-0.6c0.8-0.4,1.4-0.9,1.9-1.6c0.5-0.7,0.7-1.4,0.7-2.3
		c0-0.9-0.2-1.6-0.7-2.3c-0.4-0.7-1.1-1.2-1.9-1.6c-0.8-0.4-1.7-0.6-2.7-0.6s-1.9,0.2-2.6,0.6c-0.8,0.4-1.4,0.9-1.9,1.6
		c-0.5,0.7-0.7,1.4-0.7,2.3c0,0.9,0.2,1.6,0.7,2.3c0.5,0.7,1.1,1.2,1.9,1.6C979.4,1038.4,980.3,1038.6,981.2,1038.6z M981.2,1027.1
		c0.9,0,1.8-0.2,2.5-0.6c0.7-0.4,1.2-0.9,1.6-1.5c0.4-0.6,0.6-1.3,0.6-2.1c0-0.8-0.2-1.5-0.6-2.1c-0.4-0.6-0.9-1.1-1.6-1.5
		c-0.7-0.4-1.5-0.6-2.5-0.6s-1.8,0.2-2.5,0.6c-0.7,0.4-1.2,0.9-1.6,1.5c-0.4,0.6-0.6,1.3-0.6,2.1c0,0.8,0.2,1.5,0.6,2.1
		c0.4,0.6,0.9,1.1,1.6,1.5C979.5,1026.9,980.3,1027.1,981.2,1027.1z"/>
	<path class="st3" d="M996.8,1040.8l5.7-9h-0.2c-0.3,0.1-0.6,0.2-1,0.2c-0.4,0.1-0.8,0.1-1.2,0.1c-1.4,0-2.7-0.3-3.9-1
		c-1.2-0.7-2.1-1.6-2.8-2.8s-1-2.5-1-4c0-1.5,0.4-2.8,1.1-4.1c0.7-1.2,1.7-2.2,3-3c1.3-0.7,2.7-1.1,4.2-1.1s2.9,0.4,4.2,1.1
		s2.3,1.7,3,3c0.7,1.2,1.1,2.6,1.1,4.1c0,0.8-0.1,1.7-0.4,2.5c-0.3,0.9-0.6,1.6-1,2.1l-7.6,11.8H996.8z M1000.6,1029.9
		c1,0,2-0.2,2.8-0.7c0.9-0.5,1.5-1.2,2-2c0.5-0.9,0.7-1.8,0.7-2.8c0-1-0.2-2-0.7-2.8s-1.2-1.5-2-2c-0.9-0.5-1.8-0.7-2.8-0.7
		s-2,0.2-2.8,0.7c-0.9,0.5-1.5,1.2-2,2c-0.5,0.9-0.7,1.8-0.7,2.8c0,1,0.2,2,0.7,2.8c0.5,0.9,1.2,1.5,2,2
		C998.7,1029.6,999.6,1029.9,1000.6,1029.9z"/>
	<path class="st3" d="M1016.2,1040.8l5.7-9h-0.2c-0.3,0.1-0.6,0.2-1,0.2c-0.4,0.1-0.8,0.1-1.2,0.1c-1.4,0-2.7-0.3-3.9-1
		s-2.1-1.6-2.8-2.8c-0.7-1.2-1-2.5-1-4c0-1.5,0.4-2.8,1.1-4.1c0.7-1.2,1.7-2.2,3-3s2.7-1.1,4.2-1.1s2.9,0.4,4.2,1.1
		c1.3,0.7,2.3,1.7,3,3c0.7,1.2,1.1,2.6,1.1,4.1c0,0.8-0.1,1.7-0.4,2.5c-0.3,0.9-0.6,1.6-1,2.1l-7.6,11.8H1016.2z M1020,1029.9
		c1,0,2-0.2,2.8-0.7c0.9-0.5,1.5-1.2,2-2c0.5-0.9,0.7-1.8,0.7-2.8c0-1-0.2-2-0.7-2.8s-1.2-1.5-2-2c-0.9-0.5-1.8-0.7-2.8-0.7
		s-2,0.2-2.8,0.7c-0.9,0.5-1.5,1.2-2,2c-0.5,0.9-0.7,1.8-0.7,2.8c0,1,0.2,2,0.7,2.8c0.5,0.9,1.2,1.5,2,2
		C1018.1,1029.6,1019,1029.9,1020,1029.9z"/>
</g>
<g>
	<path class="st3" d="M988.9,904.8V900h-10.3v-2.8l8.4-14.8h5.3V897h2.7v3h-2.7v4.8H988.9z M982.5,897h6.3v-10.3h-0.6l-5.7,10.1V897
		z"/>
	<path class="st3" d="M1004.4,905.1c-1.4,0-2.7-0.3-3.8-0.8s-2-1.3-2.7-2.3s-1.1-2.1-1.2-3.3h3.4c0.1,0.6,0.4,1.2,0.8,1.7
		c0.4,0.5,0.9,0.9,1.5,1.2c0.6,0.3,1.3,0.4,2,0.4c0.8,0,1.6-0.2,2.3-0.6s1.2-0.9,1.6-1.6c0.4-0.7,0.6-1.4,0.6-2.3
		c0-0.9-0.2-1.6-0.5-2.3c-0.4-0.7-0.9-1.2-1.5-1.6c-0.7-0.4-1.4-0.6-2.2-0.6c-0.9,0-1.6,0.2-2.3,0.5c-0.7,0.3-1.2,0.7-1.6,1.2h-3.5
		l1.3-12.3h12.5v3.2h-9.6l-0.6,5.5h0.2c0.5-0.4,1-0.6,1.7-0.8c0.7-0.2,1.4-0.3,2.3-0.3c1.3,0,2.6,0.3,3.7,1c1.1,0.7,2,1.6,2.7,2.7
		c0.7,1.1,1,2.4,1,3.9c0,1.5-0.3,2.8-1,3.9c-0.7,1.2-1.6,2.1-2.8,2.7C1007.3,904.8,1005.9,905.1,1004.4,905.1z"/>
	<path class="st3" d="M1019.7,892.2c-0.9,0-1.8-0.2-2.5-0.7s-1.4-1.1-1.9-1.8c-0.5-0.8-0.7-1.6-0.7-2.6c0-0.9,0.2-1.8,0.7-2.6
		c0.5-0.8,1.1-1.4,1.9-1.8s1.6-0.7,2.5-0.7c0.9,0,1.7,0.2,2.5,0.7c0.8,0.4,1.4,1.1,1.9,1.8c0.5,0.8,0.7,1.6,0.7,2.6
		c0,0.9-0.2,1.8-0.7,2.6c-0.5,0.8-1.1,1.4-1.8,1.8S1020.6,892.2,1019.7,892.2z M1019.7,889.7c0.4,0,0.8-0.1,1.2-0.3
		c0.4-0.2,0.7-0.5,0.9-0.9s0.3-0.8,0.3-1.4c0-0.5-0.1-0.9-0.3-1.3c-0.2-0.4-0.5-0.7-0.9-0.9c-0.4-0.2-0.8-0.3-1.2-0.3
		c-0.4,0-0.9,0.1-1.2,0.3c-0.4,0.2-0.7,0.5-0.9,0.9c-0.2,0.4-0.3,0.8-0.3,1.3c0,0.5,0.1,1,0.3,1.4c0.2,0.4,0.5,0.7,0.9,0.9
		C1018.8,889.6,1019.2,889.7,1019.7,889.7z M1017.4,904.8l13.9-22.4h3.2l-13.9,22.4H1017.4z M1032.3,905.1c-0.9,0-1.7-0.2-2.5-0.7
		c-0.8-0.4-1.4-1.1-1.9-1.8c-0.5-0.8-0.7-1.6-0.7-2.6c0-0.9,0.2-1.8,0.7-2.6c0.5-0.8,1.1-1.4,1.8-1.8c0.8-0.4,1.6-0.7,2.5-0.7
		c0.9,0,1.8,0.2,2.5,0.7c0.8,0.4,1.4,1.1,1.9,1.8c0.5,0.8,0.7,1.6,0.7,2.6c0,0.9-0.2,1.8-0.7,2.6c-0.5,0.8-1.1,1.4-1.9,1.8
		C1034.1,904.9,1033.3,905.1,1032.3,905.1z M1032.3,902.6c0.4,0,0.9-0.1,1.2-0.3c0.4-0.2,0.7-0.5,0.9-0.9c0.2-0.4,0.3-0.8,0.3-1.3
		c0-0.5-0.1-1-0.3-1.4c-0.2-0.4-0.5-0.7-0.9-0.9c-0.4-0.2-0.8-0.3-1.2-0.3c-0.4,0-0.8,0.1-1.2,0.3c-0.4,0.2-0.7,0.5-0.9,0.9
		s-0.3,0.8-0.3,1.4c0,0.5,0.1,0.9,0.3,1.3c0.2,0.4,0.5,0.7,0.9,0.9C1031.5,902.5,1031.9,902.6,1032.3,902.6z"/>
</g>
<g>
	<path class="st3" d="M1191.1,905.1c-1.4,0-2.7-0.3-3.8-0.8c-1.1-0.6-2-1.3-2.7-2.3c-0.7-1-1.1-2.1-1.2-3.3h3.4
		c0.1,0.6,0.4,1.2,0.8,1.7c0.4,0.5,0.9,0.9,1.5,1.2s1.3,0.4,2,0.4c0.8,0,1.6-0.2,2.3-0.6c0.7-0.4,1.2-0.9,1.6-1.6s0.6-1.4,0.6-2.3
		c0-0.9-0.2-1.6-0.5-2.3c-0.4-0.7-0.9-1.2-1.5-1.6s-1.4-0.6-2.2-0.6c-0.9,0-1.6,0.2-2.3,0.5c-0.7,0.3-1.2,0.7-1.6,1.2h-3.5l1.3-12.3
		h12.5v3.2h-9.6l-0.6,5.5h0.2c0.5-0.4,1-0.6,1.7-0.8c0.7-0.2,1.4-0.3,2.3-0.3c1.3,0,2.6,0.3,3.7,1s2,1.6,2.7,2.7
		c0.7,1.1,1,2.4,1,3.9c0,1.5-0.3,2.8-1,3.9c-0.7,1.2-1.6,2.1-2.8,2.7C1194,904.8,1192.6,905.1,1191.1,905.1z"/>
	<path class="st3" d="M1201.1,904.8v-2.9l9.2-9.3c0.6-0.6,1-1.2,1.3-1.7s0.4-1.2,0.4-1.9c0-0.7-0.2-1.4-0.5-1.9
		c-0.3-0.6-0.8-1-1.3-1.3c-0.6-0.3-1.2-0.5-2-0.5c-0.7,0-1.4,0.2-2,0.5c-0.6,0.4-1.1,0.9-1.4,1.5s-0.5,1.4-0.5,2.2h-3.4
		c0-1.4,0.3-2.7,0.9-3.9c0.6-1.1,1.5-2,2.6-2.7c1.1-0.6,2.4-1,3.8-1c1.4,0,2.7,0.3,3.7,0.9c1.1,0.6,1.9,1.4,2.5,2.5s0.9,2.3,0.9,3.6
		c0,0.9-0.1,1.7-0.4,2.4s-0.6,1.3-1,1.9s-1,1.2-1.6,1.8l-6.3,6.4v0.2h9.7v3.2H1201.1z"/>
	<path class="st3" d="M1222.9,892.2c-0.9,0-1.8-0.2-2.5-0.7s-1.4-1.1-1.9-1.8c-0.5-0.8-0.7-1.6-0.7-2.6c0-0.9,0.2-1.8,0.7-2.6
		c0.5-0.8,1.1-1.4,1.9-1.8s1.6-0.7,2.5-0.7c0.9,0,1.7,0.2,2.5,0.7c0.8,0.4,1.4,1.1,1.9,1.8c0.5,0.8,0.7,1.6,0.7,2.6
		c0,0.9-0.2,1.8-0.7,2.6c-0.5,0.8-1.1,1.4-1.8,1.8S1223.8,892.2,1222.9,892.2z M1222.9,889.7c0.4,0,0.8-0.1,1.2-0.3
		c0.4-0.2,0.7-0.5,0.9-0.9c0.2-0.4,0.3-0.8,0.3-1.4c0-0.5-0.1-0.9-0.3-1.3c-0.2-0.4-0.5-0.7-0.9-0.9c-0.4-0.2-0.8-0.3-1.2-0.3
		c-0.4,0-0.9,0.1-1.2,0.3c-0.4,0.2-0.7,0.5-0.9,0.9c-0.2,0.4-0.3,0.8-0.3,1.3c0,0.5,0.1,1,0.3,1.4s0.5,0.7,0.9,0.9
		C1222,889.6,1222.4,889.7,1222.9,889.7z M1220.6,904.8l13.9-22.4h3.2l-13.9,22.4H1220.6z M1235.5,905.1c-0.9,0-1.7-0.2-2.5-0.7
		c-0.8-0.4-1.4-1.1-1.9-1.8c-0.5-0.8-0.7-1.6-0.7-2.6c0-0.9,0.2-1.8,0.7-2.6c0.5-0.8,1.1-1.4,1.8-1.8c0.8-0.4,1.6-0.7,2.5-0.7
		c0.9,0,1.8,0.2,2.5,0.7c0.8,0.4,1.4,1.1,1.9,1.8c0.5,0.8,0.7,1.6,0.7,2.6c0,0.9-0.2,1.8-0.7,2.6c-0.5,0.8-1.1,1.4-1.9,1.8
		C1237.3,904.9,1236.5,905.1,1235.5,905.1z M1235.5,902.6c0.4,0,0.9-0.1,1.2-0.3c0.4-0.2,0.7-0.5,0.9-0.9c0.2-0.4,0.3-0.8,0.3-1.3
		c0-0.5-0.1-1-0.3-1.4s-0.5-0.7-0.9-0.9c-0.4-0.2-0.8-0.3-1.2-0.3c-0.4,0-0.8,0.1-1.2,0.3c-0.4,0.2-0.7,0.5-0.9,0.9
		s-0.3,0.8-0.3,1.4c0,0.5,0.1,0.9,0.3,1.3c0.2,0.4,0.5,0.7,0.9,0.9C1234.7,902.5,1235.1,902.6,1235.5,902.6z"/>
</g>
<g>
	<path class="st3" d="M1389.7,905.1c-1.5,0-2.9-0.3-4-0.9c-1.2-0.6-2.1-1.4-2.7-2.4c-0.6-1-0.9-2.1-0.9-3.4h3.4
		c0,0.6,0.2,1.2,0.5,1.7c0.3,0.5,0.8,0.9,1.5,1.2c0.7,0.3,1.4,0.5,2.3,0.5c0.8,0,1.6-0.2,2.2-0.5c0.6-0.3,1.1-0.7,1.5-1.2
		c0.3-0.5,0.5-1.1,0.5-1.7c0-1.1-0.4-1.9-1.2-2.6c-0.8-0.7-1.8-1-3.1-1h-1.5v-3h1.5c0.8,0,1.5-0.1,2.1-0.4c0.6-0.3,1-0.7,1.3-1.2
		c0.3-0.5,0.5-1.1,0.5-1.7c0-0.6-0.2-1.1-0.5-1.6c-0.3-0.5-0.8-0.9-1.4-1.2c-0.6-0.3-1.3-0.4-2-0.4c-0.7,0-1.4,0.1-2,0.4
		c-0.6,0.3-1.1,0.7-1.4,1.2c-0.3,0.5-0.5,1-0.5,1.6h-3.4c0-1.1,0.3-2.2,0.9-3.2c0.6-1,1.5-1.8,2.6-2.4c1.1-0.6,2.4-0.9,3.8-0.9
		s2.7,0.3,3.8,0.8c1.1,0.6,1.9,1.3,2.6,2.3s0.9,2,0.9,3.2c0,0.8-0.2,1.6-0.5,2.3c-0.3,0.7-0.8,1.2-1.3,1.7s-1,0.8-1.5,0.9v0.2
		c0.9,0.3,1.8,0.9,2.5,1.8c0.8,0.9,1.1,2,1.1,3.3c0,1.2-0.3,2.3-1,3.2c-0.6,1-1.5,1.8-2.7,2.4
		C1392.5,904.8,1391.2,905.1,1389.7,905.1z"/>
	<path class="st3" d="M1407.3,905.1c-1.5,0-2.9-0.3-4-0.9c-1.2-0.6-2.1-1.4-2.7-2.4c-0.6-1-0.9-2.1-0.9-3.4h3.4
		c0,0.6,0.2,1.2,0.5,1.7c0.3,0.5,0.8,0.9,1.5,1.2c0.7,0.3,1.4,0.5,2.3,0.5c0.8,0,1.6-0.2,2.2-0.5c0.6-0.3,1.1-0.7,1.5-1.2
		c0.3-0.5,0.5-1.1,0.5-1.7c0-1.1-0.4-1.9-1.2-2.6c-0.8-0.7-1.8-1-3.1-1h-1.5v-3h1.5c0.8,0,1.5-0.1,2.1-0.4c0.6-0.3,1-0.7,1.3-1.2
		c0.3-0.5,0.5-1.1,0.5-1.7c0-0.6-0.2-1.1-0.5-1.6c-0.3-0.5-0.8-0.9-1.4-1.2c-0.6-0.3-1.3-0.4-2-0.4c-0.7,0-1.4,0.1-2,0.4
		c-0.6,0.3-1.1,0.7-1.4,1.2c-0.3,0.5-0.5,1-0.5,1.6h-3.4c0-1.1,0.3-2.2,0.9-3.2c0.6-1,1.5-1.8,2.6-2.4c1.1-0.6,2.4-0.9,3.8-0.9
		s2.7,0.3,3.8,0.8c1.1,0.6,1.9,1.3,2.6,2.3s0.9,2,0.9,3.2c0,0.8-0.2,1.6-0.5,2.3c-0.3,0.7-0.8,1.2-1.3,1.7s-1,0.8-1.5,0.9v0.2
		c0.9,0.3,1.8,0.9,2.5,1.8c0.8,0.9,1.1,2,1.1,3.3c0,1.2-0.3,2.3-1,3.2c-0.6,1-1.5,1.8-2.7,2.4
		C1410.1,904.8,1408.8,905.1,1407.3,905.1z"/>
	<path class="st3" d="M1422.5,892.2c-0.9,0-1.8-0.2-2.5-0.7s-1.4-1.1-1.9-1.8c-0.5-0.8-0.7-1.6-0.7-2.6c0-0.9,0.2-1.8,0.7-2.6
		c0.5-0.8,1.1-1.4,1.9-1.8s1.6-0.7,2.5-0.7c0.9,0,1.7,0.2,2.5,0.7c0.8,0.4,1.4,1.1,1.9,1.8c0.5,0.8,0.7,1.6,0.7,2.6
		c0,0.9-0.2,1.8-0.7,2.6c-0.5,0.8-1.1,1.4-1.8,1.8S1423.4,892.2,1422.5,892.2z M1422.5,889.7c0.4,0,0.8-0.1,1.2-0.3
		c0.4-0.2,0.7-0.5,0.9-0.9s0.3-0.8,0.3-1.4c0-0.5-0.1-0.9-0.3-1.3c-0.2-0.4-0.5-0.7-0.9-0.9c-0.4-0.2-0.8-0.3-1.2-0.3
		c-0.4,0-0.9,0.1-1.2,0.3c-0.4,0.2-0.7,0.5-0.9,0.9c-0.2,0.4-0.3,0.8-0.3,1.3c0,0.5,0.1,1,0.3,1.4c0.2,0.4,0.5,0.7,0.9,0.9
		C1421.7,889.6,1422.1,889.7,1422.5,889.7z M1420.3,904.8l13.9-22.4h3.2l-13.9,22.4H1420.3z M1435.2,905.1c-0.9,0-1.7-0.2-2.5-0.7
		c-0.8-0.4-1.4-1.1-1.9-1.8c-0.5-0.8-0.7-1.6-0.7-2.6c0-0.9,0.2-1.8,0.7-2.6c0.5-0.8,1.1-1.4,1.8-1.8c0.8-0.4,1.6-0.7,2.5-0.7
		c0.9,0,1.8,0.2,2.5,0.7c0.8,0.4,1.4,1.1,1.9,1.8c0.5,0.8,0.7,1.6,0.7,2.6c0,0.9-0.2,1.8-0.7,2.6c-0.5,0.8-1.1,1.4-1.9,1.8
		C1436.9,904.9,1436.1,905.1,1435.2,905.1z M1435.2,902.6c0.4,0,0.9-0.1,1.2-0.3c0.4-0.2,0.7-0.5,0.9-0.9c0.2-0.4,0.3-0.8,0.3-1.3
		c0-0.5-0.1-1-0.3-1.4c-0.2-0.4-0.5-0.7-0.9-0.9c-0.4-0.2-0.8-0.3-1.2-0.3c-0.4,0-0.8,0.1-1.2,0.3c-0.4,0.2-0.7,0.5-0.9,0.9
		s-0.3,0.8-0.3,1.4c0,0.5,0.1,0.9,0.3,1.3c0.2,0.4,0.5,0.7,0.9,0.9C1434.4,902.5,1434.7,902.6,1435.2,902.6z"/>
</g>
<g>
	<path class="st3" d="M1137.5,1041.1c-1.3,0-2.6-0.3-3.7-0.8c-1.2-0.5-2.1-1.3-2.9-2.3c-0.8-1-1.2-2.2-1.4-3.6h2.8
		c0.2,0.9,0.5,1.6,1,2.2c0.5,0.6,1.1,1.1,1.8,1.4c0.7,0.3,1.5,0.5,2.4,0.5c1,0,2-0.2,2.8-0.7c0.9-0.5,1.5-1.2,2-2
		c0.5-0.9,0.7-1.8,0.7-2.9c0-1.1-0.2-2.1-0.7-2.9c-0.5-0.8-1.1-1.5-1.9-2c-0.8-0.5-1.7-0.7-2.8-0.7c-1,0-1.9,0.2-2.7,0.5
		c-0.8,0.4-1.5,0.9-2,1.5h-2.9l1.4-12.8h13v2.6h-10.7l-0.8,7.1h0.2c0.6-0.5,1.3-0.9,2.1-1.2s1.7-0.4,2.7-0.4c1.4,0,2.7,0.4,3.9,1.1
		s2.1,1.7,2.9,2.9c0.7,1.2,1.1,2.6,1.1,4.2c0,1.6-0.4,3-1.1,4.2c-0.7,1.3-1.7,2.2-3,2.9C1140.5,1040.8,1139.1,1041.1,1137.5,1041.1z
		"/>
	<path class="st3" d="M1148.8,1040.8v-2.3l9.9-10.6c0.7-0.8,1.3-1.5,1.6-2.2s0.5-1.4,0.5-2.3c0-0.9-0.2-1.7-0.6-2.4
		c-0.4-0.7-0.9-1.3-1.6-1.6c-0.7-0.4-1.5-0.6-2.4-0.6c-0.9,0-1.6,0.2-2.4,0.7c-0.7,0.4-1.3,1.1-1.7,1.8c-0.4,0.8-0.6,1.7-0.6,2.7
		h-2.8c0-1.5,0.3-2.8,1-4c0.6-1.2,1.5-2.1,2.6-2.8c1.1-0.7,2.4-1,3.8-1s2.7,0.3,3.8,0.9c1.1,0.6,2,1.5,2.7,2.6c0.6,1.1,1,2.4,1,3.8
		c0,0.9-0.1,1.8-0.4,2.5c-0.2,0.7-0.6,1.4-1,2s-0.9,1.2-1.6,1.9l-7.8,8.1v0.2h11.3v2.6H1148.8z"/>
	<path class="st3" d="M1167.5,1040.8v-3.1h3.1v3.1H1167.5z"/>
	<path class="st3" d="M1182.2,1041.1c-1.3,0-2.6-0.3-3.7-0.8s-2.1-1.3-2.9-2.3s-1.2-2.2-1.4-3.6h2.8c0.2,0.9,0.5,1.6,1,2.2
		c0.5,0.6,1.1,1.1,1.8,1.4c0.7,0.3,1.5,0.5,2.4,0.5c1,0,2-0.2,2.8-0.7c0.9-0.5,1.5-1.2,2-2c0.5-0.9,0.7-1.8,0.7-2.9
		c0-1.1-0.2-2.1-0.7-2.9c-0.5-0.8-1.1-1.5-1.9-2c-0.8-0.5-1.7-0.7-2.8-0.7c-1,0-1.9,0.2-2.7,0.5s-1.5,0.9-2,1.5h-2.9l1.4-12.8h13
		v2.6h-10.7l-0.8,7.1h0.2c0.6-0.5,1.3-0.9,2.1-1.2c0.8-0.3,1.7-0.4,2.7-0.4c1.4,0,2.7,0.4,3.9,1.1c1.2,0.7,2.1,1.7,2.9,2.9
		s1.1,2.6,1.1,4.2c0,1.6-0.4,3-1.1,4.2c-0.7,1.3-1.7,2.2-3,2.9C1185.2,1040.8,1183.8,1041.1,1182.2,1041.1z"/>
	<path class="st3" d="M1193.5,1040.8v-2.3l9.9-10.6c0.7-0.8,1.3-1.5,1.6-2.2c0.3-0.7,0.5-1.4,0.5-2.3c0-0.9-0.2-1.7-0.6-2.4
		c-0.4-0.7-0.9-1.3-1.6-1.6s-1.5-0.6-2.4-0.6c-0.9,0-1.6,0.2-2.4,0.7s-1.3,1.1-1.7,1.8c-0.4,0.8-0.6,1.7-0.6,2.7h-2.8
		c0-1.5,0.3-2.8,1-4c0.6-1.2,1.5-2.1,2.7-2.8c1.1-0.7,2.4-1,3.8-1s2.7,0.3,3.8,0.9c1.1,0.6,2,1.5,2.6,2.6s1,2.4,1,3.8
		c0,0.9-0.1,1.8-0.4,2.5s-0.6,1.4-1,2c-0.4,0.6-0.9,1.2-1.6,1.9l-7.8,8.1v0.2h11.3v2.6H1193.5z"/>
	<path class="st3" d="M1213.9,1040.8l8.5-21.6h-12.2v-2.6h15.2v2.3l-8.7,22H1213.9z"/>
</g>
<g>
	<path class="st3" d="M1338.2,1041.1c-1.6,0-3-0.3-4.2-0.9s-2.1-1.4-2.8-2.5s-1-2.2-1-3.4h2.8c0,0.8,0.2,1.5,0.6,2.1
		c0.4,0.6,1,1.1,1.8,1.5c0.8,0.4,1.7,0.6,2.8,0.6c1,0,1.9-0.2,2.7-0.6c0.8-0.4,1.4-0.9,1.8-1.6c0.4-0.7,0.7-1.4,0.7-2.2
		c0-1.3-0.5-2.4-1.4-3.2c-1-0.8-2.2-1.3-3.8-1.3h-1.6v-2.6h1.6c1,0,1.9-0.2,2.6-0.6c0.7-0.4,1.3-0.9,1.7-1.5
		c0.4-0.6,0.6-1.4,0.6-2.1c0-0.7-0.2-1.4-0.6-2c-0.4-0.6-1-1.1-1.7-1.5c-0.7-0.4-1.6-0.6-2.5-0.6c-0.9,0-1.7,0.2-2.5,0.6
		c-0.7,0.4-1.3,0.9-1.7,1.5c-0.4,0.6-0.6,1.3-0.6,2h-2.8c0-1.2,0.3-2.2,1-3.2c0.6-1,1.6-1.8,2.7-2.4c1.2-0.6,2.5-0.9,3.9-0.9
		c1.5,0,2.8,0.3,3.9,0.9c1.2,0.6,2.1,1.4,2.7,2.4s1,2.2,1,3.4c0,0.9-0.2,1.8-0.6,2.5s-0.9,1.4-1.5,1.9c-0.6,0.5-1.2,0.8-1.8,1.1v0.2
		c1.1,0.3,2,1,2.9,2c0.9,1,1.3,2.2,1.3,3.7c0,1.3-0.3,2.4-1,3.5c-0.7,1.1-1.6,1.9-2.8,2.5
		C1341.1,1040.8,1339.7,1041.1,1338.2,1041.1z"/>
	<path class="st3" d="M1357.2,1041.1c-1.6,0-3-0.3-4.2-0.9s-2.1-1.4-2.8-2.5s-1-2.2-1-3.4h2.8c0,0.8,0.2,1.5,0.6,2.1
		c0.4,0.6,1,1.1,1.8,1.5c0.8,0.4,1.7,0.6,2.8,0.6c1,0,1.9-0.2,2.7-0.6c0.8-0.4,1.4-0.9,1.8-1.6c0.4-0.7,0.7-1.4,0.7-2.2
		c0-1.3-0.5-2.4-1.4-3.2c-1-0.8-2.2-1.3-3.8-1.3h-1.6v-2.6h1.6c1,0,1.9-0.2,2.6-0.6c0.7-0.4,1.3-0.9,1.7-1.5
		c0.4-0.6,0.6-1.4,0.6-2.1c0-0.7-0.2-1.4-0.6-2c-0.4-0.6-1-1.1-1.7-1.5c-0.7-0.4-1.6-0.6-2.5-0.6c-0.9,0-1.7,0.2-2.5,0.6
		c-0.7,0.4-1.3,0.9-1.7,1.5c-0.4,0.6-0.6,1.3-0.6,2h-2.8c0-1.2,0.3-2.2,1-3.2c0.6-1,1.6-1.8,2.7-2.4c1.2-0.6,2.5-0.9,3.9-0.9
		c1.5,0,2.8,0.3,3.9,0.9c1.2,0.6,2.1,1.4,2.7,2.4s1,2.2,1,3.4c0,0.9-0.2,1.8-0.6,2.5s-0.9,1.4-1.5,1.9c-0.6,0.5-1.2,0.8-1.8,1.1v0.2
		c1.1,0.3,2,1,2.9,2c0.9,1,1.3,2.2,1.3,3.7c0,1.3-0.3,2.4-1,3.5c-0.7,1.1-1.6,1.9-2.8,2.5
		C1360.1,1040.8,1358.8,1041.1,1357.2,1041.1z"/>
	<path class="st3" d="M1369.2,1040.8v-3.1h3.1v3.1H1369.2z"/>
	<path class="st3" d="M1378.2,1040.8l8.5-21.6h-12.2v-2.6h15.2v2.3l-8.7,22H1378.2z"/>
	<path class="st3" d="M1396.9,1040.8v-19h-5.2v-2.4h4.2c0.3,0,0.6-0.1,0.8-0.3c0.2-0.2,0.3-0.4,0.3-0.8v-1.7h2.8v24.2H1396.9z"/>
	<path class="st3" d="M1413.7,1041.1c-1.7,0-3.3-0.5-4.7-1.5s-2.6-2.4-3.4-4.3c-0.8-1.9-1.3-4.1-1.3-6.7s0.4-4.9,1.3-6.7
		c0.8-1.9,2-3.3,3.4-4.3s3-1.5,4.7-1.5s3.3,0.5,4.7,1.5s2.6,2.4,3.4,4.3c0.8,1.9,1.3,4.1,1.3,6.7s-0.4,4.9-1.3,6.7
		c-0.8,1.9-2,3.3-3.4,4.3S1415.4,1041.1,1413.7,1041.1z M1413.7,1038.6c1.2,0,2.3-0.4,3.3-1.1c1-0.8,1.8-1.9,2.4-3.4
		c0.6-1.5,0.9-3.3,0.9-5.4s-0.3-3.9-0.9-5.4c-0.6-1.5-1.4-2.6-2.4-3.4c-1-0.8-2.1-1.1-3.3-1.1s-2.3,0.4-3.3,1.1
		c-1,0.8-1.8,1.9-2.4,3.4c-0.6,1.5-0.9,3.3-0.9,5.4s0.3,3.9,0.9,5.4c0.6,1.5,1.4,2.6,2.4,3.4
		C1411.4,1038.2,1412.5,1038.6,1413.7,1038.6z"/>
</g>
<g>
	<path d="M205.4,808.8V795h-3.8v-1.8h3c0.3,0,0.4-0.1,0.6-0.2s0.2-0.3,0.2-0.6v-1.3h2v17.5H205.4z"/>
	<path d="M216.4,809c-1.1,0-2.1-0.2-3-0.7s-1.5-1.1-2-1.8c-0.5-0.8-0.7-1.6-0.7-2.5c0-0.7,0.1-1.4,0.4-2c0.3-0.6,0.6-1.1,1.1-1.5
		c0.4-0.4,0.8-0.7,1.3-0.8v-0.1c-0.6-0.3-1.1-0.8-1.6-1.4s-0.7-1.4-0.7-2.3c0-0.9,0.2-1.7,0.7-2.5c0.5-0.8,1.1-1.3,1.9-1.8
		c0.8-0.4,1.7-0.6,2.8-0.6s1.9,0.2,2.8,0.6c0.8,0.4,1.5,1,1.9,1.8c0.5,0.8,0.7,1.6,0.7,2.5c0,0.9-0.2,1.7-0.7,2.3
		c-0.5,0.7-1,1.1-1.6,1.4v0.1c0.7,0.3,1.3,0.8,1.9,1.6c0.6,0.8,0.9,1.7,0.9,2.7c0,0.9-0.2,1.7-0.7,2.5s-1.1,1.4-2,1.8
		C218.5,808.8,217.5,809,216.4,809z M216.4,807.1c0.7,0,1.3-0.1,1.9-0.4c0.6-0.3,1-0.7,1.4-1.2c0.3-0.5,0.5-1,0.5-1.7
		c0-0.6-0.2-1.2-0.5-1.7c-0.3-0.5-0.8-0.9-1.4-1.2c-0.6-0.3-1.2-0.4-1.9-0.4s-1.3,0.1-1.9,0.4c-0.6,0.3-1,0.7-1.4,1.2
		c-0.3,0.5-0.5,1-0.5,1.7c0,0.6,0.2,1.2,0.5,1.7c0.3,0.5,0.8,0.9,1.4,1.2C215,807,215.7,807.1,216.4,807.1z M216.4,798.9
		c0.7,0,1.3-0.1,1.8-0.4c0.5-0.3,0.9-0.6,1.2-1.1s0.4-1,0.4-1.5s-0.1-1.1-0.4-1.5c-0.3-0.5-0.7-0.8-1.2-1.1
		c-0.5-0.3-1.1-0.4-1.8-0.4c-0.7,0-1.3,0.1-1.8,0.4s-0.9,0.6-1.2,1.1c-0.3,0.5-0.4,1-0.4,1.5s0.1,1.1,0.4,1.5s0.7,0.8,1.2,1.1
		C215.1,798.8,215.7,798.9,216.4,798.9z"/>
	<path d="M228.3,798.8c-0.7,0-1.3-0.2-1.9-0.5c-0.6-0.3-1.1-0.8-1.4-1.4c-0.4-0.6-0.5-1.3-0.5-2s0.2-1.4,0.5-2s0.8-1.1,1.4-1.4
		c0.6-0.3,1.2-0.5,1.9-0.5s1.3,0.2,1.9,0.5c0.6,0.3,1.1,0.8,1.4,1.4s0.5,1.3,0.5,2s-0.2,1.4-0.5,2c-0.4,0.6-0.8,1.1-1.4,1.4
		C229.6,798.6,229,798.8,228.3,798.8z M228.3,797.1c0.4,0,0.7-0.1,1.1-0.3c0.3-0.2,0.6-0.4,0.8-0.8c0.2-0.3,0.3-0.7,0.3-1.2
		s-0.1-0.8-0.3-1.2c-0.2-0.3-0.4-0.6-0.8-0.8s-0.7-0.3-1.1-0.3c-0.4,0-0.7,0.1-1.1,0.3s-0.6,0.4-0.8,0.8c-0.2,0.3-0.3,0.7-0.3,1.2
		s0.1,0.8,0.3,1.2c0.2,0.3,0.4,0.6,0.8,0.8C227.5,797.1,227.9,797.1,228.3,797.1z M226.5,808.8l10.9-17.5h2l-10.9,17.5H226.5z
		 M237.6,809c-0.7,0-1.3-0.2-1.9-0.5c-0.6-0.3-1.1-0.8-1.4-1.4c-0.4-0.6-0.5-1.3-0.5-2s0.2-1.4,0.5-2s0.8-1.1,1.4-1.4
		c0.6-0.3,1.2-0.5,1.9-0.5s1.3,0.2,1.9,0.5c0.6,0.3,1.1,0.8,1.4,1.4s0.5,1.3,0.5,2s-0.2,1.4-0.5,2c-0.4,0.6-0.8,1.1-1.4,1.4
		C239,808.9,238.3,809,237.6,809z M237.6,807.4c0.4,0,0.7-0.1,1.1-0.3c0.3-0.2,0.6-0.4,0.8-0.8c0.2-0.3,0.3-0.7,0.3-1.2
		s-0.1-0.8-0.3-1.2c-0.2-0.3-0.4-0.6-0.8-0.8s-0.7-0.3-1.1-0.3c-0.4,0-0.7,0.1-1.1,0.3s-0.6,0.4-0.8,0.8c-0.2,0.3-0.3,0.7-0.3,1.2
		s0.1,0.8,0.3,1.2c0.2,0.3,0.4,0.6,0.8,0.8C236.9,807.3,237.2,807.4,237.6,807.4z"/>
</g>
<g>
	<path d="M136.4,889.8V876h-3.8v-1.8h3c0.3,0,0.4-0.1,0.6-0.2s0.2-0.3,0.2-0.6v-1.3h2v17.5H136.4z"/>
	<path d="M149,889.8v-4h-8.1v-1.5l6.9-12h3.3V884h2.3v1.8H151v4H149z M143.4,884h5.6v-9.1h-0.5l-5.1,9V884z"/>
	<path d="M158.8,879.8c-0.7,0-1.3-0.2-1.9-0.5c-0.6-0.3-1.1-0.8-1.4-1.4c-0.4-0.6-0.5-1.3-0.5-2s0.2-1.4,0.5-2s0.8-1.1,1.4-1.4
		c0.6-0.3,1.2-0.5,1.9-0.5s1.3,0.2,1.9,0.5c0.6,0.3,1.1,0.8,1.4,1.4s0.5,1.3,0.5,2s-0.2,1.4-0.5,2c-0.4,0.6-0.8,1.1-1.4,1.4
		C160.1,879.6,159.5,879.8,158.8,879.8z M158.8,878.1c0.4,0,0.7-0.1,1.1-0.3c0.3-0.2,0.6-0.4,0.8-0.8c0.2-0.3,0.3-0.7,0.3-1.2
		s-0.1-0.8-0.3-1.2c-0.2-0.3-0.4-0.6-0.8-0.8s-0.7-0.3-1.1-0.3c-0.4,0-0.7,0.1-1.1,0.3s-0.6,0.4-0.8,0.8c-0.2,0.3-0.3,0.7-0.3,1.2
		s0.1,0.8,0.3,1.2c0.2,0.3,0.4,0.6,0.8,0.8C158,878.1,158.4,878.1,158.8,878.1z M157,889.8l10.9-17.5h2L159,889.8H157z M168.1,890
		c-0.7,0-1.3-0.2-1.9-0.5c-0.6-0.3-1.1-0.8-1.4-1.4c-0.4-0.6-0.5-1.3-0.5-2s0.2-1.4,0.5-2s0.8-1.1,1.4-1.4c0.6-0.3,1.2-0.5,1.9-0.5
		s1.3,0.2,1.9,0.5c0.6,0.3,1.1,0.8,1.4,1.4s0.5,1.3,0.5,2s-0.2,1.4-0.5,2c-0.4,0.6-0.8,1.1-1.4,1.4C169.5,889.9,168.8,890,168.1,890
		z M168.1,888.4c0.4,0,0.7-0.1,1.1-0.3c0.3-0.2,0.6-0.4,0.8-0.8c0.2-0.3,0.3-0.7,0.3-1.2s-0.1-0.8-0.3-1.2c-0.2-0.3-0.4-0.6-0.8-0.8
		s-0.7-0.3-1.1-0.3c-0.4,0-0.7,0.1-1.1,0.3s-0.6,0.4-0.8,0.8c-0.2,0.3-0.3,0.7-0.3,1.2s0.1,0.8,0.3,1.2c0.2,0.3,0.4,0.6,0.8,0.8
		C167.4,888.3,167.7,888.4,168.1,888.4z"/>
</g>
<g>
	<path class="st0" d="M344,962c-1.1,0-2.1-0.3-3-0.8c-0.9-0.5-1.6-1.2-2.2-2.1c-0.5-0.9-0.8-1.9-0.8-3c0-0.6,0.1-1.2,0.3-1.8
		c0.2-0.6,0.4-1.1,0.7-1.5l5.5-8.5h2.3l-4.1,6.5h0.1c0.2-0.1,0.5-0.1,0.8-0.2s0.6-0.1,0.9-0.1c1,0,2,0.2,2.8,0.7
		c0.9,0.5,1.5,1.2,2,2s0.8,1.8,0.8,2.9s-0.3,2-0.8,3c-0.5,0.9-1.3,1.6-2.2,2.1C346.1,961.8,345.1,962,344,962z M344,960.1
		c0.7,0,1.4-0.2,2-0.5c0.6-0.3,1.1-0.8,1.5-1.4c0.4-0.6,0.5-1.3,0.5-2s-0.2-1.4-0.5-2c-0.4-0.6-0.8-1.1-1.5-1.4
		c-0.6-0.4-1.3-0.5-2-0.5s-1.4,0.2-2,0.5c-0.6,0.3-1.1,0.8-1.5,1.4c-0.4,0.6-0.5,1.3-0.5,2s0.2,1.4,0.5,2c0.4,0.6,0.8,1.1,1.5,1.4
		C342.6,960,343.3,960.1,344,960.1z"/>
	<path class="st0" d="M358,962c-1.1,0-2.1-0.2-3-0.7s-1.5-1.1-2-1.8c-0.5-0.8-0.7-1.6-0.7-2.5c0-0.7,0.1-1.4,0.4-2
		c0.3-0.6,0.6-1.1,1.1-1.5c0.4-0.4,0.8-0.7,1.3-0.8v-0.1c-0.6-0.3-1.1-0.8-1.6-1.4s-0.7-1.4-0.7-2.3c0-0.9,0.2-1.7,0.7-2.5
		c0.5-0.8,1.1-1.3,1.9-1.8c0.8-0.4,1.7-0.6,2.8-0.6s1.9,0.2,2.8,0.6c0.8,0.4,1.5,1,1.9,1.8c0.5,0.8,0.7,1.6,0.7,2.5
		c0,0.9-0.2,1.7-0.7,2.3c-0.5,0.7-1,1.1-1.6,1.4v0.1c0.7,0.3,1.3,0.8,1.9,1.6c0.6,0.8,0.9,1.7,0.9,2.7c0,0.9-0.2,1.7-0.7,2.5
		s-1.1,1.4-2,1.8C360.1,961.8,359.1,962,358,962z M358,960.1c0.7,0,1.3-0.1,1.9-0.4c0.6-0.3,1-0.7,1.4-1.2c0.3-0.5,0.5-1,0.5-1.7
		c0-0.6-0.2-1.2-0.5-1.7c-0.3-0.5-0.8-0.9-1.4-1.2c-0.6-0.3-1.2-0.4-1.9-0.4s-1.3,0.1-1.9,0.4c-0.6,0.3-1,0.7-1.4,1.2
		c-0.3,0.5-0.5,1-0.5,1.7c0,0.6,0.2,1.2,0.5,1.7c0.3,0.5,0.8,0.9,1.4,1.2C356.7,960,357.3,960.1,358,960.1z M358,951.9
		c0.7,0,1.3-0.1,1.8-0.4c0.5-0.3,0.9-0.6,1.2-1.1s0.4-1,0.4-1.5s-0.1-1.1-0.4-1.5c-0.3-0.5-0.7-0.8-1.2-1.1
		c-0.5-0.3-1.1-0.4-1.8-0.4c-0.7,0-1.3,0.1-1.8,0.4s-0.9,0.6-1.2,1.1c-0.3,0.5-0.4,1-0.4,1.5s0.1,1.1,0.4,1.5s0.7,0.8,1.2,1.1
		C356.7,951.8,357.3,951.9,358,951.9z"/>
	<path class="st0" d="M369.9,951.8c-0.7,0-1.3-0.2-1.9-0.5c-0.6-0.3-1.1-0.8-1.4-1.4c-0.4-0.6-0.5-1.3-0.5-2s0.2-1.4,0.5-2
		s0.8-1.1,1.4-1.4c0.6-0.3,1.2-0.5,1.9-0.5s1.3,0.2,1.9,0.5c0.6,0.3,1.1,0.8,1.4,1.4s0.5,1.3,0.5,2s-0.2,1.4-0.5,2
		c-0.4,0.6-0.8,1.1-1.4,1.4C371.2,951.6,370.6,951.8,369.9,951.8z M369.9,950.1c0.4,0,0.7-0.1,1.1-0.3c0.3-0.2,0.6-0.4,0.8-0.8
		c0.2-0.3,0.3-0.7,0.3-1.2s-0.1-0.8-0.3-1.2c-0.2-0.3-0.4-0.6-0.8-0.8s-0.7-0.3-1.1-0.3c-0.4,0-0.7,0.1-1.1,0.3s-0.6,0.4-0.8,0.8
		c-0.2,0.3-0.3,0.7-0.3,1.2s0.1,0.8,0.3,1.2c0.2,0.3,0.4,0.6,0.8,0.8C369.1,950.1,369.5,950.1,369.9,950.1z M368.1,961.8l10.9-17.5
		h2l-10.9,17.5H368.1z M379.3,962c-0.7,0-1.3-0.2-1.9-0.5c-0.6-0.3-1.1-0.8-1.4-1.4c-0.4-0.6-0.5-1.3-0.5-2s0.2-1.4,0.5-2
		s0.8-1.1,1.4-1.4c0.6-0.3,1.2-0.5,1.9-0.5s1.3,0.2,1.9,0.5c0.6,0.3,1.1,0.8,1.4,1.4s0.5,1.3,0.5,2s-0.2,1.4-0.5,2
		c-0.4,0.6-0.8,1.1-1.4,1.4C380.6,961.9,380,962,379.3,962z M379.3,960.4c0.4,0,0.7-0.1,1.1-0.3c0.3-0.2,0.6-0.4,0.8-0.8
		c0.2-0.3,0.3-0.7,0.3-1.2s-0.1-0.8-0.3-1.2c-0.2-0.3-0.4-0.6-0.8-0.8s-0.7-0.3-1.1-0.3c-0.4,0-0.7,0.1-1.1,0.3s-0.6,0.4-0.8,0.8
		c-0.2,0.3-0.3,0.7-0.3,1.2s0.1,0.8,0.3,1.2c0.2,0.3,0.4,0.6,0.8,0.8C378.5,960.3,378.9,960.4,379.3,960.4z"/>
</g>
</svg>
