<?xml version="1.0" encoding="utf-8"?>
<!-- Generator: Adobe Illustrator 22.0.0, SVG Export Plug-In . SVG Version: 6.00 Build 0)  -->
<svg version="1.1" id="Layer_1" xmlns="http://www.w3.org/2000/svg" xmlns:xlink="http://www.w3.org/1999/xlink" x="0px" y="0px"
	 viewBox="0 0 935.9 242.5" style="enable-background:new 0 0 935.9 242.5;" xml:space="preserve">
<style type="text/css">
	.st0{fill:#1B1B2D;}
</style>
<g>
	<g>
		<path class="st0" d="M229.1,121.2c0,26.6-8.2,52.5-23.6,74.3c-15.4,21.7-37.1,38.2-62.2,47v-30.8c17.2-8.1,31.6-20.9,41.8-37
			c10.1-16.1,15.5-34.6,15.5-53.5s-5.4-37.5-15.6-53.5c-10.1-16.1-24.6-28.8-41.8-36.9V0c25.1,8.9,46.9,25.3,62.3,47
			C220.8,68.6,229.1,94.7,229.1,121.2z"/>
		<rect y="106.9" class="st0" width="114.5" height="28.6"/>
		<path class="st0" d="M171.8,121.2c0-9.4-1.8-18.7-5.4-27.4s-8.9-16.5-15.5-23.2c-6.6-6.6-14.6-11.9-23.2-15.5s-18-5.4-27.4-5.4
			H57.4v28.5h85.9V164H57.4v28.6h42.9c9.4,0,18.7-1.8,27.4-5.4c8.7-3.6,16.6-8.9,23.2-15.5s11.9-14.5,15.5-23.2
			C170,139.9,171.8,130.6,171.8,121.2z"/>
	</g>
	<g>
		<path class="st0" d="M423,207c-13,0-24.8-2.6-35.2-7.9s-19-12.4-25.9-21.4s-11.4-18.9-13.8-29.9h26.3c2.2,6.9,5.6,12.9,10.1,18.1
			c4.6,5.3,10.1,9.4,16.7,12.3c6.6,3,13.8,4.5,21.8,4.5c9.4,0,18-2.2,25.8-6.6c7.8-4.4,14.1-10.4,18.9-18.1
			c4.7-7.7,7.6-16.3,8.6-25.6h-73.3v-23.2h73.3c-0.9-9.2-3.8-17.6-8.6-25.2c-4.7-7.5-11.1-13.6-18.9-17.9
			c-7.8-4.4-16.3-6.6-25.8-6.6c-11.8,0-21.9,3.2-30.6,9.4c-8.6,6.3-14.7,14.4-18.1,24.2h-26.3c2.9-10.7,7.8-20.4,14.7-29.3
			c7-8.8,15.5-15.8,25.9-21C399,37.6,410.5,35,423,35c14.7,0,28.1,3.6,40.5,11s22,17.5,29.1,30.6c7.1,13,10.6,27.9,10.6,44.4
			s-3.5,31.3-10.6,44.4c-7.1,13-16.8,23.2-29.1,30.6C451.1,203.4,437.6,207,423,207z"/>
		<path class="st0" d="M504.2,205.8v-25.1h7.4c5.3,0,9.4-1.6,12.5-4.7c3.1-3.2,5-8,5.6-14.6L540,37.5h108.4v167.1h-25.5V61.9h-59.2
			l-8.8,102.8c-1.1,13.8-5.1,24.1-11.9,30.9c-6.9,6.8-16.4,10.1-28.9,10.1H504.2L504.2,205.8z"/>
		<path class="st0" d="M715,204.6V61.9h-52.3V37.6h129.8v24.3h-52.2v142.7L715,204.6L715,204.6z"/>
		<path class="st0" d="M776.1,204.6l61.3-167.1h37.4l61.1,167.1h-27.4L858.3,64.5h-4.7l-50.2,140.1H776.1z M813,164.7v-22.9h86.8
			v22.9H813z"/>
	</g>
</g>
</svg>
