<?xml version="1.0" encoding="utf-8"?>
<!-- Generator: Adobe Illustrator 22.0.0, SVG Export Plug-In . SVG Version: 6.00 Build 0)  -->
<svg version="1.1" id="Layer_1" xmlns="http://www.w3.org/2000/svg" xmlns:xlink="http://www.w3.org/1999/xlink" x="0px" y="0px"
	 viewBox="0 0 1026.3 276.6" style="enable-background:new 0 0 1026.3 276.6;" xml:space="preserve">
<style type="text/css">
	.st0{fill:#FFFFFF;}
</style>
<g>
	<g>
		<path class="st0" d="M513.1,138.3c0,58.7-36,98-93.1,98c-44.7,0-75.4-26.1-81.9-66.3h32.7c6.4,23.7,23.7,38.9,50.9,38.9
			c32.5,0,54.6-22.9,58.7-57.9h-74.1v-27.2h74.1c-4.3-34-24.9-56-56.8-56c-27.6,0-44.9,15-51.3,38.7h-32.7
			c6.6-40.1,38.3-66.3,82.8-66.3C479.1,40.3,513.1,79,513.1,138.3z"/>
		<path class="st0" d="M516.2,234.7v-28h4.9c19.8,0,28.6-12.6,28.6-69.6V42h139.2v192.7h-31.7V69.9h-77.4v69.4
			c0,71.9-17.3,95.3-55,95.3h-8.6V234.7z"/>
		<path class="st0" d="M712.2,41.9h150.5v28h-59.5v164.7h-31.7V69.9H712v-28H712.2z"/>
		<path class="st0" d="M844.6,234.7L916.7,42h37.7l71.9,192.7h-33.8l-18.1-47.6h-79.1l-17.9,47.6H844.6z M904.1,159.9h61.4l-30.9-84
			L904.1,159.9z"/>
	</g>
	<g>
		<path class="st0" d="M261.1,138.3c0,30.3-9.5,59.9-27,84.6s-42.2,43.4-70.8,53.7v-35.2c19.6-9.3,36-23.9,47.6-42.2
			c11.5-18.3,17.7-39.5,17.7-61.1s-6.2-42.8-17.7-60.9c-11.5-18.3-28.2-32.9-47.8-42V0c28.6,10.1,53.5,28.8,71,53.5
			C251.8,78.4,261.1,108,261.1,138.3z"/>
		<rect y="122" class="st0" width="130.5" height="32.5"/>
		<path class="st0" d="M195.8,138.3c0-10.7-2.1-21.2-6.2-31.3c-4.1-9.9-10.1-18.9-17.7-26.4c-7.6-7.6-16.7-13.6-26.6-17.7
			c-9.9-4.1-20.6-6.2-31.3-6.2H65.2v32.6h97.9v97.8H65.3v32.5h49c10.7,0,21.4-2.1,31.3-6.2c9.9-4.1,18.9-10.1,26.6-17.7
			c7.6-7.6,13.6-16.5,17.7-26.4C193.8,159.5,195.8,149,195.8,138.3z"/>
	</g>
</g>
</svg>
