<?xml version="1.0" encoding="utf-8"?>
<!-- Generator: Adobe Illustrator 22.0.0, SVG Export Plug-In . SVG Version: 6.00 Build 0)  -->
<svg version="1.1" id="Layer_1" xmlns="http://www.w3.org/2000/svg" xmlns:xlink="http://www.w3.org/1999/xlink" x="0px" y="0px"
	 viewBox="0 0 894 242.5" style="enable-background:new 0 0 894 242.5;" xml:space="preserve">
<style type="text/css">
	.st0{fill:#1B1B2D;}
</style>
<g>
	<path class="st0" d="M391,203.4c-12.6,0-24-2.6-34.1-7.9c-10.1-5.3-18.4-12.3-24.8-21.1c-6.4-8.8-10.7-18.4-12.8-28.8h26.9
		c1.8,6.2,4.8,11.8,8.9,16.7c4.1,4.9,9.2,8.7,15.4,11.5c6.2,2.8,13,4.2,20.4,4.2c8.8,0,16.8-2,23.9-6.1c7.1-4,12.8-9.5,17.1-16.4
		c4.3-6.9,7-14.5,7.9-22.7h-67.4v-23.7h67.4c-0.9-8.2-3.5-15.8-7.9-22.6c-4.3-6.8-10-12.3-17.1-16.2c-7.1-4-15-5.9-23.9-5.9
		c-11,0-20.4,2.9-28.3,8.8c-7.9,5.9-13.4,13.4-16.4,22.5h-26.9c2.4-10.2,6.9-19.6,13.5-28.2c6.5-8.6,14.8-15.5,24.8-20.7
		c10-5.2,21.1-7.8,33.4-7.8c14.2,0,27.1,3.5,38.9,10.5c11.8,7,21.1,16.7,27.9,29.2c6.8,12.5,10.2,26.6,10.2,42.5
		c0,15.8-3.4,30-10.2,42.5c-6.8,12.5-16.1,22.2-27.9,29.2C418.2,199.9,405.2,203.4,391,203.4z"/>
	<path class="st0" d="M471.6,202.3v-26h6.4c5.2,0,9.2-1.5,12.2-4.5c3-3,4.8-7.6,5.4-14l9.8-116.4h105v159.8h-26.5V66.7h-54.3
		l-8,95.2c-1.2,13.7-5.2,23.9-12,30.5c-6.8,6.6-16.3,9.9-28.4,9.9H471.6z"/>
	<path class="st0" d="M675,201.2V66.7h-48.9V41.3h124.2v25.3h-48.9v134.5H675z"/>
	<path class="st0" d="M739.4,201.2l58-159.8H836l58,159.8h-28.8L818.9,69.4h-4.6L768,201.2H739.4z M775.7,164.2v-23.7h82.4v23.7
		H775.7z"/>
</g>
<g>
	<path class="st0" d="M229.1,121.2c0,26.6-8.2,52.5-23.6,74.3c-15.4,21.7-37.1,38.2-62.2,47v-30.8c17.2-8.1,31.6-20.9,41.8-37
		c10.1-16.1,15.5-34.6,15.5-53.5s-5.4-37.5-15.6-53.5c-10.1-16.1-24.6-28.8-41.8-36.9V0c25.1,8.9,46.9,25.3,62.3,47
		C220.8,68.6,229.1,94.7,229.1,121.2z"/>
	<rect y="106.9" class="st0" width="114.5" height="28.6"/>
	<path class="st0" d="M171.8,121.2c0-9.4-1.8-18.7-5.4-27.4s-8.9-16.5-15.5-23.2c-6.6-6.6-14.6-11.9-23.2-15.5s-18-5.4-27.4-5.4
		H57.4v28.5h85.9V164H57.4v28.6h42.9c9.4,0,18.7-1.8,27.4-5.4c8.7-3.6,16.6-8.9,23.2-15.5s11.9-14.5,15.5-23.2
		C170,139.9,171.8,130.6,171.8,121.2z"/>
</g>
</svg>
