<?xml version="1.0" encoding="utf-8"?>
<!-- Generator: Adobe Illustrator 22.0.0, SVG Export Plug-In . SVG Version: 6.00 Build 0)  -->
<svg version="1.1" id="Layer_1" xmlns="http://www.w3.org/2000/svg" xmlns:xlink="http://www.w3.org/1999/xlink" x="0px" y="0px"
	 viewBox="0 0 48 41.8" style="enable-background:new 0 0 48 41.8;" xml:space="preserve">
<style type="text/css">
	.st0{fill:none;stroke:#1B1B2D;stroke-linejoin:round;}
	.st1{fill:none;stroke:#1B1B2D;stroke-linecap:round;stroke-linejoin:round;}
</style>
<g>
	<polygon class="st0" points="24.4,0.5 47.5,14 23.6,28 0.5,14.5 	"/>
</g>
<g>
	<polyline class="st0" points="41.8,17.4 47.5,20.7 23.6,34.7 0.5,21.1 6.2,17.8 	"/>
	<path class="st0" d="M8.5,16.5"/>
	<path class="st0" d="M39.8,16.2"/>
	<line class="st0" x1="11.8" y1="21" x2="6.1" y2="24.4"/>
	<path class="st0" d="M32.1,11.7"/>
</g>
<g>
	<polyline class="st0" points="41.8,24 47.5,27.4 23.6,41.3 0.5,27.8 6.2,24.5 	"/>
	<path class="st0" d="M8.5,23.2"/>
	<path class="st0" d="M39.8,22.9"/>
	<line class="st0" x1="11.6" y1="27.6" x2="5.9" y2="30.9"/>
	<path class="st0" d="M32.1,18.4"/>
</g>
<g>
	<line class="st0" x1="6.3" y1="17.6" x2="29.9" y2="3.6"/>
	<polygon class="st0" points="12.3,17.4 16.4,19.9 20.5,17.4 16.4,15 	"/>
	<polygon class="st0" points="23.1,11 19,13.5 23.1,15.9 27.2,13.4 	"/>
	<polygon class="st0" points="29.8,7.1 25.7,9.5 29.8,11.9 33.8,9.5 	"/>
	<polygon class="st0" points="19.9,21.9 23.9,24.4 28,21.9 24,19.5 	"/>
	<polygon class="st0" points="30.6,20.4 34.7,17.9 30.6,15.5 26.6,18 	"/>
	<polygon class="st0" points="37.3,16.4 41.4,14 37.3,11.6 33.2,14 	"/>
</g>
<line class="st1" x1="5.9" y1="9" x2="9.8" y2="11.3"/>
<line class="st1" x1="17.5" y1="2.2" x2="21.5" y2="4.6"/>
</svg>
