<?xml version="1.0" encoding="utf-8"?>
<!-- Generator: Adobe Illustrator 22.0.0, SVG Export Plug-In . SVG Version: 6.00 Build 0)  -->
<svg version="1.1" id="Layer_1" xmlns="http://www.w3.org/2000/svg" xmlns:xlink="http://www.w3.org/1999/xlink" x="0px" y="0px"
	 viewBox="0 0 1600 1163.6" style="enable-background:new 0 0 1600 1163.6;" xml:space="preserve">
<style type="text/css">
	.st0{fill:#D1D1D5;}
	.st1{fill:none;stroke:#FFFFFF;stroke-miterlimit:10;}
	.st2{fill:#1B1B2D;}
	.st3{fill:#FFFFFF;}
</style>
<rect y="0.2" class="st0" width="1600" height="1163.6"/>
<line class="st1" x1="1600" y1="597.2" x2="0" y2="597.2"/>
<line class="st1" x1="1600" y1="699.7" x2="0" y2="699.7"/>
<line class="st1" x1="1600" y1="762.7" x2="0" y2="762.7"/>
<line class="st1" x1="1600" y1="865.7" x2="0" y2="865.7"/>
<line class="st1" x1="1600" y1="928.7" x2="0" y2="928.7"/>
<line class="st1" x1="1600" y1="1031.7" x2="0" y2="1031.7"/>
<line class="st1" x1="1600" y1="419.5" x2="0" y2="419.5"/>
<line class="st1" x1="1600" y1="153" x2="0" y2="153"/>
<line class="st1" x1="67.7" y1="0.2" x2="67.7" y2="1164.2"/>
<line class="st1" x1="1523.5" y1="0.2" x2="1523.5" y2="1164.2"/>
<line class="st1" x1="945.5" y1="0" x2="945.5" y2="1164"/>
<g>
	<path class="st2" d="M67.7,699.7V597.2h67.4v14.4H83.2v29.6h48.9v14.2H83.2v30h51.8v14.4H67.7z"/>
	<path class="st2" d="M152.7,699.7V597.2h15.5v87.6h49.6v14.9H152.7z"/>
	<path class="st2" d="M237.5,699.7v-87.6h-32.1v-14.9h79.7v14.9H253v87.6H237.5z"/>
	<path class="st2" d="M278.6,699.7l37.6-102.5h23l37.5,102.5h-16.8l-30.8-86h-2.9l-30.8,86H278.6z M301.3,675.3v-14.1h53.3v14.1
		H301.3z"/>
	<path class="st2" d="M450.8,701.2c-8.1,0-15.2-1.5-21.2-4.4c-6.1-2.9-10.7-6.9-13.9-11.9c-3.2-5-4.8-10.4-4.8-16.4h15.7
		c0,3.4,0.9,6.5,2.8,9.3c1.9,2.8,4.6,5,8.3,6.7c3.7,1.7,8.1,2.5,13.2,2.5c7.8,0,13.6-1.5,17.4-4.4c3.8-2.9,5.6-6.7,5.6-11.4
		c0-3.8-1.3-7-4-9.5c-2.7-2.5-6.9-4.3-12.5-5.4l-18.6-3.4c-8.5-1.6-14.9-4.6-19.2-9.1c-4.3-4.5-6.4-10.5-6.4-18
		c0-5.8,1.5-10.9,4.4-15.4c2.9-4.5,7.1-8.1,12.6-10.7c5.5-2.6,11.9-4,19.3-4c8,0,15,1.4,20.9,4.2c6,2.8,10.5,6.7,13.7,11.7
		c3.2,5,4.8,10.5,4.8,16.7h-15.7c0-3.3-1-6.4-2.9-9.2c-1.9-2.8-4.6-5.1-8.2-6.7c-3.6-1.7-7.8-2.5-12.7-2.5c-6.5,0-11.6,1.5-15.2,4.5
		c-3.6,3-5.4,6.8-5.4,11.3c0,3.6,1.2,6.6,3.7,8.9c2.4,2.3,6.3,4,11.7,5l16.1,2.9c10.2,1.9,17.6,5.1,22.3,9.6c4.7,4.5,7,10.9,7,19
		c0,5.8-1.5,10.9-4.5,15.4c-3,4.5-7.4,8.1-13.2,10.7C466,699.9,459,701.2,450.8,701.2z"/>
	<path class="st2" d="M491.1,699.7l37.6-102.5h23l37.5,102.5h-16.8l-30.8-86h-2.9l-30.8,86H491.1z M513.8,675.3v-14.1h53.3v14.1
		H513.8z"/>
	<path class="st2" d="M597.9,699.7V597.2h22.7l41.4,79.5h2.9v-79.5h15.7v102.5h-22.7l-41.6-79.5h-2.9v79.5H597.9z"/>
	<path class="st2" d="M733.3,701.2c-8.1,0-15.2-1.5-21.2-4.4c-6.1-2.9-10.7-6.9-13.9-11.9c-3.2-5-4.8-10.4-4.8-16.4H709
		c0,3.4,0.9,6.5,2.8,9.3c1.9,2.8,4.6,5,8.3,6.7c3.7,1.7,8.1,2.5,13.2,2.5c7.8,0,13.6-1.5,17.4-4.4c3.8-2.9,5.6-6.7,5.6-11.4
		c0-3.8-1.3-7-4-9.5c-2.7-2.5-6.9-4.3-12.5-5.4l-18.6-3.4c-8.5-1.6-14.9-4.6-19.2-9.1c-4.3-4.5-6.4-10.5-6.4-18
		c0-5.8,1.5-10.9,4.4-15.4c2.9-4.5,7.1-8.1,12.6-10.7c5.5-2.6,11.9-4,19.3-4c8,0,15,1.4,20.9,4.2c6,2.8,10.5,6.7,13.7,11.7
		c3.2,5,4.8,10.5,4.8,16.7h-15.7c0-3.3-1-6.4-2.9-9.2c-1.9-2.8-4.6-5.1-8.2-6.7c-3.6-1.7-7.8-2.5-12.7-2.5c-6.5,0-11.6,1.5-15.2,4.5
		c-3.6,3-5.4,6.8-5.4,11.3c0,3.6,1.2,6.6,3.7,8.9c2.4,2.3,6.3,4,11.7,5l16.1,2.9c10.2,1.9,17.6,5.1,22.3,9.6c4.7,4.5,7,10.9,7,19
		c0,5.8-1.5,10.9-4.5,15.4c-3,4.5-7.4,8.1-13.2,10.7C748.5,699.9,741.5,701.2,733.3,701.2z"/>
</g>
<g>
	<g>
		<path class="st2" d="M945.5,700.3V597.2h9.3v94.5h52.8v8.7H945.5z"/>
		<path class="st2" d="M1014.1,611.2V601h10.2v10.2H1014.1z M1014.8,700.3v-73.7h8.7v73.7H1014.8z"/>
		<path class="st2" d="M1069.5,731.3c-6.4,0-12-1.2-16.8-3.5c-4.8-2.4-8.5-5.5-11.1-9.3c-2.6-3.8-4.1-7.9-4.3-12.2h8.7
			c0.3,2.9,1.4,5.7,3.3,8.3c1.9,2.6,4.6,4.6,8,6.2c3.4,1.6,7.5,2.4,12.2,2.4c7.2,0,12.9-2,17.2-6.1c4.3-4.1,6.4-9.6,6.4-16.6v-15.8
			h-0.7c-2.9,4.1-6.4,7.3-10.7,9.5c-4.3,2.2-9,3.3-14.1,3.3c-6.3,0-12-1.5-17-4.6c-5.1-3-9-7.3-11.9-12.8
			c-2.9-5.5-4.3-11.7-4.3-18.7c0-7,1.4-13.2,4.3-18.7c2.9-5.5,6.9-9.8,11.9-12.8c5.1-3,10.7-4.6,17-4.6c5.1,0,9.8,1.2,14.2,3.6
			c4.4,2.4,7.9,5.7,10.5,9.8h0.7l1.3-11.9h7.4v73.7c0,6.2-1.3,11.6-3.8,16.3c-2.6,4.7-6.3,8.3-11.2,10.8
			C1081.8,730,1076,731.3,1069.5,731.3z M1068,689.1c4.7,0,9-1.2,12.8-3.5c3.8-2.3,6.8-5.6,9-9.9c2.2-4.3,3.2-9.1,3.2-14.5
			c0-5.4-1.1-10.2-3.2-14.5c-2.2-4.3-5.2-7.6-9-9.9c-3.8-2.3-8.1-3.5-12.8-3.5c-4.7,0-9,1.2-12.7,3.5c-3.8,2.3-6.8,5.6-9,9.9
			c-2.2,4.3-3.3,9.1-3.3,14.5c0,5.4,1.1,10.2,3.3,14.5c2.2,4.3,5.2,7.6,9,9.9C1059,688,1063.3,689.1,1068,689.1z"/>
		<path class="st2" d="M1117.9,700.3V597.2h8.7v39.5h0.7c2-2.9,5-5.6,9.1-8c4.1-2.4,8.8-3.5,14-3.5c5.6,0,10.6,1.3,15,3.8
			c4.4,2.6,7.8,6.2,10.3,10.9c2.5,4.7,3.8,10.1,3.8,16.2v44.2h-8.7v-44.2c0-4.3-0.9-8.2-2.8-11.6c-1.9-3.4-4.4-6.1-7.7-8.1
			c-3.2-2-6.9-2.9-10.9-2.9c-4.1,0-7.9,1-11.4,3.1c-3.5,2.1-6.3,4.8-8.3,8.3c-2.1,3.4-3.1,7.2-3.1,11.3v44.2H1117.9z"/>
		<path class="st2" d="M1210.5,700.3c-3.9,0-7-1.1-9.3-3.2c-2.3-2.2-3.4-5.1-3.4-8.8v-53.3H1186v-8.3h11.8V606h8.7v20.6h18v8.3h-18
			v51.7c0,1.8,0.5,3.1,1.4,4.1c0.9,0.9,2.3,1.4,4.1,1.4h12.5v8.3H1210.5z"/>
	</g>
	<g>
		<path class="st2" d="M945.5,866.1V762.9h44.9c5.4,0,10.3,1.4,14.8,4.1c4.5,2.8,8,6.5,10.7,11.3c2.7,4.8,4,10.2,4,16.2
			c0,6-1.3,11.4-4,16.2c-2.7,4.8-6.2,8.6-10.7,11.3c-4.5,2.8-9.4,4.1-14.8,4.1h-12.7v-2.8l44.4,42.6h-14.7l-41.3-39.8h-8.8v39.8
			H945.5z M990.5,815.3c3.2,0,6.2-0.9,8.9-2.6c2.7-1.7,4.8-4.1,6.4-7.3c1.6-3.1,2.4-6.7,2.4-10.8c0-6.1-1.7-11.1-5.2-14.9
			c-3.4-3.8-7.6-5.7-12.5-5.7h-33.2v41.3H990.5z"/>
		<path class="st2" d="M1059,867.6c-6.6,0-12.6-1.6-18-4.9c-5.4-3.2-9.7-7.8-12.7-13.6c-3.1-5.8-4.6-12.4-4.6-19.9
			c0-7.5,1.5-14.1,4.6-19.9c3.1-5.8,7.3-10.3,12.7-13.6c5.4-3.2,11.4-4.9,18-4.9c6.3,0,12,1.5,17.2,4.6c5.2,3,9.3,7.2,12.2,12.6
			c2.9,5.4,4.4,11.4,4.4,18.2c0,2-0.1,3.7-0.2,5.2c-0.1,1.5-0.3,2.5-0.5,2.9h-57.5c0.5,4.5,1.9,8.5,4.1,12c2.3,3.5,5.2,6.2,8.7,8
			c3.5,1.9,7.4,2.8,11.5,2.8c4.4,0,8.4-1,11.9-3.1c3.5-2.1,6.2-5,8-8.7h11.8c-1.8,4.7-4.2,8.7-7.1,12c-3,3.3-6.6,5.8-10.7,7.5
			C1068.7,866.7,1064.1,867.6,1059,867.6z M1081.8,824.1c-0.2-4.3-1.3-8.2-3.4-11.7c-2.1-3.5-4.8-6.2-8.2-8.2
			c-3.4-2-7.1-2.9-11.3-2.9c-4.3,0-8.3,1-11.8,2.9c-3.5,2-6.4,4.7-8.5,8.1c-2.2,3.4-3.5,7.4-4,11.8H1081.8z"/>
		<path class="st2" d="M1133.4,897c-6.6,0-12.3-1.2-17.2-3.5c-4.9-2.4-8.7-5.5-11.4-9.3c-2.7-3.8-4.2-7.9-4.5-12.2h11.1
			c0.3,2.6,1.3,5,3.1,7.2c1.8,2.3,4.3,4.1,7.5,5.5c3.2,1.4,7.1,2.1,11.5,2.1c6.7,0,12-1.9,16.1-5.6c4-3.7,6-8.7,6-15v-13.3h-0.7
			c-2.9,3.3-6.4,5.9-10.5,7.7c-4,1.8-8.4,2.7-13.1,2.7c-6.4,0-12.2-1.5-17.3-4.6c-5.2-3-9.2-7.3-12.2-12.8
			c-2.9-5.5-4.4-11.7-4.4-18.7c0-7,1.5-13.2,4.4-18.7c2.9-5.5,7-9.8,12.2-12.8c5.2-3,10.9-4.6,17.3-4.6c4.7,0,9.2,1,13.3,3
			c4.2,2,7.6,4.7,10.2,8h0.7l1.5-9.6h9.6v73.7c0,6.1-1.3,11.5-4,16.1c-2.7,4.7-6.5,8.3-11.5,10.9
			C1146.1,895.7,1140.2,897,1133.4,897z M1131.9,852.8c4.4,0,8.4-1.1,12-3.2c3.6-2.2,6.4-5.2,8.5-9.1c2.1-3.9,3.1-8.4,3.1-13.4
			s-1-9.5-3.1-13.4c-2.1-3.9-4.9-7-8.5-9.1c-3.6-2.2-7.6-3.2-12-3.2s-8.4,1.1-12,3.2c-3.6,2.2-6.4,5.2-8.5,9.1
			c-2.1,3.9-3.1,8.4-3.1,13.4s1,9.5,3.1,13.4c2.1,3.9,4.9,7,8.5,9.1C1123.5,851.8,1127.5,852.8,1131.9,852.8z"/>
		<path class="st2" d="M1209.3,867.6c-5.6,0-10.6-1.3-15.1-3.9c-4.5-2.6-8-6.3-10.5-11c-2.6-4.7-3.8-10.1-3.8-16.1v-44.2h11.1v44.2
			c0,3.8,0.9,7.3,2.7,10.5c1.8,3.1,4.2,5.6,7.2,7.4c3,1.8,6.4,2.7,10,2.7c3.8,0,7.4-1,10.7-2.9c3.3-1.9,5.9-4.4,7.8-7.6
			c1.9-3.1,2.9-6.5,2.9-10.2v-44.2h11.1v73.7h-9.6l-1.5-8.1h-0.7c-2.1,2.6-5,4.8-8.9,6.7C1218.6,866.6,1214.2,867.6,1209.3,867.6z"
			/>
		<path class="st2" d="M1257.2,866.1V762.9h11.1v103.1H1257.2z"/>
		<path class="st2" d="M1305.1,867.6c-5.1,0-9.6-1-13.5-2.9c-3.9-2-6.9-4.7-9.1-8.1c-2.2-3.4-3.2-7.4-3.2-11.8c0-4.8,1.1-9,3.2-12.5
			c2.1-3.5,5.4-6.2,9.7-8.2c4.4-2,9.9-2.9,16.6-2.9h19.9v-2.2c0-5.5-1.6-9.8-4.7-13c-3.1-3.1-7.5-4.7-13-4.7
			c-5.3,0-9.6,1.2-12.9,3.6c-3.3,2.4-5.1,5.4-5.5,8.9h-11.1c0.3-4,1.6-7.8,4-11.3c2.4-3.5,5.7-6.3,10.1-8.4
			c4.4-2.1,9.5-3.2,15.4-3.2c5.9,0,11,1.1,15.3,3.3c4.3,2.2,7.6,5.4,9.9,9.7c2.3,4.2,3.5,9.2,3.5,15v47.2h-9.6l-1.5-8.8h-0.7
			c-1.7,2.7-4.5,5-8.6,7.1C1315.2,866.5,1310.5,867.6,1305.1,867.6z M1305.1,857.3c4.8,0,9-0.9,12.6-2.8c3.6-1.9,6.3-4.5,8.2-8
			c1.9-3.4,2.8-7.5,2.8-12.1v-2.9h-19.9c-6.3,0-10.9,1.2-13.9,3.7c-3,2.5-4.5,5.6-4.5,9.6c0,3.7,1.3,6.8,3.8,9.1
			C1296.7,856.1,1300.4,857.3,1305.1,857.3z"/>
		<path class="st2" d="M1353,866.1v-73.7h9.6l1.5,7.4h0.7c1.7-2.6,3.5-4.4,5.5-5.6c2-1.2,4.8-1.8,8.5-1.8h12.5v10.3h-11.1
			c-5.1,0-9.1,1.4-11.9,4.2c-2.9,2.8-4.3,6.8-4.3,12v47.2H1353z"/>
	</g>
	<g>
		<path class="st2" d="M945.5,1031.9V928.7h26.2l28,81.3h2.9l28-81.3h26.2v103.1h-15.6v-79.6h-2.9l-27.6,79.6h-19.2l-27.6-79.6h-2.9
			v79.6H945.5z"/>
		<path class="st2" d="M1101.9,1033.3c-6.9,0-13.1-1.6-18.7-4.9c-5.6-3.3-10-7.9-13.3-13.7c-3.2-5.8-4.9-12.5-4.9-20
			c0-7.4,1.6-14,4.9-19.8c3.2-5.8,7.7-10.4,13.3-13.7c5.6-3.3,11.8-4.9,18.7-4.9c6.5,0,12.5,1.6,17.9,4.7c5.5,3.1,9.7,7.5,12.7,13
			c3,5.5,4.6,11.7,4.6,18.6c0,1.8-0.1,3.4-0.2,4.8c-0.1,1.4-0.3,2.4-0.5,3h-56.6c0.5,3.9,1.7,7.4,3.8,10.5c2,3.1,4.6,5.5,7.8,7.1
			c3.2,1.7,6.7,2.5,10.5,2.5c4,0,7.6-0.9,10.7-2.7c3.1-1.8,5.5-4.2,7.1-7.1h15.3c-1.5,4.2-3.7,8.1-6.7,11.5c-3,3.4-6.7,6.2-11.2,8.2
			C1112.7,1032.3,1107.6,1033.3,1101.9,1033.3z M1122.5,989c-0.3-3.7-1.4-7.1-3.2-10.2c-1.9-3-4.3-5.5-7.3-7.2
			c-3-1.8-6.4-2.7-10.1-2.7c-3.9,0-7.5,0.9-10.7,2.7c-3.2,1.8-5.7,4.2-7.7,7.1c-1.9,3-3.2,6.4-3.8,10.2H1122.5z"/>
		<path class="st2" d="M1173.1,1033.3c-6.4,0-12.2-1.6-17.4-4.9c-5.2-3.2-9.3-7.8-12.4-13.6c-3-5.8-4.6-12.5-4.6-20.1
			c0-7.5,1.5-14.1,4.6-20c3-5.8,7.2-10.4,12.4-13.6c5.2-3.2,11-4.9,17.4-4.9c4.8,0,9.1,0.9,12.9,2.8c3.8,1.9,6.9,4.4,9.5,7.7h0.7
			v-38h14.7v103.1h-12.8l-1.5-9.3h-0.7c-2.7,3.3-5.9,6-9.7,7.9C1182.5,1032.4,1178.1,1033.3,1173.1,1033.3z M1174.8,1019.6
			c3.9,0,7.5-1,10.8-3.1c3.2-2.1,5.8-5,7.7-8.8c1.9-3.8,2.9-8.1,2.9-13c0-4.9-1-9.2-2.9-13c-1.9-3.7-4.5-6.6-7.7-8.7
			c-3.2-2.1-6.8-3.1-10.8-3.1c-3.8,0-7.4,1-10.6,3.1c-3.2,2.1-5.8,5-7.7,8.7c-1.9,3.7-2.9,8.1-2.9,13c0,4.9,1,9.3,2.9,13
			c1.9,3.8,4.5,6.7,7.7,8.8C1167.5,1018.6,1171,1019.6,1174.8,1019.6z"/>
		<path class="st2" d="M1221.2,942.3v-14.7h16.1v14.7H1221.2z M1221.8,1031.9v-74.1h14.7v74.1H1221.8z"/>
		<path class="st2" d="M1275.6,1033.3c-5.7,0-10.8-1.3-15.3-3.9c-4.5-2.6-8-6.3-10.5-11c-2.5-4.7-3.8-10.1-3.8-16.2v-44.5h14.7v43.3
			c0,3.4,0.8,6.6,2.4,9.4c1.6,2.8,3.7,5,6.4,6.6c2.7,1.6,5.7,2.4,9.1,2.4c3.4,0,6.6-0.8,9.5-2.5c2.9-1.7,5.2-3.9,6.9-6.8
			c1.7-2.8,2.5-5.9,2.5-9.1v-43.3h14.7v74.1h-12.8l-1.5-7.7h-0.7c-2,2.5-4.9,4.6-8.7,6.4C1284.7,1032.4,1280.4,1033.3,1275.6,1033.3
			z"/>
		<path class="st2" d="M1322.8,1031.9v-74.1h12.7l1.5,7.5h0.7c1.9-2.3,4.5-4.3,7.8-6.2c3.3-1.9,7-2.8,10.9-2.8
			c5.1,0,9.5,1.2,13.3,3.6c3.7,2.4,6.3,5.1,7.8,8.2h0.7c2.1-3.1,5.2-5.9,9.4-8.3c4.2-2.4,9-3.5,14.3-3.5c5.2,0,9.8,1.3,13.9,3.8
			c4.1,2.5,7.3,6,9.7,10.4c2.4,4.4,3.5,9.5,3.5,15.2v46.3h-14.9v-45.2c0-3.3-0.6-6.3-1.8-8.8c-1.2-2.5-2.9-4.4-5.2-5.7
			c-2.3-1.3-4.9-2-7.8-2c-2.8,0-5.5,0.7-8,2.2c-2.5,1.5-4.5,3.5-6,6s-2.2,5.3-2.2,8.3v45.2h-14.7v-45.2c0-5-1.4-9-4.1-12
			c-2.7-3-6.3-4.5-10.8-4.5c-2.9,0-5.5,0.7-8,2.2c-2.5,1.5-4.4,3.5-5.9,6c-1.5,2.5-2.2,5.3-2.2,8.3v45.2H1322.8z"/>
	</g>
</g>
<g>
	<path class="st2" d="M184.1,423.4c-18.8,0-36.2-3.6-52.2-10.7c-16-7.1-29.7-17.4-40.9-30.8c-11.3-13.4-19-29-23.3-46.8h31.9
		c4.3,12.5,10.5,23.3,18.8,32.3c8.3,9,18,15.9,29.3,20.7c11.3,4.8,23.4,7.1,36.4,7.1c16.3,0,31.4-3.9,45.3-11.8
		c13.9-7.9,25.2-19,33.8-33.2c8.6-14.3,13.6-30.5,14.8-48.8H150.3v-28.2H278c-1.3-17.8-6.2-33.7-14.8-47.7
		c-8.6-14-19.9-24.9-33.8-32.7c-13.9-7.8-29-11.6-45.3-11.6c-19.5,0-36.9,5.2-52,15.6c-15.2,10.4-26,24.6-32.5,42.6H67.7
		c5-17.3,13.2-32.4,24.6-45.4c11.4-13,25-23.1,40.9-30.2c15.9-7.1,32.9-10.7,50.9-10.7c23,0,44.2,5.7,63.5,17.1
		c19.3,11.4,34.5,27.4,45.6,47.9c11.1,20.5,16.7,43.9,16.7,70.2c0,26.3-5.6,49.7-16.7,70.2c-11.1,20.5-26.4,36.5-45.6,47.9
		C228.3,417.7,207.2,423.4,184.1,423.4z"/>
	<path class="st2" d="M303.2,421.5v-28.2h11.3c7,0,12.6-2.1,16.9-6.4c4.3-4.3,6.8-10.9,7.5-19.9l11.3-135.2h125.8v187.8h-28.2V258.2
		h-71.4L367,367.1c-1.8,18.5-6.9,32.2-15.6,41.1c-8.6,8.9-21,13.3-37,13.3H303.2z"/>
	<path class="st2" d="M555.9,419.7V258.2h-63.8v-26.3h155.8v26.3h-63.8v161.5H555.9z"/>
	<path class="st2" d="M711.8,423.4c-13,0-24.5-2.5-34.4-7.5c-9.9-5-17.6-11.9-23.1-20.7c-5.5-8.8-8.3-18.8-8.3-30
		c0-12.3,2.7-22.8,8.1-31.7c5.4-8.9,13.6-15.8,24.8-20.8c11.1-5,25.2-7.5,42.2-7.5h50.7v-5.6c0-14-4-25-12-33c-8-8-19-12-33-12
		c-13.5,0-24.5,3.1-32.9,9.2c-8.4,6.1-13.1,13.7-14.1,22.7h-28.2c0.8-10.3,4.1-19.8,10.1-28.7c6-8.9,14.6-16,25.7-21.4
		c11.1-5.4,24.2-8.1,39.2-8.1s28,2.8,39.1,8.4c11,5.6,19.5,13.8,25.3,24.6c5.9,10.8,8.8,23.5,8.8,38.3v120.2h-24.4l-3.8-22.5H770
		c-4.3,6.8-11.6,12.8-22,18.2C737.6,420.7,725.5,423.4,711.8,423.4z M711.8,397.1c12.3,0,23-2.4,32.1-7.1
		c9.1-4.8,16.1-11.5,20.8-20.3c4.8-8.8,7.1-19,7.1-30.8v-7.5h-50.7c-16,0-27.9,3.1-35.5,9.4c-7.6,6.3-11.5,14.4-11.5,24.4
		c0,9.5,3.3,17.2,9.8,23.1C690.5,394.2,699.7,397.1,711.8,397.1z"/>
</g>
<g>
	<g>
		<path class="st3" d="M1243.4,423.6c-18.7,0-35.6-5.3-50.6-15.9c-15-10.6-26.9-26.1-35.6-46.5c-8.8-20.4-13.1-44.6-13.1-72.6
			c0-28,4.4-52.2,13.1-72.6c8.7-20.4,20.6-35.9,35.6-46.5c15-10.6,31.9-15.9,50.6-15.9c18.5,0,35.3,5.3,50.3,15.9
			c15,10.6,26.9,26.1,35.6,46.5c8.7,20.4,13.1,44.6,13.1,72.6c0,28-4.4,52.2-13.1,72.6c-8.8,20.4-20.6,35.9-35.6,46.5
			C1278.6,418.3,1261.9,423.6,1243.4,423.6z M1243.4,401.5c13.7,0,26.4-4.4,37.9-13.1c11.5-8.7,20.6-21.7,27.4-38.8
			c6.8-17.1,10.1-37.4,10.1-60.9c0-23.5-3.4-43.8-10.1-60.9c-6.7-17.1-15.9-30.1-27.4-38.8c-11.5-8.7-24.1-13.1-37.9-13.1
			c-14,0-26.8,4.4-38.2,13.1c-11.5,8.8-20.6,21.7-27.4,38.8c-6.7,17.1-10.1,37.4-10.1,60.9c0,23.5,3.4,43.8,10.1,60.9
			c6.7,17.1,15.9,30.1,27.4,38.8C1216.6,397.1,1229.4,401.5,1243.4,401.5z"/>
		<path class="st3" d="M1362.6,419.8v-19.5l108-115.1c8.5-9,14.6-17.3,18.2-24.9c3.6-7.6,5.4-16.9,5.4-27.9c0-11-2.3-20.7-6.9-29.2
			c-4.6-8.5-11.1-15.2-19.3-20.1c-8.3-4.9-17.9-7.3-28.9-7.3c-10.3,0-19.6,2.7-27.9,8.1c-8.4,5.4-14.9,12.8-19.7,22.1
			c-4.8,9.4-7.1,20.1-7.1,32.1h-23.6c0-16,3.4-30.4,10.1-43.3c6.8-12.9,16.1-22.9,27.9-30.2c11.9-7.2,25.3-10.9,40.3-10.9
			c15.2,0,28.8,3.3,40.7,9.9c11.9,6.6,21.2,15.9,27.9,27.7c6.7,11.9,10.1,25.6,10.1,41.1c0,10.3-1.3,19.3-3.8,27.2
			c-2.5,7.9-5.9,15.1-10.3,21.6c-4.4,6.5-10.1,13.4-17.1,20.6l-90,94.1v1.9h126.7v22.1H1362.6z"/>
	</g>
</g>
<g>
	<path class="st3" d="M1471.7,623.1c-1.7,0-3.1-0.3-4.4-1c-1.3-0.6-2.3-1.5-3-2.6c-0.7-1.1-1-2.3-1-3.6h2.9c0,0.8,0.2,1.5,0.7,2.2
		c0.4,0.7,1.1,1.2,1.9,1.6c0.8,0.4,1.8,0.6,2.9,0.6c1.1,0,2-0.2,2.8-0.6c0.8-0.4,1.5-0.9,1.9-1.6c0.5-0.7,0.7-1.5,0.7-2.3
		c0-1.4-0.5-2.5-1.5-3.4c-1-0.9-2.3-1.3-4-1.3h-1.6v-2.7h1.6c1.1,0,2-0.2,2.8-0.6c0.8-0.4,1.3-0.9,1.8-1.6s0.6-1.4,0.6-2.3
		c0-0.8-0.2-1.5-0.6-2.1c-0.4-0.7-1-1.2-1.8-1.6s-1.7-0.6-2.7-0.6c-0.9,0-1.8,0.2-2.6,0.6s-1.4,0.9-1.8,1.5s-0.7,1.3-0.7,2.1h-2.9
		c0-1.2,0.3-2.4,1-3.4s1.6-1.9,2.9-2.6c1.2-0.6,2.6-1,4.1-1c1.6,0,2.9,0.3,4.2,0.9c1.2,0.6,2.2,1.5,2.8,2.6s1,2.3,1,3.6
		c0,1-0.2,1.8-0.6,2.6c-0.4,0.8-0.9,1.4-1.5,2c-0.6,0.5-1.2,0.9-1.9,1.1v0.2c1.1,0.4,2.1,1.1,3,2.2c0.9,1.1,1.3,2.4,1.3,3.9
		c0,1.3-0.4,2.6-1.1,3.7c-0.7,1.1-1.7,2-3,2.6S1473.3,623.1,1471.7,623.1z"/>
	<path class="st3" d="M1492.1,623.1c-1.8,0-3.4-0.5-4.9-1.5s-2.7-2.5-3.6-4.5s-1.3-4.3-1.3-7.1c0-2.7,0.4-5.1,1.3-7.1
		s2.1-3.5,3.6-4.5c1.5-1,3.1-1.5,4.9-1.5c1.8,0,3.4,0.5,4.9,1.5c1.5,1,2.7,2.5,3.6,4.5s1.3,4.3,1.3,7.1c0,2.7-0.4,5.1-1.3,7.1
		s-2.1,3.5-3.6,4.5S1493.9,623.1,1492.1,623.1z M1492.1,620.4c1.2,0,2.4-0.4,3.4-1.2s1.9-2,2.5-3.5c0.6-1.6,0.9-3.5,0.9-5.7
		s-0.3-4.1-0.9-5.7c-0.6-1.6-1.5-2.7-2.5-3.5s-2.2-1.2-3.4-1.2c-1.2,0-2.4,0.4-3.4,1.2s-1.9,2-2.5,3.5c-0.6,1.6-0.9,3.5-0.9,5.7
		s0.3,4.1,0.9,5.7c0.6,1.6,1.5,2.7,2.5,3.5S1490.8,620.4,1492.1,620.4z"/>
	<path class="st3" d="M1514,623.1c-1.8,0-3.4-0.5-4.9-1.5s-2.7-2.5-3.6-4.5s-1.3-4.3-1.3-7.1c0-2.7,0.4-5.1,1.3-7.1s2.1-3.5,3.6-4.5
		c1.5-1,3.1-1.5,4.9-1.5c1.8,0,3.4,0.5,4.9,1.5c1.5,1,2.7,2.5,3.6,4.5s1.3,4.3,1.3,7.1c0,2.7-0.4,5.1-1.3,7.1s-2.1,3.5-3.6,4.5
		S1515.8,623.1,1514,623.1z M1514,620.4c1.2,0,2.4-0.4,3.4-1.2s1.9-2,2.5-3.5c0.6-1.6,0.9-3.5,0.9-5.7s-0.3-4.1-0.9-5.7
		c-0.6-1.6-1.5-2.7-2.5-3.5s-2.2-1.2-3.4-1.2c-1.2,0-2.4,0.4-3.4,1.2s-1.9,2-2.5,3.5c-0.6,1.6-0.9,3.5-0.9,5.7s0.3,4.1,0.9,5.7
		c0.6,1.6,1.5,2.7,2.5,3.5S1512.7,620.4,1514,620.4z"/>
</g>
<g>
	<path class="st3" d="M1474.6,788.7v-5.8h-11.9v-2.2l10-17.5h4.7v17.1h3.3v2.6h-3.3v5.8H1474.6z M1466.4,780.4h8.2V767h-0.7
		l-7.5,13.1V780.4z"/>
	<path class="st3" d="M1491.7,789.1c-1.8,0-3.4-0.5-4.9-1.5s-2.7-2.5-3.6-4.5s-1.3-4.3-1.3-7.1c0-2.7,0.4-5.1,1.3-7.1
		s2.1-3.5,3.6-4.5c1.5-1,3.1-1.5,4.9-1.5c1.8,0,3.4,0.5,4.9,1.5c1.5,1,2.7,2.5,3.6,4.5s1.3,4.3,1.3,7.1c0,2.7-0.4,5.1-1.3,7.1
		s-2.1,3.5-3.6,4.5S1493.5,789.1,1491.7,789.1z M1491.7,786.4c1.2,0,2.4-0.4,3.4-1.2s1.9-2,2.5-3.5c0.6-1.6,0.9-3.5,0.9-5.7
		s-0.3-4.1-0.9-5.7c-0.6-1.6-1.5-2.7-2.5-3.5s-2.2-1.2-3.4-1.2c-1.2,0-2.4,0.4-3.4,1.2s-1.9,2-2.5,3.5c-0.6,1.6-0.9,3.5-0.9,5.7
		s0.3,4.1,0.9,5.7c0.6,1.6,1.5,2.7,2.5,3.5S1490.5,786.4,1491.7,786.4z"/>
	<path class="st3" d="M1513.6,789.1c-1.8,0-3.4-0.5-4.9-1.5s-2.7-2.5-3.6-4.5s-1.3-4.3-1.3-7.1c0-2.7,0.4-5.1,1.3-7.1
		s2.1-3.5,3.6-4.5c1.5-1,3.1-1.5,4.9-1.5c1.8,0,3.4,0.5,4.9,1.5c1.5,1,2.7,2.5,3.6,4.5s1.3,4.3,1.3,7.1c0,2.7-0.4,5.1-1.3,7.1
		s-2.1,3.5-3.6,4.5S1515.4,789.1,1513.6,789.1z M1513.6,786.4c1.2,0,2.4-0.4,3.4-1.2s1.9-2,2.5-3.5c0.6-1.6,0.9-3.5,0.9-5.7
		s-0.3-4.1-0.9-5.7c-0.6-1.6-1.5-2.7-2.5-3.5s-2.2-1.2-3.4-1.2c-1.2,0-2.4,0.4-3.4,1.2s-1.9,2-2.5,3.5c-0.6,1.6-0.9,3.5-0.9,5.7
		s0.3,4.1,0.9,5.7c0.6,1.6,1.5,2.7,2.5,3.5S1512.4,786.4,1513.6,786.4z"/>
</g>
<g>
	<path class="st3" d="M1472,955.1c-1.4,0-2.7-0.3-3.9-0.8c-1.2-0.6-2.2-1.4-3-2.4c-0.8-1.1-1.3-2.3-1.4-3.8h2.9
		c0.2,0.9,0.5,1.7,1,2.3c0.5,0.7,1.2,1.2,1.9,1.5s1.6,0.5,2.5,0.5c1.1,0,2.1-0.3,3-0.8c0.9-0.5,1.6-1.2,2.1-2.1
		c0.5-0.9,0.8-1.9,0.8-3c0-1.2-0.2-2.2-0.7-3.1c-0.5-0.9-1.2-1.6-2-2.1c-0.9-0.5-1.8-0.7-2.9-0.7c-1,0-2,0.2-2.8,0.6
		c-0.9,0.4-1.6,0.9-2.1,1.6h-3.1l1.5-13.5h13.7v2.7h-11.2l-0.8,7.5h0.2c0.6-0.5,1.4-0.9,2.3-1.2c0.9-0.3,1.8-0.4,2.8-0.4
		c1.5,0,2.8,0.4,4.1,1.1c1.3,0.8,2.3,1.8,3,3.1c0.8,1.3,1.1,2.8,1.1,4.4c0,1.7-0.4,3.1-1.1,4.5c-0.8,1.3-1.8,2.4-3.1,3.1
		C1475.2,954.7,1473.7,955.1,1472,955.1z"/>
	<path class="st3" d="M1491.9,955.1c-1.8,0-3.4-0.5-4.9-1.5s-2.7-2.5-3.6-4.5s-1.3-4.3-1.3-7.1c0-2.7,0.4-5.1,1.3-7.1
		s2.1-3.5,3.6-4.5c1.5-1,3.1-1.5,4.9-1.5c1.8,0,3.4,0.5,4.9,1.5c1.5,1,2.7,2.5,3.6,4.5s1.3,4.3,1.3,7.1c0,2.7-0.4,5.1-1.3,7.1
		s-2.1,3.5-3.6,4.5S1493.7,955.1,1491.9,955.1z M1491.9,952.4c1.2,0,2.4-0.4,3.4-1.2s1.9-2,2.5-3.5c0.6-1.6,0.9-3.5,0.9-5.7
		s-0.3-4.1-0.9-5.7c-0.6-1.6-1.5-2.7-2.5-3.5s-2.2-1.2-3.4-1.2c-1.2,0-2.4,0.4-3.4,1.2s-1.9,2-2.5,3.5c-0.6,1.6-0.9,3.5-0.9,5.7
		s0.3,4.1,0.9,5.7c0.6,1.6,1.5,2.7,2.5,3.5S1490.7,952.4,1491.9,952.4z"/>
	<path class="st3" d="M1513.8,955.1c-1.8,0-3.4-0.5-4.9-1.5s-2.7-2.5-3.6-4.5s-1.3-4.3-1.3-7.1c0-2.7,0.4-5.1,1.3-7.1
		s2.1-3.5,3.6-4.5c1.5-1,3.1-1.5,4.9-1.5c1.8,0,3.4,0.5,4.9,1.5c1.5,1,2.7,2.5,3.6,4.5s1.3,4.3,1.3,7.1c0,2.7-0.4,5.1-1.3,7.1
		s-2.1,3.5-3.6,4.5S1515.6,955.1,1513.8,955.1z M1513.8,952.4c1.2,0,2.4-0.4,3.4-1.2s1.9-2,2.5-3.5c0.6-1.6,0.9-3.5,0.9-5.7
		s-0.3-4.1-0.9-5.7c-0.6-1.6-1.5-2.7-2.5-3.5s-2.2-1.2-3.4-1.2c-1.2,0-2.4,0.4-3.4,1.2s-1.9,2-2.5,3.5c-0.6,1.6-0.9,3.5-0.9,5.7
		s0.3,4.1,0.9,5.7c0.6,1.6,1.5,2.7,2.5,3.5S1512.5,952.4,1513.8,952.4z"/>
</g>
</svg>
