<?xml version="1.0" encoding="utf-8"?>
<!-- Generator: Adobe Illustrator 22.0.0, SVG Export Plug-In . SVG Version: 6.00 Build 0)  -->
<svg version="1.1" id="Layer_1" xmlns="http://www.w3.org/2000/svg" xmlns:xlink="http://www.w3.org/1999/xlink" x="0px" y="0px"
	 viewBox="0 0 307 325.2" style="enable-background:new 0 0 307 325.2;" xml:space="preserve">
<style type="text/css">
	.st0{fill:#FFFFFF;}
</style>
<g>
	<path class="st0" d="M307,162.6c0,35.6-11.1,70.4-31.6,99.5s-49.7,51.1-83.4,63.1v-41.4c23-10.9,42.4-28.1,56-49.5
		c13.6-21.5,20.8-46.4,20.8-71.8c0-25.4-7.2-50.3-20.9-71.7c-13.6-21.5-33.1-38.6-56.1-49.5V0c33.7,11.9,62.8,33.9,83.4,63
		C295.9,92.2,307,127,307,162.6z"/>
	<rect y="143.5" class="st0" width="153.5" height="38.3"/>
	<path class="st0" d="M230.2,162.6c0-12.6-2.5-25-7.3-36.7c-4.8-11.6-11.9-22.2-20.8-31.1c-8.9-8.9-19.5-16-31.1-20.8
		c-11.6-4.8-24.1-7.3-36.7-7.3H76.8v38.3h115.1v115H76.8v38.3h57.5c12.6,0,25.1-2.5,36.7-7.3s22.2-11.9,31.1-20.8
		c8.9-8.9,16-19.5,20.8-31.1C227.8,187.7,230.2,175.2,230.2,162.6z"/>
</g>
</svg>
