<?xml version="1.0" encoding="utf-8"?>
<!-- Generator: Adobe Illustrator 22.0.0, SVG Export Plug-In . SVG Version: 6.00 Build 0)  -->
<svg version="1.1" id="Layer_1" xmlns="http://www.w3.org/2000/svg" xmlns:xlink="http://www.w3.org/1999/xlink" x="0px" y="0px"
	 viewBox="0 0 48 41.8" style="enable-background:new 0 0 48 41.8;" xml:space="preserve">
<style type="text/css">
	.st0{fill:none;stroke:#1B1B2D;stroke-linejoin:round;}
</style>
<g>
	<polygon class="st0" points="24.4,0.5 47.5,14 23.6,28 0.5,14.5 	"/>
	<line class="st0" x1="8.5" y1="9.8" x2="31.6" y2="23.3"/>
	<line class="st0" x1="16.4" y1="5.2" x2="39.5" y2="18.7"/>
	<line class="st0" x1="39.8" y1="9.5" x2="15.9" y2="23.5"/>
	<line class="st0" x1="32.1" y1="5" x2="8.2" y2="19"/>
</g>
<g>
	<polyline class="st0" points="41.8,17.4 47.5,20.7 23.6,34.7 0.5,21.1 6.2,17.8 	"/>
	<line class="st0" x1="25.9" y1="26.7" x2="31.6" y2="30"/>
	<path class="st0" d="M8.5,16.5"/>
	<line class="st0" x1="33.8" y1="22" x2="39.5" y2="25.4"/>
	<line class="st0" x1="21.6" y1="26.8" x2="15.9" y2="30.2"/>
	<path class="st0" d="M39.8,16.2"/>
	<line class="st0" x1="13.9" y1="22.3" x2="8.2" y2="25.7"/>
	<path class="st0" d="M32.1,11.7"/>
</g>
<g>
	<polyline class="st0" points="41.8,24 47.5,27.4 23.6,41.3 0.5,27.8 6.2,24.5 	"/>
	<line class="st0" x1="25.9" y1="33.4" x2="31.6" y2="36.7"/>
	<path class="st0" d="M8.5,23.2"/>
	<line class="st0" x1="33.8" y1="28.7" x2="39.5" y2="32"/>
	<line class="st0" x1="21.6" y1="33.5" x2="15.9" y2="36.8"/>
	<path class="st0" d="M39.8,22.9"/>
	<line class="st0" x1="13.9" y1="29" x2="8.2" y2="32.3"/>
	<path class="st0" d="M32.1,18.4"/>
</g>
</svg>
