<?xml version="1.0" encoding="utf-8"?>
<!-- Generator: Adobe Illustrator 22.0.0, SVG Export Plug-In . SVG Version: 6.00 Build 0)  -->
<svg version="1.1" id="Layer_1" xmlns="http://www.w3.org/2000/svg" xmlns:xlink="http://www.w3.org/1999/xlink" x="0px" y="0px"
	 viewBox="0 0 1600 1163.6" style="enable-background:new 0 0 1600 1163.6;" xml:space="preserve">
<style type="text/css">
	.st0{fill:#FFFFFF;}
	.st1{fill:#242435;}
	.st2{fill:#3B3B4B;}
	.st3{fill:#52525F;}
	.st4{fill:#696975;}
	.st5{fill:#868690;}
	.st6{fill:#A4A4AB;}
	.st7{fill:#D1D1D5;}
	.st8{fill:#E8E8EA;}
	.st9{fill:#F2F2F3;}
	.st10{fill:#738CEA;}
	.st11{fill:#4159A3;}
	.st12{fill:#1B1B2D;}
	.st13{fill:#D63318;}
	.st14{fill:#9B3123;}
</style>
<g>
	<rect y="727.3" class="st0" width="727.3" height="436.4"/>
	<rect x="509.1" y="727.3" width="218.2" height="436.4"/>
	<rect x="727.3" y="727.3" class="st1" width="218.2" height="218.2"/>
	<rect x="945.5" y="727.3" class="st2" width="218.2" height="218.2"/>
	<rect x="1163.6" y="727.3" class="st3" width="218.2" height="218.2"/>
	<rect x="1381.8" y="727.3" class="st4" width="218.2" height="218.2"/>
	<rect x="727.3" y="945.5" class="st5" width="218.2" height="218.2"/>
	<rect x="945.5" y="945.5" class="st6" width="218.2" height="218.2"/>
	<rect x="1163.6" y="945.5" class="st7" width="218.2" height="218.2"/>
	<rect x="1381.8" y="945.5" class="st8" width="218.2" height="218.2"/>
	<rect class="st9" width="727.3" height="363.6"/>
	<rect x="727.3" class="st10" width="218.2" height="363.6"/>
	<rect x="945.5" class="st11" width="218.2" height="363.6"/>
	<rect x="1163.6" class="st12" width="436.4" height="727.3"/>
	<g>
		<path class="st12" d="M18.4,28.3c-1.1,0-2.1-0.3-2.9-0.8c-0.9-0.5-1.6-1.3-2.1-2.2c-0.5-1-0.8-2-0.8-3.3c0-1.2,0.3-2.3,0.8-3.3
			c0.5-1,1.2-1.7,2.1-2.2c0.9-0.5,1.9-0.8,2.9-0.8c0.9,0,1.7,0.2,2.4,0.5c0.7,0.3,1.4,0.8,1.9,1.4c0.5,0.6,0.9,1.3,1.1,2.2h-1.5
			c-0.2-0.6-0.5-1.1-0.9-1.5c-0.4-0.4-0.8-0.7-1.4-1C19.5,17.2,19,17,18.4,17c-0.8,0-1.6,0.2-2.2,0.6c-0.7,0.4-1.2,1-1.6,1.8
			c-0.4,0.8-0.6,1.6-0.6,2.6c0,1,0.2,1.8,0.6,2.6s0.9,1.3,1.6,1.8c0.7,0.4,1.4,0.6,2.2,0.6c0.9,0,1.7-0.3,2.4-0.8
			c0.7-0.5,1.2-1.2,1.5-2.1h1.5c-0.2,0.9-0.6,1.6-1.1,2.2c-0.5,0.6-1.1,1.1-1.9,1.4C20,28.1,19.2,28.3,18.4,28.3z"/>
		<path class="st12" d="M29.3,28.3c-0.8,0-1.5-0.2-2.1-0.6c-0.6-0.4-1.1-0.9-1.5-1.6c-0.4-0.7-0.5-1.5-0.5-2.4s0.2-1.7,0.5-2.4
			c0.4-0.7,0.9-1.2,1.5-1.6c0.6-0.4,1.3-0.6,2.1-0.6c0.7,0,1.4,0.2,2,0.5c0.6,0.4,1.1,0.9,1.4,1.5c0.3,0.6,0.5,1.4,0.5,2.2
			c0,0.2,0,0.4,0,0.6c0,0.2,0,0.3-0.1,0.3h-6.8c0.1,0.5,0.2,1,0.5,1.4c0.3,0.4,0.6,0.7,1,1c0.4,0.2,0.9,0.3,1.4,0.3
			c0.5,0,1-0.1,1.4-0.4c0.4-0.2,0.7-0.6,1-1H33c-0.2,0.6-0.5,1-0.8,1.4c-0.4,0.4-0.8,0.7-1.3,0.9C30.4,28.2,29.9,28.3,29.3,28.3z
			 M32,23.2c0-0.5-0.2-1-0.4-1.4c-0.2-0.4-0.6-0.7-1-1c-0.4-0.2-0.8-0.3-1.3-0.3c-0.5,0-1,0.1-1.4,0.3c-0.4,0.2-0.8,0.6-1,1
			c-0.3,0.4-0.4,0.9-0.5,1.4H32z"/>
		<path class="st12" d="M35.2,31.6V19.4h1.1l0.2,1.2h0.1c0.4-0.5,0.8-0.8,1.2-1c0.5-0.2,1-0.4,1.6-0.4c0.8,0,1.4,0.2,2.1,0.6
			c0.6,0.4,1.1,0.9,1.4,1.6c0.3,0.7,0.5,1.5,0.5,2.4s-0.2,1.7-0.5,2.4c-0.3,0.7-0.8,1.2-1.4,1.6c-0.6,0.4-1.3,0.6-2.1,0.6
			c-0.6,0-1.1-0.1-1.6-0.4c-0.5-0.2-0.9-0.6-1.2-1h-0.1v4.7H35.2z M39.3,27.1c0.5,0,1-0.1,1.4-0.4c0.4-0.3,0.8-0.7,1-1.2
			c0.3-0.5,0.4-1.1,0.4-1.7c0-0.7-0.1-1.2-0.4-1.7c-0.3-0.5-0.6-0.9-1-1.2c-0.4-0.3-0.9-0.4-1.4-0.4s-1,0.1-1.4,0.4
			c-0.4,0.3-0.8,0.7-1,1.2c-0.3,0.5-0.4,1.1-0.4,1.7c0,0.7,0.1,1.2,0.4,1.7c0.3,0.5,0.6,0.9,1,1.2C38.3,26.9,38.8,27.1,39.3,27.1z"
			/>
		<path class="st12" d="M45.3,28.1v-8.7h1.3v3H49c0.6,0,1.1,0.1,1.5,0.4c0.5,0.3,0.8,0.6,1.1,1c0.3,0.4,0.4,0.9,0.4,1.5
			s-0.1,1-0.4,1.5c-0.3,0.4-0.6,0.8-1.1,1c-0.5,0.3-1,0.4-1.5,0.4H45.3z M49,26.9c0.5,0,0.9-0.2,1.2-0.5c0.3-0.3,0.5-0.7,0.5-1.2
			c0-0.5-0.2-0.9-0.5-1.2c-0.3-0.3-0.7-0.5-1.2-0.5h-2.4v3.3H49z M53.3,28.1v-8.7h1.3v8.7H53.3z"/>
		<path class="st12" d="M57,28.1v-8.7h1.3v7.2h0.3l3.3-7.2h2.3v8.7H63V21h-0.3l-3.3,7.2H57z M60.7,17.9c-0.7,0-1.2-0.2-1.7-0.6
			c-0.5-0.4-0.7-0.9-0.8-1.6h1.1c0,0.4,0.2,0.7,0.4,0.9c0.2,0.2,0.5,0.3,0.9,0.3c0.4,0,0.7-0.1,0.9-0.3c0.2-0.2,0.4-0.5,0.4-0.9h1.1
			c0,0.7-0.3,1.2-0.8,1.6C61.9,17.7,61.3,17.9,60.7,17.9z"/>
		<path class="st12" d="M13,47.8V35.5h7.9v1.3h-6.5V41h6.1v1.3h-6.1v4.2h6.5v1.3H13z"/>
		<path class="st12" d="M27.5,47.9c-0.9,0-1.6-0.2-2.4-0.7c-0.7-0.5-1.3-1.2-1.7-2.2c-0.4-0.9-0.6-2.1-0.6-3.4
			c0-1.3,0.2-2.4,0.6-3.4c0.4-0.9,1-1.7,1.7-2.2c0.7-0.5,1.5-0.7,2.4-0.7s1.6,0.2,2.4,0.7c0.7,0.5,1.3,1.2,1.7,2.2
			c0.4,0.9,0.6,2.1,0.6,3.4c0,1.3-0.2,2.4-0.6,3.4c-0.4,0.9-1,1.7-1.7,2.2C29.2,47.7,28.4,47.9,27.5,47.9z M27.5,46.6
			c0.6,0,1.1-0.2,1.6-0.6c0.5-0.4,0.9-0.9,1.2-1.7s0.5-1.7,0.5-2.7c0-1.1-0.2-2-0.5-2.7s-0.7-1.3-1.2-1.7c-0.5-0.4-1.1-0.6-1.6-0.6
			c-0.6,0-1.1,0.2-1.6,0.6c-0.5,0.4-0.9,0.9-1.2,1.7s-0.5,1.7-0.5,2.7c0,1.1,0.2,2,0.5,2.7s0.7,1.3,1.2,1.7
			C26.4,46.4,26.9,46.6,27.5,46.6z"/>
		<path class="st12" d="M36.2,47.8v-9.6h-2.6v-1.2h2.1c0.2,0,0.3,0,0.4-0.1c0.1-0.1,0.1-0.2,0.1-0.4v-0.9h1.4v12.2H36.2z"/>
	</g>
	<g>
		<path class="st12" d="M13,753v-12.2h1.4v10.6h0.3l5.5-10.6h2.4V753h-1.4v-10.6h-0.3L15.4,753H13z"/>
		<path class="st12" d="M25.3,753v-8.7h1.3v3.8h4.6v-3.8h1.3v8.7h-1.3v-3.8h-4.6v3.8H25.3z"/>
		<path class="st12" d="M39,756.5v-4l0.5,0.5h-0.7c-0.9,0-1.7-0.2-2.3-0.5c-0.7-0.4-1.2-0.9-1.6-1.5c-0.4-0.7-0.6-1.4-0.6-2.3
			c0-0.9,0.2-1.6,0.6-2.3c0.4-0.7,0.9-1.2,1.6-1.5c0.7-0.4,1.5-0.5,2.3-0.5h0.7l-0.5,0.5v-4h1.3v4l-0.5-0.5h0.7
			c0.9,0,1.7,0.2,2.3,0.5c0.7,0.4,1.2,0.9,1.6,1.5c0.4,0.7,0.5,1.4,0.5,2.3c0,0.9-0.2,1.6-0.5,2.3c-0.4,0.7-0.9,1.2-1.6,1.5
			c-0.7,0.4-1.5,0.5-2.3,0.5h-0.7l0.5-0.5v4H39z M39,752.3V745l0.5,0.5h-0.7c-0.7,0-1.2,0.1-1.7,0.4c-0.5,0.3-0.8,0.6-1.1,1.1
			c-0.2,0.5-0.4,1-0.4,1.7c0,0.6,0.1,1.2,0.4,1.7c0.2,0.5,0.6,0.8,1.1,1.1c0.5,0.3,1,0.4,1.7,0.4h0.7L39,752.3z M40.3,752.3
			l-0.5-0.5h0.7c0.7,0,1.2-0.1,1.7-0.4c0.5-0.3,0.8-0.6,1.1-1.1c0.2-0.5,0.4-1,0.4-1.7c0-0.6-0.1-1.2-0.4-1.7
			c-0.2-0.5-0.6-0.8-1.1-1.1c-0.5-0.3-1-0.4-1.7-0.4h-0.7l0.5-0.5V752.3z"/>
		<path class="st12" d="M50.6,753.2c-0.8,0-1.5-0.2-2.1-0.6c-0.6-0.4-1.1-0.9-1.5-1.6c-0.4-0.7-0.5-1.5-0.5-2.4
			c0-0.9,0.2-1.7,0.5-2.4c0.4-0.7,0.9-1.2,1.5-1.6c0.6-0.4,1.3-0.6,2.1-0.6c0.8,0,1.5,0.2,2.1,0.6c0.6,0.4,1.1,0.9,1.5,1.6
			c0.4,0.7,0.5,1.5,0.5,2.4c0,0.9-0.2,1.7-0.5,2.4c-0.4,0.7-0.9,1.2-1.5,1.6C52,753,51.3,753.2,50.6,753.2z M50.6,752
			c0.5,0,1-0.1,1.4-0.4c0.4-0.3,0.8-0.7,1-1.2c0.3-0.5,0.4-1.1,0.4-1.7c0-0.7-0.1-1.2-0.4-1.7c-0.3-0.5-0.6-0.9-1-1.2
			c-0.4-0.3-0.9-0.4-1.4-0.4c-0.5,0-1,0.1-1.4,0.4c-0.4,0.3-0.8,0.7-1,1.2c-0.3,0.5-0.4,1.1-0.4,1.7c0,0.7,0.1,1.2,0.4,1.7
			c0.3,0.5,0.6,0.9,1,1.2C49.6,751.8,50,752,50.6,752z"/>
		<path class="st12" d="M56.7,756.5v-12.2h1.1l0.2,1.2h0.1c0.4-0.5,0.8-0.8,1.2-1c0.5-0.2,1-0.4,1.6-0.4c0.8,0,1.4,0.2,2.1,0.6
			c0.6,0.4,1.1,0.9,1.4,1.6c0.3,0.7,0.5,1.5,0.5,2.4c0,0.9-0.2,1.7-0.5,2.4c-0.3,0.7-0.8,1.2-1.4,1.6c-0.6,0.4-1.3,0.6-2.1,0.6
			c-0.6,0-1.1-0.1-1.6-0.4c-0.5-0.2-0.9-0.6-1.2-1H58v4.7H56.7z M60.8,752c0.5,0,1-0.1,1.4-0.4c0.4-0.3,0.8-0.7,1-1.2
			c0.3-0.5,0.4-1.1,0.4-1.7c0-0.7-0.1-1.2-0.4-1.7c-0.3-0.5-0.6-0.9-1-1.2c-0.4-0.3-0.9-0.4-1.4-0.4s-1,0.1-1.4,0.4
			c-0.4,0.3-0.8,0.7-1,1.2c-0.3,0.5-0.4,1.1-0.4,1.7c0,0.7,0.1,1.2,0.4,1.7c0.3,0.5,0.6,0.9,1,1.2C59.8,751.8,60.3,752,60.8,752z"/>
		<path class="st12" d="M66.8,753v-8.7h2.4l2.4,7.2h0.3l2.4-7.2h2.4v8.7h-1.3v-7.2h-0.3l-2.4,7.2h-1.9l-2.4-7.2h-0.3v7.2H66.8z"/>
		<path class="st12" d="M81.9,753.2c-0.6,0-1.1-0.1-1.6-0.3c-0.5-0.2-0.8-0.6-1.1-1c-0.3-0.4-0.4-0.9-0.4-1.4c0-0.6,0.1-1.1,0.4-1.5
			c0.3-0.4,0.6-0.7,1.2-1s1.2-0.3,2-0.3h2.4v-0.3c0-0.7-0.2-1.2-0.6-1.5c-0.4-0.4-0.9-0.6-1.5-0.6c-0.6,0-1.1,0.1-1.5,0.4
			c-0.4,0.3-0.6,0.6-0.7,1.1h-1.3c0-0.5,0.2-0.9,0.5-1.3c0.3-0.4,0.7-0.7,1.2-1c0.5-0.3,1.1-0.4,1.8-0.4c0.7,0,1.3,0.1,1.8,0.4
			c0.5,0.3,0.9,0.6,1.2,1.1c0.3,0.5,0.4,1.1,0.4,1.8v5.6h-1.1l-0.2-1h-0.1c-0.2,0.3-0.5,0.6-1,0.8C83.1,753.1,82.5,753.2,81.9,753.2
			z M81.9,752c0.6,0,1.1-0.1,1.5-0.3c0.4-0.2,0.7-0.5,1-0.9c0.2-0.4,0.3-0.9,0.3-1.4v-0.3h-2.4c-0.7,0-1.3,0.1-1.6,0.4
			c-0.4,0.3-0.5,0.7-0.5,1.1c0,0.4,0.2,0.8,0.5,1.1C80.9,751.8,81.3,752,81.9,752z"/>
		<path class="st12" d="M95.4,755.1V753h-7v-8.7h1.3v7.5h4.5v-7.5h1.3v7.5h1.2v3.3H95.4z"/>
		<path class="st12" d="M98.3,753v-8.7h1.3v7.2h0.3l3.3-7.2h2.3v8.7h-1.3v-7.2h-0.3l-3.3,7.2H98.3z"/>
		<path class="st12" d="M111.6,753.2c-0.8,0-1.5-0.2-2.1-0.6c-0.6-0.4-1.1-0.9-1.5-1.6c-0.4-0.7-0.5-1.5-0.5-2.4
			c0-0.9,0.2-1.7,0.5-2.4c0.4-0.7,0.9-1.2,1.5-1.6c0.6-0.4,1.3-0.6,2.1-0.6c0.8,0,1.5,0.2,2.1,0.6c0.6,0.4,1.1,0.9,1.5,1.6
			c0.4,0.7,0.5,1.5,0.5,2.4c0,0.9-0.2,1.7-0.5,2.4c-0.4,0.7-0.9,1.2-1.5,1.6C113.1,753,112.4,753.2,111.6,753.2z M111.6,752
			c0.5,0,1-0.1,1.4-0.4c0.4-0.3,0.8-0.7,1-1.2c0.3-0.5,0.4-1.1,0.4-1.7c0-0.7-0.1-1.2-0.4-1.7c-0.3-0.5-0.6-0.9-1-1.2
			c-0.4-0.3-0.9-0.4-1.4-0.4c-0.5,0-1,0.1-1.4,0.4c-0.4,0.3-0.8,0.7-1,1.2c-0.3,0.5-0.4,1.1-0.4,1.7c0,0.7,0.1,1.2,0.4,1.7
			c0.3,0.5,0.6,0.9,1,1.2C110.6,751.8,111.1,752,111.6,752z"/>
		<path class="st12" d="M117.8,753v-8.7h1.3v3.8h4.6v-3.8h1.3v8.7h-1.3v-3.8h-4.6v3.8H117.8z"/>
		<path class="st12" d="M127.4,753v-8.7h1.3v3.8h4.6v-3.8h1.3v8.7h-1.3v-3.8h-4.6v3.8H127.4z"/>
		<path class="st12" d="M137.1,753v-8.7h1.3v3h2.4c0.6,0,1.1,0.1,1.5,0.4c0.5,0.3,0.8,0.6,1.1,1c0.3,0.4,0.4,0.9,0.4,1.5
			s-0.1,1-0.4,1.5c-0.3,0.4-0.6,0.8-1.1,1c-0.5,0.3-1,0.4-1.5,0.4H137.1z M140.8,751.8c0.5,0,0.9-0.2,1.2-0.5
			c0.3-0.3,0.5-0.7,0.5-1.2c0-0.5-0.2-0.9-0.5-1.2c-0.3-0.3-0.7-0.5-1.2-0.5h-2.4v3.3H140.8z M145.1,753v-8.7h1.3v8.7H145.1z"/>
		<path class="st12" d="M148.8,753v-8.7h1.3v7.2h0.3l3.3-7.2h2.3v8.7h-1.3v-7.2h-0.3l-3.3,7.2H148.8z M152.5,742.8
			c-0.7,0-1.2-0.2-1.7-0.6c-0.5-0.4-0.7-0.9-0.8-1.6h1.1c0,0.4,0.2,0.7,0.4,0.9c0.2,0.2,0.5,0.3,0.9,0.3c0.4,0,0.7-0.1,0.9-0.3
			c0.2-0.2,0.4-0.5,0.4-0.9h1.1c0,0.7-0.3,1.2-0.8,1.6C153.7,742.6,153.2,742.8,152.5,742.8z"/>
		<path class="st12" d="M13,772.7v-12.2h7.9v1.3h-6.5v4.1h6.1v1.3h-6.1v4.2h6.5v1.3H13z"/>
		<path class="st12" d="M27.5,772.8c-0.9,0-1.6-0.2-2.4-0.7c-0.7-0.5-1.3-1.2-1.7-2.2c-0.4-0.9-0.6-2.1-0.6-3.4
			c0-1.3,0.2-2.4,0.6-3.4c0.4-0.9,1-1.7,1.7-2.2c0.7-0.5,1.5-0.7,2.4-0.7s1.6,0.2,2.4,0.7c0.7,0.5,1.3,1.2,1.7,2.2
			c0.4,0.9,0.6,2.1,0.6,3.4c0,1.3-0.2,2.4-0.6,3.4c-0.4,0.9-1,1.7-1.7,2.2C29.2,772.6,28.4,772.8,27.5,772.8z M27.5,771.5
			c0.6,0,1.1-0.2,1.6-0.6c0.5-0.4,0.9-0.9,1.2-1.7c0.3-0.8,0.5-1.7,0.5-2.7c0-1.1-0.2-2-0.5-2.7c-0.3-0.8-0.7-1.3-1.2-1.7
			c-0.5-0.4-1.1-0.6-1.6-0.6c-0.6,0-1.1,0.2-1.6,0.6c-0.5,0.4-0.9,0.9-1.2,1.7c-0.3,0.8-0.5,1.7-0.5,2.7c0,1.1,0.2,2,0.5,2.7
			c0.3,0.8,0.7,1.3,1.2,1.7C26.4,771.3,26.9,771.5,27.5,771.5z"/>
		<path class="st12" d="M36.2,772.7v-9.6h-2.6v-1.2h2.1c0.2,0,0.3,0,0.4-0.1c0.1-0.1,0.1-0.2,0.1-0.4v-0.9h1.4v12.2H36.2z"/>
	</g>
	<g>
		<path class="st0" d="M521.4,753v-12.2h1.4v10.6h0.3l5.5-10.6h2.4V753h-1.4v-10.6h-0.3l-5.5,10.6H521.4z"/>
		<path class="st0" d="M533.6,753v-8.7h1.3v3.8h4.6v-3.8h1.3v8.7h-1.3v-3.8h-4.6v3.8H533.6z"/>
		<path class="st0" d="M547.4,756.5v-4l0.5,0.5h-0.7c-0.9,0-1.7-0.2-2.3-0.5c-0.7-0.4-1.2-0.9-1.6-1.5c-0.4-0.7-0.6-1.4-0.6-2.3
			c0-0.9,0.2-1.6,0.6-2.3c0.4-0.7,0.9-1.2,1.6-1.5c0.7-0.4,1.5-0.5,2.3-0.5h0.7l-0.5,0.5v-4h1.3v4l-0.5-0.5h0.7
			c0.9,0,1.7,0.2,2.3,0.5c0.7,0.4,1.2,0.9,1.6,1.5c0.4,0.7,0.5,1.4,0.5,2.3c0,0.9-0.2,1.6-0.5,2.3c-0.4,0.7-0.9,1.2-1.6,1.5
			c-0.7,0.4-1.5,0.5-2.3,0.5h-0.7l0.5-0.5v4H547.4z M547.4,752.3V745l0.5,0.5h-0.7c-0.7,0-1.2,0.1-1.7,0.4c-0.5,0.3-0.8,0.6-1.1,1.1
			c-0.2,0.5-0.4,1-0.4,1.7c0,0.6,0.1,1.2,0.4,1.7c0.2,0.5,0.6,0.8,1.1,1.1c0.5,0.3,1,0.4,1.7,0.4h0.7L547.4,752.3z M548.7,752.3
			l-0.5-0.5h0.7c0.7,0,1.2-0.1,1.7-0.4c0.5-0.3,0.8-0.6,1.1-1.1c0.2-0.5,0.4-1,0.4-1.7c0-0.6-0.1-1.2-0.4-1.7
			c-0.2-0.5-0.6-0.8-1.1-1.1c-0.5-0.3-1-0.4-1.7-0.4h-0.7l0.5-0.5V752.3z"/>
		<path class="st0" d="M558.9,753.2c-0.8,0-1.5-0.2-2.1-0.6c-0.6-0.4-1.1-0.9-1.5-1.6c-0.4-0.7-0.5-1.5-0.5-2.4
			c0-0.9,0.2-1.7,0.5-2.4c0.4-0.7,0.9-1.2,1.5-1.6c0.6-0.4,1.3-0.6,2.1-0.6c0.8,0,1.5,0.2,2.1,0.6c0.6,0.4,1.1,0.9,1.5,1.6
			s0.5,1.5,0.5,2.4c0,0.9-0.2,1.7-0.5,2.4c-0.4,0.7-0.9,1.2-1.5,1.6S559.7,753.2,558.9,753.2z M558.9,752c0.5,0,1-0.1,1.4-0.4
			c0.4-0.3,0.8-0.7,1-1.2c0.3-0.5,0.4-1.1,0.4-1.7s-0.1-1.2-0.4-1.7c-0.3-0.5-0.6-0.9-1-1.2c-0.4-0.3-0.9-0.4-1.4-0.4
			c-0.5,0-1,0.1-1.4,0.4c-0.4,0.3-0.8,0.7-1,1.2c-0.3,0.5-0.4,1.1-0.4,1.7s0.1,1.2,0.4,1.7c0.3,0.5,0.6,0.9,1,1.2
			C557.9,751.8,558.4,752,558.9,752z"/>
		<path class="st0" d="M565,756.5v-12.2h1.1l0.2,1.2h0.1c0.4-0.5,0.8-0.8,1.2-1c0.5-0.2,1-0.4,1.6-0.4c0.8,0,1.4,0.2,2.1,0.6
			c0.6,0.4,1.1,0.9,1.4,1.6c0.3,0.7,0.5,1.5,0.5,2.4c0,0.9-0.2,1.7-0.5,2.4c-0.3,0.7-0.8,1.2-1.4,1.6c-0.6,0.4-1.3,0.6-2.1,0.6
			c-0.6,0-1.1-0.1-1.6-0.4s-0.9-0.6-1.2-1h-0.1v4.7H565z M569.1,752c0.5,0,1-0.1,1.4-0.4c0.4-0.3,0.8-0.7,1-1.2
			c0.3-0.5,0.4-1.1,0.4-1.7s-0.1-1.2-0.4-1.7c-0.3-0.5-0.6-0.9-1-1.2c-0.4-0.3-0.9-0.4-1.4-0.4s-1,0.1-1.4,0.4
			c-0.4,0.3-0.8,0.7-1,1.2c-0.3,0.5-0.4,1.1-0.4,1.7s0.1,1.2,0.4,1.7c0.3,0.5,0.6,0.9,1,1.2C568.2,751.8,568.6,752,569.1,752z"/>
		<path class="st0" d="M575.2,753v-8.7h2.4l2.4,7.2h0.3l2.4-7.2h2.4v8.7h-1.3v-7.2h-0.3l-2.4,7.2h-1.9l-2.4-7.2h-0.3v7.2H575.2z"/>
		<path class="st0" d="M590.3,753.2c-0.6,0-1.1-0.1-1.6-0.3c-0.5-0.2-0.8-0.6-1.1-1c-0.3-0.4-0.4-0.9-0.4-1.4c0-0.6,0.1-1.1,0.4-1.5
			c0.3-0.4,0.6-0.7,1.2-1c0.5-0.2,1.2-0.3,2-0.3h2.4v-0.3c0-0.7-0.2-1.2-0.6-1.5c-0.4-0.4-0.9-0.6-1.5-0.6c-0.6,0-1.1,0.1-1.5,0.4
			c-0.4,0.3-0.6,0.6-0.7,1.1h-1.3c0-0.5,0.2-0.9,0.5-1.3c0.3-0.4,0.7-0.7,1.2-1c0.5-0.3,1.1-0.4,1.8-0.4c0.7,0,1.3,0.1,1.8,0.4
			c0.5,0.3,0.9,0.6,1.2,1.1c0.3,0.5,0.4,1.1,0.4,1.8v5.6h-1.1l-0.2-1H593c-0.2,0.3-0.5,0.6-1,0.8
			C591.5,753.1,590.9,753.2,590.3,753.2z M590.3,752c0.6,0,1.1-0.1,1.5-0.3c0.4-0.2,0.7-0.5,1-0.9c0.2-0.4,0.3-0.9,0.3-1.4v-0.3
			h-2.4c-0.7,0-1.3,0.1-1.6,0.4c-0.4,0.3-0.5,0.7-0.5,1.1c0,0.4,0.2,0.8,0.5,1.1C589.3,751.8,589.7,752,590.3,752z"/>
		<path class="st0" d="M603.8,755.1V753h-7v-8.7h1.3v7.5h4.5v-7.5h1.3v7.5h1.2v3.3H603.8z"/>
		<path class="st0" d="M606.7,753v-8.7h1.3v7.2h0.3l3.3-7.2h2.3v8.7h-1.3v-7.2h-0.3l-3.3,7.2H606.7z"/>
		<path class="st0" d="M620,753.2c-0.8,0-1.5-0.2-2.1-0.6c-0.6-0.4-1.1-0.9-1.5-1.6c-0.4-0.7-0.5-1.5-0.5-2.4c0-0.9,0.2-1.7,0.5-2.4
			c0.4-0.7,0.9-1.2,1.5-1.6c0.6-0.4,1.4-0.6,2.1-0.6c0.8,0,1.5,0.2,2.1,0.6c0.6,0.4,1.1,0.9,1.5,1.6c0.4,0.7,0.5,1.5,0.5,2.4
			c0,0.9-0.2,1.7-0.5,2.4c-0.4,0.7-0.9,1.2-1.5,1.6S620.8,753.2,620,753.2z M620,752c0.5,0,1-0.1,1.4-0.4c0.4-0.3,0.8-0.7,1-1.2
			c0.3-0.5,0.4-1.1,0.4-1.7s-0.1-1.2-0.4-1.7c-0.3-0.5-0.6-0.9-1-1.2c-0.4-0.3-0.9-0.4-1.4-0.4s-1,0.1-1.4,0.4
			c-0.4,0.3-0.8,0.7-1,1.2s-0.4,1.1-0.4,1.7s0.1,1.2,0.4,1.7c0.3,0.5,0.6,0.9,1,1.2C619,751.8,619.5,752,620,752z"/>
		<path class="st0" d="M626.1,753v-8.7h1.3v3.8h4.6v-3.8h1.3v8.7h-1.3v-3.8h-4.6v3.8H626.1z"/>
		<path class="st0" d="M635.8,753v-8.7h1.3v3.8h4.6v-3.8h1.3v8.7h-1.3v-3.8h-4.6v3.8H635.8z"/>
		<path class="st0" d="M645.5,753v-8.7h1.3v3h2.4c0.6,0,1.1,0.1,1.5,0.4c0.5,0.3,0.8,0.6,1.1,1s0.4,0.9,0.4,1.5s-0.1,1-0.4,1.5
			c-0.3,0.4-0.6,0.8-1.1,1c-0.5,0.3-1,0.4-1.5,0.4H645.5z M649.2,751.8c0.5,0,0.9-0.2,1.2-0.5c0.3-0.3,0.5-0.7,0.5-1.2
			s-0.2-0.9-0.5-1.2c-0.3-0.3-0.7-0.5-1.2-0.5h-2.4v3.3H649.2z M653.4,753v-8.7h1.3v8.7H653.4z"/>
		<path class="st0" d="M657.2,753v-8.7h1.3v7.2h0.3l3.3-7.2h2.3v8.7h-1.3v-7.2h-0.3l-3.3,7.2H657.2z M660.9,742.8
			c-0.7,0-1.2-0.2-1.7-0.6c-0.5-0.4-0.7-0.9-0.8-1.6h1.1c0,0.4,0.2,0.7,0.4,0.9c0.2,0.2,0.5,0.3,0.9,0.3c0.4,0,0.7-0.1,0.9-0.3
			c0.2-0.2,0.4-0.5,0.4-0.9h1.1c0,0.7-0.3,1.2-0.8,1.6C662.1,742.6,661.5,742.8,660.9,742.8z"/>
		<path class="st0" d="M521.4,772.7v-12.2h7.9v1.3h-6.5v4.1h6.1v1.3h-6.1v4.2h6.5v1.3H521.4z"/>
		<path class="st0" d="M535.9,772.8c-0.9,0-1.6-0.2-2.4-0.7c-0.7-0.5-1.3-1.2-1.7-2.2c-0.4-0.9-0.6-2.1-0.6-3.4
			c0-1.3,0.2-2.4,0.6-3.4c0.4-0.9,1-1.7,1.7-2.2c0.7-0.5,1.5-0.7,2.4-0.7s1.6,0.2,2.4,0.7c0.7,0.5,1.3,1.2,1.7,2.2
			c0.4,0.9,0.6,2.1,0.6,3.4c0,1.3-0.2,2.4-0.6,3.4c-0.4,0.9-1,1.7-1.7,2.2C537.5,772.6,536.7,772.8,535.9,772.8z M535.9,771.5
			c0.6,0,1.1-0.2,1.6-0.6c0.5-0.4,0.9-0.9,1.2-1.7c0.3-0.8,0.5-1.7,0.5-2.7s-0.2-2-0.5-2.7c-0.3-0.8-0.7-1.3-1.2-1.7
			c-0.5-0.4-1.1-0.6-1.6-0.6c-0.6,0-1.1,0.2-1.6,0.6c-0.5,0.4-0.9,0.9-1.2,1.7c-0.3,0.8-0.5,1.7-0.5,2.7s0.2,2,0.5,2.7
			c0.3,0.8,0.7,1.3,1.2,1.7C534.7,771.3,535.3,771.5,535.9,771.5z"/>
		<path class="st0" d="M542.2,772.7v-1.1l5-5.3c0.4-0.4,0.6-0.8,0.8-1.1c0.2-0.3,0.2-0.7,0.2-1.2c0-0.5-0.1-0.9-0.3-1.2
			c-0.2-0.4-0.5-0.6-0.8-0.8c-0.4-0.2-0.8-0.3-1.2-0.3c-0.4,0-0.8,0.1-1.2,0.3c-0.4,0.2-0.6,0.5-0.9,0.9c-0.2,0.4-0.3,0.8-0.3,1.4
			h-1.4c0-0.7,0.2-1.4,0.5-2c0.3-0.6,0.8-1.1,1.3-1.4c0.6-0.3,1.2-0.5,1.9-0.5c0.7,0,1.4,0.2,1.9,0.5c0.6,0.3,1,0.7,1.3,1.3
			c0.3,0.6,0.5,1.2,0.5,1.9c0,0.5-0.1,0.9-0.2,1.3c-0.1,0.4-0.3,0.7-0.5,1s-0.5,0.6-0.8,1l-3.9,4.1v0.1h5.7v1.3H542.2z"/>
	</g>
	<g>
		<path class="st0" d="M747.6,753.2c-1.1,0-2.1-0.3-3-0.8c-0.9-0.5-1.6-1.3-2.1-2.2c-0.5-1-0.8-2-0.8-3.3c0-1.2,0.3-2.3,0.8-3.3
			c0.5-1,1.2-1.7,2.1-2.2c0.9-0.5,1.9-0.8,3-0.8c0.9,0,1.7,0.2,2.4,0.5c0.7,0.3,1.4,0.8,1.9,1.4c0.5,0.6,0.9,1.3,1.1,2.2h-1.5
			c-0.2-0.6-0.5-1.1-0.9-1.5c-0.4-0.4-0.8-0.7-1.4-1c-0.5-0.2-1.1-0.3-1.7-0.3c-0.8,0-1.6,0.2-2.2,0.6c-0.7,0.4-1.2,1-1.6,1.8
			c-0.4,0.8-0.6,1.6-0.6,2.6c0,1,0.2,1.8,0.6,2.6c0.4,0.8,0.9,1.3,1.6,1.8c0.7,0.4,1.4,0.6,2.2,0.6c0.9,0,1.7-0.3,2.4-0.8
			c0.7-0.5,1.2-1.2,1.5-2.1h1.5c-0.2,0.9-0.6,1.6-1.1,2.2c-0.5,0.6-1.1,1.1-1.9,1.4S748.4,753.2,747.6,753.2z"/>
		<path class="st0" d="M758.5,753.2c-0.8,0-1.5-0.2-2.1-0.6c-0.6-0.4-1.1-0.9-1.5-1.6c-0.4-0.7-0.5-1.5-0.5-2.4
			c0-0.9,0.2-1.7,0.5-2.4c0.4-0.7,0.9-1.2,1.5-1.6c0.6-0.4,1.4-0.6,2.1-0.6c0.8,0,1.5,0.2,2.1,0.6c0.6,0.4,1.1,0.9,1.5,1.6
			c0.4,0.7,0.5,1.5,0.5,2.4c0,0.9-0.2,1.7-0.5,2.4c-0.4,0.7-0.9,1.2-1.5,1.6C760,753,759.2,753.2,758.5,753.2z M758.5,752
			c0.5,0,1-0.1,1.4-0.4s0.8-0.7,1-1.2c0.3-0.5,0.4-1.1,0.4-1.7c0-0.7-0.1-1.2-0.4-1.7c-0.3-0.5-0.6-0.9-1-1.2s-0.9-0.4-1.4-0.4
			c-0.5,0-1,0.1-1.4,0.4c-0.4,0.3-0.8,0.7-1,1.2c-0.3,0.5-0.4,1.1-0.4,1.7c0,0.7,0.1,1.2,0.4,1.7c0.3,0.5,0.6,0.9,1,1.2
			C757.5,751.8,757.9,752,758.5,752z"/>
		<path class="st0" d="M764.6,753v-8.7h7.2v8.7h-1.3v-7.5h-4.6v7.5H764.6z"/>
		<path class="st0" d="M774.3,756.5v-12.2h1.1l0.2,1.2h0.1c0.4-0.5,0.8-0.8,1.2-1c0.5-0.2,1-0.4,1.6-0.4c0.8,0,1.4,0.2,2.1,0.6
			c0.6,0.4,1.1,0.9,1.4,1.6c0.3,0.7,0.5,1.5,0.5,2.4c0,0.9-0.2,1.7-0.5,2.4c-0.3,0.7-0.8,1.2-1.4,1.6c-0.6,0.4-1.3,0.6-2.1,0.6
			c-0.6,0-1.1-0.1-1.6-0.4c-0.5-0.2-0.9-0.6-1.2-1h-0.1v4.7H774.3z M778.4,752c0.5,0,1-0.1,1.4-0.4c0.4-0.3,0.8-0.7,1-1.2
			c0.3-0.5,0.4-1.1,0.4-1.7c0-0.7-0.1-1.2-0.4-1.7c-0.3-0.5-0.6-0.9-1-1.2c-0.4-0.3-0.9-0.4-1.4-0.4c-0.5,0-1,0.1-1.4,0.4
			c-0.4,0.3-0.8,0.7-1,1.2c-0.3,0.5-0.4,1.1-0.4,1.7c0,0.7,0.1,1.2,0.4,1.7c0.3,0.5,0.6,0.9,1,1.2C777.4,751.8,777.9,752,778.4,752z
			"/>
		<path class="st0" d="M788.1,753.2c-0.8,0-1.5-0.2-2.1-0.6c-0.6-0.4-1.1-0.9-1.5-1.6c-0.4-0.7-0.5-1.5-0.5-2.4
			c0-0.9,0.2-1.7,0.5-2.4c0.4-0.7,0.9-1.2,1.5-1.6c0.6-0.4,1.3-0.6,2.1-0.6s1.5,0.2,2.1,0.6c0.6,0.4,1.1,0.9,1.5,1.6
			c0.4,0.7,0.5,1.5,0.5,2.4c0,0.9-0.2,1.7-0.5,2.4c-0.4,0.7-0.9,1.2-1.5,1.6C789.5,753,788.8,753.2,788.1,753.2z M788.1,752
			c0.5,0,1-0.1,1.4-0.4c0.4-0.3,0.8-0.7,1-1.2c0.3-0.5,0.4-1.1,0.4-1.7c0-0.7-0.1-1.2-0.4-1.7c-0.3-0.5-0.6-0.9-1-1.2
			c-0.4-0.3-0.9-0.4-1.4-0.4s-1,0.1-1.4,0.4s-0.8,0.7-1,1.2c-0.3,0.5-0.4,1.1-0.4,1.7c0,0.7,0.1,1.2,0.4,1.7c0.3,0.5,0.6,0.9,1,1.2
			S787.5,752,788.1,752z"/>
		<path class="st0" d="M794.2,753v-8.7h4.5c0.5,0,0.9,0.1,1.3,0.3c0.4,0.2,0.7,0.5,0.9,0.9c0.2,0.4,0.3,0.8,0.3,1.3
			c0,0.4-0.1,0.8-0.3,1.1c-0.2,0.3-0.5,0.6-0.7,0.7v0.1c0.3,0.1,0.6,0.3,0.8,0.7s0.4,0.7,0.4,1.2c0,0.5-0.1,0.9-0.3,1.3
			c-0.2,0.4-0.5,0.7-0.9,0.9c-0.4,0.2-0.8,0.3-1.2,0.3H794.2z M798.5,748c0.4,0,0.7-0.1,0.9-0.4c0.3-0.2,0.4-0.6,0.4-0.9
			c0-0.4-0.1-0.7-0.4-0.9c-0.3-0.2-0.6-0.4-0.9-0.4h-3.1v2.6H798.5z M798.7,751.9c0.2,0,0.5-0.1,0.7-0.2c0.2-0.1,0.4-0.3,0.5-0.5
			c0.1-0.2,0.2-0.4,0.2-0.7c0-0.4-0.1-0.7-0.4-1c-0.3-0.3-0.6-0.4-0.9-0.4h-3.2v2.7H798.7z"/>
		<path class="st0" d="M806.9,753.2c-0.8,0-1.5-0.2-2.1-0.6c-0.6-0.4-1.1-0.9-1.5-1.6c-0.4-0.7-0.5-1.5-0.5-2.4
			c0-0.9,0.2-1.7,0.5-2.4c0.4-0.7,0.9-1.2,1.5-1.6c0.6-0.4,1.3-0.6,2.1-0.6c0.8,0,1.5,0.2,2.1,0.6c0.6,0.4,1.1,0.9,1.5,1.6
			c0.4,0.7,0.5,1.5,0.5,2.4c0,0.9-0.2,1.7-0.5,2.4c-0.4,0.7-0.9,1.2-1.5,1.6C808.4,753,807.7,753.2,806.9,753.2z M806.9,752
			c0.5,0,1-0.1,1.4-0.4c0.4-0.3,0.8-0.7,1-1.2c0.3-0.5,0.4-1.1,0.4-1.7c0-0.7-0.1-1.2-0.4-1.7c-0.3-0.5-0.6-0.9-1-1.2
			c-0.4-0.3-0.9-0.4-1.4-0.4s-1,0.1-1.4,0.4c-0.4,0.3-0.8,0.7-1,1.2c-0.3,0.5-0.4,1.1-0.4,1.7c0,0.7,0.1,1.2,0.4,1.7
			c0.3,0.5,0.6,0.9,1,1.2C805.9,751.8,806.4,752,806.9,752z"/>
		<path class="st0" d="M811.4,753l3.6-4.5l-3.3-4.3h1.6l3.1,4.1v-4.1h1.3v4.1l3.1-4.1h1.6l-3.3,4.3l3.6,4.5h-1.6l-3.4-4.3v4.3h-1.3
			v-4.3L813,753H811.4z"/>
		<path class="st0" d="M822.7,755.1v-3.3h0.2c0.4,0,0.7-0.1,0.9-0.3c0.2-0.2,0.3-0.5,0.3-0.9l0.5-6.3h5.8v7.5h1.2v3.3h-1.3V753H824
			v2.1H822.7z M825,751.8h4.2v-6.3h-3.3l-0.4,5.1c0,0.3-0.1,0.6-0.2,0.8C825.1,751.6,825.1,751.7,825,751.8z"/>
		<path class="st0" d="M836,753.2c-0.6,0-1.1-0.1-1.6-0.3c-0.5-0.2-0.8-0.6-1.1-1c-0.3-0.4-0.4-0.9-0.4-1.4c0-0.6,0.1-1.1,0.4-1.5
			c0.3-0.4,0.6-0.7,1.2-1s1.2-0.3,2-0.3h2.4v-0.3c0-0.7-0.2-1.2-0.6-1.5c-0.4-0.4-0.9-0.6-1.5-0.6c-0.6,0-1.1,0.1-1.5,0.4
			c-0.4,0.3-0.6,0.6-0.7,1.1h-1.3c0-0.5,0.2-0.9,0.5-1.3c0.3-0.4,0.7-0.7,1.2-1c0.5-0.3,1.1-0.4,1.8-0.4c0.7,0,1.3,0.1,1.8,0.4
			c0.5,0.3,0.9,0.6,1.2,1.1c0.3,0.5,0.4,1.1,0.4,1.8v5.6h-1.1l-0.2-1h-0.1c-0.2,0.3-0.5,0.6-1,0.8
			C837.2,753.1,836.6,753.2,836,753.2z M836,752c0.6,0,1.1-0.1,1.5-0.3c0.4-0.2,0.7-0.5,1-0.9c0.2-0.4,0.3-0.9,0.3-1.4v-0.3h-2.4
			c-0.7,0-1.3,0.1-1.6,0.4c-0.4,0.3-0.5,0.7-0.5,1.1c0,0.4,0.2,0.8,0.5,1.1S835.4,752,836,752z"/>
		<path class="st0" d="M849.1,753.2c-0.7,0-1.3-0.2-1.9-0.5c-0.6-0.3-1-0.8-1.4-1.4c-0.4-0.6-0.6-1.3-0.7-2.1h-1.3v3.8h-1.3v-8.7
			h1.3v3.8h1.3c0.1-0.8,0.3-1.5,0.7-2.1c0.4-0.6,0.8-1.1,1.4-1.4c0.6-0.3,1.2-0.5,1.9-0.5c0.8,0,1.4,0.2,2.1,0.6
			c0.6,0.4,1.1,0.9,1.4,1.6c0.3,0.7,0.5,1.5,0.5,2.4c0,0.9-0.2,1.7-0.5,2.4c-0.3,0.7-0.8,1.2-1.4,1.6
			C850.6,753,849.9,753.2,849.1,753.2z M849.1,752c0.5,0,1-0.1,1.4-0.4c0.4-0.3,0.7-0.7,1-1.2c0.2-0.5,0.4-1.1,0.4-1.7
			c0-0.7-0.1-1.2-0.4-1.7c-0.2-0.5-0.6-0.9-1-1.2c-0.4-0.3-0.9-0.4-1.4-0.4c-0.5,0-1,0.1-1.4,0.4c-0.4,0.3-0.7,0.7-1,1.2
			c-0.2,0.5-0.4,1.1-0.4,1.7c0,0.7,0.1,1.2,0.4,1.7c0.2,0.5,0.6,0.9,1,1.2C848.2,751.8,848.6,752,849.1,752z"/>
		<path class="st0" d="M866.1,755.1V753h-11v-8.7h1.3v7.5h3.6v-7.5h1.3v7.5h3.6v-7.5h1.3v7.5h1.2v3.3H866.1z"/>
		<path class="st0" d="M869,753v-8.7h1.3v7.2h0.3l3.3-7.2h2.3v8.7h-1.3v-7.2h-0.3l-3.3,7.2H869z"/>
		<path class="st0" d="M878.6,753v-8.7h1.3v7.2h0.3l3.3-7.2h2.3v8.7h-1.3v-7.2h-0.3l-3.3,7.2H878.6z M882.3,742.8
			c-0.7,0-1.2-0.2-1.7-0.6c-0.5-0.4-0.7-0.9-0.8-1.6h1.1c0,0.4,0.2,0.7,0.4,0.9s0.5,0.3,0.9,0.3c0.4,0,0.7-0.1,0.9-0.3
			c0.2-0.2,0.4-0.5,0.4-0.9h1.1c0,0.7-0.3,1.2-0.8,1.6C883.5,742.6,883,742.8,882.3,742.8z"/>
		<path class="st0" d="M742.2,772.7v-12.2h7.9v1.3h-6.5v4.1h6.1v1.3h-6.1v4.2h6.5v1.3H742.2z"/>
		<path class="st0" d="M756.7,772.8c-0.9,0-1.6-0.2-2.4-0.7c-0.7-0.5-1.3-1.2-1.7-2.2c-0.4-0.9-0.6-2.1-0.6-3.4
			c0-1.3,0.2-2.4,0.6-3.4c0.4-0.9,1-1.7,1.7-2.2c0.7-0.5,1.5-0.7,2.4-0.7c0.9,0,1.6,0.2,2.4,0.7c0.7,0.5,1.3,1.2,1.7,2.2
			c0.4,0.9,0.6,2.1,0.6,3.4c0,1.3-0.2,2.4-0.6,3.4c-0.4,0.9-1,1.7-1.7,2.2C758.4,772.6,757.6,772.8,756.7,772.8z M756.7,771.5
			c0.6,0,1.1-0.2,1.6-0.6c0.5-0.4,0.9-0.9,1.2-1.7c0.3-0.8,0.5-1.7,0.5-2.7c0-1.1-0.2-2-0.5-2.7c-0.3-0.8-0.7-1.3-1.2-1.7
			c-0.5-0.4-1.1-0.6-1.6-0.6c-0.6,0-1.1,0.2-1.6,0.6c-0.5,0.4-0.9,0.9-1.2,1.7c-0.3,0.8-0.5,1.7-0.5,2.7c0,1.1,0.2,2,0.5,2.7
			c0.3,0.8,0.7,1.3,1.2,1.7C755.6,771.3,756.1,771.5,756.7,771.5z"/>
		<path class="st0" d="M765.4,772.7v-9.6h-2.6v-1.2h2.1c0.2,0,0.3,0,0.4-0.1c0.1-0.1,0.1-0.2,0.1-0.4v-0.9h1.4v12.2H765.4z"/>
	</g>
	<g>
		<path class="st0" d="M967.2,753.2c-1.1,0-2.1-0.3-2.9-0.8c-0.9-0.5-1.6-1.3-2.1-2.2c-0.5-1-0.8-2-0.8-3.3c0-1.2,0.3-2.3,0.8-3.3
			c0.5-1,1.2-1.7,2.1-2.2c0.9-0.5,1.9-0.8,2.9-0.8c0.9,0,1.7,0.2,2.4,0.5c0.7,0.3,1.4,0.8,1.9,1.4c0.5,0.6,0.9,1.3,1.1,2.2h-1.5
			c-0.2-0.6-0.5-1.1-0.9-1.5c-0.4-0.4-0.8-0.7-1.4-1c-0.5-0.2-1.1-0.3-1.7-0.3c-0.8,0-1.6,0.2-2.2,0.6c-0.7,0.4-1.2,1-1.6,1.8
			c-0.4,0.8-0.6,1.6-0.6,2.6c0,1,0.2,1.8,0.6,2.6c0.4,0.8,0.9,1.3,1.6,1.8c0.7,0.4,1.4,0.6,2.2,0.6c0.9,0,1.7-0.3,2.4-0.8
			c0.7-0.5,1.2-1.2,1.5-2.1h1.5c-0.2,0.9-0.6,1.6-1.1,2.2c-0.5,0.6-1.1,1.1-1.9,1.4C968.9,753,968.1,753.2,967.2,753.2z"/>
		<path class="st0" d="M978.1,753.2c-0.8,0-1.5-0.2-2.1-0.6c-0.6-0.4-1.1-0.9-1.5-1.6c-0.4-0.7-0.5-1.5-0.5-2.4
			c0-0.9,0.2-1.7,0.5-2.4c0.4-0.7,0.9-1.2,1.5-1.6c0.6-0.4,1.3-0.6,2.1-0.6s1.5,0.2,2.1,0.6c0.6,0.4,1.1,0.9,1.5,1.6
			c0.4,0.7,0.5,1.5,0.5,2.4c0,0.9-0.2,1.7-0.5,2.4c-0.4,0.7-0.9,1.2-1.5,1.6C979.6,753,978.9,753.2,978.1,753.2z M978.1,752
			c0.5,0,1-0.1,1.4-0.4c0.4-0.3,0.8-0.7,1-1.2c0.3-0.5,0.4-1.1,0.4-1.7c0-0.7-0.1-1.2-0.4-1.7c-0.3-0.5-0.6-0.9-1-1.2
			c-0.4-0.3-0.9-0.4-1.4-0.4s-1,0.1-1.4,0.4c-0.4,0.3-0.8,0.7-1,1.2c-0.3,0.5-0.4,1.1-0.4,1.7c0,0.7,0.1,1.2,0.4,1.7
			c0.3,0.5,0.6,0.9,1,1.2C977.1,751.8,977.6,752,978.1,752z"/>
		<path class="st0" d="M984.2,753v-8.7h7.2v8.7h-1.3v-7.5h-4.6v7.5H984.2z"/>
		<path class="st0" d="M993.9,756.5v-12.2h1.1l0.2,1.2h0.1c0.4-0.5,0.8-0.8,1.2-1c0.5-0.2,1-0.4,1.6-0.4c0.8,0,1.4,0.2,2.1,0.6
			c0.6,0.4,1.1,0.9,1.4,1.6c0.3,0.7,0.5,1.5,0.5,2.4c0,0.9-0.2,1.7-0.5,2.4c-0.3,0.7-0.8,1.2-1.4,1.6c-0.6,0.4-1.3,0.6-2.1,0.6
			c-0.6,0-1.1-0.1-1.6-0.4s-0.9-0.6-1.2-1h-0.1v4.7H993.9z M998,752c0.5,0,1-0.1,1.4-0.4c0.4-0.3,0.8-0.7,1-1.2
			c0.3-0.5,0.4-1.1,0.4-1.7c0-0.7-0.1-1.2-0.4-1.7c-0.3-0.5-0.6-0.9-1-1.2c-0.4-0.3-0.9-0.4-1.4-0.4c-0.5,0-1,0.1-1.4,0.4
			c-0.4,0.3-0.8,0.7-1,1.2c-0.3,0.5-0.4,1.1-0.4,1.7c0,0.7,0.1,1.2,0.4,1.7c0.3,0.5,0.6,0.9,1,1.2C997,751.8,997.5,752,998,752z"/>
		<path class="st0" d="M1007.7,753.2c-0.8,0-1.5-0.2-2.1-0.6c-0.6-0.4-1.1-0.9-1.5-1.6c-0.4-0.7-0.5-1.5-0.5-2.4
			c0-0.9,0.2-1.7,0.5-2.4c0.4-0.7,0.9-1.2,1.5-1.6c0.6-0.4,1.4-0.6,2.1-0.6c0.8,0,1.5,0.2,2.1,0.6c0.6,0.4,1.1,0.9,1.5,1.6
			c0.4,0.7,0.5,1.5,0.5,2.4c0,0.9-0.2,1.7-0.5,2.4c-0.4,0.7-0.9,1.2-1.5,1.6C1009.2,753,1008.5,753.2,1007.7,753.2z M1007.7,752
			c0.5,0,1-0.1,1.4-0.4c0.4-0.3,0.8-0.7,1-1.2c0.3-0.5,0.4-1.1,0.4-1.7c0-0.7-0.1-1.2-0.4-1.7c-0.3-0.5-0.6-0.9-1-1.2
			c-0.4-0.3-0.9-0.4-1.4-0.4c-0.5,0-1,0.1-1.4,0.4c-0.4,0.3-0.8,0.7-1,1.2c-0.3,0.5-0.4,1.1-0.4,1.7c0,0.7,0.1,1.2,0.4,1.7
			c0.3,0.5,0.6,0.9,1,1.2C1006.7,751.8,1007.2,752,1007.7,752z"/>
		<path class="st0" d="M1013.8,753v-8.7h4.5c0.5,0,0.9,0.1,1.3,0.3c0.4,0.2,0.7,0.5,0.9,0.9c0.2,0.4,0.3,0.8,0.3,1.3
			c0,0.4-0.1,0.8-0.3,1.1c-0.2,0.3-0.5,0.6-0.7,0.7v0.1c0.3,0.1,0.6,0.3,0.8,0.7c0.3,0.3,0.4,0.7,0.4,1.2c0,0.5-0.1,0.9-0.3,1.3
			c-0.2,0.4-0.5,0.7-0.9,0.9c-0.4,0.2-0.8,0.3-1.2,0.3H1013.8z M1018.2,748c0.4,0,0.7-0.1,0.9-0.4c0.3-0.2,0.4-0.6,0.4-0.9
			c0-0.4-0.1-0.7-0.4-0.9c-0.3-0.2-0.6-0.4-0.9-0.4h-3.1v2.6H1018.2z M1018.3,751.9c0.2,0,0.5-0.1,0.7-0.2c0.2-0.1,0.4-0.3,0.5-0.5
			c0.1-0.2,0.2-0.4,0.2-0.7c0-0.4-0.1-0.7-0.4-1c-0.3-0.3-0.6-0.4-0.9-0.4h-3.2v2.7H1018.3z"/>
		<path class="st0" d="M1026.5,753.2c-0.8,0-1.5-0.2-2.1-0.6c-0.6-0.4-1.1-0.9-1.5-1.6c-0.4-0.7-0.5-1.5-0.5-2.4
			c0-0.9,0.2-1.7,0.5-2.4c0.4-0.7,0.9-1.2,1.5-1.6c0.6-0.4,1.4-0.6,2.1-0.6c0.8,0,1.5,0.2,2.1,0.6c0.6,0.4,1.1,0.9,1.5,1.6
			c0.4,0.7,0.5,1.5,0.5,2.4c0,0.9-0.2,1.7-0.5,2.4c-0.4,0.7-0.9,1.2-1.5,1.6C1028,753,1027.3,753.2,1026.5,753.2z M1026.5,752
			c0.5,0,1-0.1,1.4-0.4c0.4-0.3,0.8-0.7,1-1.2c0.3-0.5,0.4-1.1,0.4-1.7c0-0.7-0.1-1.2-0.4-1.7c-0.3-0.5-0.6-0.9-1-1.2
			c-0.4-0.3-0.9-0.4-1.4-0.4c-0.5,0-1,0.1-1.4,0.4c-0.4,0.3-0.8,0.7-1,1.2c-0.3,0.5-0.4,1.1-0.4,1.7c0,0.7,0.1,1.2,0.4,1.7
			c0.3,0.5,0.6,0.9,1,1.2C1025.5,751.8,1026,752,1026.5,752z"/>
		<path class="st0" d="M1031.1,753l3.6-4.5l-3.3-4.3h1.6l3.1,4.1v-4.1h1.3v4.1l3.1-4.1h1.6l-3.3,4.3l3.6,4.5h-1.6l-3.4-4.3v4.3h-1.3
			v-4.3l-3.4,4.3H1031.1z"/>
		<path class="st0" d="M1042.3,755.1v-3.3h0.2c0.4,0,0.7-0.1,0.9-0.3c0.2-0.2,0.3-0.5,0.3-0.9l0.5-6.3h5.8v7.5h1.2v3.3h-1.3V753
			h-6.4v2.1H1042.3z M1044.6,751.8h4.2v-6.3h-3.3l-0.4,5.1c0,0.3-0.1,0.6-0.2,0.8C1044.8,751.6,1044.7,751.7,1044.6,751.8z"/>
		<path class="st0" d="M1055.6,753.2c-0.6,0-1.1-0.1-1.6-0.3c-0.5-0.2-0.8-0.6-1.1-1c-0.3-0.4-0.4-0.9-0.4-1.4
			c0-0.6,0.1-1.1,0.4-1.5c0.3-0.4,0.6-0.7,1.2-1c0.5-0.2,1.2-0.3,2-0.3h2.4v-0.3c0-0.7-0.2-1.2-0.6-1.5c-0.4-0.4-0.9-0.6-1.5-0.6
			c-0.6,0-1.1,0.1-1.5,0.4c-0.4,0.3-0.6,0.6-0.7,1.1h-1.3c0-0.5,0.2-0.9,0.5-1.3c0.3-0.4,0.7-0.7,1.2-1c0.5-0.3,1.1-0.4,1.8-0.4
			s1.3,0.1,1.8,0.4c0.5,0.3,0.9,0.6,1.2,1.1c0.3,0.5,0.4,1.1,0.4,1.8v5.6h-1.1l-0.2-1h-0.1c-0.2,0.3-0.5,0.6-1,0.8
			C1056.8,753.1,1056.2,753.2,1055.6,753.2z M1055.6,752c0.6,0,1.1-0.1,1.5-0.3c0.4-0.2,0.7-0.5,1-0.9c0.2-0.4,0.3-0.9,0.3-1.4v-0.3
			h-2.4c-0.7,0-1.3,0.1-1.6,0.4c-0.4,0.3-0.5,0.7-0.5,1.1c0,0.4,0.2,0.8,0.5,1.1C1054.6,751.8,1055,752,1055.6,752z"/>
		<path class="st0" d="M1068.8,753.2c-0.7,0-1.3-0.2-1.9-0.5c-0.6-0.3-1.1-0.8-1.4-1.4c-0.4-0.6-0.6-1.3-0.7-2.1h-1.3v3.8h-1.3v-8.7
			h1.3v3.8h1.3c0.1-0.8,0.3-1.5,0.7-2.1c0.4-0.6,0.8-1.1,1.4-1.4c0.6-0.3,1.2-0.5,1.9-0.5c0.8,0,1.4,0.2,2.1,0.6
			c0.6,0.4,1.1,0.9,1.4,1.6c0.3,0.7,0.5,1.5,0.5,2.4c0,0.9-0.2,1.7-0.5,2.4c-0.3,0.7-0.8,1.2-1.4,1.6
			C1070.2,753,1069.5,753.2,1068.8,753.2z M1068.8,752c0.5,0,1-0.1,1.4-0.4c0.4-0.3,0.7-0.7,1-1.2c0.2-0.5,0.4-1.1,0.4-1.7
			c0-0.7-0.1-1.2-0.4-1.7c-0.2-0.5-0.6-0.9-1-1.2c-0.4-0.3-0.9-0.4-1.4-0.4c-0.5,0-1,0.1-1.4,0.4c-0.4,0.3-0.7,0.7-1,1.2
			c-0.2,0.5-0.4,1.1-0.4,1.7c0,0.7,0.1,1.2,0.4,1.7c0.2,0.5,0.6,0.9,1,1.2C1067.8,751.8,1068.3,752,1068.8,752z"/>
		<path class="st0" d="M1085.7,755.1V753h-11v-8.7h1.3v7.5h3.6v-7.5h1.3v7.5h3.6v-7.5h1.3v7.5h1.2v3.3H1085.7z"/>
		<path class="st0" d="M1088.6,753v-8.7h1.3v7.2h0.3l3.3-7.2h2.3v8.7h-1.3v-7.2h-0.3l-3.3,7.2H1088.6z"/>
		<path class="st0" d="M1098.3,753v-8.7h1.3v7.2h0.3l3.3-7.2h2.3v8.7h-1.3v-7.2h-0.3l-3.3,7.2H1098.3z M1101.9,742.8
			c-0.7,0-1.2-0.2-1.7-0.6c-0.5-0.4-0.7-0.9-0.8-1.6h1.1c0,0.4,0.2,0.7,0.4,0.9c0.2,0.2,0.5,0.3,0.9,0.3c0.4,0,0.7-0.1,0.9-0.3
			c0.2-0.2,0.4-0.5,0.4-0.9h1.1c0,0.7-0.3,1.2-0.8,1.6C1103.2,742.6,1102.6,742.8,1101.9,742.8z"/>
		<path class="st0" d="M961.9,772.7v-12.2h7.9v1.3h-6.5v4.1h6.1v1.3h-6.1v4.2h6.5v1.3H961.9z"/>
		<path class="st0" d="M976.4,772.8c-0.9,0-1.6-0.2-2.4-0.7c-0.7-0.5-1.3-1.2-1.7-2.2c-0.4-0.9-0.6-2.1-0.6-3.4
			c0-1.3,0.2-2.4,0.6-3.4c0.4-0.9,1-1.7,1.7-2.2c0.7-0.5,1.5-0.7,2.4-0.7c0.9,0,1.6,0.2,2.4,0.7c0.7,0.5,1.3,1.2,1.7,2.2
			c0.4,0.9,0.6,2.1,0.6,3.4c0,1.3-0.2,2.4-0.6,3.4c-0.4,0.9-1,1.7-1.7,2.2C978,772.6,977.2,772.8,976.4,772.8z M976.4,771.5
			c0.6,0,1.1-0.2,1.6-0.6c0.5-0.4,0.9-0.9,1.2-1.7c0.3-0.8,0.5-1.7,0.5-2.7c0-1.1-0.2-2-0.5-2.7c-0.3-0.8-0.7-1.3-1.2-1.7
			c-0.5-0.4-1.1-0.6-1.6-0.6s-1.1,0.2-1.6,0.6c-0.5,0.4-0.9,0.9-1.2,1.7c-0.3,0.8-0.5,1.7-0.5,2.7c0,1.1,0.2,2,0.5,2.7
			c0.3,0.8,0.7,1.3,1.2,1.7C975.2,771.3,975.8,771.5,976.4,771.5z"/>
		<path class="st0" d="M982.6,772.7v-1.1l5-5.3c0.4-0.4,0.6-0.8,0.8-1.1c0.2-0.3,0.2-0.7,0.2-1.2c0-0.5-0.1-0.9-0.3-1.2
			c-0.2-0.4-0.5-0.6-0.8-0.8c-0.4-0.2-0.8-0.3-1.2-0.3c-0.4,0-0.8,0.1-1.2,0.3c-0.4,0.2-0.6,0.5-0.9,0.9c-0.2,0.4-0.3,0.8-0.3,1.4
			h-1.4c0-0.7,0.2-1.4,0.5-2c0.3-0.6,0.8-1.1,1.3-1.4c0.6-0.3,1.2-0.5,1.9-0.5s1.4,0.2,1.9,0.5c0.6,0.3,1,0.7,1.3,1.3
			c0.3,0.6,0.5,1.2,0.5,1.9c0,0.5-0.1,0.9-0.2,1.3c-0.1,0.4-0.3,0.7-0.5,1s-0.5,0.6-0.8,1l-3.9,4.1v0.1h5.7v1.3H982.6z"/>
	</g>
	<g>
		<path class="st0" d="M1186.8,753.2c-1.1,0-2.1-0.3-2.9-0.8c-0.9-0.5-1.6-1.3-2.1-2.2c-0.5-1-0.8-2-0.8-3.3c0-1.2,0.3-2.3,0.8-3.3
			c0.5-1,1.2-1.7,2.1-2.2c0.9-0.5,1.9-0.8,2.9-0.8c0.9,0,1.7,0.2,2.4,0.5c0.7,0.3,1.4,0.8,1.9,1.4c0.5,0.6,0.9,1.3,1.1,2.2h-1.5
			c-0.2-0.6-0.5-1.1-0.9-1.5c-0.4-0.4-0.8-0.7-1.4-1c-0.5-0.2-1.1-0.3-1.7-0.3c-0.8,0-1.6,0.2-2.2,0.6c-0.7,0.4-1.2,1-1.6,1.8
			c-0.4,0.8-0.6,1.6-0.6,2.6c0,1,0.2,1.8,0.6,2.6c0.4,0.8,0.9,1.3,1.6,1.8c0.7,0.4,1.4,0.6,2.2,0.6c0.9,0,1.7-0.3,2.4-0.8
			c0.7-0.5,1.2-1.2,1.5-2.1h1.5c-0.2,0.9-0.6,1.6-1.1,2.2c-0.5,0.6-1.1,1.1-1.9,1.4C1188.5,753,1187.7,753.2,1186.8,753.2z"/>
		<path class="st0" d="M1197.7,753.2c-0.8,0-1.5-0.2-2.1-0.6c-0.6-0.4-1.1-0.9-1.5-1.6c-0.4-0.7-0.5-1.5-0.5-2.4
			c0-0.9,0.2-1.7,0.5-2.4c0.4-0.7,0.9-1.2,1.5-1.6c0.6-0.4,1.3-0.6,2.1-0.6s1.5,0.2,2.1,0.6c0.6,0.4,1.1,0.9,1.5,1.6
			c0.4,0.7,0.5,1.5,0.5,2.4c0,0.9-0.2,1.7-0.5,2.4c-0.4,0.7-0.9,1.2-1.5,1.6C1199.2,753,1198.5,753.2,1197.7,753.2z M1197.7,752
			c0.5,0,1-0.1,1.4-0.4c0.4-0.3,0.8-0.7,1-1.2c0.3-0.5,0.4-1.1,0.4-1.7c0-0.7-0.1-1.2-0.4-1.7c-0.3-0.5-0.6-0.9-1-1.2
			c-0.4-0.3-0.9-0.4-1.4-0.4s-1,0.1-1.4,0.4s-0.8,0.7-1,1.2c-0.3,0.5-0.4,1.1-0.4,1.7c0,0.7,0.1,1.2,0.4,1.7c0.3,0.5,0.6,0.9,1,1.2
			S1197.2,752,1197.7,752z"/>
		<path class="st0" d="M1203.8,753v-8.7h7.2v8.7h-1.3v-7.5h-4.6v7.5H1203.8z"/>
		<path class="st0" d="M1213.5,756.5v-12.2h1.1l0.2,1.2h0.1c0.4-0.5,0.8-0.8,1.2-1c0.5-0.2,1-0.4,1.6-0.4c0.8,0,1.4,0.2,2.1,0.6
			c0.6,0.4,1.1,0.9,1.4,1.6c0.3,0.7,0.5,1.5,0.5,2.4c0,0.9-0.2,1.7-0.5,2.4c-0.3,0.7-0.8,1.2-1.4,1.6c-0.6,0.4-1.3,0.6-2.1,0.6
			c-0.6,0-1.1-0.1-1.6-0.4s-0.9-0.6-1.2-1h-0.1v4.7H1213.5z M1217.6,752c0.5,0,1-0.1,1.4-0.4c0.4-0.3,0.8-0.7,1-1.2
			c0.3-0.5,0.4-1.1,0.4-1.7c0-0.7-0.1-1.2-0.4-1.7c-0.3-0.5-0.6-0.9-1-1.2c-0.4-0.3-0.9-0.4-1.4-0.4c-0.5,0-1,0.1-1.4,0.4
			c-0.4,0.3-0.8,0.7-1,1.2c-0.3,0.5-0.4,1.1-0.4,1.7c0,0.7,0.1,1.2,0.4,1.7c0.3,0.5,0.6,0.9,1,1.2
			C1216.7,751.8,1217.1,752,1217.6,752z"/>
		<path class="st0" d="M1227.3,753.2c-0.8,0-1.5-0.2-2.1-0.6c-0.6-0.4-1.1-0.9-1.5-1.6c-0.4-0.7-0.5-1.5-0.5-2.4
			c0-0.9,0.2-1.7,0.5-2.4c0.4-0.7,0.9-1.2,1.5-1.6c0.6-0.4,1.4-0.6,2.1-0.6c0.8,0,1.5,0.2,2.1,0.6c0.6,0.4,1.1,0.9,1.5,1.6
			c0.4,0.7,0.5,1.5,0.5,2.4c0,0.9-0.2,1.7-0.5,2.4c-0.4,0.7-0.9,1.2-1.5,1.6C1228.8,753,1228.1,753.2,1227.3,753.2z M1227.3,752
			c0.5,0,1-0.1,1.4-0.4c0.4-0.3,0.8-0.7,1-1.2c0.3-0.5,0.4-1.1,0.4-1.7c0-0.7-0.1-1.2-0.4-1.7c-0.3-0.5-0.6-0.9-1-1.2
			c-0.4-0.3-0.9-0.4-1.4-0.4c-0.5,0-1,0.1-1.4,0.4c-0.4,0.3-0.8,0.7-1,1.2c-0.3,0.5-0.4,1.1-0.4,1.7c0,0.7,0.1,1.2,0.4,1.7
			c0.3,0.5,0.6,0.9,1,1.2C1226.3,751.8,1226.8,752,1227.3,752z"/>
		<path class="st0" d="M1233.4,753v-8.7h4.5c0.5,0,0.9,0.1,1.3,0.3c0.4,0.2,0.7,0.5,0.9,0.9c0.2,0.4,0.3,0.8,0.3,1.3
			c0,0.4-0.1,0.8-0.3,1.1c-0.2,0.3-0.5,0.6-0.7,0.7v0.1c0.3,0.1,0.6,0.3,0.8,0.7c0.3,0.3,0.4,0.7,0.4,1.2c0,0.5-0.1,0.9-0.3,1.3
			c-0.2,0.4-0.5,0.7-0.9,0.9c-0.4,0.2-0.8,0.3-1.2,0.3H1233.4z M1237.8,748c0.4,0,0.7-0.1,0.9-0.4c0.3-0.2,0.4-0.6,0.4-0.9
			c0-0.4-0.1-0.7-0.4-0.9c-0.3-0.2-0.6-0.4-0.9-0.4h-3.1v2.6H1237.8z M1238,751.9c0.2,0,0.5-0.1,0.7-0.2c0.2-0.1,0.4-0.3,0.5-0.5
			c0.1-0.2,0.2-0.4,0.2-0.7c0-0.4-0.1-0.7-0.4-1c-0.3-0.3-0.6-0.4-0.9-0.4h-3.2v2.7H1238z"/>
		<path class="st0" d="M1246.2,753.2c-0.8,0-1.5-0.2-2.1-0.6c-0.6-0.4-1.1-0.9-1.5-1.6c-0.4-0.7-0.5-1.5-0.5-2.4
			c0-0.9,0.2-1.7,0.5-2.4c0.4-0.7,0.9-1.2,1.5-1.6c0.6-0.4,1.4-0.6,2.1-0.6c0.8,0,1.5,0.2,2.1,0.6c0.6,0.4,1.1,0.9,1.5,1.6
			c0.4,0.7,0.5,1.5,0.5,2.4c0,0.9-0.2,1.7-0.5,2.4c-0.4,0.7-0.9,1.2-1.5,1.6C1247.7,753,1247,753.2,1246.2,753.2z M1246.2,752
			c0.5,0,1-0.1,1.4-0.4c0.4-0.3,0.8-0.7,1-1.2c0.3-0.5,0.4-1.1,0.4-1.7c0-0.7-0.1-1.2-0.4-1.7c-0.3-0.5-0.6-0.9-1-1.2
			c-0.4-0.3-0.9-0.4-1.4-0.4c-0.5,0-1,0.1-1.4,0.4c-0.4,0.3-0.8,0.7-1,1.2c-0.3,0.5-0.4,1.1-0.4,1.7c0,0.7,0.1,1.2,0.4,1.7
			c0.3,0.5,0.6,0.9,1,1.2C1245.2,751.8,1245.6,752,1246.2,752z"/>
		<path class="st0" d="M1250.7,753l3.6-4.5l-3.3-4.3h1.6l3.1,4.1v-4.1h1.3v4.1l3.1-4.1h1.6l-3.3,4.3l3.6,4.5h-1.6l-3.4-4.3v4.3h-1.3
			v-4.3l-3.4,4.3H1250.7z"/>
		<path class="st0" d="M1262,755.1v-3.3h0.2c0.4,0,0.7-0.1,0.9-0.3c0.2-0.2,0.3-0.5,0.3-0.9l0.5-6.3h5.8v7.5h1.2v3.3h-1.3V753h-6.4
			v2.1H1262z M1264.2,751.8h4.2v-6.3h-3.3l-0.4,5.1c0,0.3-0.1,0.6-0.2,0.8C1264.4,751.6,1264.3,751.7,1264.2,751.8z"/>
		<path class="st0" d="M1275.2,753.2c-0.6,0-1.1-0.1-1.6-0.3c-0.5-0.2-0.8-0.6-1.1-1c-0.3-0.4-0.4-0.9-0.4-1.4
			c0-0.6,0.1-1.1,0.4-1.5c0.3-0.4,0.6-0.7,1.2-1c0.5-0.2,1.2-0.3,2-0.3h2.4v-0.3c0-0.7-0.2-1.2-0.6-1.5c-0.4-0.4-0.9-0.6-1.5-0.6
			c-0.6,0-1.1,0.1-1.5,0.4c-0.4,0.3-0.6,0.6-0.7,1.1h-1.3c0-0.5,0.2-0.9,0.5-1.3c0.3-0.4,0.7-0.7,1.2-1c0.5-0.3,1.1-0.4,1.8-0.4
			s1.3,0.1,1.8,0.4c0.5,0.3,0.9,0.6,1.2,1.1c0.3,0.5,0.4,1.1,0.4,1.8v5.6h-1.1l-0.2-1h-0.1c-0.2,0.3-0.5,0.6-1,0.8
			C1276.4,753.1,1275.9,753.2,1275.2,753.2z M1275.2,752c0.6,0,1.1-0.1,1.5-0.3c0.4-0.2,0.7-0.5,1-0.9c0.2-0.4,0.3-0.9,0.3-1.4v-0.3
			h-2.4c-0.7,0-1.3,0.1-1.6,0.4c-0.4,0.3-0.5,0.7-0.5,1.1c0,0.4,0.2,0.8,0.5,1.1C1274.2,751.8,1274.7,752,1275.2,752z"/>
		<path class="st0" d="M1288.4,753.2c-0.7,0-1.3-0.2-1.9-0.5c-0.6-0.3-1.1-0.8-1.4-1.4c-0.4-0.6-0.6-1.3-0.7-2.1h-1.3v3.8h-1.3v-8.7
			h1.3v3.8h1.3c0.1-0.8,0.3-1.5,0.7-2.1c0.4-0.6,0.8-1.1,1.4-1.4c0.6-0.3,1.2-0.5,1.9-0.5c0.8,0,1.4,0.2,2.1,0.6
			c0.6,0.4,1.1,0.9,1.4,1.6c0.3,0.7,0.5,1.5,0.5,2.4c0,0.9-0.2,1.7-0.5,2.4c-0.3,0.7-0.8,1.2-1.4,1.6
			C1289.9,753,1289.2,753.2,1288.4,753.2z M1288.4,752c0.5,0,1-0.1,1.4-0.4c0.4-0.3,0.7-0.7,1-1.2c0.2-0.5,0.4-1.1,0.4-1.7
			c0-0.7-0.1-1.2-0.4-1.7c-0.2-0.5-0.6-0.9-1-1.2c-0.4-0.3-0.9-0.4-1.4-0.4c-0.5,0-1,0.1-1.4,0.4c-0.4,0.3-0.7,0.7-1,1.2
			c-0.2,0.5-0.4,1.1-0.4,1.7c0,0.7,0.1,1.2,0.4,1.7c0.2,0.5,0.6,0.9,1,1.2C1287.5,751.8,1287.9,752,1288.4,752z"/>
		<path class="st0" d="M1305.3,755.1V753h-11v-8.7h1.3v7.5h3.6v-7.5h1.3v7.5h3.6v-7.5h1.3v7.5h1.2v3.3H1305.3z"/>
		<path class="st0" d="M1308.2,753v-8.7h1.3v7.2h0.3l3.3-7.2h2.3v8.7h-1.3v-7.2h-0.3l-3.3,7.2H1308.2z"/>
		<path class="st0" d="M1317.9,753v-8.7h1.3v7.2h0.3l3.3-7.2h2.3v8.7h-1.3v-7.2h-0.3l-3.3,7.2H1317.9z M1321.6,742.8
			c-0.7,0-1.2-0.2-1.7-0.6c-0.5-0.4-0.7-0.9-0.8-1.6h1.1c0,0.4,0.2,0.7,0.4,0.9c0.2,0.2,0.5,0.3,0.9,0.3c0.4,0,0.7-0.1,0.9-0.3
			c0.2-0.2,0.4-0.5,0.4-0.9h1.1c0,0.7-0.3,1.2-0.8,1.6C1322.8,742.6,1322.2,742.8,1321.6,742.8z"/>
		<path class="st0" d="M1181.5,772.7v-12.2h7.9v1.3h-6.5v4.1h6.1v1.3h-6.1v4.2h6.5v1.3H1181.5z"/>
		<path class="st0" d="M1196,772.8c-0.9,0-1.6-0.2-2.4-0.7c-0.7-0.5-1.3-1.2-1.7-2.2c-0.4-0.9-0.6-2.1-0.6-3.4
			c0-1.3,0.2-2.4,0.6-3.4c0.4-0.9,1-1.7,1.7-2.2c0.7-0.5,1.5-0.7,2.4-0.7c0.9,0,1.6,0.2,2.4,0.7c0.7,0.5,1.3,1.2,1.7,2.2
			c0.4,0.9,0.6,2.1,0.6,3.4c0,1.3-0.2,2.4-0.6,3.4c-0.4,0.9-1,1.7-1.7,2.2C1197.6,772.6,1196.9,772.8,1196,772.8z M1196,771.5
			c0.6,0,1.1-0.2,1.6-0.6c0.5-0.4,0.9-0.9,1.2-1.7c0.3-0.8,0.5-1.7,0.5-2.7c0-1.1-0.2-2-0.5-2.7c-0.3-0.8-0.7-1.3-1.2-1.7
			c-0.5-0.4-1.1-0.6-1.6-0.6s-1.1,0.2-1.6,0.6c-0.5,0.4-0.9,0.9-1.2,1.7c-0.3,0.8-0.5,1.7-0.5,2.7c0,1.1,0.2,2,0.5,2.7
			c0.3,0.8,0.7,1.3,1.2,1.7C1194.8,771.3,1195.4,771.5,1196,771.5z"/>
		<path class="st0" d="M1206.3,772.8c-0.8,0-1.5-0.2-2.1-0.5c-0.6-0.3-1.1-0.7-1.4-1.2s-0.5-1.1-0.5-1.7h1.4c0,0.4,0.1,0.7,0.3,1.1
			c0.2,0.3,0.5,0.6,0.9,0.8c0.4,0.2,0.9,0.3,1.4,0.3c0.5,0,1-0.1,1.4-0.3c0.4-0.2,0.7-0.5,0.9-0.8c0.2-0.3,0.3-0.7,0.3-1.1
			c0-0.7-0.2-1.2-0.7-1.6c-0.5-0.4-1.1-0.6-1.9-0.6h-0.8v-1.3h0.8c0.5,0,1-0.1,1.3-0.3c0.4-0.2,0.6-0.5,0.8-0.8
			c0.2-0.3,0.3-0.7,0.3-1.1c0-0.4-0.1-0.7-0.3-1c-0.2-0.3-0.5-0.6-0.9-0.8c-0.4-0.2-0.8-0.3-1.3-0.3c-0.5,0-0.9,0.1-1.2,0.3
			c-0.4,0.2-0.7,0.4-0.9,0.7c-0.2,0.3-0.3,0.6-0.3,1h-1.4c0-0.6,0.2-1.1,0.5-1.6c0.3-0.5,0.8-0.9,1.4-1.2c0.6-0.3,1.2-0.5,2-0.5
			c0.7,0,1.4,0.1,2,0.4c0.6,0.3,1,0.7,1.4,1.2c0.3,0.5,0.5,1.1,0.5,1.7c0,0.5-0.1,0.9-0.3,1.3c-0.2,0.4-0.4,0.7-0.7,0.9
			c-0.3,0.3-0.6,0.4-0.9,0.5v0.1c0.5,0.2,1,0.5,1.4,1c0.4,0.5,0.6,1.1,0.6,1.9c0,0.6-0.2,1.2-0.5,1.8c-0.3,0.5-0.8,1-1.4,1.3
			C1207.7,772.7,1207.1,772.8,1206.3,772.8z"/>
	</g>
	<g>
		<path class="st0" d="M1404.3,753.2c-1.1,0-2.1-0.3-3-0.8c-0.9-0.5-1.6-1.3-2.1-2.2c-0.5-1-0.8-2-0.8-3.3c0-1.2,0.3-2.3,0.8-3.3
			c0.5-1,1.2-1.7,2.1-2.2c0.9-0.5,1.9-0.8,3-0.8c0.9,0,1.7,0.2,2.4,0.5c0.7,0.3,1.4,0.8,1.9,1.4c0.5,0.6,0.9,1.3,1.1,2.2h-1.5
			c-0.2-0.6-0.5-1.1-0.9-1.5c-0.4-0.4-0.8-0.7-1.4-1c-0.5-0.2-1.1-0.3-1.7-0.3c-0.8,0-1.6,0.2-2.2,0.6c-0.7,0.4-1.2,1-1.6,1.8
			c-0.4,0.8-0.6,1.6-0.6,2.6c0,1,0.2,1.8,0.6,2.6c0.4,0.8,0.9,1.3,1.6,1.8c0.7,0.4,1.4,0.6,2.2,0.6c0.9,0,1.7-0.3,2.4-0.8
			c0.7-0.5,1.2-1.2,1.5-2.1h1.5c-0.2,0.9-0.6,1.6-1.1,2.2c-0.5,0.6-1.1,1.1-1.9,1.4C1405.9,753,1405.1,753.2,1404.3,753.2z"/>
		<path class="st0" d="M1415.2,753.2c-0.8,0-1.5-0.2-2.1-0.6c-0.6-0.4-1.1-0.9-1.5-1.6s-0.5-1.5-0.5-2.4c0-0.9,0.2-1.7,0.5-2.4
			c0.4-0.7,0.9-1.2,1.5-1.6c0.6-0.4,1.3-0.6,2.1-0.6c0.8,0,1.5,0.2,2.1,0.6c0.6,0.4,1.1,0.9,1.5,1.6c0.4,0.7,0.5,1.5,0.5,2.4
			c0,0.9-0.2,1.7-0.5,2.4s-0.9,1.2-1.5,1.6C1416.7,753,1416,753.2,1415.2,753.2z M1415.2,752c0.5,0,1-0.1,1.4-0.4
			c0.4-0.3,0.8-0.7,1-1.2c0.3-0.5,0.4-1.1,0.4-1.7c0-0.7-0.1-1.2-0.4-1.7c-0.3-0.5-0.6-0.9-1-1.2c-0.4-0.3-0.9-0.4-1.4-0.4
			c-0.5,0-1,0.1-1.4,0.4c-0.4,0.3-0.8,0.7-1,1.2c-0.3,0.5-0.4,1.1-0.4,1.7c0,0.7,0.1,1.2,0.4,1.7c0.3,0.5,0.6,0.9,1,1.2
			C1414.2,751.8,1414.7,752,1415.2,752z"/>
		<path class="st0" d="M1421.3,753v-8.7h7.2v8.7h-1.3v-7.5h-4.6v7.5H1421.3z"/>
		<path class="st0" d="M1431,756.5v-12.2h1.1l0.2,1.2h0.1c0.4-0.5,0.8-0.8,1.2-1c0.5-0.2,1-0.4,1.6-0.4c0.8,0,1.4,0.2,2.1,0.6
			c0.6,0.4,1.1,0.9,1.4,1.6c0.3,0.7,0.5,1.5,0.5,2.4c0,0.9-0.2,1.7-0.5,2.4c-0.3,0.7-0.8,1.2-1.4,1.6c-0.6,0.4-1.3,0.6-2.1,0.6
			c-0.6,0-1.1-0.1-1.6-0.4c-0.5-0.2-0.9-0.6-1.2-1h-0.1v4.7H1431z M1435.1,752c0.5,0,1-0.1,1.4-0.4c0.4-0.3,0.8-0.7,1-1.2
			c0.3-0.5,0.4-1.1,0.4-1.7c0-0.7-0.1-1.2-0.4-1.7c-0.3-0.5-0.6-0.9-1-1.2c-0.4-0.3-0.9-0.4-1.4-0.4s-1,0.1-1.4,0.4
			c-0.4,0.3-0.8,0.7-1,1.2c-0.3,0.5-0.4,1.1-0.4,1.7c0,0.7,0.1,1.2,0.4,1.7c0.3,0.5,0.6,0.9,1,1.2
			C1434.1,751.8,1434.6,752,1435.1,752z"/>
		<path class="st0" d="M1444.8,753.2c-0.8,0-1.5-0.2-2.1-0.6c-0.6-0.4-1.1-0.9-1.5-1.6c-0.4-0.7-0.5-1.5-0.5-2.4
			c0-0.9,0.2-1.7,0.5-2.4c0.4-0.7,0.9-1.2,1.5-1.6c0.6-0.4,1.4-0.6,2.1-0.6c0.8,0,1.5,0.2,2.1,0.6c0.6,0.4,1.1,0.9,1.5,1.6
			c0.4,0.7,0.5,1.5,0.5,2.4c0,0.9-0.2,1.7-0.5,2.4s-0.9,1.2-1.5,1.6C1446.3,753,1445.5,753.2,1444.8,753.2z M1444.8,752
			c0.5,0,1-0.1,1.4-0.4s0.8-0.7,1-1.2c0.3-0.5,0.4-1.1,0.4-1.7c0-0.7-0.1-1.2-0.4-1.7c-0.3-0.5-0.6-0.9-1-1.2s-0.9-0.4-1.4-0.4
			c-0.5,0-1,0.1-1.4,0.4c-0.4,0.3-0.8,0.7-1,1.2c-0.3,0.5-0.4,1.1-0.4,1.7c0,0.7,0.1,1.2,0.4,1.7c0.3,0.5,0.6,0.9,1,1.2
			C1443.8,751.8,1444.2,752,1444.8,752z"/>
		<path class="st0" d="M1450.9,753v-8.7h4.5c0.5,0,0.9,0.1,1.3,0.3c0.4,0.2,0.7,0.5,0.9,0.9c0.2,0.4,0.3,0.8,0.3,1.3
			c0,0.4-0.1,0.8-0.3,1.1c-0.2,0.3-0.5,0.6-0.7,0.7v0.1c0.3,0.1,0.6,0.3,0.8,0.7s0.4,0.7,0.4,1.2c0,0.5-0.1,0.9-0.3,1.3
			c-0.2,0.4-0.5,0.7-0.9,0.9c-0.4,0.2-0.8,0.3-1.2,0.3H1450.9z M1455.2,748c0.4,0,0.7-0.1,0.9-0.4c0.3-0.2,0.4-0.6,0.4-0.9
			c0-0.4-0.1-0.7-0.4-0.9c-0.3-0.2-0.6-0.4-0.9-0.4h-3.1v2.6H1455.2z M1455.4,751.9c0.2,0,0.5-0.1,0.7-0.2c0.2-0.1,0.4-0.3,0.5-0.5
			c0.1-0.2,0.2-0.4,0.2-0.7c0-0.4-0.1-0.7-0.4-1c-0.3-0.3-0.6-0.4-0.9-0.4h-3.2v2.7H1455.4z"/>
		<path class="st0" d="M1463.6,753.2c-0.8,0-1.5-0.2-2.1-0.6c-0.6-0.4-1.1-0.9-1.5-1.6c-0.4-0.7-0.5-1.5-0.5-2.4
			c0-0.9,0.2-1.7,0.5-2.4c0.4-0.7,0.9-1.2,1.5-1.6c0.6-0.4,1.4-0.6,2.1-0.6c0.8,0,1.5,0.2,2.1,0.6c0.6,0.4,1.1,0.9,1.5,1.6
			c0.4,0.7,0.5,1.5,0.5,2.4c0,0.9-0.2,1.7-0.5,2.4s-0.9,1.2-1.5,1.6C1465.1,753,1464.4,753.2,1463.6,753.2z M1463.6,752
			c0.5,0,1-0.1,1.4-0.4s0.8-0.7,1-1.2c0.3-0.5,0.4-1.1,0.4-1.7c0-0.7-0.1-1.2-0.4-1.7c-0.3-0.5-0.6-0.9-1-1.2s-0.9-0.4-1.4-0.4
			c-0.5,0-1,0.1-1.4,0.4c-0.4,0.3-0.8,0.7-1,1.2c-0.3,0.5-0.4,1.1-0.4,1.7c0,0.7,0.1,1.2,0.4,1.7c0.3,0.5,0.6,0.9,1,1.2
			C1462.6,751.8,1463.1,752,1463.6,752z"/>
		<path class="st0" d="M1468.2,753l3.6-4.5l-3.3-4.3h1.6l3.1,4.1v-4.1h1.3v4.1l3.1-4.1h1.6l-3.3,4.3l3.6,4.5h-1.6l-3.4-4.3v4.3h-1.3
			v-4.3l-3.4,4.3H1468.2z"/>
		<path class="st0" d="M1479.4,755.1v-3.3h0.2c0.4,0,0.7-0.1,0.9-0.3c0.2-0.2,0.3-0.5,0.3-0.9l0.5-6.3h5.8v7.5h1.2v3.3h-1.3V753
			h-6.4v2.1H1479.4z M1481.7,751.8h4.2v-6.3h-3.3l-0.4,5.1c0,0.3-0.1,0.6-0.2,0.8C1481.9,751.6,1481.8,751.7,1481.7,751.8z"/>
		<path class="st0" d="M1492.7,753.2c-0.6,0-1.1-0.1-1.6-0.3c-0.5-0.2-0.8-0.6-1.1-1c-0.3-0.4-0.4-0.9-0.4-1.4
			c0-0.6,0.1-1.1,0.4-1.5c0.3-0.4,0.6-0.7,1.2-1c0.5-0.2,1.2-0.3,2-0.3h2.4v-0.3c0-0.7-0.2-1.2-0.6-1.5c-0.4-0.4-0.9-0.6-1.5-0.6
			c-0.6,0-1.1,0.1-1.5,0.4c-0.4,0.3-0.6,0.6-0.7,1.1h-1.3c0-0.5,0.2-0.9,0.5-1.3c0.3-0.4,0.7-0.7,1.2-1c0.5-0.3,1.1-0.4,1.8-0.4
			c0.7,0,1.3,0.1,1.8,0.4c0.5,0.3,0.9,0.6,1.2,1.1c0.3,0.5,0.4,1.1,0.4,1.8v5.6h-1.1l-0.2-1h-0.1c-0.2,0.3-0.5,0.6-1,0.8
			C1493.9,753.1,1493.3,753.2,1492.7,753.2z M1492.7,752c0.6,0,1.1-0.1,1.5-0.3c0.4-0.2,0.7-0.5,1-0.9c0.2-0.4,0.3-0.9,0.3-1.4v-0.3
			h-2.4c-0.7,0-1.3,0.1-1.6,0.4c-0.4,0.3-0.5,0.7-0.5,1.1c0,0.4,0.2,0.8,0.5,1.1C1491.7,751.8,1492.1,752,1492.7,752z"/>
		<path class="st0" d="M1505.9,753.2c-0.7,0-1.3-0.2-1.9-0.5c-0.6-0.3-1.1-0.8-1.4-1.4c-0.4-0.6-0.6-1.3-0.7-2.1h-1.3v3.8h-1.3v-8.7
			h1.3v3.8h1.3c0.1-0.8,0.3-1.5,0.7-2.1c0.4-0.6,0.8-1.1,1.4-1.4c0.6-0.3,1.2-0.5,1.9-0.5c0.8,0,1.4,0.2,2.1,0.6
			c0.6,0.4,1.1,0.9,1.4,1.6c0.3,0.7,0.5,1.5,0.5,2.4c0,0.9-0.2,1.7-0.5,2.4c-0.3,0.7-0.8,1.2-1.4,1.6
			C1507.3,753,1506.6,753.2,1505.9,753.2z M1505.9,752c0.5,0,1-0.1,1.4-0.4c0.4-0.3,0.7-0.7,1-1.2c0.2-0.5,0.4-1.1,0.4-1.7
			c0-0.7-0.1-1.2-0.4-1.7c-0.2-0.5-0.6-0.9-1-1.2c-0.4-0.3-0.9-0.4-1.4-0.4c-0.5,0-1,0.1-1.4,0.4c-0.4,0.3-0.7,0.7-1,1.2
			c-0.2,0.5-0.4,1.1-0.4,1.7c0,0.7,0.1,1.2,0.4,1.7c0.2,0.5,0.6,0.9,1,1.2C1504.9,751.8,1505.4,752,1505.9,752z"/>
		<path class="st0" d="M1522.8,755.1V753h-11v-8.7h1.3v7.5h3.6v-7.5h1.3v7.5h3.6v-7.5h1.3v7.5h1.2v3.3H1522.8z"/>
		<path class="st0" d="M1525.7,753v-8.7h1.3v7.2h0.3l3.3-7.2h2.3v8.7h-1.3v-7.2h-0.3l-3.3,7.2H1525.7z"/>
		<path class="st0" d="M1535.4,753v-8.7h1.3v7.2h0.3l3.3-7.2h2.3v8.7h-1.3v-7.2h-0.3l-3.3,7.2H1535.4z M1539,742.8
			c-0.7,0-1.2-0.2-1.7-0.6c-0.5-0.4-0.7-0.9-0.8-1.6h1.1c0,0.4,0.2,0.7,0.4,0.9c0.2,0.2,0.5,0.3,0.9,0.3c0.4,0,0.7-0.1,0.9-0.3
			s0.4-0.5,0.4-0.9h1.1c0,0.7-0.3,1.2-0.8,1.6C1540.2,742.6,1539.7,742.8,1539,742.8z"/>
		<path class="st0" d="M1398.9,772.7v-12.2h7.9v1.3h-6.5v4.1h6.1v1.3h-6.1v4.2h6.5v1.3H1398.9z"/>
		<path class="st0" d="M1413.4,772.8c-0.9,0-1.6-0.2-2.4-0.7c-0.7-0.5-1.3-1.2-1.7-2.2c-0.4-0.9-0.6-2.1-0.6-3.4
			c0-1.3,0.2-2.4,0.6-3.4c0.4-0.9,1-1.7,1.7-2.2c0.7-0.5,1.5-0.7,2.4-0.7c0.9,0,1.6,0.2,2.4,0.7c0.7,0.5,1.3,1.2,1.7,2.2
			c0.4,0.9,0.6,2.1,0.6,3.4c0,1.3-0.2,2.4-0.6,3.4c-0.4,0.9-1,1.7-1.7,2.2C1415.1,772.6,1414.3,772.8,1413.4,772.8z M1413.4,771.5
			c0.6,0,1.1-0.2,1.6-0.6c0.5-0.4,0.9-0.9,1.2-1.7c0.3-0.8,0.5-1.7,0.5-2.7c0-1.1-0.2-2-0.5-2.7c-0.3-0.8-0.7-1.3-1.2-1.7
			c-0.5-0.4-1.1-0.6-1.6-0.6s-1.1,0.2-1.6,0.6c-0.5,0.4-0.9,0.9-1.2,1.7c-0.3,0.8-0.5,1.7-0.5,2.7c0,1.1,0.2,2,0.5,2.7
			c0.3,0.8,0.7,1.3,1.2,1.7C1412.3,771.3,1412.8,771.5,1413.4,771.5z"/>
		<path class="st0" d="M1425.1,772.7v-2.8h-5.7v-1l4.8-8.4h2.3v8.2h1.6v1.2h-1.6v2.8H1425.1z M1421.2,768.6h3.9v-6.4h-0.3
			L1421.2,768.6L1421.2,768.6z"/>
	</g>
	<g>
		<path class="st0" d="M747.6,971c-1.1,0-2.1-0.3-3-0.8c-0.9-0.5-1.6-1.3-2.1-2.2c-0.5-1-0.8-2-0.8-3.3c0-1.2,0.3-2.3,0.8-3.3
			c0.5-1,1.2-1.7,2.1-2.2c0.9-0.5,1.9-0.8,3-0.8c0.9,0,1.7,0.2,2.4,0.5c0.7,0.3,1.4,0.8,1.9,1.4c0.5,0.6,0.9,1.3,1.1,2.2h-1.5
			c-0.2-0.6-0.5-1.1-0.9-1.5c-0.4-0.4-0.8-0.7-1.4-1c-0.5-0.2-1.1-0.3-1.7-0.3c-0.8,0-1.6,0.2-2.2,0.6c-0.7,0.4-1.2,1-1.6,1.8
			c-0.4,0.8-0.6,1.6-0.6,2.6c0,1,0.2,1.8,0.6,2.6c0.4,0.8,0.9,1.3,1.6,1.8c0.7,0.4,1.4,0.6,2.2,0.6c0.9,0,1.7-0.3,2.4-0.8
			c0.7-0.5,1.2-1.2,1.5-2.1h1.5c-0.2,0.9-0.6,1.6-1.1,2.2c-0.5,0.6-1.1,1.1-1.9,1.4S748.4,971,747.6,971z"/>
		<path class="st0" d="M758.5,971c-0.8,0-1.5-0.2-2.1-0.6c-0.6-0.4-1.1-0.9-1.5-1.6c-0.4-0.7-0.5-1.5-0.5-2.4s0.2-1.7,0.5-2.4
			c0.4-0.7,0.9-1.2,1.5-1.6c0.6-0.4,1.4-0.6,2.1-0.6c0.8,0,1.5,0.2,2.1,0.6c0.6,0.4,1.1,0.9,1.5,1.6c0.4,0.7,0.5,1.5,0.5,2.4
			s-0.2,1.7-0.5,2.4c-0.4,0.7-0.9,1.2-1.5,1.6C760,970.8,759.2,971,758.5,971z M758.5,969.8c0.5,0,1-0.1,1.4-0.4s0.8-0.7,1-1.2
			c0.3-0.5,0.4-1.1,0.4-1.7c0-0.7-0.1-1.2-0.4-1.7c-0.3-0.5-0.6-0.9-1-1.2s-0.9-0.4-1.4-0.4c-0.5,0-1,0.1-1.4,0.4
			c-0.4,0.3-0.8,0.7-1,1.2c-0.3,0.5-0.4,1.1-0.4,1.7c0,0.7,0.1,1.2,0.4,1.7c0.3,0.5,0.6,0.9,1,1.2
			C757.5,969.6,757.9,969.8,758.5,969.8z"/>
		<path class="st0" d="M764.6,970.8v-8.7h7.2v8.7h-1.3v-7.5h-4.6v7.5H764.6z"/>
		<path class="st0" d="M774.3,974.3v-12.2h1.1l0.2,1.2h0.1c0.4-0.5,0.8-0.8,1.2-1c0.5-0.2,1-0.4,1.6-0.4c0.8,0,1.4,0.2,2.1,0.6
			c0.6,0.4,1.1,0.9,1.4,1.6c0.3,0.7,0.5,1.5,0.5,2.4s-0.2,1.7-0.5,2.4c-0.3,0.7-0.8,1.2-1.4,1.6c-0.6,0.4-1.3,0.6-2.1,0.6
			c-0.6,0-1.1-0.1-1.6-0.4c-0.5-0.2-0.9-0.6-1.2-1h-0.1v4.7H774.3z M778.4,969.8c0.5,0,1-0.1,1.4-0.4c0.4-0.3,0.8-0.7,1-1.2
			c0.3-0.5,0.4-1.1,0.4-1.7c0-0.7-0.1-1.2-0.4-1.7c-0.3-0.5-0.6-0.9-1-1.2c-0.4-0.3-0.9-0.4-1.4-0.4c-0.5,0-1,0.1-1.4,0.4
			c-0.4,0.3-0.8,0.7-1,1.2c-0.3,0.5-0.4,1.1-0.4,1.7c0,0.7,0.1,1.2,0.4,1.7c0.3,0.5,0.6,0.9,1,1.2
			C777.4,969.6,777.9,969.8,778.4,969.8z"/>
		<path class="st0" d="M788.1,971c-0.8,0-1.5-0.2-2.1-0.6c-0.6-0.4-1.1-0.9-1.5-1.6c-0.4-0.7-0.5-1.5-0.5-2.4s0.2-1.7,0.5-2.4
			c0.4-0.7,0.9-1.2,1.5-1.6c0.6-0.4,1.3-0.6,2.1-0.6s1.5,0.2,2.1,0.6c0.6,0.4,1.1,0.9,1.5,1.6c0.4,0.7,0.5,1.5,0.5,2.4
			s-0.2,1.7-0.5,2.4c-0.4,0.7-0.9,1.2-1.5,1.6C789.5,970.8,788.8,971,788.1,971z M788.1,969.8c0.5,0,1-0.1,1.4-0.4
			c0.4-0.3,0.8-0.7,1-1.2c0.3-0.5,0.4-1.1,0.4-1.7c0-0.7-0.1-1.2-0.4-1.7c-0.3-0.5-0.6-0.9-1-1.2c-0.4-0.3-0.9-0.4-1.4-0.4
			s-1,0.1-1.4,0.4s-0.8,0.7-1,1.2c-0.3,0.5-0.4,1.1-0.4,1.7c0,0.7,0.1,1.2,0.4,1.7c0.3,0.5,0.6,0.9,1,1.2S787.5,969.8,788.1,969.8z"
			/>
		<path class="st0" d="M794.2,970.8v-8.7h4.5c0.5,0,0.9,0.1,1.3,0.3c0.4,0.2,0.7,0.5,0.9,0.9c0.2,0.4,0.3,0.8,0.3,1.3
			c0,0.4-0.1,0.8-0.3,1.1c-0.2,0.3-0.5,0.6-0.7,0.7v0.1c0.3,0.1,0.6,0.3,0.8,0.7c0.3,0.3,0.4,0.7,0.4,1.2c0,0.5-0.1,0.9-0.3,1.3
			c-0.2,0.4-0.5,0.7-0.9,0.9c-0.4,0.2-0.8,0.3-1.2,0.3H794.2z M798.5,965.9c0.4,0,0.7-0.1,0.9-0.4c0.3-0.2,0.4-0.6,0.4-0.9
			c0-0.4-0.1-0.7-0.4-0.9c-0.3-0.2-0.6-0.4-0.9-0.4h-3.1v2.6H798.5z M798.7,969.7c0.2,0,0.5-0.1,0.7-0.2c0.2-0.1,0.4-0.3,0.5-0.5
			c0.1-0.2,0.2-0.4,0.2-0.7c0-0.4-0.1-0.7-0.4-1c-0.3-0.3-0.6-0.4-0.9-0.4h-3.2v2.7H798.7z"/>
		<path class="st0" d="M806.9,971c-0.8,0-1.5-0.2-2.1-0.6c-0.6-0.4-1.1-0.9-1.5-1.6c-0.4-0.7-0.5-1.5-0.5-2.4s0.2-1.7,0.5-2.4
			c0.4-0.7,0.9-1.2,1.5-1.6c0.6-0.4,1.3-0.6,2.1-0.6c0.8,0,1.5,0.2,2.1,0.6c0.6,0.4,1.1,0.9,1.5,1.6c0.4,0.7,0.5,1.5,0.5,2.4
			s-0.2,1.7-0.5,2.4c-0.4,0.7-0.9,1.2-1.5,1.6C808.4,970.8,807.7,971,806.9,971z M806.9,969.8c0.5,0,1-0.1,1.4-0.4
			c0.4-0.3,0.8-0.7,1-1.2c0.3-0.5,0.4-1.1,0.4-1.7c0-0.7-0.1-1.2-0.4-1.7c-0.3-0.5-0.6-0.9-1-1.2c-0.4-0.3-0.9-0.4-1.4-0.4
			s-1,0.1-1.4,0.4c-0.4,0.3-0.8,0.7-1,1.2c-0.3,0.5-0.4,1.1-0.4,1.7c0,0.7,0.1,1.2,0.4,1.7c0.3,0.5,0.6,0.9,1,1.2
			C805.9,969.6,806.4,969.8,806.9,969.8z"/>
		<path class="st0" d="M811.4,970.8l3.6-4.5l-3.3-4.3h1.6l3.1,4.1v-4.1h1.3v4.1l3.1-4.1h1.6l-3.3,4.3l3.6,4.5h-1.6l-3.4-4.3v4.3
			h-1.3v-4.3l-3.4,4.3H811.4z"/>
		<path class="st0" d="M822.7,972.9v-3.3h0.2c0.4,0,0.7-0.1,0.9-0.3c0.2-0.2,0.3-0.5,0.3-0.9l0.5-6.3h5.8v7.5h1.2v3.3h-1.3v-2.1H824
			v2.1H822.7z M825,969.6h4.2v-6.3h-3.3l-0.4,5.1c0,0.3-0.1,0.6-0.2,0.8C825.1,969.4,825.1,969.5,825,969.6z"/>
		<path class="st0" d="M836,971c-0.6,0-1.1-0.1-1.6-0.3c-0.5-0.2-0.8-0.6-1.1-1c-0.3-0.4-0.4-0.9-0.4-1.4c0-0.6,0.1-1.1,0.4-1.5
			c0.3-0.4,0.6-0.7,1.2-1s1.2-0.3,2-0.3h2.4v-0.3c0-0.7-0.2-1.2-0.6-1.5c-0.4-0.4-0.9-0.6-1.5-0.6c-0.6,0-1.1,0.1-1.5,0.4
			c-0.4,0.3-0.6,0.6-0.7,1.1h-1.3c0-0.5,0.2-0.9,0.5-1.3c0.3-0.4,0.7-0.7,1.2-1c0.5-0.3,1.1-0.4,1.8-0.4c0.7,0,1.3,0.1,1.8,0.4
			c0.5,0.3,0.9,0.6,1.2,1.1c0.3,0.5,0.4,1.1,0.4,1.8v5.6h-1.1l-0.2-1h-0.1c-0.2,0.3-0.5,0.6-1,0.8C837.2,970.9,836.6,971,836,971z
			 M836,969.8c0.6,0,1.1-0.1,1.5-0.3c0.4-0.2,0.7-0.5,1-0.9c0.2-0.4,0.3-0.9,0.3-1.4v-0.3h-2.4c-0.7,0-1.3,0.1-1.6,0.4
			c-0.4,0.3-0.5,0.7-0.5,1.1c0,0.4,0.2,0.8,0.5,1.1S835.4,969.8,836,969.8z"/>
		<path class="st0" d="M849.1,971c-0.7,0-1.3-0.2-1.9-0.5c-0.6-0.3-1-0.8-1.4-1.4c-0.4-0.6-0.6-1.3-0.7-2.1h-1.3v3.8h-1.3v-8.7h1.3
			v3.8h1.3c0.1-0.8,0.3-1.5,0.7-2.1c0.4-0.6,0.8-1.1,1.4-1.4c0.6-0.3,1.2-0.5,1.9-0.5c0.8,0,1.4,0.2,2.1,0.6
			c0.6,0.4,1.1,0.9,1.4,1.6c0.3,0.7,0.5,1.5,0.5,2.4s-0.2,1.7-0.5,2.4c-0.3,0.7-0.8,1.2-1.4,1.6C850.6,970.8,849.9,971,849.1,971z
			 M849.1,969.8c0.5,0,1-0.1,1.4-0.4c0.4-0.3,0.7-0.7,1-1.2c0.2-0.5,0.4-1.1,0.4-1.7c0-0.7-0.1-1.2-0.4-1.7c-0.2-0.5-0.6-0.9-1-1.2
			c-0.4-0.3-0.9-0.4-1.4-0.4c-0.5,0-1,0.1-1.4,0.4c-0.4,0.3-0.7,0.7-1,1.2c-0.2,0.5-0.4,1.1-0.4,1.7c0,0.7,0.1,1.2,0.4,1.7
			c0.2,0.5,0.6,0.9,1,1.2C848.2,969.6,848.6,969.8,849.1,969.8z"/>
		<path class="st0" d="M866.1,972.9v-2.1h-11v-8.7h1.3v7.5h3.6v-7.5h1.3v7.5h3.6v-7.5h1.3v7.5h1.2v3.3H866.1z"/>
		<path class="st0" d="M869,970.8v-8.7h1.3v7.2h0.3l3.3-7.2h2.3v8.7h-1.3v-7.2h-0.3l-3.3,7.2H869z"/>
		<path class="st0" d="M878.6,970.8v-8.7h1.3v7.2h0.3l3.3-7.2h2.3v8.7h-1.3v-7.2h-0.3l-3.3,7.2H878.6z M882.3,960.6
			c-0.7,0-1.2-0.2-1.7-0.6c-0.5-0.4-0.7-0.9-0.8-1.6h1.1c0,0.4,0.2,0.7,0.4,0.9s0.5,0.3,0.9,0.3c0.4,0,0.7-0.1,0.9-0.3
			c0.2-0.2,0.4-0.5,0.4-0.9h1.1c0,0.7-0.3,1.2-0.8,1.6C883.5,960.4,883,960.6,882.3,960.6z"/>
		<path class="st0" d="M742.2,990.5v-12.2h7.9v1.3h-6.5v4.1h6.1v1.3h-6.1v4.2h6.5v1.3H742.2z"/>
		<path class="st0" d="M756.7,990.6c-0.9,0-1.6-0.2-2.4-0.7c-0.7-0.5-1.3-1.2-1.7-2.2c-0.4-0.9-0.6-2.1-0.6-3.4
			c0-1.3,0.2-2.4,0.6-3.4c0.4-0.9,1-1.7,1.7-2.2c0.7-0.5,1.5-0.7,2.4-0.7c0.9,0,1.6,0.2,2.4,0.7c0.7,0.5,1.3,1.2,1.7,2.2
			c0.4,0.9,0.6,2.1,0.6,3.4c0,1.3-0.2,2.4-0.6,3.4c-0.4,0.9-1,1.7-1.7,2.2C758.4,990.4,757.6,990.6,756.7,990.6z M756.7,989.3
			c0.6,0,1.1-0.2,1.6-0.6c0.5-0.4,0.9-0.9,1.2-1.7c0.3-0.8,0.5-1.7,0.5-2.7c0-1.1-0.2-2-0.5-2.7c-0.3-0.8-0.7-1.3-1.2-1.7
			c-0.5-0.4-1.1-0.6-1.6-0.6c-0.6,0-1.1,0.2-1.6,0.6c-0.5,0.4-0.9,0.9-1.2,1.7c-0.3,0.8-0.5,1.7-0.5,2.7c0,1.1,0.2,2,0.5,2.7
			c0.3,0.8,0.7,1.3,1.2,1.7C755.6,989.1,756.1,989.3,756.7,989.3z"/>
		<path class="st0" d="M767.2,990.6c-0.7,0-1.3-0.1-1.9-0.4c-0.6-0.3-1.1-0.7-1.4-1.2c-0.4-0.5-0.6-1.1-0.7-1.8h1.4
			c0.1,0.4,0.2,0.8,0.5,1.1c0.3,0.3,0.6,0.6,0.9,0.7c0.4,0.2,0.8,0.3,1.2,0.3c0.5,0,1-0.1,1.4-0.4c0.4-0.3,0.8-0.6,1-1
			c0.2-0.4,0.4-0.9,0.4-1.4c0-0.6-0.1-1.1-0.3-1.5c-0.2-0.4-0.6-0.8-1-1c-0.4-0.2-0.9-0.4-1.4-0.4c-0.5,0-0.9,0.1-1.4,0.3
			c-0.4,0.2-0.7,0.4-1,0.8h-1.5l0.7-6.5h6.5v1.3h-5.4l-0.4,3.6h0.1c0.3-0.3,0.7-0.5,1.1-0.6c0.4-0.1,0.9-0.2,1.4-0.2
			c0.7,0,1.3,0.2,1.9,0.5c0.6,0.4,1.1,0.9,1.4,1.5c0.4,0.6,0.5,1.3,0.5,2.1c0,0.8-0.2,1.5-0.5,2.1c-0.4,0.6-0.9,1.1-1.5,1.5
			C768.7,990.5,768,990.6,767.2,990.6z"/>
	</g>
	<g>
		<path class="st0" d="M967.2,971c-1.1,0-2.1-0.3-3-0.8c-0.9-0.5-1.6-1.3-2.1-2.2c-0.5-1-0.8-2-0.8-3.3c0-1.2,0.3-2.3,0.8-3.3
			c0.5-1,1.2-1.7,2.1-2.2c0.9-0.5,1.9-0.8,3-0.8c0.9,0,1.7,0.2,2.4,0.5c0.7,0.3,1.4,0.8,1.9,1.4c0.5,0.6,0.9,1.3,1.1,2.2h-1.5
			c-0.2-0.6-0.5-1.1-0.9-1.5c-0.4-0.4-0.8-0.7-1.4-1c-0.5-0.2-1.1-0.3-1.7-0.3c-0.8,0-1.6,0.2-2.2,0.6c-0.7,0.4-1.2,1-1.6,1.8
			c-0.4,0.8-0.6,1.6-0.6,2.6c0,1,0.2,1.8,0.6,2.6c0.4,0.8,0.9,1.3,1.6,1.8c0.7,0.4,1.4,0.6,2.2,0.6c0.9,0,1.7-0.3,2.4-0.8
			c0.7-0.5,1.2-1.2,1.5-2.1h1.5c-0.2,0.9-0.6,1.6-1.1,2.2c-0.5,0.6-1.1,1.1-1.9,1.4S968.1,971,967.2,971z"/>
		<path class="st0" d="M978.1,971c-0.8,0-1.5-0.2-2.1-0.6c-0.6-0.4-1.1-0.9-1.5-1.6c-0.4-0.7-0.5-1.5-0.5-2.4s0.2-1.7,0.5-2.4
			c0.4-0.7,0.9-1.2,1.5-1.6c0.6-0.4,1.4-0.6,2.1-0.6c0.8,0,1.5,0.2,2.1,0.6c0.6,0.4,1.1,0.9,1.5,1.6c0.4,0.7,0.5,1.5,0.5,2.4
			s-0.2,1.7-0.5,2.4c-0.4,0.7-0.9,1.2-1.5,1.6C979.6,970.8,978.9,971,978.1,971z M978.1,969.8c0.5,0,1-0.1,1.4-0.4
			c0.4-0.3,0.8-0.7,1-1.2c0.3-0.5,0.4-1.1,0.4-1.7c0-0.7-0.1-1.2-0.4-1.7c-0.3-0.5-0.6-0.9-1-1.2c-0.4-0.3-0.9-0.4-1.4-0.4
			c-0.5,0-1,0.1-1.4,0.4c-0.4,0.3-0.8,0.7-1,1.2c-0.3,0.5-0.4,1.1-0.4,1.7c0,0.7,0.1,1.2,0.4,1.7c0.3,0.5,0.6,0.9,1,1.2
			C977.1,969.6,977.6,969.8,978.1,969.8z"/>
		<path class="st0" d="M984.2,970.8v-8.7h7.2v8.7h-1.3v-7.5h-4.6v7.5H984.2z"/>
		<path class="st0" d="M993.9,974.3v-12.2h1.1l0.2,1.2h0.1c0.4-0.5,0.8-0.8,1.2-1c0.5-0.2,1-0.4,1.6-0.4c0.8,0,1.4,0.2,2.1,0.6
			c0.6,0.4,1.1,0.9,1.4,1.6c0.3,0.7,0.5,1.5,0.5,2.4s-0.2,1.7-0.5,2.4c-0.3,0.7-0.8,1.2-1.4,1.6c-0.6,0.4-1.3,0.6-2.1,0.6
			c-0.6,0-1.1-0.1-1.6-0.4c-0.5-0.2-0.9-0.6-1.2-1h-0.1v4.7H993.9z M998,969.8c0.5,0,1-0.1,1.4-0.4c0.4-0.3,0.8-0.7,1-1.2
			c0.3-0.5,0.4-1.1,0.4-1.7c0-0.7-0.1-1.2-0.4-1.7c-0.3-0.5-0.6-0.9-1-1.2c-0.4-0.3-0.9-0.4-1.4-0.4c-0.5,0-1,0.1-1.4,0.4
			c-0.4,0.3-0.8,0.7-1,1.2c-0.3,0.5-0.4,1.1-0.4,1.7c0,0.7,0.1,1.2,0.4,1.7c0.3,0.5,0.6,0.9,1,1.2C997,969.6,997.5,969.8,998,969.8z
			"/>
		<path class="st0" d="M1007.7,971c-0.8,0-1.5-0.2-2.1-0.6c-0.6-0.4-1.1-0.9-1.5-1.6c-0.4-0.7-0.5-1.5-0.5-2.4s0.2-1.7,0.5-2.4
			c0.4-0.7,0.9-1.2,1.5-1.6c0.6-0.4,1.3-0.6,2.1-0.6c0.8,0,1.5,0.2,2.1,0.6c0.6,0.4,1.1,0.9,1.5,1.6c0.4,0.7,0.5,1.5,0.5,2.4
			s-0.2,1.7-0.5,2.4c-0.4,0.7-0.9,1.2-1.5,1.6C1009.2,970.8,1008.5,971,1007.7,971z M1007.7,969.8c0.5,0,1-0.1,1.4-0.4
			c0.4-0.3,0.8-0.7,1-1.2c0.3-0.5,0.4-1.1,0.4-1.7c0-0.7-0.1-1.2-0.4-1.7c-0.3-0.5-0.6-0.9-1-1.2c-0.4-0.3-0.9-0.4-1.4-0.4
			s-1,0.1-1.4,0.4c-0.4,0.3-0.8,0.7-1,1.2c-0.3,0.5-0.4,1.1-0.4,1.7c0,0.7,0.1,1.2,0.4,1.7c0.3,0.5,0.6,0.9,1,1.2
			C1006.7,969.6,1007.2,969.8,1007.7,969.8z"/>
		<path class="st0" d="M1013.8,970.8v-8.7h4.5c0.5,0,0.9,0.1,1.3,0.3c0.4,0.2,0.7,0.5,0.9,0.9c0.2,0.4,0.3,0.8,0.3,1.3
			c0,0.4-0.1,0.8-0.3,1.1c-0.2,0.3-0.5,0.6-0.7,0.7v0.1c0.3,0.1,0.6,0.3,0.8,0.7c0.3,0.3,0.4,0.7,0.4,1.2c0,0.5-0.1,0.9-0.3,1.3
			c-0.2,0.4-0.5,0.7-0.9,0.9c-0.4,0.2-0.8,0.3-1.2,0.3H1013.8z M1018.2,965.9c0.4,0,0.7-0.1,0.9-0.4c0.3-0.2,0.4-0.6,0.4-0.9
			c0-0.4-0.1-0.7-0.4-0.9c-0.3-0.2-0.6-0.4-0.9-0.4h-3.1v2.6H1018.2z M1018.3,969.7c0.2,0,0.5-0.1,0.7-0.2c0.2-0.1,0.4-0.3,0.5-0.5
			c0.1-0.2,0.2-0.4,0.2-0.7c0-0.4-0.1-0.7-0.4-1c-0.3-0.3-0.6-0.4-0.9-0.4h-3.2v2.7H1018.3z"/>
		<path class="st0" d="M1026.5,971c-0.8,0-1.5-0.2-2.1-0.6c-0.6-0.4-1.1-0.9-1.5-1.6c-0.4-0.7-0.5-1.5-0.5-2.4s0.2-1.7,0.5-2.4
			c0.4-0.7,0.9-1.2,1.5-1.6c0.6-0.4,1.3-0.6,2.1-0.6c0.8,0,1.5,0.2,2.1,0.6c0.6,0.4,1.1,0.9,1.5,1.6c0.4,0.7,0.5,1.5,0.5,2.4
			s-0.2,1.7-0.5,2.4c-0.4,0.7-0.9,1.2-1.5,1.6C1028,970.8,1027.3,971,1026.5,971z M1026.5,969.8c0.5,0,1-0.1,1.4-0.4
			c0.4-0.3,0.8-0.7,1-1.2c0.3-0.5,0.4-1.1,0.4-1.7c0-0.7-0.1-1.2-0.4-1.7c-0.3-0.5-0.6-0.9-1-1.2c-0.4-0.3-0.9-0.4-1.4-0.4
			s-1,0.1-1.4,0.4c-0.4,0.3-0.8,0.7-1,1.2c-0.3,0.5-0.4,1.1-0.4,1.7c0,0.7,0.1,1.2,0.4,1.7c0.3,0.5,0.6,0.9,1,1.2
			C1025.5,969.6,1026,969.8,1026.5,969.8z"/>
		<path class="st0" d="M1031.1,970.8l3.6-4.5l-3.3-4.3h1.6l3.1,4.1v-4.1h1.3v4.1l3.1-4.1h1.6l-3.3,4.3l3.6,4.5h-1.6l-3.4-4.3v4.3
			h-1.3v-4.3l-3.4,4.3H1031.1z"/>
		<path class="st0" d="M1042.3,972.9v-3.3h0.2c0.4,0,0.7-0.1,0.9-0.3c0.2-0.2,0.3-0.5,0.3-0.9l0.5-6.3h5.8v7.5h1.2v3.3h-1.3v-2.1
			h-6.4v2.1H1042.3z M1044.6,969.6h4.2v-6.3h-3.3l-0.4,5.1c0,0.3-0.1,0.6-0.2,0.8C1044.8,969.4,1044.7,969.5,1044.6,969.6z"/>
		<path class="st0" d="M1055.6,971c-0.6,0-1.1-0.1-1.6-0.3c-0.5-0.2-0.8-0.6-1.1-1c-0.3-0.4-0.4-0.9-0.4-1.4c0-0.6,0.1-1.1,0.4-1.5
			c0.3-0.4,0.6-0.7,1.2-1c0.5-0.2,1.2-0.3,2-0.3h2.4v-0.3c0-0.7-0.2-1.2-0.6-1.5c-0.4-0.4-0.9-0.6-1.5-0.6c-0.6,0-1.1,0.1-1.5,0.4
			c-0.4,0.3-0.6,0.6-0.7,1.1h-1.3c0-0.5,0.2-0.9,0.5-1.3c0.3-0.4,0.7-0.7,1.2-1c0.5-0.3,1.1-0.4,1.8-0.4s1.3,0.1,1.8,0.4
			c0.5,0.3,0.9,0.6,1.2,1.1c0.3,0.5,0.4,1.1,0.4,1.8v5.6h-1.1l-0.2-1h-0.1c-0.2,0.3-0.5,0.6-1,0.8
			C1056.8,970.9,1056.2,971,1055.6,971z M1055.6,969.8c0.6,0,1.1-0.1,1.5-0.3c0.4-0.2,0.7-0.5,1-0.9c0.2-0.4,0.3-0.9,0.3-1.4v-0.3
			h-2.4c-0.7,0-1.3,0.1-1.6,0.4c-0.4,0.3-0.5,0.7-0.5,1.1c0,0.4,0.2,0.8,0.5,1.1C1054.6,969.6,1055,969.8,1055.6,969.8z"/>
		<path class="st0" d="M1068.8,971c-0.7,0-1.3-0.2-1.9-0.5c-0.6-0.3-1-0.8-1.4-1.4c-0.4-0.6-0.6-1.3-0.7-2.1h-1.3v3.8h-1.3v-8.7h1.3
			v3.8h1.3c0.1-0.8,0.3-1.5,0.7-2.1c0.4-0.6,0.8-1.1,1.4-1.4c0.6-0.3,1.2-0.5,1.9-0.5c0.8,0,1.4,0.2,2.1,0.6
			c0.6,0.4,1.1,0.9,1.4,1.6c0.3,0.7,0.5,1.5,0.5,2.4s-0.2,1.7-0.5,2.4c-0.3,0.7-0.8,1.2-1.4,1.6C1070.2,970.8,1069.5,971,1068.8,971
			z M1068.8,969.8c0.5,0,1-0.1,1.4-0.4c0.4-0.3,0.7-0.7,1-1.2c0.2-0.5,0.4-1.1,0.4-1.7c0-0.7-0.1-1.2-0.4-1.7
			c-0.2-0.5-0.6-0.9-1-1.2c-0.4-0.3-0.9-0.4-1.4-0.4c-0.5,0-1,0.1-1.4,0.4c-0.4,0.3-0.7,0.7-1,1.2c-0.2,0.5-0.4,1.1-0.4,1.7
			c0,0.7,0.1,1.2,0.4,1.7c0.2,0.5,0.6,0.9,1,1.2C1067.8,969.6,1068.3,969.8,1068.8,969.8z"/>
		<path class="st0" d="M1085.7,972.9v-2.1h-11v-8.7h1.3v7.5h3.6v-7.5h1.3v7.5h3.6v-7.5h1.3v7.5h1.2v3.3H1085.7z"/>
		<path class="st0" d="M1088.6,970.8v-8.7h1.3v7.2h0.3l3.3-7.2h2.3v8.7h-1.3v-7.2h-0.3l-3.3,7.2H1088.6z"/>
		<path class="st0" d="M1098.3,970.8v-8.7h1.3v7.2h0.3l3.3-7.2h2.3v8.7h-1.3v-7.2h-0.3l-3.3,7.2H1098.3z M1101.9,960.6
			c-0.7,0-1.2-0.2-1.7-0.6c-0.5-0.4-0.7-0.9-0.8-1.6h1.1c0,0.4,0.2,0.7,0.4,0.9s0.5,0.3,0.9,0.3c0.4,0,0.7-0.1,0.9-0.3
			c0.2-0.2,0.4-0.5,0.4-0.9h1.1c0,0.7-0.3,1.2-0.8,1.6C1103.2,960.4,1102.6,960.6,1101.9,960.6z"/>
		<path class="st0" d="M961.9,990.5v-12.2h7.9v1.3h-6.5v4.1h6.1v1.3h-6.1v4.2h6.5v1.3H961.9z"/>
		<path class="st0" d="M976.4,990.6c-0.9,0-1.6-0.2-2.4-0.7c-0.7-0.5-1.3-1.2-1.7-2.2c-0.4-0.9-0.6-2.1-0.6-3.4
			c0-1.3,0.2-2.4,0.6-3.4c0.4-0.9,1-1.7,1.7-2.2c0.7-0.5,1.5-0.7,2.4-0.7c0.9,0,1.6,0.2,2.4,0.7c0.7,0.5,1.3,1.2,1.7,2.2
			c0.4,0.9,0.6,2.1,0.6,3.4c0,1.3-0.2,2.4-0.6,3.4c-0.4,0.9-1,1.7-1.7,2.2C978,990.4,977.2,990.6,976.4,990.6z M976.4,989.3
			c0.6,0,1.1-0.2,1.6-0.6c0.5-0.4,0.9-0.9,1.2-1.7c0.3-0.8,0.5-1.7,0.5-2.7c0-1.1-0.2-2-0.5-2.7c-0.3-0.8-0.7-1.3-1.2-1.7
			c-0.5-0.4-1.1-0.6-1.6-0.6c-0.6,0-1.1,0.2-1.6,0.6c-0.5,0.4-0.9,0.9-1.2,1.7c-0.3,0.8-0.5,1.7-0.5,2.7c0,1.1,0.2,2,0.5,2.7
			c0.3,0.8,0.7,1.3,1.2,1.7C975.2,989.1,975.8,989.3,976.4,989.3z"/>
		<path class="st0" d="M986.9,990.6c-0.8,0-1.5-0.2-2.1-0.5c-0.6-0.4-1.1-0.9-1.5-1.5c-0.4-0.6-0.6-1.3-0.6-2.1
			c0-0.4,0.1-0.8,0.2-1.3c0.1-0.4,0.3-0.8,0.5-1.1l3.8-5.9h1.6l-2.9,4.5h0.1c0.1,0,0.3-0.1,0.5-0.1c0.2,0,0.4-0.1,0.6-0.1
			c0.7,0,1.4,0.2,2,0.5c0.6,0.3,1.1,0.8,1.4,1.4s0.5,1.3,0.5,2c0,0.7-0.2,1.4-0.6,2.1c-0.4,0.6-0.9,1.1-1.5,1.5
			C988.4,990.5,987.7,990.6,986.9,990.6z M986.9,989.3c0.5,0,1-0.1,1.4-0.4c0.4-0.2,0.8-0.6,1-1s0.4-0.9,0.4-1.4
			c0-0.5-0.1-1-0.4-1.4c-0.2-0.4-0.6-0.8-1-1c-0.4-0.2-0.9-0.4-1.4-0.4s-1,0.1-1.4,0.4s-0.8,0.6-1,1c-0.2,0.4-0.4,0.9-0.4,1.4
			c0,0.5,0.1,1,0.4,1.4s0.6,0.8,1,1C985.9,989.2,986.4,989.3,986.9,989.3z"/>
	</g>
	<g>
		<path class="st12" d="M1186.8,971c-1.1,0-2.1-0.3-3-0.8c-0.9-0.5-1.6-1.3-2.1-2.2c-0.5-1-0.8-2-0.8-3.3c0-1.2,0.3-2.3,0.8-3.3
			c0.5-1,1.2-1.7,2.1-2.2c0.9-0.5,1.9-0.8,3-0.8c0.9,0,1.7,0.2,2.4,0.5c0.7,0.3,1.4,0.8,1.9,1.4c0.5,0.6,0.9,1.3,1.1,2.2h-1.5
			c-0.2-0.6-0.5-1.1-0.9-1.5c-0.4-0.4-0.8-0.7-1.4-1c-0.5-0.2-1.1-0.3-1.7-0.3c-0.8,0-1.6,0.2-2.2,0.6c-0.7,0.4-1.2,1-1.6,1.8
			c-0.4,0.8-0.6,1.6-0.6,2.6c0,1,0.2,1.8,0.6,2.6c0.4,0.8,0.9,1.3,1.6,1.8c0.7,0.4,1.4,0.6,2.2,0.6c0.9,0,1.7-0.3,2.4-0.8
			c0.7-0.5,1.2-1.2,1.5-2.1h1.5c-0.2,0.9-0.6,1.6-1.1,2.2c-0.5,0.6-1.1,1.1-1.9,1.4C1188.5,970.8,1187.7,971,1186.8,971z"/>
		<path class="st12" d="M1197.7,971c-0.8,0-1.5-0.2-2.1-0.6c-0.6-0.4-1.1-0.9-1.5-1.6c-0.4-0.7-0.5-1.5-0.5-2.4s0.2-1.7,0.5-2.4
			c0.4-0.7,0.9-1.2,1.5-1.6c0.6-0.4,1.4-0.6,2.1-0.6c0.8,0,1.5,0.2,2.1,0.6c0.6,0.4,1.1,0.9,1.5,1.6c0.4,0.7,0.5,1.5,0.5,2.4
			s-0.2,1.7-0.5,2.4c-0.4,0.7-0.9,1.2-1.5,1.6C1199.2,970.8,1198.5,971,1197.7,971z M1197.7,969.8c0.5,0,1-0.1,1.4-0.4
			s0.8-0.7,1-1.2c0.3-0.5,0.4-1.1,0.4-1.7c0-0.7-0.1-1.2-0.4-1.7c-0.3-0.5-0.6-0.9-1-1.2s-0.9-0.4-1.4-0.4c-0.5,0-1,0.1-1.4,0.4
			c-0.4,0.3-0.8,0.7-1,1.2c-0.3,0.5-0.4,1.1-0.4,1.7c0,0.7,0.1,1.2,0.4,1.7c0.3,0.5,0.6,0.9,1,1.2
			C1196.7,969.6,1197.2,969.8,1197.7,969.8z"/>
		<path class="st12" d="M1203.8,970.8v-8.7h7.2v8.7h-1.3v-7.5h-4.6v7.5H1203.8z"/>
		<path class="st12" d="M1213.5,974.3v-12.2h1.1l0.2,1.2h0.1c0.4-0.5,0.8-0.8,1.2-1c0.5-0.2,1-0.4,1.6-0.4c0.8,0,1.4,0.2,2.1,0.6
			c0.6,0.4,1.1,0.9,1.4,1.6c0.3,0.7,0.5,1.5,0.5,2.4s-0.2,1.7-0.5,2.4c-0.3,0.7-0.8,1.2-1.4,1.6c-0.6,0.4-1.3,0.6-2.1,0.6
			c-0.6,0-1.1-0.1-1.6-0.4c-0.5-0.2-0.9-0.6-1.2-1h-0.1v4.7H1213.5z M1217.6,969.8c0.5,0,1-0.1,1.4-0.4c0.4-0.3,0.8-0.7,1-1.2
			c0.3-0.5,0.4-1.1,0.4-1.7c0-0.7-0.1-1.2-0.4-1.7c-0.3-0.5-0.6-0.9-1-1.2c-0.4-0.3-0.9-0.4-1.4-0.4c-0.5,0-1,0.1-1.4,0.4
			c-0.4,0.3-0.8,0.7-1,1.2c-0.3,0.5-0.4,1.1-0.4,1.7c0,0.7,0.1,1.2,0.4,1.7c0.3,0.5,0.6,0.9,1,1.2
			C1216.7,969.6,1217.1,969.8,1217.6,969.8z"/>
		<path class="st12" d="M1227.3,971c-0.8,0-1.5-0.2-2.1-0.6c-0.6-0.4-1.1-0.9-1.5-1.6c-0.4-0.7-0.5-1.5-0.5-2.4s0.2-1.7,0.5-2.4
			c0.4-0.7,0.9-1.2,1.5-1.6c0.6-0.4,1.4-0.6,2.1-0.6c0.8,0,1.5,0.2,2.1,0.6c0.6,0.4,1.1,0.9,1.5,1.6c0.4,0.7,0.5,1.5,0.5,2.4
			s-0.2,1.7-0.5,2.4c-0.4,0.7-0.9,1.2-1.5,1.6C1228.8,970.8,1228.1,971,1227.3,971z M1227.3,969.8c0.5,0,1-0.1,1.4-0.4
			c0.4-0.3,0.8-0.7,1-1.2c0.3-0.5,0.4-1.1,0.4-1.7c0-0.7-0.1-1.2-0.4-1.7c-0.3-0.5-0.6-0.9-1-1.2c-0.4-0.3-0.9-0.4-1.4-0.4
			s-1,0.1-1.4,0.4s-0.8,0.7-1,1.2c-0.3,0.5-0.4,1.1-0.4,1.7c0,0.7,0.1,1.2,0.4,1.7c0.3,0.5,0.6,0.9,1,1.2S1226.8,969.8,1227.3,969.8
			z"/>
		<path class="st12" d="M1233.4,970.8v-8.7h4.5c0.5,0,0.9,0.1,1.3,0.3c0.4,0.2,0.7,0.5,0.9,0.9c0.2,0.4,0.3,0.8,0.3,1.3
			c0,0.4-0.1,0.8-0.3,1.1c-0.2,0.3-0.5,0.6-0.7,0.7v0.1c0.3,0.1,0.6,0.3,0.8,0.7c0.3,0.3,0.4,0.7,0.4,1.2c0,0.5-0.1,0.9-0.3,1.3
			c-0.2,0.4-0.5,0.7-0.9,0.9c-0.4,0.2-0.8,0.3-1.2,0.3H1233.4z M1237.8,965.9c0.4,0,0.7-0.1,0.9-0.4c0.3-0.2,0.4-0.6,0.4-0.9
			c0-0.4-0.1-0.7-0.4-0.9c-0.3-0.2-0.6-0.4-0.9-0.4h-3.1v2.6H1237.8z M1238,969.7c0.2,0,0.5-0.1,0.7-0.2c0.2-0.1,0.4-0.3,0.5-0.5
			c0.1-0.2,0.2-0.4,0.2-0.7c0-0.4-0.1-0.7-0.4-1c-0.3-0.3-0.6-0.4-0.9-0.4h-3.2v2.7H1238z"/>
		<path class="st12" d="M1246.2,971c-0.8,0-1.5-0.2-2.1-0.6c-0.6-0.4-1.1-0.9-1.5-1.6c-0.4-0.7-0.5-1.5-0.5-2.4s0.2-1.7,0.5-2.4
			c0.4-0.7,0.9-1.2,1.5-1.6c0.6-0.4,1.4-0.6,2.1-0.6c0.8,0,1.5,0.2,2.1,0.6c0.6,0.4,1.1,0.9,1.5,1.6c0.4,0.7,0.5,1.5,0.5,2.4
			s-0.2,1.7-0.5,2.4c-0.4,0.7-0.9,1.2-1.5,1.6C1247.7,970.8,1247,971,1246.2,971z M1246.2,969.8c0.5,0,1-0.1,1.4-0.4
			c0.4-0.3,0.8-0.7,1-1.2c0.3-0.5,0.4-1.1,0.4-1.7c0-0.7-0.1-1.2-0.4-1.7c-0.3-0.5-0.6-0.9-1-1.2c-0.4-0.3-0.9-0.4-1.4-0.4
			s-1,0.1-1.4,0.4c-0.4,0.3-0.8,0.7-1,1.2c-0.3,0.5-0.4,1.1-0.4,1.7c0,0.7,0.1,1.2,0.4,1.7c0.3,0.5,0.6,0.9,1,1.2
			C1245.2,969.6,1245.7,969.8,1246.2,969.8z"/>
		<path class="st12" d="M1250.7,970.8l3.6-4.5l-3.3-4.3h1.6l3.1,4.1v-4.1h1.3v4.1l3.1-4.1h1.6l-3.3,4.3l3.6,4.5h-1.6l-3.4-4.3v4.3
			h-1.3v-4.3l-3.4,4.3H1250.7z"/>
		<path class="st12" d="M1262,972.9v-3.3h0.2c0.4,0,0.7-0.1,0.9-0.3c0.2-0.2,0.3-0.5,0.3-0.9l0.5-6.3h5.8v7.5h1.2v3.3h-1.3v-2.1
			h-6.4v2.1H1262z M1264.2,969.6h4.2v-6.3h-3.3l-0.4,5.1c0,0.3-0.1,0.6-0.2,0.8C1264.4,969.4,1264.3,969.5,1264.2,969.6z"/>
		<path class="st12" d="M1275.2,971c-0.6,0-1.1-0.1-1.6-0.3c-0.5-0.2-0.8-0.6-1.1-1c-0.3-0.4-0.4-0.9-0.4-1.4c0-0.6,0.1-1.1,0.4-1.5
			c0.3-0.4,0.6-0.7,1.2-1c0.5-0.2,1.2-0.3,2-0.3h2.4v-0.3c0-0.7-0.2-1.2-0.6-1.5c-0.4-0.4-0.9-0.6-1.5-0.6c-0.6,0-1.1,0.1-1.5,0.4
			c-0.4,0.3-0.6,0.6-0.7,1.1h-1.3c0-0.5,0.2-0.9,0.5-1.3c0.3-0.4,0.7-0.7,1.2-1c0.5-0.3,1.1-0.4,1.8-0.4c0.7,0,1.3,0.1,1.8,0.4
			c0.5,0.3,0.9,0.6,1.2,1.1c0.3,0.5,0.4,1.1,0.4,1.8v5.6h-1.1l-0.2-1h-0.1c-0.2,0.3-0.5,0.6-1,0.8
			C1276.4,970.9,1275.9,971,1275.2,971z M1275.2,969.8c0.6,0,1.1-0.1,1.5-0.3c0.4-0.2,0.7-0.5,1-0.9c0.2-0.4,0.3-0.9,0.3-1.4v-0.3
			h-2.4c-0.7,0-1.3,0.1-1.6,0.4c-0.4,0.3-0.5,0.7-0.5,1.1c0,0.4,0.2,0.8,0.5,1.1C1274.2,969.6,1274.7,969.8,1275.2,969.8z"/>
		<path class="st12" d="M1288.4,971c-0.7,0-1.3-0.2-1.9-0.5c-0.6-0.3-1.1-0.8-1.4-1.4c-0.4-0.6-0.6-1.3-0.7-2.1h-1.3v3.8h-1.3v-8.7
			h1.3v3.8h1.3c0.1-0.8,0.3-1.5,0.7-2.1c0.4-0.6,0.8-1.1,1.4-1.4c0.6-0.3,1.2-0.5,1.9-0.5c0.8,0,1.4,0.2,2.1,0.6
			c0.6,0.4,1.1,0.9,1.4,1.6c0.3,0.7,0.5,1.5,0.5,2.4s-0.2,1.7-0.5,2.4c-0.3,0.7-0.8,1.2-1.4,1.6C1289.9,970.8,1289.2,971,1288.4,971
			z M1288.4,969.8c0.5,0,1-0.1,1.4-0.4c0.4-0.3,0.7-0.7,1-1.2c0.2-0.5,0.4-1.1,0.4-1.7c0-0.7-0.1-1.2-0.4-1.7
			c-0.2-0.5-0.6-0.9-1-1.2c-0.4-0.3-0.9-0.4-1.4-0.4s-1,0.1-1.4,0.4c-0.4,0.3-0.7,0.7-1,1.2c-0.2,0.5-0.4,1.1-0.4,1.7
			c0,0.7,0.1,1.2,0.4,1.7c0.2,0.5,0.6,0.9,1,1.2C1287.5,969.6,1287.9,969.8,1288.4,969.8z"/>
		<path class="st12" d="M1305.3,972.9v-2.1h-11v-8.7h1.3v7.5h3.6v-7.5h1.3v7.5h3.6v-7.5h1.3v7.5h1.2v3.3H1305.3z"/>
		<path class="st12" d="M1308.2,970.8v-8.7h1.3v7.2h0.3l3.3-7.2h2.3v8.7h-1.3v-7.2h-0.3l-3.3,7.2H1308.2z"/>
		<path class="st12" d="M1317.9,970.8v-8.7h1.3v7.2h0.3l3.3-7.2h2.3v8.7h-1.3v-7.2h-0.3l-3.3,7.2H1317.9z M1321.6,960.6
			c-0.7,0-1.2-0.2-1.7-0.6c-0.5-0.4-0.7-0.9-0.8-1.6h1.1c0,0.4,0.2,0.7,0.4,0.9c0.2,0.2,0.5,0.3,0.9,0.3c0.4,0,0.7-0.1,0.9-0.3
			c0.2-0.2,0.4-0.5,0.4-0.9h1.1c0,0.7-0.3,1.2-0.8,1.6C1322.8,960.4,1322.2,960.6,1321.6,960.6z"/>
		<path class="st12" d="M1181.5,990.5v-12.2h7.9v1.3h-6.5v4.1h6.1v1.3h-6.1v4.2h6.5v1.3H1181.5z"/>
		<path class="st12" d="M1196,990.6c-0.9,0-1.6-0.2-2.4-0.7c-0.7-0.5-1.3-1.2-1.7-2.2c-0.4-0.9-0.6-2.1-0.6-3.4
			c0-1.3,0.2-2.4,0.6-3.4c0.4-0.9,1-1.7,1.7-2.2c0.7-0.5,1.5-0.7,2.4-0.7s1.6,0.2,2.4,0.7c0.7,0.5,1.3,1.2,1.7,2.2
			c0.4,0.9,0.6,2.1,0.6,3.4c0,1.3-0.2,2.4-0.6,3.4c-0.4,0.9-1,1.7-1.7,2.2C1197.6,990.4,1196.9,990.6,1196,990.6z M1196,989.3
			c0.6,0,1.1-0.2,1.6-0.6c0.5-0.4,0.9-0.9,1.2-1.7c0.3-0.8,0.5-1.7,0.5-2.7c0-1.1-0.2-2-0.5-2.7c-0.3-0.8-0.7-1.3-1.2-1.7
			c-0.5-0.4-1.1-0.6-1.6-0.6c-0.6,0-1.1,0.2-1.6,0.6c-0.5,0.4-0.9,0.9-1.2,1.7c-0.3,0.8-0.5,1.7-0.5,2.7c0,1.1,0.2,2,0.5,2.7
			c0.3,0.8,0.7,1.3,1.2,1.7C1194.8,989.1,1195.4,989.3,1196,989.3z"/>
		<path class="st12" d="M1203.6,990.5l4.3-10.9h-6.1v-1.3h7.7v1.1l-4.4,11.1H1203.6z"/>
	</g>
	<g>
		<path class="st12" d="M1404.3,971c-1.1,0-2.1-0.3-2.9-0.8c-0.9-0.5-1.6-1.3-2.1-2.2c-0.5-1-0.8-2-0.8-3.3c0-1.2,0.3-2.3,0.8-3.3
			c0.5-1,1.2-1.7,2.1-2.2c0.9-0.5,1.9-0.8,2.9-0.8c0.9,0,1.7,0.2,2.4,0.5c0.7,0.3,1.4,0.8,1.9,1.4c0.5,0.6,0.9,1.3,1.1,2.2h-1.5
			c-0.2-0.6-0.5-1.1-0.9-1.5c-0.4-0.4-0.8-0.7-1.4-1c-0.5-0.2-1.1-0.3-1.7-0.3c-0.8,0-1.6,0.2-2.2,0.6c-0.7,0.4-1.2,1-1.6,1.8
			c-0.4,0.8-0.6,1.6-0.6,2.6c0,1,0.2,1.8,0.6,2.6c0.4,0.8,0.9,1.3,1.6,1.8c0.7,0.4,1.4,0.6,2.2,0.6c0.9,0,1.7-0.3,2.4-0.8
			c0.7-0.5,1.2-1.2,1.5-2.1h1.5c-0.2,0.9-0.6,1.6-1.1,2.2c-0.5,0.6-1.1,1.1-1.9,1.4C1405.9,970.8,1405.1,971,1404.3,971z"/>
		<path class="st12" d="M1415.2,971c-0.8,0-1.5-0.2-2.1-0.6c-0.6-0.4-1.1-0.9-1.5-1.6c-0.4-0.7-0.5-1.5-0.5-2.4s0.2-1.7,0.5-2.4
			c0.4-0.7,0.9-1.2,1.5-1.6c0.6-0.4,1.3-0.6,2.1-0.6c0.8,0,1.5,0.2,2.1,0.6c0.6,0.4,1.1,0.9,1.5,1.6c0.4,0.7,0.5,1.5,0.5,2.4
			s-0.2,1.7-0.5,2.4c-0.4,0.7-0.9,1.2-1.5,1.6C1416.7,970.8,1416,971,1415.2,971z M1415.2,969.8c0.5,0,1-0.1,1.4-0.4
			c0.4-0.3,0.8-0.7,1-1.2c0.3-0.5,0.4-1.1,0.4-1.7c0-0.7-0.1-1.2-0.4-1.7c-0.3-0.5-0.6-0.9-1-1.2c-0.4-0.3-0.9-0.4-1.4-0.4
			s-1,0.1-1.4,0.4c-0.4,0.3-0.8,0.7-1,1.2c-0.3,0.5-0.4,1.1-0.4,1.7c0,0.7,0.1,1.2,0.4,1.7c0.3,0.5,0.6,0.9,1,1.2
			C1414.2,969.6,1414.7,969.8,1415.2,969.8z"/>
		<path class="st12" d="M1421.3,970.8v-8.7h7.2v8.7h-1.3v-7.5h-4.6v7.5H1421.3z"/>
		<path class="st12" d="M1431,974.3v-12.2h1.1l0.2,1.2h0.1c0.4-0.5,0.8-0.8,1.2-1c0.5-0.2,1-0.4,1.6-0.4c0.8,0,1.4,0.2,2.1,0.6
			c0.6,0.4,1.1,0.9,1.4,1.6c0.3,0.7,0.5,1.5,0.5,2.4s-0.2,1.7-0.5,2.4c-0.3,0.7-0.8,1.2-1.4,1.6c-0.6,0.4-1.3,0.6-2.1,0.6
			c-0.6,0-1.1-0.1-1.6-0.4c-0.5-0.2-0.9-0.6-1.2-1h-0.1v4.7H1431z M1435.1,969.8c0.5,0,1-0.1,1.4-0.4c0.4-0.3,0.8-0.7,1-1.2
			c0.3-0.5,0.4-1.1,0.4-1.7c0-0.7-0.1-1.2-0.4-1.7c-0.3-0.5-0.6-0.9-1-1.2c-0.4-0.3-0.9-0.4-1.4-0.4c-0.5,0-1,0.1-1.4,0.4
			c-0.4,0.3-0.8,0.7-1,1.2c-0.3,0.5-0.4,1.1-0.4,1.7c0,0.7,0.1,1.2,0.4,1.7c0.3,0.5,0.6,0.9,1,1.2
			C1434.1,969.6,1434.6,969.8,1435.1,969.8z"/>
		<path class="st12" d="M1444.8,971c-0.8,0-1.5-0.2-2.1-0.6c-0.6-0.4-1.1-0.9-1.5-1.6c-0.4-0.7-0.5-1.5-0.5-2.4s0.2-1.7,0.5-2.4
			c0.4-0.7,0.9-1.2,1.5-1.6c0.6-0.4,1.4-0.6,2.1-0.6c0.8,0,1.5,0.2,2.1,0.6c0.6,0.4,1.1,0.9,1.5,1.6c0.4,0.7,0.5,1.5,0.5,2.4
			s-0.2,1.7-0.5,2.4c-0.4,0.7-0.9,1.2-1.5,1.6C1446.3,970.8,1445.5,971,1444.8,971z M1444.8,969.8c0.5,0,1-0.1,1.4-0.4
			s0.8-0.7,1-1.2c0.3-0.5,0.4-1.1,0.4-1.7c0-0.7-0.1-1.2-0.4-1.7c-0.3-0.5-0.6-0.9-1-1.2s-0.9-0.4-1.4-0.4c-0.5,0-1,0.1-1.4,0.4
			c-0.4,0.3-0.8,0.7-1,1.2c-0.3,0.5-0.4,1.1-0.4,1.7c0,0.7,0.1,1.2,0.4,1.7c0.3,0.5,0.6,0.9,1,1.2
			C1443.8,969.6,1444.2,969.8,1444.8,969.8z"/>
		<path class="st12" d="M1450.9,970.8v-8.7h4.5c0.5,0,0.9,0.1,1.3,0.3c0.4,0.2,0.7,0.5,0.9,0.9c0.2,0.4,0.3,0.8,0.3,1.3
			c0,0.4-0.1,0.8-0.3,1.1c-0.2,0.3-0.5,0.6-0.7,0.7v0.1c0.3,0.1,0.6,0.3,0.8,0.7c0.3,0.3,0.4,0.7,0.4,1.2c0,0.5-0.1,0.9-0.3,1.3
			c-0.2,0.4-0.5,0.7-0.9,0.9c-0.4,0.2-0.8,0.3-1.2,0.3H1450.9z M1455.2,965.9c0.4,0,0.7-0.1,0.9-0.4c0.3-0.2,0.4-0.6,0.4-0.9
			c0-0.4-0.1-0.7-0.4-0.9c-0.3-0.2-0.6-0.4-0.9-0.4h-3.1v2.6H1455.2z M1455.4,969.7c0.2,0,0.5-0.1,0.7-0.2c0.2-0.1,0.4-0.3,0.5-0.5
			c0.1-0.2,0.2-0.4,0.2-0.7c0-0.4-0.1-0.7-0.4-1c-0.3-0.3-0.6-0.4-0.9-0.4h-3.2v2.7H1455.4z"/>
		<path class="st12" d="M1463.6,971c-0.8,0-1.5-0.2-2.1-0.6c-0.6-0.4-1.1-0.9-1.5-1.6c-0.4-0.7-0.5-1.5-0.5-2.4s0.2-1.7,0.5-2.4
			c0.4-0.7,0.9-1.2,1.5-1.6c0.6-0.4,1.4-0.6,2.1-0.6c0.8,0,1.5,0.2,2.1,0.6c0.6,0.4,1.1,0.9,1.5,1.6c0.4,0.7,0.5,1.5,0.5,2.4
			s-0.2,1.7-0.5,2.4c-0.4,0.7-0.9,1.2-1.5,1.6C1465.1,970.8,1464.4,971,1463.6,971z M1463.6,969.8c0.5,0,1-0.1,1.4-0.4
			s0.8-0.7,1-1.2c0.3-0.5,0.4-1.1,0.4-1.7c0-0.7-0.1-1.2-0.4-1.7c-0.3-0.5-0.6-0.9-1-1.2s-0.9-0.4-1.4-0.4c-0.5,0-1,0.1-1.4,0.4
			c-0.4,0.3-0.8,0.7-1,1.2c-0.3,0.5-0.4,1.1-0.4,1.7c0,0.7,0.1,1.2,0.4,1.7c0.3,0.5,0.6,0.9,1,1.2
			C1462.6,969.6,1463.1,969.8,1463.6,969.8z"/>
		<path class="st12" d="M1468.2,970.8l3.6-4.5l-3.3-4.3h1.6l3.1,4.1v-4.1h1.3v4.1l3.1-4.1h1.6l-3.3,4.3l3.6,4.5h-1.6l-3.4-4.3v4.3
			h-1.3v-4.3l-3.4,4.3H1468.2z"/>
		<path class="st12" d="M1479.4,972.9v-3.3h0.2c0.4,0,0.7-0.1,0.9-0.3c0.2-0.2,0.3-0.5,0.3-0.9l0.5-6.3h5.8v7.5h1.2v3.3h-1.3v-2.1
			h-6.4v2.1H1479.4z M1481.7,969.6h4.2v-6.3h-3.3l-0.4,5.1c0,0.3-0.1,0.6-0.2,0.8C1481.9,969.4,1481.8,969.5,1481.7,969.6z"/>
		<path class="st12" d="M1492.7,971c-0.6,0-1.1-0.1-1.6-0.3c-0.5-0.2-0.8-0.6-1.1-1c-0.3-0.4-0.4-0.9-0.4-1.4c0-0.6,0.1-1.1,0.4-1.5
			c0.3-0.4,0.6-0.7,1.2-1c0.5-0.2,1.2-0.3,2-0.3h2.4v-0.3c0-0.7-0.2-1.2-0.6-1.5c-0.4-0.4-0.9-0.6-1.5-0.6c-0.6,0-1.1,0.1-1.5,0.4
			c-0.4,0.3-0.6,0.6-0.7,1.1h-1.3c0-0.5,0.2-0.9,0.5-1.3c0.3-0.4,0.7-0.7,1.2-1c0.5-0.3,1.1-0.4,1.8-0.4c0.7,0,1.3,0.1,1.8,0.4
			c0.5,0.3,0.9,0.6,1.2,1.1c0.3,0.5,0.4,1.1,0.4,1.8v5.6h-1.1l-0.2-1h-0.1c-0.2,0.3-0.5,0.6-1,0.8
			C1493.9,970.9,1493.3,971,1492.7,971z M1492.7,969.8c0.6,0,1.1-0.1,1.5-0.3c0.4-0.2,0.7-0.5,1-0.9c0.2-0.4,0.3-0.9,0.3-1.4v-0.3
			h-2.4c-0.7,0-1.3,0.1-1.6,0.4c-0.4,0.3-0.5,0.7-0.5,1.1c0,0.4,0.2,0.8,0.5,1.1C1491.7,969.6,1492.1,969.8,1492.7,969.8z"/>
		<path class="st12" d="M1505.9,971c-0.7,0-1.3-0.2-1.9-0.5c-0.6-0.3-1.1-0.8-1.4-1.4c-0.4-0.6-0.6-1.3-0.7-2.1h-1.3v3.8h-1.3v-8.7
			h1.3v3.8h1.3c0.1-0.8,0.3-1.5,0.7-2.1c0.4-0.6,0.8-1.1,1.4-1.4c0.6-0.3,1.2-0.5,1.9-0.5c0.8,0,1.4,0.2,2.1,0.6
			c0.6,0.4,1.1,0.9,1.4,1.6c0.3,0.7,0.5,1.5,0.5,2.4s-0.2,1.7-0.5,2.4c-0.3,0.7-0.8,1.2-1.4,1.6C1507.3,970.8,1506.6,971,1505.9,971
			z M1505.9,969.8c0.5,0,1-0.1,1.4-0.4c0.4-0.3,0.7-0.7,1-1.2c0.2-0.5,0.4-1.1,0.4-1.7c0-0.7-0.1-1.2-0.4-1.7
			c-0.2-0.5-0.6-0.9-1-1.2c-0.4-0.3-0.9-0.4-1.4-0.4c-0.5,0-1,0.1-1.4,0.4c-0.4,0.3-0.7,0.7-1,1.2c-0.2,0.5-0.4,1.1-0.4,1.7
			c0,0.7,0.1,1.2,0.4,1.7c0.2,0.5,0.6,0.9,1,1.2C1504.9,969.6,1505.4,969.8,1505.9,969.8z"/>
		<path class="st12" d="M1522.8,972.9v-2.1h-11v-8.7h1.3v7.5h3.6v-7.5h1.3v7.5h3.6v-7.5h1.3v7.5h1.2v3.3H1522.8z"/>
		<path class="st12" d="M1525.7,970.8v-8.7h1.3v7.2h0.3l3.3-7.2h2.3v8.7h-1.3v-7.2h-0.3l-3.3,7.2H1525.7z"/>
		<path class="st12" d="M1535.4,970.8v-8.7h1.3v7.2h0.3l3.3-7.2h2.3v8.7h-1.3v-7.2h-0.3l-3.3,7.2H1535.4z M1539,960.6
			c-0.7,0-1.2-0.2-1.7-0.6c-0.5-0.4-0.7-0.9-0.8-1.6h1.1c0,0.4,0.2,0.7,0.4,0.9c0.2,0.2,0.5,0.3,0.9,0.3c0.4,0,0.7-0.1,0.9-0.3
			s0.4-0.5,0.4-0.9h1.1c0,0.7-0.3,1.2-0.8,1.6C1540.2,960.4,1539.7,960.6,1539,960.6z"/>
		<path class="st12" d="M1398.9,990.5v-12.2h7.9v1.3h-6.5v4.1h6.1v1.3h-6.1v4.2h6.5v1.3H1398.9z"/>
		<path class="st12" d="M1413.4,990.6c-0.9,0-1.6-0.2-2.4-0.7c-0.7-0.5-1.3-1.2-1.7-2.2c-0.4-0.9-0.6-2.1-0.6-3.4
			c0-1.3,0.2-2.4,0.6-3.4c0.4-0.9,1-1.7,1.7-2.2s1.5-0.7,2.4-0.7c0.9,0,1.6,0.2,2.4,0.7s1.3,1.2,1.7,2.2c0.4,0.9,0.6,2.1,0.6,3.4
			c0,1.3-0.2,2.4-0.6,3.4c-0.4,0.9-1,1.7-1.7,2.2C1415.1,990.4,1414.3,990.6,1413.4,990.6z M1413.4,989.3c0.6,0,1.1-0.2,1.6-0.6
			c0.5-0.4,0.9-0.9,1.2-1.7c0.3-0.8,0.5-1.7,0.5-2.7c0-1.1-0.2-2-0.5-2.7c-0.3-0.8-0.7-1.3-1.2-1.7c-0.5-0.4-1.1-0.6-1.6-0.6
			s-1.1,0.2-1.6,0.6c-0.5,0.4-0.9,0.9-1.2,1.7c-0.3,0.8-0.5,1.7-0.5,2.7c0,1.1,0.2,2,0.5,2.7c0.3,0.8,0.7,1.3,1.2,1.7
			C1412.3,989.1,1412.8,989.3,1413.4,989.3z"/>
		<path class="st12" d="M1424,990.6c-0.8,0-1.5-0.2-2.1-0.5c-0.6-0.3-1.1-0.7-1.4-1.3c-0.3-0.5-0.5-1.1-0.5-1.7c0-0.5,0.1-1,0.3-1.4
			c0.2-0.4,0.4-0.7,0.7-1c0.3-0.3,0.6-0.5,0.9-0.6v-0.1c-0.4-0.2-0.8-0.5-1.1-1c-0.3-0.5-0.5-1-0.5-1.6c0-0.6,0.2-1.2,0.5-1.7
			c0.3-0.5,0.8-0.9,1.3-1.2c0.6-0.3,1.2-0.4,1.9-0.4c0.7,0,1.4,0.1,1.9,0.4c0.6,0.3,1,0.7,1.3,1.2c0.3,0.5,0.5,1.1,0.5,1.7
			c0,0.6-0.2,1.2-0.5,1.6c-0.3,0.5-0.7,0.8-1.1,1v0.1c0.5,0.2,0.9,0.6,1.3,1.1c0.4,0.5,0.6,1.2,0.6,1.9c0,0.6-0.2,1.2-0.5,1.7
			c-0.3,0.5-0.8,1-1.4,1.3C1425.5,990.5,1424.8,990.6,1424,990.6z M1424,989.3c0.5,0,0.9-0.1,1.3-0.3c0.4-0.2,0.7-0.5,0.9-0.8
			c0.2-0.3,0.3-0.7,0.3-1.2c0-0.4-0.1-0.8-0.3-1.2c-0.2-0.3-0.5-0.6-0.9-0.8c-0.4-0.2-0.8-0.3-1.3-0.3c-0.5,0-0.9,0.1-1.3,0.3
			c-0.4,0.2-0.7,0.5-0.9,0.8c-0.2,0.3-0.3,0.7-0.3,1.2c0,0.4,0.1,0.8,0.3,1.2c0.2,0.3,0.5,0.6,0.9,0.8
			C1423.1,989.2,1423.5,989.3,1424,989.3z M1424,983.6c0.5,0,0.9-0.1,1.2-0.3c0.4-0.2,0.6-0.4,0.8-0.8c0.2-0.3,0.3-0.7,0.3-1.1
			c0-0.4-0.1-0.7-0.3-1.1c-0.2-0.3-0.5-0.6-0.8-0.8c-0.4-0.2-0.8-0.3-1.2-0.3c-0.5,0-0.9,0.1-1.2,0.3c-0.4,0.2-0.6,0.4-0.8,0.8
			c-0.2,0.3-0.3,0.7-0.3,1.1c0,0.4,0.1,0.7,0.3,1.1c0.2,0.3,0.5,0.6,0.8,0.8C1423.1,983.5,1423.5,983.6,1424,983.6z"/>
	</g>
	<g>
		<path class="st0" d="M747.6,28.3c-1.1,0-2.1-0.3-3-0.8c-0.9-0.5-1.6-1.3-2.1-2.2c-0.5-1-0.8-2-0.8-3.3c0-1.2,0.3-2.3,0.8-3.3
			c0.5-1,1.2-1.7,2.1-2.2c0.9-0.5,1.9-0.8,3-0.8c0.9,0,1.7,0.2,2.4,0.5c0.7,0.3,1.4,0.8,1.9,1.4c0.5,0.6,0.9,1.3,1.1,2.2h-1.5
			c-0.2-0.6-0.5-1.1-0.9-1.5c-0.4-0.4-0.8-0.7-1.4-1c-0.5-0.2-1.1-0.3-1.7-0.3c-0.8,0-1.6,0.2-2.2,0.6c-0.7,0.4-1.2,1-1.6,1.8
			c-0.4,0.8-0.6,1.6-0.6,2.6c0,1,0.2,1.8,0.6,2.6c0.4,0.8,0.9,1.3,1.6,1.8c0.7,0.4,1.4,0.6,2.2,0.6c0.9,0,1.7-0.3,2.4-0.8
			c0.7-0.5,1.2-1.2,1.5-2.1h1.5c-0.2,0.9-0.6,1.6-1.1,2.2c-0.5,0.6-1.1,1.1-1.9,1.4C749.2,28.1,748.4,28.3,747.6,28.3z"/>
		<path class="st0" d="M754.8,28.1v-8.7h1.3v7.2h0.3l3.3-7.2h2.3v8.7h-1.3V21h-0.3l-3.3,7.2H754.8z"/>
		<path class="st0" d="M764.5,28.1v-8.7h1.3v3.8h4.6v-3.8h1.3v8.7h-1.3v-3.8h-4.6v3.8H764.5z"/>
		<path class="st0" d="M774.2,28.1v-8.7h1.3v7.2h0.3l3.3-7.2h2.3v8.7h-1.3V21h-0.3l-3.3,7.2H774.2z"/>
		<path class="st0" d="M783.9,28.1v-8.7h1.3v7.2h0.3l3.3-7.2h2.3v8.7h-1.3V21h-0.3l-3.3,7.2H783.9z M787.5,17.9
			c-0.7,0-1.2-0.2-1.7-0.6c-0.5-0.4-0.7-0.9-0.8-1.6h1.1c0,0.4,0.2,0.7,0.4,0.9c0.2,0.2,0.5,0.3,0.9,0.3s0.7-0.1,0.9-0.3
			c0.2-0.2,0.4-0.5,0.4-0.9h1.1c0,0.7-0.3,1.2-0.8,1.6C788.8,17.7,788.2,17.9,787.5,17.9z"/>
		<path class="st0" d="M742.2,47.8V35.5h7.9v1.3h-6.5V41h6.1v1.3h-6.1v4.2h6.5v1.3H742.2z"/>
		<path class="st0" d="M756.7,47.9c-0.9,0-1.6-0.2-2.4-0.7c-0.7-0.5-1.3-1.2-1.7-2.2c-0.4-0.9-0.6-2.1-0.6-3.4
			c0-1.3,0.2-2.4,0.6-3.4c0.4-0.9,1-1.7,1.7-2.2c0.7-0.5,1.5-0.7,2.4-0.7c0.9,0,1.6,0.2,2.4,0.7c0.7,0.5,1.3,1.2,1.7,2.2
			c0.4,0.9,0.6,2.1,0.6,3.4c0,1.3-0.2,2.4-0.6,3.4c-0.4,0.9-1,1.7-1.7,2.2C758.4,47.7,757.6,47.9,756.7,47.9z M756.7,46.6
			c0.6,0,1.1-0.2,1.6-0.6c0.5-0.4,0.9-0.9,1.2-1.7s0.5-1.7,0.5-2.7c0-1.1-0.2-2-0.5-2.7s-0.7-1.3-1.2-1.7c-0.5-0.4-1.1-0.6-1.6-0.6
			c-0.6,0-1.1,0.2-1.6,0.6c-0.5,0.4-0.9,0.9-1.2,1.7s-0.5,1.7-0.5,2.7c0,1.1,0.2,2,0.5,2.7s0.7,1.3,1.2,1.7
			C755.6,46.4,756.1,46.6,756.7,46.6z"/>
		<path class="st0" d="M765.4,47.8v-9.6h-2.6v-1.2h2.1c0.2,0,0.3,0,0.4-0.1c0.1-0.1,0.1-0.2,0.1-0.4v-0.9h1.4v12.2H765.4z"/>
	</g>
	<g>
		<path class="st0" d="M967.2,28.3c-1.1,0-2.1-0.3-3-0.8c-0.9-0.5-1.6-1.3-2.1-2.2c-0.5-1-0.8-2-0.8-3.3c0-1.2,0.3-2.3,0.8-3.3
			c0.5-1,1.2-1.7,2.1-2.2c0.9-0.5,1.9-0.8,3-0.8c0.9,0,1.7,0.2,2.4,0.5c0.7,0.3,1.4,0.8,1.9,1.4c0.5,0.6,0.9,1.3,1.1,2.2h-1.5
			c-0.2-0.6-0.5-1.1-0.9-1.5c-0.4-0.4-0.8-0.7-1.4-1c-0.5-0.2-1.1-0.3-1.7-0.3c-0.8,0-1.6,0.2-2.2,0.6c-0.7,0.4-1.2,1-1.6,1.8
			c-0.4,0.8-0.6,1.6-0.6,2.6c0,1,0.2,1.8,0.6,2.6c0.4,0.8,0.9,1.3,1.6,1.8c0.7,0.4,1.4,0.6,2.2,0.6c0.9,0,1.7-0.3,2.4-0.8
			c0.7-0.5,1.2-1.2,1.5-2.1h1.5c-0.2,0.9-0.6,1.6-1.1,2.2c-0.5,0.6-1.1,1.1-1.9,1.4C968.9,28.1,968.1,28.3,967.2,28.3z"/>
		<path class="st0" d="M974.4,28.1v-8.7h1.3v7.2h0.3l3.3-7.2h2.3v8.7h-1.3V21H980l-3.3,7.2H974.4z"/>
		<path class="st0" d="M984.1,28.1v-8.7h1.3v3.8h4.6v-3.8h1.3v8.7h-1.3v-3.8h-4.6v3.8H984.1z"/>
		<path class="st0" d="M993.8,28.1v-8.7h1.3v7.2h0.3l3.3-7.2h2.3v8.7h-1.3V21h-0.3l-3.3,7.2H993.8z"/>
		<path class="st0" d="M1003.5,28.1v-8.7h1.3v7.2h0.3l3.3-7.2h2.3v8.7h-1.3V21h-0.3l-3.3,7.2H1003.5z M1007.2,17.9
			c-0.7,0-1.2-0.2-1.7-0.6c-0.5-0.4-0.7-0.9-0.8-1.6h1.1c0,0.4,0.2,0.7,0.4,0.9c0.2,0.2,0.5,0.3,0.9,0.3c0.4,0,0.7-0.1,0.9-0.3
			c0.2-0.2,0.4-0.5,0.4-0.9h1.1c0,0.7-0.3,1.2-0.8,1.6C1008.4,17.7,1007.8,17.9,1007.2,17.9z"/>
		<path class="st0" d="M961.9,47.8V35.5h7.9v1.3h-6.5V41h6.1v1.3h-6.1v4.2h6.5v1.3H961.9z"/>
		<path class="st0" d="M976.4,47.9c-0.9,0-1.6-0.2-2.4-0.7c-0.7-0.5-1.3-1.2-1.7-2.2c-0.4-0.9-0.6-2.1-0.6-3.4
			c0-1.3,0.2-2.4,0.6-3.4c0.4-0.9,1-1.7,1.7-2.2c0.7-0.5,1.5-0.7,2.4-0.7c0.9,0,1.6,0.2,2.4,0.7c0.7,0.5,1.3,1.2,1.7,2.2
			c0.4,0.9,0.6,2.1,0.6,3.4c0,1.3-0.2,2.4-0.6,3.4c-0.4,0.9-1,1.7-1.7,2.2C978,47.7,977.2,47.9,976.4,47.9z M976.4,46.6
			c0.6,0,1.1-0.2,1.6-0.6c0.5-0.4,0.9-0.9,1.2-1.7s0.5-1.7,0.5-2.7c0-1.1-0.2-2-0.5-2.7s-0.7-1.3-1.2-1.7c-0.5-0.4-1.1-0.6-1.6-0.6
			c-0.6,0-1.1,0.2-1.6,0.6c-0.5,0.4-0.9,0.9-1.2,1.7s-0.5,1.7-0.5,2.7c0,1.1,0.2,2,0.5,2.7s0.7,1.3,1.2,1.7
			C975.2,46.4,975.8,46.6,976.4,46.6z"/>
		<path class="st0" d="M982.6,47.8v-1.1l5-5.3c0.4-0.4,0.6-0.8,0.8-1.1c0.2-0.3,0.2-0.7,0.2-1.2c0-0.5-0.1-0.9-0.3-1.2
			c-0.2-0.4-0.5-0.6-0.8-0.8c-0.4-0.2-0.8-0.3-1.2-0.3c-0.4,0-0.8,0.1-1.2,0.3c-0.4,0.2-0.6,0.5-0.9,0.9c-0.2,0.4-0.3,0.8-0.3,1.4
			h-1.4c0-0.7,0.2-1.4,0.5-2c0.3-0.6,0.8-1.1,1.3-1.4s1.2-0.5,1.9-0.5c0.7,0,1.4,0.2,1.9,0.5c0.6,0.3,1,0.7,1.3,1.3
			c0.3,0.6,0.5,1.2,0.5,1.9c0,0.5-0.1,0.9-0.2,1.3c-0.1,0.4-0.3,0.7-0.5,1s-0.5,0.6-0.8,1l-3.9,4.1v0.1h5.7v1.3H982.6z"/>
	</g>
	<g>
		<path class="st0" d="M1184.6,28.1V17.2h-4v-1.3h9.4v1.3h-4v10.9H1184.6z"/>
		<path class="st0" d="M1193.9,28.3c-0.8,0-1.5-0.2-2.1-0.6c-0.6-0.4-1.1-0.9-1.5-1.6c-0.4-0.7-0.5-1.5-0.5-2.4s0.2-1.7,0.5-2.4
			c0.4-0.7,0.9-1.2,1.5-1.6c0.6-0.4,1.4-0.6,2.1-0.6c0.7,0,1.4,0.2,2,0.5c0.6,0.4,1.1,0.9,1.4,1.5c0.3,0.6,0.5,1.4,0.5,2.2
			c0,0.2,0,0.4,0,0.6c0,0.2,0,0.3-0.1,0.3h-6.8c0.1,0.5,0.2,1,0.5,1.4c0.3,0.4,0.6,0.7,1,1c0.4,0.2,0.9,0.3,1.4,0.3
			c0.5,0,1-0.1,1.4-0.4c0.4-0.2,0.7-0.6,1-1h1.4c-0.2,0.6-0.5,1-0.8,1.4c-0.4,0.4-0.8,0.7-1.3,0.9
			C1195.1,28.2,1194.5,28.3,1193.9,28.3z M1196.6,23.2c0-0.5-0.2-1-0.4-1.4c-0.2-0.4-0.6-0.7-1-1c-0.4-0.2-0.8-0.3-1.3-0.3
			c-0.5,0-1,0.1-1.4,0.3c-0.4,0.2-0.8,0.6-1,1c-0.3,0.4-0.4,0.9-0.5,1.4H1196.6z"/>
		<path class="st0" d="M1199.8,28.1v-8.7h2.4l2.4,7.2h0.3l2.4-7.2h2.4v8.7h-1.3V21h-0.3l-2.4,7.2h-1.9l-2.4-7.2h-0.3v7.2H1199.8z"/>
		<path class="st0" d="M1212.2,28.1v-8.7h1.3v3.8h4.6v-3.8h1.3v8.7h-1.3v-3.8h-4.6v3.8H1212.2z"/>
		<path class="st0" d="M1225.6,28.3c-0.8,0-1.5-0.2-2.1-0.6c-0.6-0.4-1.1-0.9-1.5-1.6c-0.4-0.7-0.5-1.5-0.5-2.4s0.2-1.7,0.5-2.4
			c0.4-0.7,0.9-1.2,1.5-1.6c0.6-0.4,1.3-0.6,2.1-0.6c0.8,0,1.5,0.2,2.1,0.6c0.6,0.4,1.1,0.9,1.5,1.6c0.4,0.7,0.5,1.5,0.5,2.4
			s-0.2,1.7-0.5,2.4c-0.4,0.7-0.9,1.2-1.5,1.6C1227.1,28.1,1226.4,28.3,1225.6,28.3z M1225.6,27.1c0.5,0,1-0.1,1.4-0.4
			c0.4-0.3,0.8-0.7,1-1.2c0.3-0.5,0.4-1.1,0.4-1.7c0-0.7-0.1-1.2-0.4-1.7c-0.3-0.5-0.6-0.9-1-1.2c-0.4-0.3-0.9-0.4-1.4-0.4
			s-1,0.1-1.4,0.4s-0.8,0.7-1,1.2c-0.3,0.5-0.4,1.1-0.4,1.7c0,0.7,0.1,1.2,0.4,1.7c0.3,0.5,0.6,0.9,1,1.2S1225.1,27.1,1225.6,27.1z"
			/>
		<path class="st0" d="M1231.3,23.8v-1.2h5.6v1.2H1231.3z"/>
		<path class="st0" d="M1242.5,28.3c-0.8,0-1.5-0.2-2.1-0.6c-0.6-0.4-1.1-0.9-1.5-1.6c-0.4-0.7-0.5-1.5-0.5-2.4s0.2-1.7,0.5-2.4
			c0.4-0.7,0.9-1.2,1.5-1.6c0.6-0.4,1.4-0.6,2.1-0.6c0.6,0,1.2,0.1,1.8,0.4c0.5,0.2,1,0.6,1.3,1c0.4,0.4,0.6,1,0.8,1.6h-1.3
			c-0.2-0.6-0.5-1-0.9-1.3s-1-0.5-1.6-0.5c-0.5,0-1,0.1-1.4,0.4c-0.4,0.3-0.8,0.7-1,1.2c-0.3,0.5-0.4,1.1-0.4,1.7
			c0,0.7,0.1,1.2,0.4,1.7c0.3,0.5,0.6,0.9,1,1.2c0.4,0.3,0.9,0.4,1.4,0.4c0.6,0,1.2-0.2,1.6-0.5c0.4-0.3,0.8-0.8,0.9-1.4h1.3
			c-0.1,0.6-0.4,1.2-0.8,1.6c-0.4,0.5-0.8,0.8-1.3,1.1C1243.7,28.2,1243.1,28.3,1242.5,28.3z"/>
		<path class="st0" d="M1248.2,28.1v-8.7h1.3v7.2h0.3l3.3-7.2h2.3v8.7h-1.3V21h-0.3l-3.3,7.2H1248.2z"/>
		<path class="st0" d="M1257.9,28.1v-8.7h1.3v3.8h4.6v-3.8h1.3v8.7h-1.3v-3.8h-4.6v3.8H1257.9z"/>
		<path class="st0" d="M1267.6,28.1v-8.7h1.3v7.2h0.3l3.3-7.2h2.3v8.7h-1.3V21h-0.3l-3.3,7.2H1267.6z"/>
		<path class="st0" d="M1277.2,28.1v-8.7h1.3v7.2h0.3l3.3-7.2h2.3v8.7h-1.3V21h-0.3l-3.3,7.2H1277.2z M1280.9,17.9
			c-0.7,0-1.2-0.2-1.7-0.6c-0.5-0.4-0.7-0.9-0.8-1.6h1.1c0,0.4,0.2,0.7,0.4,0.9c0.2,0.2,0.5,0.3,0.9,0.3c0.4,0,0.7-0.1,0.9-0.3
			c0.2-0.2,0.4-0.5,0.4-0.9h1.1c0,0.7-0.3,1.2-0.8,1.6C1282.1,17.7,1281.6,17.9,1280.9,17.9z"/>
		<path class="st0" d="M1181.5,47.8V35.5h7.9v1.3h-6.5V41h6.1v1.3h-6.1v4.2h6.5v1.3H1181.5z"/>
		<path class="st0" d="M1196,47.9c-0.9,0-1.6-0.2-2.4-0.7c-0.7-0.5-1.3-1.2-1.7-2.2c-0.4-0.9-0.6-2.1-0.6-3.4c0-1.3,0.2-2.4,0.6-3.4
			c0.4-0.9,1-1.7,1.7-2.2c0.7-0.5,1.5-0.7,2.4-0.7c0.9,0,1.6,0.2,2.4,0.7c0.7,0.5,1.3,1.2,1.7,2.2c0.4,0.9,0.6,2.1,0.6,3.4
			c0,1.3-0.2,2.4-0.6,3.4c-0.4,0.9-1,1.7-1.7,2.2C1197.6,47.7,1196.9,47.9,1196,47.9z M1196,46.6c0.6,0,1.1-0.2,1.6-0.6
			c0.5-0.4,0.9-0.9,1.2-1.7c0.3-0.8,0.5-1.7,0.5-2.7c0-1.1-0.2-2-0.5-2.7c-0.3-0.8-0.7-1.3-1.2-1.7c-0.5-0.4-1.1-0.6-1.6-0.6
			s-1.1,0.2-1.6,0.6c-0.5,0.4-0.9,0.9-1.2,1.7c-0.3,0.8-0.5,1.7-0.5,2.7c0,1.1,0.2,2,0.5,2.7c0.3,0.8,0.7,1.3,1.2,1.7
			C1194.8,46.4,1195.4,46.6,1196,46.6z"/>
		<path class="st0" d="M1204.7,47.8v-9.6h-2.6v-1.2h2.1c0.2,0,0.3,0,0.4-0.1c0.1-0.1,0.1-0.2,0.1-0.4v-0.9h1.4v12.2H1204.7z"/>
	</g>
	<rect x="0" y="363.6" class="st8" width="727.3" height="363.6"/>
	<rect x="727.3" y="363.6" class="st13" width="218.2" height="363.6"/>
	<rect x="945.5" y="363.6" class="st14" width="218.2" height="363.6"/>
	<g>
		<path class="st12" d="M18.4,391.9c-1.1,0-2.1-0.3-2.9-0.8c-0.9-0.5-1.6-1.3-2.1-2.2c-0.5-1-0.8-2-0.8-3.3c0-1.2,0.3-2.3,0.8-3.3
			c0.5-1,1.2-1.7,2.1-2.2c0.9-0.5,1.9-0.8,2.9-0.8c0.9,0,1.7,0.2,2.4,0.5c0.7,0.3,1.4,0.8,1.9,1.4c0.5,0.6,0.9,1.3,1.1,2.2h-1.5
			c-0.2-0.6-0.5-1.1-0.9-1.5c-0.4-0.4-0.8-0.7-1.4-1c-0.5-0.2-1.1-0.3-1.7-0.3c-0.8,0-1.6,0.2-2.2,0.6c-0.7,0.4-1.2,1-1.6,1.8
			c-0.4,0.8-0.6,1.6-0.6,2.6c0,1,0.2,1.8,0.6,2.6c0.4,0.8,0.9,1.3,1.6,1.8c0.7,0.4,1.4,0.6,2.2,0.6c0.9,0,1.7-0.3,2.4-0.8
			c0.7-0.5,1.2-1.2,1.5-2.1h1.5c-0.2,0.9-0.6,1.6-1.1,2.2c-0.5,0.6-1.1,1.1-1.9,1.4C20,391.8,19.2,391.9,18.4,391.9z"/>
		<path class="st12" d="M29.3,391.9c-0.8,0-1.5-0.2-2.1-0.6c-0.6-0.4-1.1-0.9-1.5-1.6c-0.4-0.7-0.5-1.5-0.5-2.4
			c0-0.9,0.2-1.7,0.5-2.4c0.4-0.7,0.9-1.2,1.5-1.6c0.6-0.4,1.3-0.6,2.1-0.6c0.7,0,1.4,0.2,2,0.5c0.6,0.4,1.1,0.9,1.4,1.5
			c0.3,0.6,0.5,1.4,0.5,2.2c0,0.2,0,0.4,0,0.6c0,0.2,0,0.3-0.1,0.3h-6.8c0.1,0.5,0.2,1,0.5,1.4c0.3,0.4,0.6,0.7,1,1
			c0.4,0.2,0.9,0.3,1.4,0.3c0.5,0,1-0.1,1.4-0.4c0.4-0.2,0.7-0.6,1-1H33c-0.2,0.6-0.5,1-0.8,1.4c-0.4,0.4-0.8,0.7-1.3,0.9
			C30.4,391.8,29.9,391.9,29.3,391.9z M32,386.8c0-0.5-0.2-1-0.4-1.4c-0.2-0.4-0.6-0.7-1-1c-0.4-0.2-0.8-0.3-1.3-0.3
			c-0.5,0-1,0.1-1.4,0.3c-0.4,0.2-0.8,0.6-1,1c-0.3,0.4-0.4,0.9-0.5,1.4H32z"/>
		<path class="st12" d="M35.2,395.3V383h1.1l0.2,1.2h0.1c0.4-0.5,0.8-0.8,1.2-1c0.5-0.2,1-0.4,1.6-0.4c0.8,0,1.4,0.2,2.1,0.6
			c0.6,0.4,1.1,0.9,1.4,1.6c0.3,0.7,0.5,1.5,0.5,2.4c0,0.9-0.2,1.7-0.5,2.4c-0.3,0.7-0.8,1.2-1.4,1.6c-0.6,0.4-1.3,0.6-2.1,0.6
			c-0.6,0-1.1-0.1-1.6-0.4c-0.5-0.2-0.9-0.6-1.2-1h-0.1v4.7H35.2z M39.3,390.7c0.5,0,1-0.1,1.4-0.4c0.4-0.3,0.8-0.7,1-1.2
			c0.3-0.5,0.4-1.1,0.4-1.7c0-0.7-0.1-1.2-0.4-1.7c-0.3-0.5-0.6-0.9-1-1.2c-0.4-0.3-0.9-0.4-1.4-0.4s-1,0.1-1.4,0.4
			c-0.4,0.3-0.8,0.7-1,1.2c-0.3,0.5-0.4,1.1-0.4,1.7c0,0.7,0.1,1.2,0.4,1.7c0.3,0.5,0.6,0.9,1,1.2C38.3,390.6,38.8,390.7,39.3,390.7
			z"/>
		<path class="st12" d="M45.3,391.8V383h1.3v3H49c0.6,0,1.1,0.1,1.5,0.4c0.5,0.3,0.8,0.6,1.1,1c0.3,0.4,0.4,0.9,0.4,1.5
			s-0.1,1-0.4,1.5c-0.3,0.4-0.6,0.8-1.1,1c-0.5,0.3-1,0.4-1.5,0.4H45.3z M49,390.5c0.5,0,0.9-0.2,1.2-0.5c0.3-0.3,0.5-0.7,0.5-1.2
			c0-0.5-0.2-0.9-0.5-1.2c-0.3-0.3-0.7-0.5-1.2-0.5h-2.4v3.3H49z M53.3,391.8V383h1.3v8.7H53.3z"/>
		<path class="st12" d="M57,391.8V383h1.3v7.2h0.3L62,383h2.3v8.7H63v-7.2h-0.3l-3.3,7.2H57z M60.7,381.6c-0.7,0-1.2-0.2-1.7-0.6
			c-0.5-0.4-0.7-0.9-0.8-1.6h1.1c0,0.4,0.2,0.7,0.4,0.9c0.2,0.2,0.5,0.3,0.9,0.3c0.4,0,0.7-0.1,0.9-0.3c0.2-0.2,0.4-0.5,0.4-0.9h1.1
			c0,0.7-0.3,1.2-0.8,1.6C61.9,381.4,61.3,381.6,60.7,381.6z"/>
		<path class="st12" d="M13,411.4v-12.2h7.9v1.3h-6.5v4.1h6.1v1.3h-6.1v4.2h6.5v1.3H13z"/>
		<path class="st12" d="M27.5,411.6c-0.9,0-1.6-0.2-2.4-0.7c-0.7-0.5-1.3-1.2-1.7-2.2c-0.4-0.9-0.6-2.1-0.6-3.4
			c0-1.3,0.2-2.4,0.6-3.4c0.4-0.9,1-1.7,1.7-2.2c0.7-0.5,1.5-0.7,2.4-0.7s1.6,0.2,2.4,0.7c0.7,0.5,1.3,1.2,1.7,2.2
			c0.4,0.9,0.6,2.1,0.6,3.4c0,1.3-0.2,2.4-0.6,3.4c-0.4,0.9-1,1.7-1.7,2.2C29.2,411.3,28.4,411.6,27.5,411.6z M27.5,410.3
			c0.6,0,1.1-0.2,1.6-0.6c0.5-0.4,0.9-0.9,1.2-1.7s0.5-1.7,0.5-2.7c0-1.1-0.2-2-0.5-2.7c-0.3-0.8-0.7-1.3-1.2-1.7
			c-0.5-0.4-1.1-0.6-1.6-0.6c-0.6,0-1.1,0.2-1.6,0.6c-0.5,0.4-0.9,0.9-1.2,1.7c-0.3,0.8-0.5,1.7-0.5,2.7c0,1.1,0.2,2,0.5,2.7
			s0.7,1.3,1.2,1.7C26.4,410.1,26.9,410.3,27.5,410.3z"/>
		<path class="st12" d="M33.8,411.4v-1.1l5-5.3c0.4-0.4,0.6-0.8,0.8-1.1c0.2-0.3,0.2-0.7,0.2-1.2c0-0.5-0.1-0.9-0.3-1.2
			c-0.2-0.4-0.5-0.6-0.8-0.8c-0.4-0.2-0.8-0.3-1.2-0.3c-0.4,0-0.8,0.1-1.2,0.3c-0.4,0.2-0.6,0.5-0.9,0.9c-0.2,0.4-0.3,0.8-0.3,1.4
			h-1.4c0-0.7,0.2-1.4,0.5-2s0.8-1.1,1.3-1.4c0.6-0.3,1.2-0.5,1.9-0.5s1.4,0.2,1.9,0.5c0.6,0.3,1,0.7,1.3,1.3
			c0.3,0.6,0.5,1.2,0.5,1.9c0,0.5-0.1,0.9-0.2,1.3c-0.1,0.4-0.3,0.7-0.5,1c-0.2,0.3-0.5,0.6-0.8,1l-3.9,4.1v0.1h5.7v1.3H33.8z"/>
	</g>
	<g>
		<path class="st0" d="M742.2,391.8v-12.2h1.4v5.8l5.1-5.8h1.7l-5.4,6l5.8,6.2h-1.8l-5.5-5.9v5.9H742.2z"/>
		<path class="st0" d="M751.7,395.3V383h1.1l0.2,1.2h0.1c0.4-0.5,0.8-0.8,1.2-1c0.5-0.2,1-0.4,1.6-0.4c0.8,0,1.4,0.2,2.1,0.6
			c0.6,0.4,1.1,0.9,1.4,1.6c0.3,0.7,0.5,1.5,0.5,2.4c0,0.9-0.2,1.7-0.5,2.4c-0.3,0.7-0.8,1.2-1.4,1.6c-0.6,0.4-1.3,0.6-2.1,0.6
			c-0.6,0-1.1-0.1-1.6-0.4c-0.5-0.2-0.9-0.6-1.2-1h-0.1v4.7H751.7z M755.8,390.7c0.5,0,1-0.1,1.4-0.4c0.4-0.3,0.8-0.7,1-1.2
			c0.3-0.5,0.4-1.1,0.4-1.7c0-0.7-0.1-1.2-0.4-1.7c-0.3-0.5-0.6-0.9-1-1.2c-0.4-0.3-0.9-0.4-1.4-0.4c-0.5,0-1,0.1-1.4,0.4
			c-0.4,0.3-0.8,0.7-1,1.2c-0.3,0.5-0.4,1.1-0.4,1.7c0,0.7,0.1,1.2,0.4,1.7c0.3,0.5,0.6,0.9,1,1.2
			C754.9,390.6,755.3,390.7,755.8,390.7z"/>
		<path class="st0" d="M764.6,391.9c-0.6,0-1.1-0.1-1.6-0.3c-0.5-0.2-0.8-0.6-1.1-1c-0.3-0.4-0.4-0.9-0.4-1.4c0-0.6,0.1-1.1,0.4-1.5
			c0.3-0.4,0.6-0.7,1.2-1c0.5-0.2,1.2-0.3,2-0.3h2.4v-0.3c0-0.7-0.2-1.2-0.6-1.5c-0.4-0.4-0.9-0.6-1.5-0.6c-0.6,0-1.1,0.1-1.5,0.4
			c-0.4,0.3-0.6,0.6-0.7,1.1h-1.3c0-0.5,0.2-0.9,0.5-1.3c0.3-0.4,0.7-0.7,1.2-1c0.5-0.3,1.1-0.4,1.8-0.4c0.7,0,1.3,0.1,1.8,0.4
			c0.5,0.3,0.9,0.6,1.2,1.1c0.3,0.5,0.4,1.1,0.4,1.8v5.6h-1.1l-0.2-1h-0.1c-0.2,0.3-0.5,0.6-1,0.8
			C765.8,391.8,765.2,391.9,764.6,391.9z M764.6,390.7c0.6,0,1.1-0.1,1.5-0.3c0.4-0.2,0.7-0.5,1-0.9c0.2-0.4,0.3-0.9,0.3-1.4v-0.3
			H765c-0.7,0-1.3,0.1-1.6,0.4c-0.4,0.3-0.5,0.7-0.5,1.1c0,0.4,0.2,0.8,0.5,1.1S764,390.7,764.6,390.7z"/>
		<path class="st0" d="M774.8,391.9c-0.8,0-1.5-0.2-2.1-0.6c-0.6-0.4-1.1-0.9-1.5-1.6c-0.4-0.7-0.5-1.5-0.5-2.4
			c0-0.9,0.2-1.7,0.5-2.4c0.4-0.7,0.9-1.2,1.5-1.6c0.6-0.4,1.4-0.6,2.1-0.6c0.6,0,1.2,0.1,1.8,0.4c0.5,0.2,1,0.6,1.3,1
			c0.4,0.4,0.6,1,0.8,1.6h-1.3c-0.2-0.6-0.5-1-0.9-1.3c-0.4-0.3-1-0.5-1.6-0.5c-0.5,0-1,0.1-1.4,0.4c-0.4,0.3-0.8,0.7-1,1.2
			c-0.3,0.5-0.4,1.1-0.4,1.7c0,0.7,0.1,1.2,0.4,1.7c0.3,0.5,0.6,0.9,1,1.2c0.4,0.3,0.9,0.4,1.4,0.4c0.6,0,1.2-0.2,1.6-0.5
			c0.4-0.3,0.8-0.8,0.9-1.4h1.3c-0.1,0.6-0.4,1.2-0.8,1.6c-0.4,0.5-0.8,0.8-1.3,1.1C776,391.8,775.4,391.9,774.8,391.9z"/>
		<path class="st0" d="M780.5,391.8V383h1.3v3.8h4.6V383h1.3v8.7h-1.3V388h-4.6v3.8H780.5z"/>
		<path class="st0" d="M790.1,391.8V383h1.3v3h2.4c0.6,0,1.1,0.1,1.5,0.4c0.5,0.3,0.8,0.6,1.1,1c0.3,0.4,0.4,0.9,0.4,1.5
			s-0.1,1-0.4,1.5c-0.3,0.4-0.6,0.8-1.1,1c-0.5,0.3-1,0.4-1.5,0.4H790.1z M793.8,390.5c0.5,0,0.9-0.2,1.2-0.5
			c0.3-0.3,0.5-0.7,0.5-1.2c0-0.5-0.2-0.9-0.5-1.2c-0.3-0.3-0.7-0.5-1.2-0.5h-2.4v3.3H793.8z M798.1,391.8V383h1.3v8.7H798.1z"/>
		<path class="st0" d="M801.8,391.8V383h1.3v7.2h0.3l3.3-7.2h2.3v8.7h-1.3v-7.2h-0.3l-3.3,7.2H801.8z M805.5,381.6
			c-0.7,0-1.2-0.2-1.7-0.6s-0.7-0.9-0.8-1.6h1.1c0,0.4,0.2,0.7,0.4,0.9c0.2,0.2,0.5,0.3,0.9,0.3c0.4,0,0.7-0.1,0.9-0.3
			c0.2-0.2,0.4-0.5,0.4-0.9h1.1c0,0.7-0.3,1.2-0.8,1.6C806.7,381.4,806.2,381.6,805.5,381.6z"/>
		<path class="st0" d="M742.2,411.4v-12.2h7.9v1.3h-6.5v4.1h6.1v1.3h-6.1v4.2h6.5v1.3H742.2z"/>
		<path class="st0" d="M756.7,411.6c-0.9,0-1.6-0.2-2.4-0.7c-0.7-0.5-1.3-1.2-1.7-2.2c-0.4-0.9-0.6-2.1-0.6-3.4
			c0-1.3,0.2-2.4,0.6-3.4c0.4-0.9,1-1.7,1.7-2.2c0.7-0.5,1.5-0.7,2.4-0.7c0.9,0,1.6,0.2,2.4,0.7c0.7,0.5,1.3,1.2,1.7,2.2
			c0.4,0.9,0.6,2.1,0.6,3.4c0,1.3-0.2,2.4-0.6,3.4c-0.4,0.9-1,1.7-1.7,2.2C758.4,411.3,757.6,411.6,756.7,411.6z M756.7,410.3
			c0.6,0,1.1-0.2,1.6-0.6s0.9-0.9,1.2-1.7s0.5-1.7,0.5-2.7c0-1.1-0.2-2-0.5-2.7c-0.3-0.8-0.7-1.3-1.2-1.7c-0.5-0.4-1.1-0.6-1.6-0.6
			c-0.6,0-1.1,0.2-1.6,0.6c-0.5,0.4-0.9,0.9-1.2,1.7c-0.3,0.8-0.5,1.7-0.5,2.7c0,1.1,0.2,2,0.5,2.7s0.7,1.3,1.2,1.7
			S756.1,410.3,756.7,410.3z"/>
		<path class="st0" d="M765.4,411.4v-9.6h-2.6v-1.2h2.1c0.2,0,0.3,0,0.4-0.1c0.1-0.1,0.1-0.2,0.1-0.4v-0.9h1.4v12.2H765.4z"/>
	</g>
	<g>
		<path class="st0" d="M961.9,391.8v-12.2h1.4v5.8l5.1-5.8h1.7l-5.4,6l5.8,6.2h-1.8l-5.5-5.9v5.9H961.9z"/>
		<path class="st0" d="M971.4,395.3V383h1.1l0.2,1.2h0.1c0.4-0.5,0.8-0.8,1.2-1c0.5-0.2,1-0.4,1.6-0.4c0.8,0,1.4,0.2,2.1,0.6
			c0.6,0.4,1.1,0.9,1.4,1.6c0.3,0.7,0.5,1.5,0.5,2.4c0,0.9-0.2,1.7-0.5,2.4c-0.3,0.7-0.8,1.2-1.4,1.6c-0.6,0.4-1.3,0.6-2.1,0.6
			c-0.6,0-1.1-0.1-1.6-0.4s-0.9-0.6-1.2-1h-0.1v4.7H971.4z M975.5,390.7c0.5,0,1-0.1,1.4-0.4c0.4-0.3,0.8-0.7,1-1.2
			c0.3-0.5,0.4-1.1,0.4-1.7c0-0.7-0.1-1.2-0.4-1.7c-0.3-0.5-0.6-0.9-1-1.2c-0.4-0.3-0.9-0.4-1.4-0.4c-0.5,0-1,0.1-1.4,0.4
			c-0.4,0.3-0.8,0.7-1,1.2c-0.3,0.5-0.4,1.1-0.4,1.7c0,0.7,0.1,1.2,0.4,1.7c0.3,0.5,0.6,0.9,1,1.2
			C974.5,390.6,975,390.7,975.5,390.7z"/>
		<path class="st0" d="M984.2,391.9c-0.6,0-1.1-0.1-1.6-0.3c-0.5-0.2-0.8-0.6-1.1-1c-0.3-0.4-0.4-0.9-0.4-1.4c0-0.6,0.1-1.1,0.4-1.5
			c0.3-0.4,0.6-0.7,1.2-1c0.5-0.2,1.2-0.3,2-0.3h2.4v-0.3c0-0.7-0.2-1.2-0.6-1.5c-0.4-0.4-0.9-0.6-1.5-0.6c-0.6,0-1.1,0.1-1.5,0.4
			c-0.4,0.3-0.6,0.6-0.7,1.1h-1.3c0-0.5,0.2-0.9,0.5-1.3c0.3-0.4,0.7-0.7,1.2-1c0.5-0.3,1.1-0.4,1.8-0.4c0.7,0,1.3,0.1,1.8,0.4
			c0.5,0.3,0.9,0.6,1.2,1.1c0.3,0.5,0.4,1.1,0.4,1.8v5.6h-1.1l-0.2-1h-0.1c-0.2,0.3-0.5,0.6-1,0.8
			C985.4,391.8,984.9,391.9,984.2,391.9z M984.2,390.7c0.6,0,1.1-0.1,1.5-0.3c0.4-0.2,0.7-0.5,1-0.9c0.2-0.4,0.3-0.9,0.3-1.4v-0.3
			h-2.4c-0.7,0-1.3,0.1-1.6,0.4c-0.4,0.3-0.5,0.7-0.5,1.1c0,0.4,0.2,0.8,0.5,1.1C983.2,390.6,983.7,390.7,984.2,390.7z"/>
		<path class="st0" d="M994.4,391.9c-0.8,0-1.5-0.2-2.1-0.6c-0.6-0.4-1.1-0.9-1.5-1.6c-0.4-0.7-0.5-1.5-0.5-2.4
			c0-0.9,0.2-1.7,0.5-2.4c0.4-0.7,0.9-1.2,1.5-1.6c0.6-0.4,1.4-0.6,2.1-0.6c0.6,0,1.2,0.1,1.8,0.4c0.5,0.2,1,0.6,1.3,1
			c0.4,0.4,0.6,1,0.8,1.6H997c-0.2-0.6-0.5-1-0.9-1.3c-0.4-0.3-1-0.5-1.6-0.5c-0.5,0-1,0.1-1.4,0.4c-0.4,0.3-0.8,0.7-1,1.2
			c-0.3,0.5-0.4,1.1-0.4,1.7c0,0.7,0.1,1.2,0.4,1.7c0.3,0.5,0.6,0.9,1,1.2c0.4,0.3,0.9,0.4,1.4,0.4c0.6,0,1.2-0.2,1.6-0.5
			c0.4-0.3,0.8-0.8,0.9-1.4h1.3c-0.1,0.6-0.4,1.2-0.8,1.6c-0.4,0.5-0.8,0.8-1.3,1.1C995.6,391.8,995.1,391.9,994.4,391.9z"/>
		<path class="st0" d="M1000.1,391.8V383h1.3v3.8h4.6V383h1.3v8.7h-1.3V388h-4.6v3.8H1000.1z"/>
		<path class="st0" d="M1009.8,391.8V383h1.3v3h2.4c0.6,0,1.1,0.1,1.5,0.4c0.5,0.3,0.8,0.6,1.1,1c0.3,0.4,0.4,0.9,0.4,1.5
			s-0.1,1-0.4,1.5c-0.3,0.4-0.6,0.8-1.1,1c-0.5,0.3-1,0.4-1.5,0.4H1009.8z M1013.4,390.5c0.5,0,0.9-0.2,1.2-0.5
			c0.3-0.3,0.5-0.7,0.5-1.2c0-0.5-0.2-0.9-0.5-1.2c-0.3-0.3-0.7-0.5-1.2-0.5h-2.4v3.3H1013.4z M1017.7,391.8V383h1.3v8.7H1017.7z"/>
		<path class="st0" d="M1021.5,391.8V383h1.3v7.2h0.3l3.3-7.2h2.3v8.7h-1.3v-7.2h-0.3l-3.3,7.2H1021.5z M1025.1,381.6
			c-0.7,0-1.2-0.2-1.7-0.6s-0.7-0.9-0.8-1.6h1.1c0,0.4,0.2,0.7,0.4,0.9c0.2,0.2,0.5,0.3,0.9,0.3c0.4,0,0.7-0.1,0.9-0.3
			c0.2-0.2,0.4-0.5,0.4-0.9h1.1c0,0.7-0.3,1.2-0.8,1.6C1026.4,381.4,1025.8,381.6,1025.1,381.6z"/>
		<path class="st0" d="M961.9,411.4v-12.2h7.9v1.3h-6.5v4.1h6.1v1.3h-6.1v4.2h6.5v1.3H961.9z"/>
		<path class="st0" d="M976.4,411.6c-0.9,0-1.6-0.2-2.4-0.7c-0.7-0.5-1.3-1.2-1.7-2.2c-0.4-0.9-0.6-2.1-0.6-3.4
			c0-1.3,0.2-2.4,0.6-3.4c0.4-0.9,1-1.7,1.7-2.2c0.7-0.5,1.5-0.7,2.4-0.7c0.9,0,1.6,0.2,2.4,0.7c0.7,0.5,1.3,1.2,1.7,2.2
			c0.4,0.9,0.6,2.1,0.6,3.4c0,1.3-0.2,2.4-0.6,3.4c-0.4,0.9-1,1.7-1.7,2.2C978,411.3,977.2,411.6,976.4,411.6z M976.4,410.3
			c0.6,0,1.1-0.2,1.6-0.6s0.9-0.9,1.2-1.7s0.5-1.7,0.5-2.7c0-1.1-0.2-2-0.5-2.7c-0.3-0.8-0.7-1.3-1.2-1.7c-0.5-0.4-1.1-0.6-1.6-0.6
			c-0.6,0-1.1,0.2-1.6,0.6c-0.5,0.4-0.9,0.9-1.2,1.7c-0.3,0.8-0.5,1.7-0.5,2.7c0,1.1,0.2,2,0.5,2.7s0.7,1.3,1.2,1.7
			S975.8,410.3,976.4,410.3z"/>
		<path class="st0" d="M982.6,411.4v-1.1l5-5.3c0.4-0.4,0.6-0.8,0.8-1.1c0.2-0.3,0.2-0.7,0.2-1.2c0-0.5-0.1-0.9-0.3-1.2
			c-0.2-0.4-0.5-0.6-0.8-0.8c-0.4-0.2-0.8-0.3-1.2-0.3c-0.4,0-0.8,0.1-1.2,0.3c-0.4,0.2-0.6,0.5-0.9,0.9c-0.2,0.4-0.3,0.8-0.3,1.4
			h-1.4c0-0.7,0.2-1.4,0.5-2c0.3-0.6,0.8-1.1,1.3-1.4c0.6-0.3,1.2-0.5,1.9-0.5c0.7,0,1.4,0.2,1.9,0.5c0.6,0.3,1,0.7,1.3,1.3
			c0.3,0.6,0.5,1.2,0.5,1.9c0,0.5-0.1,0.9-0.2,1.3c-0.1,0.4-0.3,0.7-0.5,1s-0.5,0.6-0.8,1l-3.9,4.1v0.1h5.7v1.3H982.6z"/>
	</g>
</g>
</svg>
