<?xml version="1.0" encoding="utf-8"?>
<!-- Generator: Adobe Illustrator 22.0.0, SVG Export Plug-In . SVG Version: 6.00 Build 0)  -->
<svg version="1.1" id="Layer_1" xmlns="http://www.w3.org/2000/svg" xmlns:xlink="http://www.w3.org/1999/xlink" x="0px" y="0px"
	 viewBox="0 0 878 242.5" style="enable-background:new 0 0 878 242.5;" xml:space="preserve">
<style type="text/css">
	.st0{fill:#1B1B2D;}
</style>
<g>
	<path class="st0" d="M389,201.2c-12.3,0-23.3-2.6-33.2-7.7c-9.8-5.1-17.9-11.9-24.1-20.5c-6.2-8.6-10.4-17.9-12.4-28h26.2
		c1.8,6.1,4.7,11.5,8.7,16.2c4,4.7,9,8.5,15,11.2c6,2.7,12.6,4.1,19.9,4.1c8.6,0,16.3-2,23.2-5.9c6.9-3.9,12.4-9.2,16.6-16
		c4.2-6.7,6.8-14.1,7.7-22.1H371v-23.1h65.5c-0.9-8-3.4-15.3-7.7-22c-4.2-6.7-9.8-11.9-16.6-15.8c-6.9-3.8-14.6-5.8-23.2-5.8
		c-10.7,0-19.8,2.9-27.5,8.5c-7.7,5.7-13,13-16,21.9h-26.2c2.4-9.9,6.7-19.1,13.1-27.4c6.4-8.4,14.4-15.1,24.1-20.1
		c9.7-5,20.5-7.5,32.5-7.5c13.8,0,26.4,3.4,37.8,10.2c11.5,6.8,20.5,16.3,27.1,28.4c6.6,12.1,9.9,25.9,9.9,41.3
		c0,15.4-3.3,29.2-9.9,41.3c-6.6,12.1-15.6,21.6-27.1,28.4C415.4,197.8,402.8,201.2,389,201.2z"/>
	<path class="st0" d="M467.4,200v-25.3h6.2c5,0,9-1.4,11.9-4.3c2.9-2.9,4.6-7.4,5.2-13.7l9.5-113.2h102.1v155.4h-25.7V68.2h-52.8
		l-7.8,92.6c-1.2,13.3-5.1,23.2-11.7,29.6c-6.6,6.4-15.8,9.7-27.6,9.7H467.4z"/>
	<path class="st0" d="M665.1,198.9V68.2h-47.5V43.6h120.7v24.6h-47.5v130.7H665.1z"/>
	<path class="st0" d="M727.7,198.9l56.4-155.4h37.5L878,198.9h-28L805,70.9h-4.4l-45.1,128.1H727.7z M763,163v-23.1h80.1V163H763z"
		/>
</g>
<g>
	<path class="st0" d="M229.1,121.2c0,26.6-8.2,52.5-23.6,74.3c-15.4,21.7-37.1,38.2-62.2,47v-30.8c17.2-8.1,31.6-20.9,41.8-37
		c10.1-16.1,15.5-34.6,15.5-53.5s-5.4-37.5-15.6-53.5c-10.1-16.1-24.6-28.8-41.8-36.9V0c25.1,8.9,46.9,25.3,62.3,47
		C220.8,68.6,229.1,94.7,229.1,121.2z"/>
	<rect y="106.9" class="st0" width="114.5" height="28.6"/>
	<path class="st0" d="M171.8,121.2c0-9.4-1.8-18.7-5.4-27.4s-8.9-16.5-15.5-23.2c-6.6-6.6-14.6-11.9-23.2-15.5s-18-5.4-27.4-5.4
		H57.4v28.5h85.9V164H57.4v28.6h42.9c9.4,0,18.7-1.8,27.4-5.4c8.7-3.6,16.6-8.9,23.2-15.5s11.9-14.5,15.5-23.2
		C170,139.9,171.8,130.6,171.8,121.2z"/>
</g>
</svg>
