<?xml version="1.0" encoding="utf-8"?>
<!-- Generator: Adobe Illustrator 22.0.0, SVG Export Plug-In . SVG Version: 6.00 Build 0)  -->
<svg version="1.1" id="Layer_1" xmlns="http://www.w3.org/2000/svg" xmlns:xlink="http://www.w3.org/1999/xlink" x="0px" y="0px"
	 viewBox="0 0 498.4 134.4" style="enable-background:new 0 0 498.4 134.4;" xml:space="preserve">
<style type="text/css">
	.st0{fill:#1B1B2D;}
	.st1{fill:#1B1B27;}
</style>
<g>
	<g>
		<path class="st0" d="M249.2,67.2c0,28.5-17.5,47.6-45.2,47.6c-21.7,0-36.6-12.7-39.8-32.2h15.9c3.1,11.5,11.5,18.9,24.7,18.9
			c15.8,0,26.5-11.1,28.5-28.1h-36V60.2h36C231.2,43.7,221.2,33,205.7,33c-13.4,0-21.8,7.3-24.9,18.8h-15.9
			c3.2-19.5,18.6-32.2,40.2-32.2C232.7,19.6,249.2,38.4,249.2,67.2z"/>
		<path class="st0" d="M250.7,114v-13.6h2.4c9.6,0,13.9-6.1,13.9-33.8V20.4h67.6V114h-15.4V34h-37.6v33.7c0,34.9-8.4,46.3-26.7,46.3
			H250.7z"/>
		<path class="st0" d="M345.9,20.4H419V34h-28.9V114h-15.4V34h-28.9V20.4z"/>
		<path class="st0" d="M410.2,114l35-93.6h18.3l34.9,93.6H482l-8.8-23.1h-38.4l-8.7,23.1H410.2z M439.1,77.7h29.8l-15-40.8
			L439.1,77.7z"/>
	</g>
	<g>
		<path class="st1" d="M126.8,67.2c0,14.7-4.6,29.1-13.1,41.1s-20.5,21.1-34.4,26.1v-17.1c9.5-4.5,17.5-11.6,23.1-20.5
			c5.6-8.9,8.6-19.2,8.6-29.7c0-10.5-3-20.8-8.6-29.6c-5.6-8.9-13.7-16-23.2-20.4V0c13.9,4.9,26,14,34.5,26
			C122.3,38.1,126.8,52.5,126.8,67.2z"/>
		<rect y="59.3" class="st1" width="63.4" height="15.8"/>
		<path class="st1" d="M95.1,67.2c0-5.2-1-10.3-3-15.2c-2-4.8-4.9-9.2-8.6-12.8c-3.7-3.7-8.1-6.6-12.9-8.6c-4.8-2-10-3-15.2-3H31.7
			v15.8h47.5v47.5H31.7v15.8h23.8c5.2,0,10.4-1,15.2-3s9.2-4.9,12.9-8.6c3.7-3.7,6.6-8,8.6-12.8C94.1,77.5,95.1,72.4,95.1,67.2z"/>
	</g>
</g>
</svg>
