<?xml version="1.0" encoding="utf-8"?>
<!-- Generator: Adobe Illustrator 22.0.0, SVG Export Plug-In . SVG Version: 6.00 Build 0)  -->
<svg version="1.1" id="Layer_1" xmlns="http://www.w3.org/2000/svg" xmlns:xlink="http://www.w3.org/1999/xlink" x="0px" y="0px"
	 viewBox="0 0 633.9 667.7" style="enable-background:new 0 0 633.9 667.7;" xml:space="preserve">
<style type="text/css">
	.st0{fill:#E8E8EA;}
	.st1{fill:#1B1B2D;}
	.st2{opacity:0.1;}
</style>
<rect class="st0" width="633.9" height="667.7"/>
<g>
	<path class="st1" d="M47.6,619.1v-5.3L67,593.5c1.4-1.4,2.4-2.7,3-3.9c0.6-1.2,0.9-2.6,0.9-4.3c0-1.7-0.4-3.2-1.1-4.5
		c-0.7-1.3-1.7-2.3-3-3c-1.3-0.7-2.8-1.1-4.5-1.1c-1.6,0-3,0.4-4.4,1.2c-1.3,0.8-2.4,2-3.1,3.4c-0.8,1.5-1.2,3.1-1.2,5h-6.4
		c0-3,0.6-5.7,1.9-8.1c1.3-2.4,3.1-4.2,5.4-5.6c2.3-1.3,4.9-2,7.8-2c2.9,0,5.5,0.6,7.8,1.8c2.3,1.2,4.1,2.9,5.4,5.1
		c1.3,2.2,1.9,4.7,1.9,7.6c0,1.9-0.3,3.5-0.8,5c-0.5,1.5-1.2,2.8-2.1,4c-0.9,1.2-2,2.5-3.3,3.8l-14.4,14.7v0.3h21.4v6H47.6z"/>
	<path class="st1" d="M101,619.7c-3.4,0-6.5-1-9.4-2.9s-5.1-4.7-6.8-8.4c-1.7-3.7-2.5-8.1-2.5-13.3c0-5.1,0.8-9.6,2.5-13.3
		c1.7-3.7,4-6.5,6.8-8.4c2.9-1.9,6-2.9,9.4-2.9c3.5,0,6.6,1,9.4,2.9c2.8,1.9,5.1,4.7,6.8,8.4c1.7,3.7,2.5,8.1,2.5,13.3
		c0,5.1-0.8,9.6-2.5,13.3c-1.7,3.7-3.9,6.5-6.8,8.4C107.6,618.8,104.4,619.7,101,619.7z M101,613.7c2.2,0,4.3-0.7,6.2-2.1
		c1.9-1.4,3.4-3.5,4.5-6.3c1.1-2.8,1.7-6.2,1.7-10.1c0-4-0.6-7.3-1.7-10.1c-1.1-2.8-2.6-4.9-4.5-6.3c-1.9-1.4-3.9-2.1-6.2-2.1
		c-2.2,0-4.2,0.7-6.1,2.1c-1.9,1.4-3.4,3.5-4.5,6.3c-1.1,2.8-1.7,6.2-1.7,10.1c0,4,0.6,7.3,1.7,10.1c1.1,2.8,2.6,4.9,4.5,6.3
		C96.8,613,98.8,613.7,101,613.7z"/>
	<path class="st1" d="M123.6,619.1v-5.3l19.4-20.2c1.4-1.4,2.4-2.7,3-3.9c0.6-1.2,0.9-2.6,0.9-4.3c0-1.7-0.4-3.2-1.1-4.5
		c-0.7-1.3-1.7-2.3-3-3c-1.3-0.7-2.8-1.1-4.5-1.1c-1.6,0-3,0.4-4.4,1.2c-1.3,0.8-2.4,2-3.1,3.4c-0.8,1.5-1.2,3.1-1.2,5h-6.4
		c0-3,0.6-5.7,1.9-8.1c1.3-2.4,3.1-4.2,5.4-5.6c2.3-1.3,4.9-2,7.8-2c2.9,0,5.5,0.6,7.8,1.8c2.3,1.2,4.1,2.9,5.4,5.1
		c1.3,2.2,1.9,4.7,1.9,7.6c0,1.9-0.3,3.5-0.8,5c-0.5,1.5-1.2,2.8-2.1,4c-0.9,1.2-2,2.5-3.3,3.8l-14.4,14.7v0.3h21.4v6H123.6z"/>
	<path class="st1" d="M173,619.7c-3.2,0-6-0.6-8.4-1.8c-2.4-1.2-4.3-2.9-5.6-5c-1.3-2.1-2-4.4-2-6.9h6.4c0,1.4,0.4,2.7,1.2,3.9
		c0.8,1.2,1.9,2.1,3.3,2.8c1.5,0.7,3.2,1,5.1,1c1.9,0,3.6-0.3,5-1c1.4-0.7,2.5-1.6,3.3-2.9c0.8-1.2,1.2-2.6,1.2-4
		c0-2.4-0.9-4.4-2.6-5.9c-1.7-1.5-4.1-2.3-7-2.3h-3.1v-5.8h3.1c1.9,0,3.5-0.4,4.9-1.1c1.3-0.7,2.4-1.6,3-2.8c0.7-1.2,1-2.5,1-3.9
		c0-1.3-0.4-2.5-1.1-3.7c-0.7-1.1-1.8-2-3.1-2.7c-1.4-0.7-2.9-1-4.6-1c-1.7,0-3.2,0.3-4.6,1c-1.4,0.7-2.4,1.6-3.2,2.7
		c-0.8,1.1-1.2,2.3-1.2,3.6h-6.4c0-2.4,0.6-4.6,1.9-6.6c1.3-2,3.1-3.6,5.5-4.9c2.4-1.2,5-1.8,8-1.8c3,0,5.6,0.6,7.9,1.8
		c2.3,1.2,4.1,2.8,5.4,4.8c1.3,2,1.9,4.3,1.9,6.7c0,1.8-0.4,3.4-1.1,4.9c-0.8,1.4-1.7,2.6-2.8,3.6c-1.1,1-2.2,1.6-3.4,2v0.3
		c2,0.7,3.9,2,5.5,4s2.5,4.4,2.5,7.1c0,2.5-0.7,4.9-2,6.9c-1.4,2.1-3.3,3.7-5.7,5C178.9,619.1,176.1,619.7,173,619.7z"/>
</g>
<g class="st2">
	<path class="st1" d="M587,333.9c0,62.7-19.4,123.8-55.6,175s-87.4,89.9-146.6,110.9V547c40.4-19.1,74.6-49.3,98.5-87.1
		c23.9-37.8,36.6-81.5,36.6-126.2c0-44.7-12.7-88.4-36.7-126.1c-23.9-37.7-58.1-67.9-98.5-87V47.9c59.2,20.9,110.4,59.6,146.7,110.8
		C567.5,210,587,271.2,587,333.9z"/>
	<rect x="47.2" y="300.2" class="st1" width="269.9" height="67.4"/>
	<path class="st1" d="M452,333.9c0-22.1-4.4-44-12.8-64.5c-8.5-20.4-20.9-39-36.6-54.7c-15.7-15.6-34.3-28.1-54.7-36.5
		c-20.5-8.5-42.4-12.8-64.6-12.8H182.2v67.4h202.3v202.2H182.2v67.4h101.1c22.2,0,44.1-4.3,64.6-12.8c20.5-8.5,39.1-20.9,54.8-36.5
		c15.7-15.6,28.1-34.2,36.6-54.7C447.6,377.9,452,356,452,333.9z"/>
</g>
<g>
	<path class="st1" d="M56.6,86.3c-2.5-1.2-4.5-2.9-6.1-5c-1.6-2.1-2.7-4.4-3.2-7h6.1c0.8,2.5,2.2,4.5,4.2,6c2,1.5,4.4,2.3,7.3,2.3
		c2.2,0,4.2-0.5,6.1-1.6c1.8-1,3.3-2.5,4.5-4.3c1.2-1.8,1.8-3.9,2-6.1H60.1v-5.3h17.3c-0.2-2.2-0.9-4.2-2-6
		c-1.2-1.8-2.7-3.2-4.5-4.3c-1.8-1-3.9-1.6-6.1-1.6c-2.8,0-5.2,0.7-7.2,2.2c-2,1.5-3.5,3.4-4.3,5.7h-6.1c0.7-2.5,1.8-4.8,3.4-6.8
		s3.7-3.7,6.1-4.9c2.4-1.2,5.1-1.8,8-1.8c3.5,0,6.6,0.9,9.5,2.6c2.9,1.7,5.1,4.1,6.8,7.2c1.7,3.1,2.5,6.5,2.5,10.4
		c0,3.9-0.8,7.4-2.5,10.4c-1.7,3.1-3.9,5.5-6.8,7.2c-2.9,1.7-6,2.6-9.5,2.6C61.8,88.1,59,87.5,56.6,86.3z"/>
	<path class="st1" d="M85,87.8v-5.8h1.7c2.6,0,4-1.5,4.3-4.5l2.5-29.2h25.3v39.2h-5.9V53.9h-14l-2.1,24.2c-0.3,3.3-1.2,5.7-2.8,7.3
		c-1.6,1.6-3.9,2.4-6.8,2.4H85z"/>
	<path class="st1" d="M142,87.5h-5.9V53.9h-12.3v-5.6h30.5v5.6H142V87.5z"/>
	<path class="st1" d="M189,87.5h-6.3l-3.4-9.4h-18l-3.4,9.4h-6.4L166,48.3h8.6L189,87.5z M169.7,54.6l-6.6,18.2h14.2l-6.6-18.2
		H169.7z"/>
</g>
</svg>
